<?xml version="1.0" encoding="utf-8"?>
<!-- Generator: Adobe Illustrator 21.1.0, SVG Export Plug-In . SVG Version: 6.00 Build 0)  -->
<svg version="1.1" id="Layer_1" xmlns="http://www.w3.org/2000/svg" xmlns:xlink="http://www.w3.org/1999/xlink" x="0px" y="0px"
	 viewBox="0 0 10 10" style="enable-background:new 0 0 10 10;" xml:space="preserve">
<style type="text/css">
	.st0{opacity:0.7;fill:#2C2C2C;enable-background:new    ;}
</style>
<g>
	<path id="Path_942" class="st0" d="M8,5c0-0.3-0.1-0.5-0.3-0.7l-3.9-4C3.5-0.1,2.9-0.1,2.5,0.2c0,0,0,0-0.1,0.1
		c-0.4,0.4-0.4,1,0,1.4c0,0,0,0,0,0L5.6,5L2.3,8.3c-0.4,0.4-0.5,1-0.1,1.4c0,0,0,0,0,0c0.3,0.4,0.9,0.5,1.3,0.1c0,0,0,0,0.1,0
		l0.1-0.1l3.9-4C7.8,5.5,8,5.2,8,5z"/>
</g>
</svg>
