<?xml version="1.0" encoding="utf-8"?>
<!-- Generator: Adobe Illustrator 19.1.0, SVG Export Plug-In . SVG Version: 6.00 Build 0)  -->
<svg version="1.1" id="Layer_1" xmlns="http://www.w3.org/2000/svg" xmlns:xlink="http://www.w3.org/1999/xlink" x="0px" y="0px"
	 viewBox="0 0 220 220" enable-background="new 0 0 220 220" xml:space="preserve">
<g>
	<path fill="#0A0A0B" d="M169.3,98.6c2.4-5.4,4.8-10.7,7.2-16.1c5-0.4,10.2-1.6,13.6,5.8c-0.8,4.7-1.6,9.3-2.4,14
		c-3.7-0.1-4-2.6-3-7.2c0.4-1.7-1.1-4.2-1.7-6.3c-1.7,1.1-4.2,1.7-4.9,3.5c-0.9,2.5-1.2,7.5-0.2,8.8c2.3,2.8,5.6,4,8.4,5.8
		c5.7,1.4,10.2-1.8,13.7-8c4.3-3.1,3.8-7.5,0.7-11c-7.6-8.7-14.9-19.5-23.6-24.7c-11.1-6.6-23.4-9.8-35.4-12.1
		c-30.1-5.7-57.6,3-80.1,34.4c-4,5.5-8.4,10.4-12.9,15.8c-6.8-15.9-12.7-32-25.9-37.6c-0.5-0.2-0.9-0.5-1.4-0.7
		c0.1,0.8,0.1,1.5,0.2,2.3c1.7,5.1,3.3,10.2,5,15.3c0.4,0.8,0.7,1.6,1.1,2.4l-0.2,0.2c3.5,13,2.1,25.5-1.9,37.8
		c-1.9,6-3.2,12.3-5.3,20.2c13.2-2.4,19.3-16.1,26.8-27.4c1.3,1.5,2.6,2.4,3.3,3.9c20.2,38.8,48,49.7,80.2,44.4
		c2.6-0.4,5.1-1,7.7-1.5c2.8,6.2,5.7,12.4,8.5,18.6c0,0,0,0,0,0c-0.9,0-1.9,0-2.8-0.1c-4.7,0.1-9.4,0.3-14.1,0.3
		c-21,0.2-41.5-3.3-59.2-20.9c-8.6-8.5-16.1-19.1-24.3-29c-1.1,2.5-2.6,5.9-4.1,9.3c-1,1.3-2,2.6-3,3.9c-0.5,0.7-1,1.4-1.4,2.1
		c-0.5,0.6-1,1.2-1.4,1.8c-8.2,6.5-16.1,14.3-26.8,10c0-2.7,0-5.2,0-7.8c0.3-0.3,0.5-0.7,0.5-1.3c0.2-1,0.4-1.9,0.5-2.9
		c3.1-12.7,6.2-25.3,9.3-38c0.6-4.3,2.6-9.4,1.6-12.6C16.3,77.9,10.2,62,4.3,45.9c-1.3-7.2,2.2-5.8,4.9-5.4
		c15.5,2.1,26,15.5,34.9,32.3c2.2,4.2,3.9,8.9,6.1,13.8c4-6.2,7.6-12.4,11.6-17.9c22.6-31.3,50.2-40.1,80.6-35.6
		c23.8,3.5,44.5,15.9,60.3,42.4c2.4,4.1,4.4,8.6,6.5,13.1c2.8,6,2.6,11.3-2.3,15c-4.2,3.5-8.2,7.6-12.6,10.4
		C185.8,119.3,173.1,117.6,169.3,98.6z"/>
	<path fill="#FDE508" d="M132,151.8c-2.2-3.7-4.6-7.1-6.4-11.1c-5-10.5-5-10.6-11.4-2.6c-3.9,4.7-7.9,9.3-12.6,14.8
		c-4.3-9.1-8.4-17.5-12.9-26.8c-3.4,2.9-6.5,5.5-9.6,8.3c-3.7,3.3-6,1.9-8.6-3.4c-6.3-12.5-7.1-23.8,0.5-35.9
		c3-4.8,4.8-11.1,7.8-18.1c4.2,7.6,7.7,14,11.8,21.5c5.3-10.4,10.1-19.9,16.1-31.7c3.1,9.3,5.2,15.8,7.5,22.2c0.8,2.2,2.1,4,3.1,5.9
		c1.3-1.6,3-2.8,4-4.8c3.6-7.6,6.9-15.4,10.3-23.1c0.6,0.3,1.2,0.7,1.8,1c0,27.4,0,54.8,0,82.2C133,150.8,132.5,151.3,132,151.8z"/>
	<path fill="#B3B2CD" d="M26.7,80.6c-1.7-5.1-3.3-10.2-5-15.3c0.4-0.5,0.8-1,1.2-1.5c13.2,5.6,19.1,21.6,25.9,37.6
		c4.4-5.4,8.9-10.3,12.9-15.8c22.5-31.3,50-40,80.1-34.4c12,2.3,24.3,5.5,35.4,12.1c8.8,5.2,16,15.9,23.6,24.7c3,3.5,3.6,7.9-0.7,11
		c-3.3-3.6-6.6-7.1-10-10.7c-3.4-7.4-8.5-6.3-13.6-5.8c1.6-1.2,3.1-2.3,6.8-5c-10-5-18.3-11.8-27-13.1c-17.4-2.7-35.1-4.3-52.6-2.9
		c-18.3,1.5-32.6,18-46,34.4c-11.6,14.1-11,14.3-20.2-2.2c-2.5-4.5-6.6-7-10-10.5c0,0,0.2-0.2,0.2-0.2c0-1.1,0-2.1,0-3.2
		C27.4,80.1,27,80.4,26.7,80.6z"/>
	<path fill="#0C0C0D" d="M199.3,155.2c-0.9,1.4-1.9,2.8-2.8,4.2c-10.3,10-21.5,14-34,11.9c-12.8-2.2-20.7-11.9-21.7-29.8
		c-0.8-14.2-0.1-28.7-0.1-43c1.4-2.7,2.8-5.4,4.2-8.1c0.6,3,1.6,5.9,1.7,8.9c0.3,8-0.3,16.2,0.3,24.1c2,26.2,15.6,38.5,33.2,30.7
		c14.6-6.5,23.4-22.7,32.1-39.1c1.2-2.3,2.3-4.9,3.4-7.4c0.7,0.1,1.5,0.3,2.2,0.4c-0.4,4.1,0.1,9.1-1.3,12.3
		c-5,11.3-10.6,22-16.1,33C200.2,153.9,199.7,154.5,199.3,155.2z"/>
	<path fill="#B4B3CE" d="M42.4,139c1.5-3.4,3-6.7,4.1-9.3c8.2,9.9,15.8,20.5,24.3,29c17.7,17.6,38.2,21,59.2,20.9
		c4.7,0,9.4-0.2,14.1-0.3c0,0.4,0,0.9-0.1,1.3c0.3,1.9,0.6,3.8,0.9,6.1c-25.7,1.7-51.5,5-74.4-15.8c-8.6-7.8-15.9-18.3-23.8-27.6
		C45.3,141.7,43.8,140.4,42.4,139z"/>
	<path fill="#B2B1CC" d="M140.7,98.4c0,14.4-0.8,28.8,0.1,43c1,17.9,8.9,27.6,21.7,29.8c12.4,2.1,23.7-1.9,34-11.9
		c-1,10.3-7.2,14.8-12.5,16.7c-8.8,3.1-18.2,3-27.4,3.9c-3.2,0.3-6.5-0.4-9.7-0.6c-2.8-6.2-5.7-12.4-8.5-18.6
		c-0.7-8.7-1.8-17.3-1.9-26c-0.1-10.6,0.4-21.2,1-31.8C137.6,101.3,139.6,99.9,140.7,98.4z"/>
	<path fill="#B5B4CF" d="M169.3,98.6c3.7,19,16.4,20.7,25.1,15.4c4.4-2.7,8.4-6.9,12.6-10.4c0.2,0.6,0.5,1.3,0.4,1.8
		c-3.5,15.8-27.4,25.7-36.1,15.1C166.2,114.2,165.6,107.6,169.3,98.6z"/>
	<path fill="#B8B7D3" d="M4.3,45.9c5.8,16.1,12,32,17.3,48.4c1,3.2-1,8.3-1.6,12.6c-6-16.9-12.2-33.8-17.8-51
		C1.5,53.5,3.6,49.3,4.3,45.9z"/>
	<path fill="#ADADC2" d="M9.8,149c0,2.6,0,5.1,0,7.8c10.7,4.4,18.6-3.5,26.8-10c-4,14.5-16.4,22.5-31.7,18.9
		C6.6,159.8,8.2,154.4,9.8,149z"/>
	<path fill="#B2B1CC" d="M144,180.6c0.1-0.4,0.1-0.9,0.1-1.3c0.9,0,1.9,0,2.8,0.1C145.9,179.8,144.9,180.2,144,180.6z"/>
	<path fill="#ADADC2" d="M38,145c0.5-0.7,1-1.4,1.4-2.1C38.9,143.6,38.5,144.3,38,145z"/>
	<path fill="#ADADC2" d="M10.8,144.9c-0.2,1-0.4,1.9-0.5,2.9C10.4,146.8,10.6,145.8,10.8,144.9z"/>
	<path fill="#B2B1CC" d="M199.3,155.2c0.4-0.7,0.9-1.3,1.3-2C200.2,153.9,199.7,154.5,199.3,155.2z"/>
	<path fill="#B4B3C4" d="M187.7,102.3c-0.4,1.6-0.9,3.1-1.3,4.7c-2.9-1.8-6.2-3-8.4-5.8c-1-1.3-0.7-6.3,0.2-8.8
		c0.7-1.9,3.2-2.4,4.9-3.5c0.6,2.1,2.1,4.7,1.7,6.3C183.7,99.7,184,102.2,187.7,102.3z"/>
	<path fill="#FCFCFC" d="M26.7,80.6c0.4-0.3,0.7-0.5,1.1-0.8c0,1.1,0,2.1,0,3.2C27.4,82.2,27,81.4,26.7,80.6z"/>
	<path fill="#B3B2CD" d="M21.7,65.4c-0.1-0.8-0.1-1.5-0.2-2.3c0.5,0.2,0.9,0.5,1.4,0.7C22.5,64.4,22.1,64.9,21.7,65.4z"/>
</g>
</svg>
