<svg xmlns="http://www.w3.org/2000/svg" viewBox="0 0 272.2 73.2" >
<path fill="#FEFEFE" d="M74.1,0.1c64.7,0,129.3,0,194-0.1c3.4,0,4.1,0.7,4.1,4.1c-0.2,22-0.1,44,0,66c0,2.5-0.6,3.1-3.1,3.1c-88.7-0.1-177.3-0.1-266,0c-2.5,0-3.1-0.6-3.1-3.1c0.1-22.3,0.1-44.7,0-67C0,0.6,0.6,0,3.1,0c23.3,0.1,46.7,0.1,70,0.1c0.4,1.2-0.5,2-1.3,2.4c-7.4,3.8-7.6,10.7-7.6,17.6c0,2.6-0.1,5.3,0.5,8.2c0.9-3.5-1.3-7.6,2.6-10.1c0.5-0.3,0.1-0.7-0.1-1.1c-3.1-6.3-1.9-10.2,4.1-13.7C72.6,2.5,73.8,1.8,74.1,0.1z"/>
<path fill="#171616" d="M74.1,0.1c1.8,1.7,2,3.3-0.7,3.8c-4.1,0.7-5.8,3.5-6.8,7c-0.8,2.7-1.7,5.5,2.9,5.2c0.9-0.1,1.7,0.2,1.7,1.3c0,0.8-0.6,1.2-1.3,1.2c-5.8-0.3-3.7,3.8-4,6.8c-0.2,2,2.8,5.8-1.4,5.9c-3.1,0-1.4-3.8-1.2-5.7c0.3-4.1-1.1-7.9,0-12.4C64.8,6.9,67.8,3,73.1,0.1C73.4,0.1,73.7,0.1,74.1,0.1z"/>
<path fill="#0F0F0F" d="M148.3,17.2c3.2-0.6,6.7-2.6,9.9,1.2c-2.9,1.3-4.5,3.4-5.4,6.2c-0.7,2.1-1.4,3.6,1.2,4.9c1.2,0.6,2.7,1.7,1.3,3.6c-1.6,2-2.5,0.4-3.5-0.7c-1.8-2.2-4.1-2-6.4-1.1c-3.3,1.4-6.3,1.2-8.5-1.7c-2.4-3.1-1.6-6.3,0.5-9.2c1.2-1.7,2.2-3.3,2-5.4c0-0.3,0-0.7,0.1-1c0.4-2.9,2.2-4.3,4.9-4.8c1.5-0.3,3.2-0.6,4.1,0.9c1.6,2.5-0.2,4.3-1.6,6.2c-1.1,1.7-2,3.4-0.2,5.2c0.6,0.7,1.4,1.8,2.4,0.9c1-0.9,0.1-1.7-0.7-2.2C147.1,19.2,145.7,18.3,148.3,17.2z"/>
<path fill="#31B4E1" d="M169.6,56.1c1.9-3.4,2.1-6.6,2.3-9.7c0.1-1.2,0.5-2.5,2-2.2c1.8,0.3,1.1,1.7,0.8,2.8c-1.3,4.1-2.5,8.3-2.7,12.6c-0.1,1.2-0.2,2.4-1.7,2.5c-1.4,0.1-1.9-1-2.5-2c-1.8-3.3-3.6-6.6-5.7-10.3c-3.1,3.3-3.6,7.5-5.8,10.8c-0.6,0.9-0.8,2.4-2.3,2.1c-1.2-0.3-1-1.6-1.1-2.5c-0.9-4.4-1.7-8.8-2.6-13.2c-0.2-0.9-0.4-2.2,0.8-2.5c1.7-0.4,1.8,1,2,2.1c0,0.2,0,0.3,0,0.5c0.8,2.6,0,7.5,2,7.5c3,0,3.3-4.7,5.1-7.1c0.7-1,0.4-3,2.1-3.1c2-0.1,1.9,2.1,2.4,3.3C166.1,50.4,167.1,53.4,169.6,56.1z"/>
<path fill="#0F0F0F" d="M170.6,21.5c0.7-3.3,0.3-7.3-0.4-11.2c-0.4-2.7,0.8-3.5,3.3-3.4c6.3,0.3,8.1,2.6,6.5,8.9c-0.5,1.9,0.8,2.3,1.6,3.2c2.8,3.1,2.4,6.5,0.1,9.5c-2.6,3.3-6.5,3.7-10.4,3.4c-1.4-0.1-1.4-1.6-1.4-2.8C170.2,26.8,170.4,24.5,170.6,21.5z"/>
<path fill="#151414" d="M122.3,10.3c2.1,5.7,0.1,11.7,1.3,17.5c0.3,1.5,0.5,3,0.5,4.4c0.1,1.3,0.1,2.9-1.8,2.9c-1.9,0.1-1.5-1.4-1.5-2.5c0-2-0.6-2.6-2.7-1.9c-3.2,1-6.6,1-7.9-2.9c-1.3-4-0.2-8,3.9-9.7c4.6-1.8,7.1-3.8,4.9-9.1c-0.6-1.4-0.3-3.3,1.9-3.1C124.2,6.4,122.4,8.8,122.3,10.3z"/>
<path fill="#1B1B1B" d="M251.9,19.2c3.4-1.4,7-1.5,9.9-3.6c0.7-0.5,2.2-0.1,3.4,0c1.1,0.2,1.9,0.8,1.6,2c-0.3,1-1.1,1.7-2.3,1.1c-1.4-0.7-3.1-1.5-3.5,0.7c-0.4,1.8,1.7,1.6,2.9,2c3.7,1.1,4.6,3.6,3.4,7c-1.3,3.4-4.1,4.1-7.3,3.5c-1-0.2-2-0.7-1.7-2c0.2-1.2,1.2-0.9,2-0.8c2.2,0.3,4.4,0,4.7-2.5c0.3-2.5-2.2-2.8-3.9-2.9c-2.2-0.2-2-4.1-5-3c-3.4,1.2-4.5,3.6-4.2,6.9c0.1,1.4,0.8,3.3-1.6,3.3c-2.5,0-1.8-2-1.5-3.3c0.5-2.8,0.1-5.6-0.1-8.4c-0.1-1.7-1.2-4.1,1.7-4.2C253,15,250.7,17.8,251.9,19.2z"/>
<path fill="#0F0F0F" d="M228.2,24.4c0.6,3.2,0.5,6.9-0.1,10.5c-0.8,4.9-5.4,7.6-10.1,6.2c-1.2-0.4-2.1-0.9-2-2.4c0.2-1.9,1.4-1.4,2.5-1.1c1.4,0.5,2.9,0.8,4.4,0.3c2.2-0.9,2.7-3,2.7-4.9c0-2.1-2-1.6-3.4-1.8c-3.5-0.4-6.6-1.2-7.4-5.3c-0.8-4.3,1.4-6.9,4.9-8.8c8.3-4.4,8.4-4.3,8.4,5C228.2,22.6,228.2,23.3,228.2,24.4z"/>
<path fill="#28B4DD" d="M73.5,63.1c-5.7,0.1-9-3-9-8.3c0-6.2,4.4-10.7,10.5-10.9c5.9-0.1,8.9,2.6,8.9,8.2C83.9,58.4,79.6,63,73.5,63.1z"/>
<path fill="#141414" d="M100.7,15.6c5.1,0,7.6,2.1,7.6,6.5c0,5.6-4,9.2-10.2,9.1c-4.9-0.1-7.8-2.5-7.8-6.5C90.3,19.1,94.5,15.5,100.7,15.6z"/>
<path fill="#111111" d="M79.2,31.1c-5.3,0.1-8.1-2.2-8.1-6.6c0-5.4,3.8-8.9,9.8-9c5.3-0.1,8.2,2.2,8.2,6.5C89.1,27.3,84.9,31,79.2,31.1z"/>
<path fill="#161515" d="M46.4,17.7c3-3.4,5.6-3.5,8.4-2.5c2.8,1,3.3,3.5,3.3,6.1c0,3.1,0,6.3,0,9.4c0,1.2,0.1,2.5-1.2,3c-1.4,0.5-2.1-0.2-2.3-1.6c-0.4-2.3-2.1-1-3.2-1c-2.1,0-4-0.1-4.8-2.5c-0.8-2.3,0.7-3.7,2.3-5c0.8-0.6,1.7-1,2.5-1.6c1.1-0.9,4-0.1,3.3-2.7c-0.6-2.2-2.8-1.9-4.6-2C49.2,17.4,48.4,17.5,46.4,17.7z"/>
<path fill="#36B3E5" d="M117.2,51.4c0-3,0-6,0-9c0-1,0-2.2,1.3-2.3c1.3-0.1,1.5,1.1,1.5,2.1c0,1,0,2,0,3c0.2,2.8-1.7,7.4,4.6,5.1c1.7-0.6,3,1.1,3.3,3c0.3,2.1,0.4,4.4-0.4,6.4c-0.4,1.1-0.2,3.2-2,2.8c-2.1-0.4-0.8-2.1-0.7-3.3c0.1-0.5,0.2-1,0.2-1.5c0.1-1.7,1-4.2-1.5-4.5c-2.7-0.4-3.5,1.7-3.6,4.2c-0.1,1.8,1.4,5-1.2,5c-3.3,0-1.3-3.4-1.6-5.2C116.9,55.5,117.2,53.4,117.2,51.4C117.2,51.4,117.2,51.4,117.2,51.4z"/>
<path fill="#1B1A1A" d="M32,26.3c-1.9-1.5-1.6,0.5-2.1,1.3c-1.9,3.3-4.9,4.8-8.6,5.1c-1,0.1-2.2,0.1-2.3-1.3c-0.1-1.1,1-1.1,1.8-1.2c2.9-0.3,5.9-0.7,6.5-4.2c0.6-3.5-2.3-4.8-4.7-6.3c-2.6-1.6-4.5-3.7-3.2-7c1.4-3.5,4.4-4.7,8-4.7c1.2,0,2.4,0.5,2.2,2c-0.2,1.3-1.4,1.2-2.4,1c-2.2-0.5-4.1,0-4.9,2.2c-0.9,2.6,1.4,3.7,3.1,4.4c3.1,1.3,4,4.6,6.5,6.3C32.7,24.7,32.7,25.5,32,26.3z"/>
<path fill="#161616" d="M200.1,23.6c0,1.8,0,3.7,0,5.5c0,1,0.3,2.1-0.9,2.6c-1.2,0.5-1.7-0.4-2.2-1.4c-1-2-1.8,0-2.5,0.3c-2,1-3.9,2.2-6,0.6c-2.3-1.7-2.6-4-2-6.7c0.5-2.4,0.7-4.9,1.2-7.4c0.2-1.1,1-1.7,2.2-1.4c1.4,0.3,1.1,1.3,0.8,2.3c-0.5,2.1-1,4.2-1.4,6.3c-0.3,1.8-0.5,3.9,1.8,4.6c2.2,0.6,3.8-0.7,4.9-2.6c1.4-2.5,1.2-5.2,0.8-7.8c-0.2-1.5-0.1-2.8,1.7-2.8c2.1,0,1.6,1.6,1.5,2.9c-0.1,1.7-0.2,3.3-0.2,5C199.9,23.6,200,23.6,200.1,23.6z"/>
<path fill="#151414" d="M32,26.3c0-0.8,0-1.6,0-2.4c1.2-6,4.7-8.9,9.7-8.3c2.4,0.3,3.4,1.7,3.6,4c0.2,3-1.9,2.5-3.7,2.6c-0.7,0-1.3,0-2,0.1c-2,0.3-5-0.8-5.1,2.4c-0.1,2.8,2.2,4.1,5,4.7c1.7,0.3,3.7-0.1,5.3,1.1C40.2,33.8,34.3,31.8,32,26.3z"/>
<path fill="#181818" d="M245.5,31.1c-4.5,1.9-8.2,1.1-11.5-1.3c-3-2.2-2.6-5.6-1.5-8.6c1.4-3.8,4.4-5.7,8.5-5.6c2.5,0.1,4,1.1,4.2,3.8c0.3,3.3-2,2.7-3.9,2.8c-0.5,0-1,0-1.5,0.1c-1.8,0.4-4.9-1.2-5.1,2.1c-0.2,3.2,2.3,4.4,5.2,4.9C241.5,29.6,243.2,29,245.5,31.1z"/>
<path fill="#37B1E0" d="M177.4,50.4c4.4-2.6,7.2-1.6,7.7,3c0.4,3.3,0.2,6.6,0.1,9.9c-0.1,2.2-1.1,3.6-2.8,1c-0.8-1.3-1.7-1.3-2.9-1.3c-1.8-0.1-3.4-0.4-3.6-2.6c-0.2-1.9,0.9-3,2.3-4.1c1.3-1,4.1-0.8,3.7-3.3C181.4,50.8,178.6,51.8,177.4,50.4z"/>
<path fill="#3CB5E1" d="M86,56.9c0-1.6-0.1-2.9,0-4.3c0-0.6,0.1-1.4,0.5-1.9c1.4-1.6,10.1,1.1,10.7,3.3c0.8,3-0.1,5.9-1,8.8c-0.3,0.9-0.9,1.5-1.8,1.2c-1.5-0.5-0.9-1.5-0.5-2.4c0.6-1.4,1-2.8,1-4.3c0-1.9-0.6-3.2-2.8-3.3c-2.1,0-2.8,1.1-3.2,3c-0.4,1.9,1.5,5.6-1.4,5.4C84.2,62.3,87,58.6,86,56.9z"/>
<path fill="#36B5E5" d="M141.7,61.8c-4.2,1.8-7.1,1.8-9.7-0.6c-2.2-2-1.8-4.4-0.8-6.9c1.3-3.1,4-3.9,6.9-3.9c1.7,0,3.2,0.8,3.5,2.8c0.3,2.1-1,2.4-2.7,2.6c-1.9,0.3-5.2-1-5.4,1.6c-0.2,3.2,3.3,2.9,5.6,3.5C139.5,61.1,140,61.3,141.7,61.8z"/>
<path fill="#36B6E2" d="M208.5,61.7c-4.7,2.1-8,1.8-10.7-1c-2-2.1-1.4-4.6-0.2-6.9c1.4-2.7,3.9-3.6,6.6-3.4c1.7,0.1,3.3,0.8,3.5,2.9c0.2,2.3-1.9,1.7-3.1,2.4c-1.7,0.9-5.3-1-5.2,2c0.1,2.7,3.4,3.1,5.9,3.4C206.1,61.1,206.7,61.3,208.5,61.7z"/>
<path fill="#40B3DC" d="M115.3,61.6c-4,1.3-6,0.1-6.7-3.3c-0.3-1.9,0-3.9-2-5.4c-1.7-1.3,0.5-1.9,1.2-2.3c2.4-1.5-0.2-6.2,2.9-6.1c3.1,0.1-0.3,4.6,1.6,5.7c3.3,2,2.7,3-0.1,4.8c-1.5,0.9-1.5,2.5-0.2,3.8C113.1,59.7,114.2,60.6,115.3,61.6z"/>
<path fill="#3DB4DF" d="M197.4,51.7c-6.5,3.8-6.6,4.5-2.6,8.6c0.6,0.6,1.5,1,0.9,2c-0.5,0.8-1.4,0.8-2.2,0.5c-0.7-0.4-1.5-0.8-2.1-1.3c-2.8-2.6-2.9-14.3-0.3-16.8c0.3-0.3,0.9-0.4,1.3-0.3c0.9,0.2,0.7,1,0.7,1.6C193,48.5,192.3,51.2,197.4,51.7z"/>
<path fill="#201F1F" d="M209.1,19.1c0.6-0.3,1.3-0.6,2.1-0.8c1-0.3,2.3-1.3,2.9,0.4c0.5,1.4-0.5,2-1.8,2.4c-3.5,1.1-4.6,3.5-3.6,7c0.5,1.8,0.1,3-2,3c-2.2,0-1.4-1.7-1.4-2.9c0-2.8,0-5.6,0.1-8.4c0-1.7-1.2-4.2,1.3-4.6C209.7,14.5,207.4,18,209.1,19.1z"/>
<path fill="#25B4E8" d="M217.9,52.8c-3.1,2.1-5,4.3-4.6,7.9c0.1,0.8-0.3,1.7-1.4,1.6c-1.1-0.1-1-1.1-1.1-1.9c0-0.3,0-0.7,0-1c0.1-2.8-0.9-6.2,0.5-8.2C212.7,49.4,215.1,53.7,217.9,52.8z"/>
<path fill="#E9E9E9" d="M148.3,17.2c-0.5,0.7-2.6,1.5,0.2,2c1.4,0.2,3.2,0,2.9,2.4c-0.2,1.3-0.3,3-1.7,3.3c-1.6,0.4-2.5-1.3-3.5-2.3c-2.1-2.4-4-5,0.9-6.4C147.5,16.5,147.9,16.9,148.3,17.2z"/>
<path fill="#F3F3F3" d="M143.7,29.3c-3.3-0.2-5.3-1.8-5.3-4.9c0-1.4,0.8-4.4,2.2-3.5c2.5,1.6,4.5,4.3,5.8,7C147.1,29.4,144.5,28.8,143.7,29.3z"/>
<path fill="#E2E2E2" d="M143.4,16c-1.1-0.1-1.4-0.8-1.4-1.7c0.1-1.8,1.2-2.7,2.8-2.9c1-0.2,1.4,0.7,1.4,1.6C146.1,14.7,144.7,15.4,143.4,16z"/>
<path fill="#F2F2F2" d="M175.6,19.6c2.9,0.3,5.1,1.6,5.1,4.4c0,2.8-1.8,5-4.8,5.4c-2.6,0.3-3-1.7-2.6-3.6C173.7,23.7,171.5,20.3,175.6,19.6z"/>
<path fill="#EAEAEA" d="M175.6,10.1c1.7,0.2,2.6,1.4,2.6,3.3c-0.1,2.1-1.5,3-3.3,3c-2.8-0.1-1.2-2.5-1.6-3.8C172.9,11.2,173.4,9.9,175.6,10.1z"/>
<path fill="#F9F9F9" d="M120.1,23.3c0.4,3.2-0.1,5.4-3.6,5.3c-2.6-0.1-4.2-1.7-4-4c0.3-2.8,1.9-5.5,5.2-5.6C121.4,18.8,119.6,21.9,120.1,23.3z"/>
<path fill="#F2F2F2" d="M225.4,22.7c0.5,3.3,1.2,6.1-2.4,6.1c-2.9,0-5.5-1.7-5.6-4.6c-0.1-3.2,2.1-5.9,5.4-6.1C227.1,17.9,225,21.7,225.4,22.7z"/>
<path fill="#FBFDFE" d="M75.5,46.3c3.4,0.2,5.3,2.5,5.6,6.3c0.3,4.1-3.3,8.1-7,8.2c-3.4,0.1-6.8-3.1-7-6.5C66.8,50.4,70.7,46.4,75.5,46.3z"/>
<path fill="#FCFCFC" d="M99,28.6c-3.3-0.3-5.5-1.7-5.3-5c0.2-3.7,2.7-5.6,6.3-5.6c3.3,0,5.5,1.6,5.2,5.1C104.9,26.9,102.2,28.3,99,28.6z"/>
<path fill="#FBFBFB" d="M80.2,18c3.4,0,5.7,1.4,5.7,4.5c0.1,3.7-2.3,5.8-6,5.9c-3.2,0.1-5.8-1.2-5.7-4.7C74.3,20,77,18.4,80.2,18z"/>
<path fill="#F0F0F0" d="M51.8,28.5c-1-0.2-2.6,0-2.5-1.6c0.1-2.1,2-2.4,3.6-2.8c1-0.2,2.2-0.2,2.2,1.2C55,27.4,53.7,28.3,51.8,28.5z"/>
<path fill="#D0D0D0" d="M42.1,18.7c-1.9,1.9-3.4,1.7-5.1,0.8C38.3,17.4,39.9,17.9,42.1,18.7z"/>
<path fill="#EFEFEF" d="M236.1,19.8c1.2-2.3,3-2.3,5-1.8c0.7,0.2,1.2,1,0.6,1.4C240,20.8,238.1,20.2,236.1,19.8z"/>
<path fill="#D9F0F8" d="M180.3,60.8c-0.9,0-1.8-0.4-1.8-1.2c0-1.1,0.9-1.7,2-1.9c1-0.3,1.6,0.3,1.7,1.2C182.2,60,181.3,60.5,180.3,60.8z"/>
</svg>