<?xml version="1.0" encoding="utf-8"?>
<!-- Generator: Adobe Illustrator 19.1.0, SVG Export Plug-In . SVG Version: 6.00 Build 0)  -->
<svg version="1.1" id="Layer_1" xmlns="http://www.w3.org/2000/svg" xmlns:xlink="http://www.w3.org/1999/xlink" x="0px" y="0px"
	 viewBox="-44 164.9 248.8 65.6" style="enable-background:new -44 164.9 248.8 65.6;" xml:space="preserve">
<style type="text/css">
	.st0{fill:#171616;}
	.st1{fill:#0F0F0F;}
	.st2{fill:#31B4E1;}
	.st3{fill:#151414;}
	.st4{fill:#1B1B1B;}
	.st5{fill:#28B4DD;}
	.st6{fill:#141414;}
	.st7{fill:#111111;}
	.st8{fill:#161515;}
	.st9{fill:#36B3E5;}
	.st10{fill:#1B1A1A;}
	.st11{fill:#161616;}
	.st12{fill:#181818;}
	.st13{fill:#37B1E0;}
	.st14{fill:#3CB5E1;}
	.st15{fill:#36B5E5;}
	.st16{fill:#36B6E2;}
	.st17{fill:#40B3DC;}
	.st18{fill:#3DB4DF;}
	.st19{fill:#201F1F;}
	.st20{fill:#25B4E8;}
</style>
<path class="st0" d="M11.1,164.9c1.8,1.7,2,3.3-0.7,3.8c-4.1,0.7-5.8,3.5-6.8,7c-0.8,2.7-1.7,5.5,2.9,5.2c0.9-0.1,1.7,0.2,1.7,1.3
	c0,0.8-0.6,1.2-1.3,1.2c-5.8-0.3-3.7,3.8-4,6.8c-0.2,2,2.8,5.8-1.4,5.9c-3.1,0-1.4-3.8-1.2-5.7c0.3-4.1-1.1-7.9,0-12.4
	c1.5-6.3,4.5-10.2,9.8-13.1C10.4,164.9,10.7,164.9,11.1,164.9z"/>
<path class="st1" d="M91,194.3c-2.6-1.3-1.9-2.8-1.2-4.9c0.9-2.8,2.5-4.9,5.4-6.2c-3.2-3.8-6.7-1.8-9.9-1.2c-0.5,0.7-2.6,1.5,0.2,2
	c1.4,0.2,3.2,0,2.9,2.4c-0.2,1.3-0.3,3-1.7,3.3c-1.6,0.4-2.5-1.3-3.5-2.3c-2.1-2.4-4-4.9,0.7-6.4c1.4-1.9,3.2-3.7,1.6-6.1
	c-0.9-1.5-2.6-1.2-4.1-0.9c-2.7,0.5-4.5,1.9-4.9,4.8c-0.1,0.3-0.1,0.7-0.1,1c0.2,2.1-0.8,3.7-2,5.4c-2.1,2.9-2.9,6.1-0.5,9.2
	c2.2,2.9,5.2,3.1,8.5,1.7c2.3-0.9,4.6-1.1,6.4,1.1c1,1.1,1.9,2.7,3.5,0.7C93.7,196,92.2,194.9,91,194.3z M81.8,176.2
	c1-0.2,1.4,0.7,1.4,1.6c-0.1,1.7-1.5,2.4-2.8,3c-1.1-0.1-1.4-0.8-1.4-1.7C79.1,177.3,80.2,176.4,81.8,176.2z M80.7,194.1
	c-3.3-0.2-5.3-1.8-5.3-4.9c0-1.4,0.8-4.4,2.2-3.5c2.5,1.6,4.5,4.3,5.8,7C84.1,194.2,81.5,193.6,80.7,194.1z"/>
<path class="st2" d="M106.6,220.9c1.9-3.4,2.1-6.6,2.3-9.7c0.1-1.2,0.5-2.5,2-2.2c1.8,0.3,1.1,1.7,0.8,2.8
	c-1.3,4.1-2.5,8.3-2.7,12.6c-0.1,1.2-0.2,2.4-1.7,2.5c-1.4,0.1-1.9-1-2.5-2c-1.8-3.3-3.6-6.6-5.7-10.3c-3.1,3.3-3.6,7.5-5.8,10.8
	c-0.6,0.9-0.8,2.4-2.3,2.1c-1.2-0.3-1-1.6-1.1-2.5c-0.9-4.4-1.7-8.8-2.6-13.2c-0.2-0.9-0.4-2.2,0.8-2.5c1.7-0.4,1.8,1,2,2.1
	c0,0.2,0,0.3,0,0.5c0.8,2.6,0,7.5,2,7.5c3,0,3.3-4.7,5.1-7.1c0.7-1,0.4-3,2.1-3.1c2-0.1,1.9,2.1,2.4,3.3
	C103.1,215.2,104.1,218.2,106.6,220.9z"/>
<path class="st1" d="M118.6,183.8c-0.8-0.9-2.1-1.3-1.6-3.2c1.6-6.3-0.2-8.6-6.5-8.9c-2.5-0.1-3.7,0.7-3.3,3.4
	c0.7,3.9,1.1,7.9,0.4,11.2c-0.2,3-0.4,5.3-0.7,7.6c0,1.2,0,2.7,1.4,2.8c3.9,0.3,7.8-0.1,10.4-3.4C121,190.3,121.4,186.9,118.6,183.8
	z M112.6,174.9c1.7,0.2,2.6,1.4,2.6,3.3c-0.1,2.1-1.5,3-3.3,3c-2.8-0.1-1.2-2.5-1.6-3.8C109.9,176,110.4,174.7,112.6,174.9z
	 M112.9,194.2c-2.6,0.3-3-1.7-2.6-3.6c0.4-2.1-1.8-5.5,2.3-6.2c2.9,0.3,5.1,1.6,5.1,4.4S115.9,193.8,112.9,194.2z"/>
<path class="st3" d="M61.1,197c0-1.4-0.2-2.9-0.5-4.4c-1.2-5.8,0.8-11.8-1.3-17.5c0.1-1.5,1.9-3.9-1.4-4.4c-2.2-0.2-2.5,1.7-1.9,3.1
	c2.2,5.3-0.3,7.3-4.9,9.1c-4.1,1.7-5.2,5.7-3.9,9.7c1.3,3.9,4.7,3.9,7.9,2.9c2.1-0.7,2.7-0.1,2.7,1.9c0,1.1-0.4,2.6,1.5,2.5
	C61.2,199.9,61.2,198.3,61.1,197z M53.5,193.4c-2.6-0.1-4.2-1.7-4-4c0.3-2.8,1.9-5.5,5.2-5.6c3.7-0.2,1.9,2.9,2.4,4.3
	C57.5,191.3,57,193.5,53.5,193.4z"/>
<path class="st4" d="M188.9,184c3.4-1.4,7-1.5,9.9-3.6c0.7-0.5,2.2-0.1,3.4,0c1.1,0.2,1.9,0.8,1.6,2c-0.3,1-1.1,1.7-2.3,1.1
	c-1.4-0.7-3.1-1.5-3.5,0.7c-0.4,1.8,1.7,1.6,2.9,2c3.7,1.1,4.6,3.6,3.4,7c-1.3,3.4-4.1,4.1-7.3,3.5c-1-0.2-2-0.7-1.7-2
	c0.2-1.2,1.2-0.9,2-0.8c2.2,0.3,4.4,0,4.7-2.5c0.3-2.5-2.2-2.8-3.9-2.9c-2.2-0.2-2-4.1-5-3c-3.4,1.2-4.5,3.6-4.2,6.9
	c0.1,1.4,0.8,3.3-1.6,3.3c-2.5,0-1.8-2-1.5-3.3c0.5-2.8,0.1-5.6-0.1-8.4c-0.1-1.7-1.2-4.1,1.7-4.2C190,179.8,187.7,182.6,188.9,184z
	"/>
<path class="st1" d="M165.2,189.2c0-1.1,0-1.8-0.1-2.3c0-9.3-0.1-9.4-8.4-5c-3.5,1.9-5.7,4.5-4.9,8.8c0.8,4.1,3.9,4.9,7.4,5.3
	c1.4,0.2,3.4-0.3,3.4,1.8c0,1.9-0.5,4-2.7,4.9c-1.5,0.5-3,0.2-4.4-0.3c-1.1-0.3-2.3-0.8-2.5,1.1c-0.1,1.5,0.8,2,2,2.4
	c4.7,1.4,9.3-1.3,10.1-6.2C165.7,196.1,165.8,192.4,165.2,189.2z M160,193.6c-2.9,0-5.5-1.7-5.6-4.6c-0.1-3.2,2.1-5.9,5.4-6.1
	c4.3-0.2,2.2,3.6,2.6,4.6C162.9,190.8,163.6,193.6,160,193.6z"/>
<path class="st5" d="M12,208.7c-6.1,0.2-10.5,4.7-10.5,10.9c0,5.3,3.3,8.4,9,8.3c6.1-0.1,10.4-4.7,10.4-11
	C20.9,211.3,17.9,208.6,12,208.7z M11.1,225.6c-3.4,0.1-6.8-3.1-7-6.5c-0.3-3.9,3.6-7.9,8.4-8c3.4,0.2,5.3,2.5,5.6,6.3
	C18.4,221.5,14.8,225.5,11.1,225.6z"/>
<path class="st6" d="M37.7,180.4c-6.2-0.1-10.4,3.5-10.4,9.1c0,4,2.9,6.4,7.8,6.5c6.2,0.1,10.2-3.5,10.2-9.1
	C45.3,182.5,42.8,180.4,37.7,180.4z M42.2,187.9c-0.3,3.8-3,5.2-6.2,5.5c-3.3-0.3-5.5-1.7-5.3-5c0.2-3.7,2.7-5.6,6.3-5.6
	C40.3,182.8,42.5,184.4,42.2,187.9z"/>
<path class="st7" d="M17.9,180.3c-6,0.1-9.8,3.6-9.8,9c0,4.4,2.8,6.7,8.1,6.6c5.7-0.1,9.9-3.8,9.9-9.1
	C26.1,182.5,23.2,180.2,17.9,180.3z M18,193.1c-3.2,0.1-5.8-1.2-5.7-4.7c0.1-3.7,2.8-5.3,6-5.7c3.4,0,5.7,1.4,5.7,4.5
	C24.1,190.9,21.7,193,18,193.1z"/>
<path class="st8" d="M-4.9,195.5v-9.4c0-2.6-0.5-5.1-3.3-6.1s-5.4-0.9-8.4,2.5c2-0.2,2.8-0.3,3.7-0.4c1.8,0.1,4-0.2,4.6,2
	c0.7,2.6-2.2,1.8-3.3,2.7c-0.8,0.6-1.7,1-2.5,1.6c-1.6,1.3-3.1,2.7-2.3,5c0.8,2.4,2.7,2.5,4.8,2.5c1.1,0,2.8-1.3,3.2,1
	c0.2,1.4,0.9,2.1,2.3,1.6C-4.8,198-4.9,196.7-4.9,195.5z M-11.2,193.3c-1-0.2-2.6,0-2.5-1.6c0.1-2.1,2-2.4,3.6-2.8
	c1-0.2,2.2-0.2,2.2,1.2C-8,192.2-9.3,193.1-11.2,193.3z"/>
<path class="st9" d="M54.2,216.2c0-3,0-6,0-9c0-1,0-2.2,1.3-2.3c1.3-0.1,1.5,1.1,1.5,2.1s0,2,0,3c0.2,2.8-1.7,7.4,4.6,5.1
	c1.7-0.6,3,1.1,3.3,3c0.3,2.1,0.4,4.4-0.4,6.4c-0.4,1.1-0.2,3.2-2,2.8c-2.1-0.4-0.8-2.1-0.7-3.3c0.1-0.5,0.2-1,0.2-1.5
	c0.1-1.7,1-4.2-1.5-4.5c-2.7-0.4-3.5,1.7-3.6,4.2c-0.1,1.8,1.4,5-1.2,5c-3.3,0-1.3-3.4-1.6-5.2C53.9,220.3,54.2,218.2,54.2,216.2
	L54.2,216.2z"/>
<path class="st10" d="M-31,191.1c-1.9-1.5-1.6,0.5-2.1,1.3c-1.9,3.3-4.9,4.8-8.6,5.1c-1,0.1-2.2,0.1-2.3-1.3c-0.1-1.1,1-1.1,1.8-1.2
	c2.9-0.3,5.9-0.7,6.5-4.2c0.6-3.5-2.3-4.8-4.7-6.3c-2.6-1.6-4.5-3.7-3.2-7c1.4-3.5,4.4-4.7,8-4.7c1.2,0,2.4,0.5,2.2,2
	c-0.2,1.3-1.4,1.2-2.4,1c-2.2-0.5-4.1,0-4.9,2.2c-0.9,2.6,1.4,3.7,3.1,4.4c3.1,1.3,4,4.6,6.5,6.3C-30.3,189.5-30.3,190.3-31,191.1z"
	/>
<path class="st11" d="M137.1,188.4c0,1.8,0,3.7,0,5.5c0,1,0.3,2.1-0.9,2.6s-1.7-0.4-2.2-1.4c-1-2-1.8,0-2.5,0.3c-2,1-3.9,2.2-6,0.6
	c-2.3-1.7-2.6-4-2-6.7c0.5-2.4,0.7-4.9,1.2-7.4c0.2-1.1,1-1.7,2.2-1.4c1.4,0.3,1.1,1.3,0.8,2.3c-0.5,2.1-1,4.2-1.4,6.3
	c-0.3,1.8-0.5,3.9,1.8,4.6c2.2,0.6,3.8-0.7,4.9-2.6c1.4-2.5,1.2-5.2,0.8-7.8c-0.2-1.5-0.1-2.8,1.7-2.8c2.1,0,1.6,1.6,1.5,2.9
	c-0.1,1.7-0.2,3.3-0.2,5C136.9,188.4,137,188.4,137.1,188.4z"/>
<path class="st3" d="M-28.5,189.5c0.1-3.2,3.1-2.1,5.1-2.4c0.7-0.1,1.3-0.1,2-0.1c1.8-0.1,3.9,0.4,3.7-2.6c-0.2-2.3-1.2-3.7-3.6-4
	c-5-0.6-8.5,2.3-9.7,8.3v2.4c2.3,5.5,8.2,7.5,12.8,4.2c-1.6-1.2-3.6-0.8-5.3-1.1C-26.3,193.6-28.6,192.3-28.5,189.5z M-20.9,183.5
	c-1.9,1.9-3.4,1.7-5.1,0.8C-24.7,182.2-23.1,182.7-20.9,183.5z"/>
<path class="st12" d="M176.9,194.1c-2.9-0.5-5.4-1.7-5.2-4.9c0.2-3.3,3.3-1.7,5.1-2.1c0.5-0.1,1-0.1,1.5-0.1
	c1.9-0.1,4.2,0.5,3.9-2.8c-0.2-2.7-1.7-3.7-4.2-3.8c-4.1-0.1-7.1,1.8-8.5,5.6c-1.1,3-1.5,6.4,1.5,8.6c3.3,2.4,7,3.2,11.5,1.3
	C180.2,193.8,178.5,194.4,176.9,194.1z M178.1,182.8c0.7,0.2,1.2,1,0.6,1.4c-1.7,1.4-3.6,0.8-5.6,0.4
	C174.3,182.3,176.1,182.3,178.1,182.8z"/>
<path class="st13" d="M122.1,218.2c-0.5-4.6-3.3-5.6-7.7-3c1.2,1.4,4,0.4,4.5,2.6c0.4,2.5-2.4,2.3-3.7,3.3c-1.4,1.1-2.5,2.2-2.3,4.1
	c0.2,2.2,1.8,2.5,3.6,2.6c1.2,0,2.1,0,2.9,1.3c1.7,2.6,2.7,1.2,2.8-1C122.3,224.8,122.5,221.5,122.1,218.2z M117.3,225.6
	c-0.9,0-1.8-0.4-1.8-1.2c0-1.1,0.9-1.7,2-1.9c1-0.3,1.6,0.3,1.7,1.2C119.2,224.8,118.3,225.3,117.3,225.6z"/>
<path class="st14" d="M23,221.7c0-1.6-0.1-2.9,0-4.3c0-0.6,0.1-1.4,0.5-1.9c1.4-1.6,10.1,1.1,10.7,3.3c0.8,3-0.1,5.9-1,8.8
	c-0.3,0.9-0.9,1.5-1.8,1.2c-1.5-0.5-0.9-1.5-0.5-2.4c0.6-1.4,1-2.8,1-4.3c0-1.9-0.6-3.2-2.8-3.3c-2.1,0-2.8,1.1-3.2,3
	c-0.4,1.9,1.5,5.6-1.4,5.4C21.2,227.1,24,223.4,23,221.7z"/>
<path class="st15" d="M76.1,225.7c-2.3-0.6-5.8-0.3-5.6-3.5c0.2-2.6,3.5-1.3,5.4-1.6c1.7-0.2,3-0.5,2.7-2.6c-0.3-2-1.8-2.8-3.5-2.8
	c-2.9,0-5.6,0.8-6.9,3.9c-1,2.5-1.4,4.9,0.8,6.9c2.6,2.4,5.5,2.4,9.7,0.6C77,226.1,76.5,225.9,76.1,225.7z M74,216.6
	c1-0.3,1.6,0.3,1.7,1.2c0,1.1-0.9,1.6-1.9,1.9c-0.9,0-1.8-0.4-1.8-1.2C72,217.4,72.9,216.8,74,216.6z"/>
<path class="st16" d="M142.3,225.9c-2.5-0.3-5.8-0.7-5.9-3.4c-0.1-3,3.5-1.1,5.2-2c1.2-0.7,3.3-0.1,3.1-2.4
	c-0.2-2.1-1.8-2.8-3.5-2.9c-2.7-0.2-5.2,0.7-6.6,3.4c-1.2,2.3-1.8,4.8,0.2,6.9c2.7,2.8,6,3.1,10.7,1
	C143.7,226.1,143.1,225.9,142.3,225.9z M139.7,216.3c1-0.3,1.6,0.3,1.7,1.2c0,1.1-0.9,1.6-1.9,1.9c-0.9,0-1.8-0.4-1.8-1.2
	C137.7,217.1,138.5,216.5,139.7,216.3z"/>
<path class="st17" d="M52.3,226.4c-4,1.3-6,0.1-6.7-3.3c-0.3-1.9,0-3.9-2-5.4c-1.7-1.3,0.5-1.9,1.2-2.3c2.4-1.5-0.2-6.2,2.9-6.1
	c3.1,0.1-0.3,4.6,1.6,5.7c3.3,2,2.7,3-0.1,4.8c-1.5,0.9-1.5,2.5-0.2,3.8C50.1,224.5,51.2,225.4,52.3,226.4z"/>
<path class="st18" d="M134.4,216.5c-6.5,3.8-6.6,4.5-2.6,8.6c0.6,0.6,1.5,1,0.9,2c-0.5,0.8-1.4,0.8-2.2,0.5
	c-0.7-0.4-1.5-0.8-2.1-1.3c-2.8-2.6-2.9-14.3-0.3-16.8c0.3-0.3,0.9-0.4,1.3-0.3c0.9,0.2,0.7,1,0.7,1.6
	C130,213.3,129.3,216,134.4,216.5z"/>
<path class="st19" d="M146.1,183.9c0.6-0.3,1.3-0.6,2.1-0.8c1-0.3,2.3-1.3,2.9,0.4c0.5,1.4-0.5,2-1.8,2.4c-3.5,1.1-4.6,3.5-3.6,7
	c0.5,1.8,0.1,3-2,3c-2.2,0-1.4-1.7-1.4-2.9c0-2.8,0-5.6,0.1-8.4c0-1.7-1.2-4.2,1.3-4.6C146.7,179.3,144.4,182.8,146.1,183.9z"/>
<path class="st20" d="M154.9,217.6c-3.1,2.1-5,4.3-4.6,7.9c0.1,0.8-0.3,1.7-1.4,1.6c-1.1-0.1-1-1.1-1.1-1.9c0-0.3,0-0.7,0-1
	c0.1-2.8-0.9-6.2,0.5-8.2C149.7,214.2,152.1,218.5,154.9,217.6z"/>
</svg>
