<?xml version="1.0" encoding="utf-8"?>
<!-- Generator: Adobe Illustrator 19.1.0, SVG Export Plug-In . SVG Version: 6.00 Build 0)  -->
<svg version="1.1" xmlns="http://www.w3.org/2000/svg" xmlns:xlink="http://www.w3.org/1999/xlink" x="0px" y="0px"
	 viewBox="0 0 742 203.9" style="enable-background:new 0 0 742 203.9;" xml:space="preserve">
<style type="text/css">
	.st0{fill:#111111;}
	.st1{fill:#34B4E0;}
	.st2{fill:#2AB4DD;}
	.st3{fill:#37B3E4;}
	.st4{fill:#3AB1DE;}
	.st5{fill:#3FB5E0;}
	.st6{fill:#3AB5E4;}
	.st7{fill:#38B6E2;}
	.st8{fill:#40B3DC;}
	.st9{fill:#3EB4DF;}
	.st10{fill:#29B4E8;}
</style>
<g id="Layer_1">
</g>
<g id="Layer_2">
	<path class="st0" d="M167.8,5.6c5.3,5,5.9,9.7-2.1,11.2c-12.1,2.1-17.1,10.3-20,20.6c-2.4,7.9-5,16.2,8.5,15.3c2.6-0.3,5,0.6,5,3.8
		c0,2.4-1.8,3.5-3.8,3.5c-17.1-0.9-10.9,11.2-11.8,20c-0.6,5.9,8.2,17.1-4.1,17.4c-9.1,0-4.1-11.2-3.5-16.8
		c0.9-12.1-3.2-23.2,0-36.5c4.4-18.5,13.2-30,28.8-38.5C165.8,5.6,166.7,5.6,167.8,5.6z"/>
	<path class="st0" d="M402.9,92.1c-7.6-3.8-5.6-8.2-3.5-14.4c2.6-8.2,7.4-14.4,15.9-18.2c-9.4-11.2-19.7-5.3-29.1-3.5
		c-1.5,2.1-7.6,4.4,0.6,5.9c4.1,0.6,9.4,0,8.5,7.1c-0.6,3.8-0.9,8.8-5,9.7c-4.7,1.2-7.4-3.8-10.3-6.8c-6.2-7.1-11.8-14.4,2.1-18.8
		c4.1-5.6,9.4-10.9,4.7-17.9c-2.6-4.4-7.6-3.5-12.1-2.6c-7.9,1.5-13.2,5.6-14.4,14.1c-0.3,0.9-0.3,2.1-0.3,2.9
		c0.6,6.2-2.4,10.9-5.9,15.9c-6.2,8.5-8.5,17.9-1.5,27.1c6.5,8.5,15.3,9.1,25,5c6.8-2.6,13.5-3.2,18.8,3.2c2.9,3.2,5.6,7.9,10.3,2.1
		C410.9,97.1,406.4,93.9,402.9,92.1z M375.8,38.9c2.9-0.6,4.1,2.1,4.1,4.7c-0.3,5-4.4,7.1-8.2,8.8c-3.2-0.3-4.1-2.4-4.1-5
		C367.9,42.1,371.1,39.5,375.8,38.9z M372.6,91.5c-9.7-0.6-15.6-5.3-15.6-14.4c0-4.1,2.4-12.9,6.5-10.3c7.4,4.7,13.2,12.7,17.1,20.6
		C382.6,91.8,375,90.1,372.6,91.5z"/>
	<path class="st1" d="M448.8,170.4c5.6-10,6.2-19.4,6.8-28.5c0.3-3.5,1.5-7.4,5.9-6.5c5.3,0.9,3.2,5,2.4,8.2
		c-3.8,12.1-7.4,24.4-7.9,37.1c-0.3,3.5-0.6,7.1-5,7.4c-4.1,0.3-5.6-2.9-7.4-5.9c-5.3-9.7-10.6-19.4-16.8-30.3
		c-9.1,9.7-10.6,22.1-17.1,31.8c-1.8,2.6-2.4,7.1-6.8,6.2c-3.5-0.9-2.9-4.7-3.2-7.4c-2.6-12.9-5-25.9-7.6-38.8
		c-0.6-2.6-1.2-6.5,2.4-7.4c5-1.2,5.3,2.9,5.9,6.2c0,0.6,0,0.9,0,1.5c2.4,7.6,0,22.1,5.9,22.1c8.8,0,9.7-13.8,15-20.9
		c2.1-2.9,1.2-8.8,6.2-9.1c5.9-0.3,5.6,6.2,7.1,9.7C438.5,153.6,441.5,162.4,448.8,170.4z"/>
	<path class="st0" d="M484.1,61.2c-2.4-2.6-6.2-3.8-4.7-9.4c4.7-18.5-0.6-25.3-19.1-26.2c-7.4-0.3-10.9,2.1-9.7,10
		c2.1,11.5,3.2,23.2,1.2,33c-0.6,8.8-1.2,15.6-2.1,22.4c0,3.5,0,7.9,4.1,8.2c11.5,0.9,22.9-0.3,30.6-10
		C491.2,80.4,492.4,70.4,484.1,61.2z M466.5,35c5,0.6,7.6,4.1,7.6,9.7c-0.3,6.2-4.4,8.8-9.7,8.8c-8.2-0.3-3.5-7.4-4.7-11.2
		C458.5,38.3,460,34.5,466.5,35z M467.3,91.8c-7.6,0.9-8.8-5-7.6-10.6c1.2-6.2-5.3-16.2,6.8-18.2c8.5,0.9,15,4.7,15,12.9
		S476.2,90.7,467.3,91.8z"/>
	<path class="st0" d="M314.9,100.1c0-4.1-0.6-8.5-1.5-12.9c-3.5-17.1,2.4-34.7-3.8-51.5c0.3-4.4,5.6-11.5-4.1-12.9
		c-6.5-0.6-7.4,5-5.6,9.1c6.5,15.6-0.9,21.5-14.4,26.8c-12.1,5-15.3,16.8-11.5,28.5c3.8,11.5,13.8,11.5,23.2,8.5
		c6.2-2.1,7.9-0.3,7.9,5.6c0,3.2-1.2,7.6,4.4,7.4C315.2,108.6,315.2,103.9,314.9,100.1z M292.6,89.5c-7.6-0.3-12.4-5-11.8-11.8
		c0.9-8.2,5.6-16.2,15.3-16.5c10.9-0.6,5.6,8.5,7.1,12.7C304.3,83.3,302.9,89.8,292.6,89.5z"/>
	<path class="st0" d="M691,61.8c10-4.1,20.6-4.4,29.1-10.6c2.1-1.5,6.5-0.3,10,0c3.2,0.6,5.6,2.4,4.7,5.9c-0.9,2.9-3.2,5-6.8,3.2
		c-4.1-2.1-9.1-4.4-10.3,2.1c-1.2,5.3,5,4.7,8.5,5.9c10.9,3.2,13.5,10.6,10,20.6c-3.8,10-12.1,12.1-21.5,10.3
		c-2.9-0.6-5.9-2.1-5-5.9c0.6-3.5,3.5-2.6,5.9-2.4c6.5,0.9,12.9,0,13.8-7.4c0.9-7.4-6.5-8.2-11.5-8.5c-6.5-0.6-5.9-12.1-14.7-8.8
		c-10,3.5-13.2,10.6-12.4,20.3c0.3,4.1,2.4,9.7-4.7,9.7c-7.4,0-5.3-5.9-4.4-9.7c1.5-8.2,0.3-16.5-0.3-24.7c-0.3-5-3.5-12.1,5-12.4
		C694.2,49.5,687.4,57.7,691,61.8z"/>
	<path class="st0" d="M621.2,77.1c0-3.2,0-5.3-0.3-6.8c0-27.4-0.3-27.7-24.7-14.7c-10.3,5.6-16.8,13.2-14.4,25.9
		c2.4,12.1,11.5,14.4,21.8,15.6c4.1,0.6,10-0.9,10,5.3c0,5.6-1.5,11.8-7.9,14.4c-4.4,1.5-8.8,0.6-12.9-0.9c-3.2-0.9-6.8-2.4-7.4,3.2
		c-0.3,4.4,2.4,5.9,5.9,7.1c13.8,4.1,27.4-3.8,29.7-18.2C622.7,97.4,623,86.5,621.2,77.1z M605.9,90.1c-8.5,0-16.2-5-16.5-13.5
		c-0.3-9.4,6.2-17.4,15.9-17.9c12.7-0.6,6.5,10.6,7.6,13.5C614.5,81.8,616.5,90.1,605.9,90.1z"/>
	<path class="st2" d="M170.5,134.5c-17.9,0.6-30.9,13.8-30.9,32.1c0,15.6,9.7,24.7,26.5,24.4c17.9-0.3,30.6-13.8,30.6-32.4
		C196.7,142.1,187.8,134.2,170.5,134.5z M167.8,184.2c-10,0.3-20-9.1-20.6-19.1c-0.9-11.5,10.6-23.2,24.7-23.5
		c10,0.6,15.6,7.4,16.5,18.5C189.3,172.2,178.7,183.9,167.8,184.2z"/>
	<path class="st0" d="M246.1,51.2c-18.2-0.3-30.6,10.3-30.6,26.8c0,11.8,8.5,18.8,22.9,19.1c18.2,0.3,30-10.3,30-26.8
		C268.5,57.4,261.1,51.2,246.1,51.2z M259.3,73.3c-0.9,11.2-8.8,15.3-18.2,16.2c-9.7-0.9-16.2-5-15.6-14.7
		c0.6-10.9,7.9-16.5,18.5-16.5C253.7,58.3,260.2,63,259.3,73.3z"/>
	<path class="st0" d="M187.8,50.9C170.2,51.2,159,61.5,159,77.4c0,12.9,8.2,19.7,23.8,19.4c16.8-0.3,29.1-11.2,29.1-26.8
		C212,57.4,203.4,50.6,187.8,50.9z M188.1,88.6c-9.4,0.3-17.1-3.5-16.8-13.8c0.3-10.9,8.2-15.6,17.7-16.8c10,0,16.8,4.1,16.8,13.2
		C206.1,82.1,199,88.3,188.1,88.6z"/>
	<path class="st0" d="M120.8,95.7V68c0-7.6-1.5-15-9.7-17.9c-8.2-2.9-15.9-2.6-24.7,7.4c5.9-0.6,8.2-0.9,10.9-1.2
		c5.3,0.3,11.8-0.6,13.5,5.9c2.1,7.6-6.5,5.3-9.7,7.9c-2.4,1.8-5,2.9-7.4,4.7c-4.7,3.8-9.1,7.9-6.8,14.7c2.4,7.1,7.9,7.4,14.1,7.4
		c3.2,0,8.2-3.8,9.4,2.9c0.6,4.1,2.6,6.2,6.8,4.7C121,103,120.8,99.2,120.8,95.7z M102.2,89.2c-2.9-0.6-7.6,0-7.4-4.7
		c0.3-6.2,5.9-7.1,10.6-8.2c2.9-0.6,6.5-0.6,6.5,3.5C111.6,85.9,107.8,88.6,102.2,89.2z"/>
	<path class="st3" d="M294.6,156.6c0-8.8,0-17.7,0-26.5c0-2.9,0-6.5,3.8-6.8s4.4,3.2,4.4,6.2s0,5.9,0,8.8c0.6,8.2-5,21.8,13.5,15
		c5-1.8,8.8,3.2,9.7,8.8c0.9,6.2,1.2,12.9-1.2,18.8c-1.2,3.2-0.6,9.4-5.9,8.2c-6.2-1.2-2.4-6.2-2.1-9.7c0.3-1.5,0.6-2.9,0.6-4.4
		c0.3-5,2.9-12.4-4.4-13.2c-7.9-1.2-10.3,5-10.6,12.4c-0.3,5.3,4.1,14.7-3.5,14.7c-9.7,0-3.8-10-4.7-15.3
		C293.8,168.6,294.6,162.4,294.6,156.6L294.6,156.6z"/>
	<path class="st0" d="M44,82.7c-5.6-4.4-4.7,1.5-6.2,3.8c-5.6,9.7-14.4,14.1-25.3,15c-2.9,0.3-6.5,0.3-6.8-3.8
		c-0.3-3.2,2.9-3.2,5.3-3.5c8.5-0.9,17.4-2.1,19.1-12.4s-6.8-14.1-13.8-18.5C8.7,58.6,3.1,52.4,6.9,42.7
		C11,32.4,19.8,28.9,30.4,28.9c3.5,0,7.1,1.5,6.5,5.9c-0.6,3.8-4.1,3.5-7.1,2.9c-6.5-1.5-12.1,0-14.4,6.5
		c-2.6,7.6,4.1,10.9,9.1,12.9c9.1,3.8,11.8,13.5,19.1,18.5C46,78,46,80.4,44,82.7z"/>
	<path class="st0" d="M538.5,74.8c0,5.3,0,10.9,0,16.2c0,2.9,0.9,6.2-2.6,7.6c-3.5,1.5-5-1.2-6.5-4.1c-2.9-5.9-5.3,0-7.4,0.9
		c-5.9,2.9-11.5,6.5-17.7,1.8c-6.8-5-7.6-11.8-5.9-19.7c1.5-7.1,2.1-14.4,3.5-21.8c0.6-3.2,2.9-5,6.5-4.1c4.1,0.9,3.2,3.8,2.4,6.8
		c-1.5,6.2-2.9,12.4-4.1,18.5c-0.9,5.3-1.5,11.5,5.3,13.5c6.5,1.8,11.2-2.1,14.4-7.6c4.1-7.4,3.5-15.3,2.4-22.9
		c-0.6-4.4-0.3-8.2,5-8.2c6.2,0,4.7,4.7,4.4,8.5c-0.3,5-0.6,9.7-0.6,14.7C538,74.8,538.3,74.8,538.5,74.8z"/>
	<path class="st0" d="M51.3,78c0.3-9.4,9.1-6.2,15-7.1c2.1-0.3,3.8-0.3,5.9-0.3c5.3-0.3,11.5,1.2,10.9-7.6
		c-0.6-6.8-3.5-10.9-10.6-11.8C57.8,49.5,47.5,58,44,75.7v7.1c6.8,16.2,24.1,22.1,37.7,12.4C76.9,91.5,71,92.7,66,91.8
		C57.8,90.1,51,86.2,51.3,78z M73.7,60.4c-5.6,5.6-10,5-15,2.4C62.5,56.5,67.2,58,73.7,60.4z"/>
	<path class="st0" d="M655.6,91.5c-8.5-1.5-15.9-5-15.3-14.4c0.6-9.7,9.7-5,15-6.2c1.5-0.3,2.9-0.3,4.4-0.3
		c5.6-0.3,12.4,1.5,11.5-8.2c-0.6-7.9-5-10.9-12.4-11.2c-12.1-0.3-20.9,5.3-25,16.5c-3.2,8.8-4.4,18.8,4.4,25.3
		c9.7,7.1,20.6,9.4,33.8,3.8C665.4,90.7,660.4,92.4,655.6,91.5z M659.2,58.3c2.1,0.6,3.5,2.9,1.8,4.1c-5,4.1-10.6,2.4-16.5,1.2
		C648,56.8,653.3,56.8,659.2,58.3z"/>
	<path class="st4" d="M494.4,162.4c-1.5-13.5-9.7-16.5-22.7-8.8c3.5,4.1,11.8,1.2,13.2,7.6c1.2,7.4-7.1,6.8-10.9,9.7
		c-4.1,3.2-7.4,6.5-6.8,12.1c0.6,6.5,5.3,7.4,10.6,7.6c3.5,0,6.2,0,8.5,3.8c5,7.6,7.9,3.5,8.2-2.9
		C495,181.9,495.6,172.2,494.4,162.4z M480.3,184.2c-2.6,0-5.3-1.2-5.3-3.5c0-3.2,2.6-5,5.9-5.6c2.9-0.9,4.7,0.9,5,3.5
		C485.9,181.9,483.2,183.3,480.3,184.2z"/>
	<path class="st5" d="M202.8,172.7c0-4.7-0.3-8.5,0-12.7c0-1.8,0.3-4.1,1.5-5.6c4.1-4.7,29.7,3.2,31.5,9.7
		c2.4,8.8-0.3,17.4-2.9,25.9c-0.9,2.6-2.6,4.4-5.3,3.5c-4.4-1.5-2.6-4.4-1.5-7.1c1.8-4.1,2.9-8.2,2.9-12.7c0-5.6-1.8-9.4-8.2-9.7
		c-6.2,0-8.2,3.2-9.4,8.8c-1.2,5.6,4.4,16.5-4.1,15.9C197.5,188.6,205.8,177.7,202.8,172.7z"/>
	<path class="st6" d="M359.1,184.5c-6.8-1.8-17.1-0.9-16.5-10.3c0.6-7.6,10.3-3.8,15.9-4.7c5-0.6,8.8-1.5,7.9-7.6
		c-0.9-5.9-5.3-8.2-10.3-8.2c-8.5,0-16.5,2.4-20.3,11.5c-2.9,7.4-4.1,14.4,2.4,20.3c7.6,7.1,16.2,7.1,28.5,1.8
		C361.7,185.7,360.2,185.1,359.1,184.5z M352.9,157.7c2.9-0.9,4.7,0.9,5,3.5c0,3.2-2.6,4.7-5.6,5.6c-2.6,0-5.3-1.2-5.3-3.5
		C347,160.1,349.7,158.3,352.9,157.7z"/>
	<path class="st7" d="M553.8,185.1c-7.4-0.9-17.1-2.1-17.4-10c-0.3-8.8,10.3-3.2,15.3-5.9c3.5-2.1,9.7-0.3,9.1-7.1
		c-0.6-6.2-5.3-8.2-10.3-8.5c-7.9-0.6-15.3,2.1-19.4,10c-3.5,6.8-5.3,14.1,0.6,20.3c7.9,8.2,17.7,9.1,31.5,2.9
		C558,185.7,556.2,185.1,553.8,185.1z M546.2,156.9c2.9-0.9,4.7,0.9,5,3.5c0,3.2-2.6,4.7-5.6,5.6c-2.6,0-5.3-1.2-5.3-3.5
		C540.3,159.2,542.7,157.4,546.2,156.9z"/>
	<path class="st8" d="M289,186.6c-11.8,3.8-17.7,0.3-19.7-9.7c-0.9-5.6,0-11.5-5.9-15.9c-5-3.8,1.5-5.6,3.5-6.8
		c7.1-4.4-0.6-18.2,8.5-17.9c9.1,0.3-0.9,13.5,4.7,16.8c9.7,5.9,7.9,8.8-0.3,14.1c-4.4,2.6-4.4,7.4-0.6,11.2
		C282.6,181,285.8,183.6,289,186.6z"/>
	<path class="st9" d="M530.6,157.4c-19.1,11.2-19.4,13.2-7.6,25.3c1.8,1.8,4.4,2.9,2.6,5.9c-1.5,2.4-4.1,2.4-6.5,1.5
		c-2.1-1.2-4.4-2.4-6.2-3.8c-8.2-7.6-8.5-42.1-0.9-49.4c0.9-0.9,2.6-1.2,3.8-0.9c2.6,0.6,2.1,2.9,2.1,4.7
		C517.7,148,515.6,156,530.6,157.4z"/>
	<path class="st0" d="M565,61.5c1.8-0.9,3.8-1.8,6.2-2.4c2.9-0.9,6.8-3.8,8.5,1.2c1.5,4.1-1.5,5.9-5.3,7.1
		c-10.3,3.2-13.5,10.3-10.6,20.6c1.5,5.3,0.3,8.8-5.9,8.8c-6.5,0-4.1-5-4.1-8.5c0-8.2,0-16.5,0.3-24.7c0-5-3.5-12.4,3.8-13.5
		C566.8,48,560,58.3,565,61.5z"/>
	<path class="st10" d="M590.9,160.7c-9.1,6.2-14.7,12.7-13.5,23.2c0.3,2.4-0.9,5-4.1,4.7c-3.2-0.3-2.9-3.2-3.2-5.6
		c0-0.9,0-2.1,0-2.9c0.3-8.2-2.6-18.2,1.5-24.1C575.6,150.7,582.7,163.3,590.9,160.7z"/>
</g>
<g id="Layer_3">
</g>
</svg>
