<svg xmlns="http://www.w3.org/2000/svg" viewBox="0 0 152.7 77.4">
<path fill="#0A0A0B" d="M118.4,33c1.7-2.7,3.4-5.3,5.1-8c3.6-0.2,7.2-0.8,9.6,2.9c-0.6,2.3-1.1,4.6-1.7,7c-2.6-0.1-2.9-1.3-2.1-3.5c0.3-0.8-0.8-2.1-1.2-3.1c-1.2,0.6-3,0.8-3.5,1.8c-0.6,1.2-0.9,3.7-0.1,4.4c1.6,1.4,3.9,2,6,2.9c4.1,0.7,7.2-0.9,9.7-4c3.1-1.5,2.7-3.7,0.5-5.5c-5.4-4.3-10.5-9.7-16.7-12.2c-7.8-3.3-16.6-4.9-25-6c-21.3-2.8-40.7,1.5-56.7,17c-2.8,2.7-6,5.2-9.1,7.9c-4.8-7.9-9-15.9-18.3-18.6c-0.3-0.1-0.7-0.2-1-0.4c0,0.4,0.1,0.7,0.1,1.1c1.2,2.5,2.3,5,3.5,7.6c0.3,0.4,0.5,0.8,0.8,1.2L18,25.4c2.5,6.5,1.5,12.6-1.4,18.8c-1.4,3-2.3,6.1-3.7,10c9.4-1.2,13.6-8,19-13.6c0.9,0.7,1.8,1.2,2.4,1.9c14.3,19.3,34,24.6,56.8,22c1.8-0.2,3.6-0.5,5.4-0.7c2,3.1,4,6.2,6,9.2c0,0,0,0,0,0c-0.7,0-1.3,0-2,0c-3.3,0-6.6,0.1-10,0.1c-14.8,0.1-29.3-1.6-41.9-10.4c-6.1-4.2-11.4-9.5-17.2-14.4c-0.8,1.3-1.8,2.9-2.9,4.6c-0.7,0.6-1.4,1.3-2.1,1.9c-0.3,0.3-0.7,0.7-1,1c-0.3,0.3-0.7,0.6-1,0.9c-5.8,3.2-11.4,7.1-18.9,5c0-1.3,0-2.6,0-3.9c0.2-0.1,0.3-0.4,0.3-0.6c0.1-0.5,0.3-1,0.4-1.4c2.2-6.3,4.4-12.6,6.6-18.9c0.4-2.1,1.8-4.7,1.1-6.3c-3.8-8.1-8.1-16-12.2-24C0.7,3.3,3.2,4,5.1,4.2c11,1.1,18.4,7.7,24.7,16c1.6,2.1,2.8,4.4,4.3,6.9c2.8-3.1,5.4-6.1,8.2-8.9c16-15.5,35.5-19.9,57-17.7c16.8,1.7,31.5,7.9,42.7,21c1.7,2,3.1,4.3,4.6,6.5c2,3,1.9,5.6-1.6,7.4c-3,1.7-5.8,3.8-8.9,5.1C130,43.3,121,42.4,118.4,33z"/>
<path fill="#FDE508" d="M92,59.4c-1.5-1.8-3.2-3.5-4.6-5.5c-3.5-5.2-3.5-5.2-8.1-1.3c-2.7,2.3-5.6,4.6-8.9,7.4c-3.1-4.5-5.9-8.7-9.1-13.3c-2.4,1.4-4.6,2.7-6.8,4.1c-2.6,1.6-4.2,0.9-6.1-1.7c-4.5-6.2-5-11.8,0.4-17.8c2.1-2.4,3.4-5.5,5.5-9c3,3.8,5.5,7,8.4,10.7c3.7-5.2,7.1-9.9,11.4-15.7c2.2,4.6,3.7,7.9,5.3,11c0.6,1.1,1.5,2,2.2,3c1-0.8,2.2-1.4,2.8-2.4c2.5-3.8,4.9-7.6,7.3-11.5c0.4,0.2,0.8,0.3,1.3,0.5c0,13.6,0,27.2,0,40.8C92.6,58.9,92.3,59.2,92,59.4z"/>
<path fill="#B3B2CD" d="M17.4,24.1c-1.2-2.5-2.3-5-3.5-7.6c0.3-0.3,0.6-0.5,0.9-0.8c9.3,2.8,13.5,10.7,18.3,18.6c3.1-2.7,6.3-5.1,9.1-7.9C58.1,11,77.6,6.7,98.9,9.5c8.5,1.1,17.2,2.7,25,6c6.2,2.6,11.3,7.9,16.7,12.2c2.1,1.7,2.6,3.9-0.5,5.5c-2.3-1.8-4.7-3.5-7-5.3c-2.4-3.7-6-3.1-9.6-2.9c1.1-0.6,2.2-1.1,4.8-2.5c-7.1-2.5-12.9-5.8-19.1-6.5c-12.3-1.3-24.9-2.1-37.2-1.4c-13,0.8-23.1,8.9-32.6,17.1c-8.2,7-7.8,7.1-14.3-1.1c-1.7-2.2-4.7-3.5-7.1-5.2c0,0,0.2-0.1,0.2-0.1c0-0.5,0-1.1,0-1.6C17.9,23.8,17.7,24,17.4,24.1z"/>
<path fill="#0C0C0D" d="M139.5,61.1c-0.7,0.7-1.3,1.4-2,2.1c-7.3,5-15.2,6.9-24,5.9c-9-1.1-14.6-5.9-15.4-14.8c-0.6-7.1-0.1-14.2-0.1-21.3c1-1.3,2-2.7,3-4c0.4,1.5,1.1,2.9,1.2,4.4c0.2,4-0.2,8,0.2,12c1.4,13,11,19.1,23.5,15.2c10.4-3.2,16.6-11.3,22.7-19.4c0.9-1.2,1.6-2.4,2.4-3.7c0.5,0.1,1,0.1,1.6,0.2c-0.3,2.1,0.1,4.5-0.9,6.1c-3.5,5.6-7.5,10.9-11.4,16.4C140.2,60.4,139.9,60.8,139.5,61.1z"/>
<path fill="#B4B3CE" d="M28.5,53.1c1-1.7,2.1-3.3,2.9-4.6c5.8,4.9,11.2,10.2,17.2,14.4c12.5,8.7,27,10.4,41.9,10.4c3.3,0,6.6-0.1,10-0.1c0,0.2,0,0.4-0.1,0.7c0.2,0.9,0.4,1.9,0.7,3c-18.2,0.8-36.4,2.5-52.6-7.9c-6.1-3.9-11.3-9.1-16.9-13.7C30.6,54.4,29.5,53.8,28.5,53.1z"/>
<path fill="#B2B1CC" d="M98.1,32.9c0,7.1-0.5,14.3,0.1,21.3c0.7,8.9,6.3,13.7,15.4,14.8c8.8,1.1,16.7-0.9,24-5.9c-0.7,5.1-5.1,7.3-8.8,8.3c-6.2,1.5-12.9,1.5-19.4,1.9c-2.3,0.2-4.6-0.2-6.9-0.3c-2-3.1-4-6.2-6-9.2c-0.5-4.3-1.3-8.6-1.3-12.9c-0.1-5.3,0.3-10.5,0.7-15.8C95.9,34.3,97.3,33.7,98.1,32.9z"/>
<path fill="#B5B4CF" d="M118.4,33c2.6,9.4,11.6,10.3,17.7,7.6c3.1-1.4,5.9-3.4,8.9-5.1c0.1,0.3,0.4,0.7,0.3,0.9c-2.5,7.9-19.4,12.8-25.5,7.5C116.1,40.8,115.7,37.5,118.4,33z"/>
<path fill="#B8B7D3" d="M1.6,6.9c4.1,8,8.5,15.9,12.2,24c0.7,1.6-0.7,4.1-1.1,6.3C8.5,28.7,4.1,20.4,0.1,11.8C-0.4,10.7,1.1,8.6,1.6,6.9z"/>
<path fill="#ADADC2" d="M5.5,58c0,1.3,0,2.5,0,3.9c7.5,2.2,13.1-1.7,18.9-5C21.6,64.1,12.8,68.1,2,66.3C3.2,63.4,4.3,60.7,5.5,58z"/>
<path fill="#B2B1CC" d="M100.4,73.7c0-0.2,0.1-0.4,0.1-0.7c0.7,0,1.3,0,2,0C101.8,73.3,101.1,73.5,100.4,73.7z"/>
<path fill="#ADADC2" d="M25.4,56c0.3-0.3,0.7-0.7,1-1C26.1,55.3,25.8,55.7,25.4,56z"/>
<path fill="#ADADC2" d="M6.2,56c-0.1,0.5-0.3,1-0.4,1.4C5.9,56.9,6.1,56.5,6.2,56z"/>
<path fill="#B2B1CC" d="M139.5,61.1c0.3-0.3,0.6-0.7,0.9-1C140.2,60.4,139.9,60.8,139.5,61.1z"/>
<path fill="#B4B3C4" d="M131.4,34.9c-0.3,0.8-0.6,1.5-0.9,2.3c-2-0.9-4.4-1.5-6-2.9c-0.7-0.6-0.5-3.1,0.1-4.4c0.5-0.9,2.3-1.2,3.5-1.8c0.4,1.1,1.5,2.3,1.2,3.1C128.5,33.6,128.8,34.8,131.4,34.9z"/>
<path fill="#FCFCFC" d="M17.4,24.1c0.3-0.1,0.5-0.3,0.8-0.4c0,0.5,0,1.1,0,1.6C17.9,24.9,17.7,24.5,17.4,24.1z"/>
<path fill="#B3B2CD" d="M13.9,16.5c0-0.4-0.1-0.7-0.1-1.1c0.3,0.1,0.7,0.2,1,0.4C14.5,16,14.2,16.3,13.9,16.5z"/>
</svg>