<?xml version="1.0" encoding="utf-8"?>
<!-- Generator: Adobe Illustrator 19.1.0, SVG Export Plug-In . SVG Version: 6.00 Build 0)  -->
<svg version="1.1" id="Layer_1" xmlns="http://www.w3.org/2000/svg" xmlns:xlink="http://www.w3.org/1999/xlink" x="0px" y="0px"
	 viewBox="496 84.7 1386.9 232.3" style="enable-background:new 496 84.7 1386.9 232.3;" xml:space="preserve">
<style type="text/css">
	.st0{fill:#131012;}
	.st1{fill:#AFDDE7;}
	.st2{fill:#F18221;}
	.st3{fill:#E61E25;}
	.st4{fill:#142022;}
	.st5{fill:#A2216E;}
	.st6{fill:#84BE41;}
	.st7{fill:#818334;}
	.st8{fill:#B61F24;}
	.st9{fill:#7DB642;}
	.st10{fill:#7B1316;}
	.st11{fill:#13142E;}
	.st12{fill:#282A74;}
	.st13{fill:#6A297A;}
	.st14{fill:#04B1C1;}
	.st15{fill:#878A35;}
	.st16{fill:#4D6B31;}
	.st17{fill:#51A245;}
	.st18{fill:#5C4030;}
	.st19{fill:#374BA0;}
	.st20{fill:#E9B221;}
	.st21{fill:#131B1D;}
	.st22{fill:#733E5E;}
	.st23{fill:#676091;}
	.st24{fill:#5EC8D5;}
	.st25{fill:#005E90;}
	.st26{fill:#204180;}
	.st27{fill:#27BFCC;}
	.st28{fill:#0780A3;}
	.st29{fill:#0C0C0D;}
	.st30{fill:#FCE500;}
	.st31{fill:#B4B2CD;}
	.st32{fill:#0E0E0F;}
	.st33{fill:#B5B3CE;}
	.st34{fill:#B2B1CC;}
	.st35{fill:#B6B4CF;}
	.st36{fill:#B9B8D3;}
	.st37{fill:#ADAEC3;}
	.st38{fill:#B5B3C5;}
	.st39{fill:#FDFEFF;}
</style>
<g id="Layer_1_1_">
	<path class="st0" d="M650.4,205.9c3.1-4.3,2.8-9.3,2.8-14.3c-0.1-22.3,0-44.6,0-68.3c-9.6,0.6-18.5,0.9-27.3,1.8
		c-4.9,0.5-6.3,5-7.2,9.1c-4.1,18.8-6.1,37.7-5.3,57c0.3,7.2-0.6,14.6-2.2,21.7c-2.6,11.8-0.8,23.5-0.2,35.3
		c0.3,5.3,0.4,10.6,0.5,15.9c-1.1,1.7-2.1,3.5-3.2,5.2c-2.5-0.9-2.6-2.2-1.6-4.6c1.1-2.5,1.7-5.4,1.6-8c-0.3-5.9-1.3-11.7-2-17.6
		c0-1,0-2,0.1-3c0-3,0-5.9,0-8.9c0-0.4,0-0.7,0-1.1c0-1.6,0.1-3.3,0.1-4.9c4.6-22.2,2-44.7,4-67.1c0.4-1.4,0.9-2.8,1.1-4.3
		c1.6-7.7,3.1-15.5,4.6-23.2c0.9-4.9,4.2-6.4,8.6-6.5c6.7,0,13.3,0.1,20-0.1c2.5-0.1,5-0.8,8.1-1.3c-0.8-1.3-1-1.9-1.4-2.3
		c-4.8-5.4-10.8-3.4-16.7-3c-4.5,0.3-9.7,0.9-13.5-0.9c-5-2.4-9.8-2.7-14.9-2.3c-4.3,0.3-8.6,0.8-12.9,0.9c-5,0.2-10-0.3-15,0.1
		c-22.3,1.6-44.4,0.7-66.6-2c-1.9-0.2-4.7-0.3-5.7,0.8c-2.3,2.8-4.1,6.1-5.2,9.5c-0.2,0.7,3.6,3.4,5.9,3.9c3.7,0.7,7.7,1,11.4,0.4
		c18.8-3.1,37.9-4,57-3.5c2.9,0.1,5.8,1.1,8.6,2c1.1,0.4,2.4,1.6,2.6,2.6c0.9,3.6,1.6,7.4,2.1,11.1c0.8,5.1,1.4,10.1,2,15.2
		c0,6.8,0.1,13.6-0.1,20.4c-0.3,16.2-0.7,32.3-1,48.5c-0.3,7.8-0.4,15.6-0.8,23.4c-0.6,12.4-2.6,24.5-6.4,36.5
		c-1.3,4.1-0.4,9.2,0.8,13.5c0.3,1.2,5.2,1.1,7.9,1.7c1.1,0.2,2.2,0.7,3.4,0.9c7.8,1.6,18-4.2,19.2-11c0.6-0.7,1.3-1.3,1.9-2
		c3.3,8.1,1.1,13.4-7.1,15.8c-3,0.9-6.2,1.3-9.3,1.2c-7.4-0.2-14.9-0.9-23.1-1.4c1.4-9,1.9-18.4,4.6-27c2.4-7.5,3.4-14.9,3.6-22.4
		c0.7-22,1.2-43.9,1.3-65.9c0.1-15.4,0-30.9-1.3-46.3c-1.1-13.1-1.5-13.5-13.6-13c-17.9,0.7-35.8,2.6-53.7,3.4
		c-5.7,0.3-11.5-0.9-17.2-1.9c-3-0.5-4.1-2.7-3.5-6c2.7-13.2,3.7-14,17.1-13.4c18.4,0.8,36.9,2.1,55.3,2.3c12.9,0.1,25.9-1.7,38.8-2
		c4.1-0.1,8.2,1.6,12.4,2.3c3.2,0.6,6.5,1.5,9.7,1.5c6-0.1,11.9-0.9,17.9-1c3.1,0,3-1.8,3-3.8c3.6-1,7.2-2.1,10.7-3.1
		c0,3.6,0,7.1,0,10.7c-1.4,0.5-3.1,0.6-4.1,1.4c-1.2,0.9-2.6,2.6-2.5,3.8c0.2,1.4,1.7,2.8,2.9,4c1.2,1.3,3.5,2.1,3.7,3.5
		c0.5,2.9,0.7,5.8-3,7.9c-2,1.2-2.4,5.2-3.5,7.9c2.2,0.2,4.4,0.5,6.6,0.7c0,3.3,0,6.6,0,9.9c-6.2,1.2-9,4.8-6.4,8.3
		c1.7,2.2,4.2,3.9,6.4,5.8c0,0.6,0,1.3,0.1,1.9c-1.9,1.9-3.8,3.7-5.7,5.6c-1.6,4.2,0.9,6,5.6,5.4c-0.1,3.3-0.2,6.5-0.2,9.8
		c-4.9,1.5-6.8,4.6-5.1,9.9c1.7,0.2,3.5,0.3,5.3,0.5c0,3.3,0,6.5,0,9.8c-2.4,0.6-4.7,1.3-6.9,1.9
		C653.1,209.1,651.7,207.5,650.4,205.9z"/>
	<path class="st0" d="M975.1,205.7c-1.7-1.7-3.9-3.1-5-5.2c-5.4-9.6-10.4-19.3-15.6-28.9c-0.7-1.2-1.6-2.4-2.9-4.4
		c-1.2,2.4-2.2,3.9-2.6,5.5c-5,20.7-10,41.3-14.6,62.1c-2.7,12.3-3.7,25-7.2,37.1c-2.4,8.4-2.5,16.5-2.6,24.8
		c-0.1,9.4-10.1,17.4-19.6,15.9c-7.2-1.1-9.8-7.6-5.8-13.6c2-3,3.5-6.5,4.4-9.9c6.8-26,13.4-52.1,19.9-78.2
		c3.9-15.3,8.2-30.5,11.2-45.9c1.7-8.9,1.5-18.2,1.8-27.3c0.3-8.7,4.4-14.5,12.4-15.6c2.8-0.4,6.6,0.9,8.7,2.8
		c6.1,5.7,9,13.5,10.9,21.5c3.2,12.8,10.4,23.6,17,34.8c0.7,1.1,1.7,2.2,2,3.4c4.3,17.6,14,32.5,23.5,47.4c0.6,1,1.1,2,1.7,3
		c-0.7,1.1-1.5,2.3-2.2,3.4c-0.3,0-0.5-0.1-0.8-0.1c-4.4-7.3-8.8-14.6-13.1-21.9c-3.9-7.4-7.8-14.7-11.8-22.1
		c0.6-6.6-1.8-12.1-6.3-16.9c-4.3-8.7-8.6-17.3-13-26c0-0.4,0-0.8,0-1.1c0-0.6,0-1.2,0-1.7c-0.2-0.4-0.5-0.8-0.7-1.1
		c-0.4-2.3-0.9-4.5-1.3-6.8c-0.3-0.4-0.6-0.8-0.9-1.2c-1.7-2.7-3.4-5.3-5.1-8c-0.5-4.8-4.3-5.4-7.9-5.8c-4-0.5-5.6,2.7-6.8,5.8
		c-1,3.2-2.1,6.5-3.1,9.7c0.2,0.4,0.4,0.8,0.6,1.2c0.1,3,0.3,6.1,0.4,9.1c0,1,0,1.9,0,2.9c0,0.4,0,0.7,0,1.1h-0.3
		c0,0.6-0.1,1.3-0.1,1.9c-1.1,6.6-2.1,13.2-3.2,19.8c-1.8,4.8-3.6,9.6-5.4,14.4c-0.5,1.9-1.1,3.8-1.5,5.7
		c-1.6,7.7-3.1,15.5-4.6,23.3c-0.6,3-1.2,6-1.8,9c-0.4,0.9-1.1,1.7-1.3,2.6c-2,8.7-3.4,17.5-6,26c-4.6,14.8-9.9,29.5-15,44.2
		c-1.3,3.7-0.2,6.1,3.5,7c4.9,1.2,14.4-4.3,15.1-9.2c1.1-8.2,1.6-16.4,2.4-24.6c0.6-5.9,0.8-11.9,1.8-17.7c1.6-9.1,3.7-18,5.6-27.1
		c0.9-3.5,1.7-6.9,2.6-10.4c2.5-9.7,5-19.3,7.5-29c1.2-4.7,2.4-9.4,3.6-14c1.2-3.7,2-7.7,3.8-11.1c2.3-4.5,4.9-4.6,7.8-0.6
		c3,4.1,5.6,8.6,8.3,12.9c3,5.7,6,11.4,9,17.1C973.3,198.8,974.2,202.2,975.1,205.7z"/>
	<path class="st1" d="M1346.6,274.2c-2.5-4.5-3-9-1.6-14.2c0.7-2.7-0.6-6-1.1-9c4-3.4,3.9-9.1-0.1-13.8c-0.4-6.5-0.6-13.1-1.4-19.5
		c-0.4-3.2-1.8-6.3-2.9-9.4c-1.2-3.4,0.1-5.4,3.4-6.3c5.7-1.6,11.4-3.2,17.2-4.6c2.4-0.5,5.2-0.7,5.5,3c0,1.1,0,2.3,0,3.4
		c0,3.5,0,7-0.1,10.5c0,4.3,0,8.6,0,12.9c-1,1.6-2.7,3-3,4.7c-0.6,3.7-0.5,7.4-0.7,11.2c-0.4,2.7-0.8,5.4-1.1,8.2
		c0,5.3,0,10.7-0.1,16c0.4,4.9,0.5,9.9,1.3,14.7c0.2,1.2,2.3,2.2,3.5,3.2c1.2,1.8,2.4,3.5,3.6,5.3c4.1,5.9,2.6,9.4-4.5,10.6
		c-0.8,0.1-1.7,0-2.5,0c-4.1,0.6-8.2,1.3-12.3,1.9c-4.4,1.9-8,0.1-11.2-2.7c0.6-3.6,1.3-7.2,1.9-10.8c0.8-1.1,1.6-2.3,2.3-3.4
		c1.2-1.8,2.9-3.5,3.5-5.5C1347.1,278.6,1346.6,276.3,1346.6,274.2z"/>
	<path class="st2" d="M1207.7,202.2c9,2.6,12.2,10.1,15.1,17.9c-2.8,2.4-4.2,5.2-2.2,9c1.7,0,3.3,0,4.9,0c0.7,3,1.5,6,2.2,9
		c-2.2,1.7-4.5,3.3-7.7,5.7c-1,4.7-0.5,5.3,5.6,5.2c-0.2,3-0.4,6-0.6,9c-3.1,0.6-6.1,1.8-5.1,5.6c0.3,1.4,2.6,2.4,4,3.5
		c0.6,4,1.1,8.1,1.7,12.1c-1.6,0.1-3.1,0.2-4.6,0.3c0,2.4,0,4.1,0,6c2.3-1.3,4.2-2.4,6.2-3.5c-0.1,1.3-0.3,2.6-0.4,3.9
		c-3.4,4.1-2.8,7.1,1.8,9.4c0.1,0.6,0.2,1.1,0.3,1.7c-0.7,0.5-1.4,1-2.1,1.4c-2.2,0-4.4,0-6.7,0c0,2.9,0,5.1,0,7.6
		c2.4,0,4.5,0,6.6,0c0.7,1.4,1.4,2.8,2.1,4.2c-1.7,1-3.5,2-5.2,3c-3.3,1-6.5,2-9.8,2.9c-1.1-0.2-2.4-0.9-3.3-0.7
		c-2.6,0.8-5.3,2.2-6.4-1.7c-1-3.7-2.8-7.6,2.2-10.4c1.6-0.9,2.3-3.5,3.4-5.3c1.8-1.9,3.5-3.8,6.2-6.6c-2.9-1-4.6-1.6-6.3-2.2
		c-1.3-0.7-2.7-1.4-4-2.1c0.8-2.5,1.5-4.9,2.5-8.1c-2.6,0-4.1,0-5.5,0c-0.4-4.5,3.7-4.4,6.1-6c1,0.5,2,1,3.1,1.4
		c3,1.3,5.8-0.6,4.2-2.4c-1.3-1.4-4.2-1.5-6.4-2.2c0.4-1.3,0.8-2.7,1.2-4c4.7-2,4.9-3.2,1.7-8.8c-0.1-0.3-0.1-0.6-0.1-1
		c2.3-0.6,4.8-1.1,3.3-4.4c-0.3-0.7-2.1-1.5-2.3-1.3c-1.1,1.1-1.9,2.5-2.8,3.7c-1.4-1.8-2.9-3.5-4.3-5.3c0-0.2,0-0.4,0-0.6
		c0.4-3,0.8-5.9,1.2-8.9c0-0.4,0-0.9,0.1-1.3c1-0.4,2-0.8,3-1.2c3.9-2.5,3.4-8.7-0.9-11c-2.7-5.4-4.5-11.5-11.4-13.3
		c-1.2-0.3-2.3-1.2-3.5-1.8c-3.5-2.3-7.1-4.6-10.4-6.7c-1.1,1.4-1.7,2.2-2.2,2.9c-0.5-0.1-1-0.1-1.5-0.2c-0.2-0.8-0.2-2.2-0.5-2.3
		c-4.6-0.9-9.3-2-14-2.1c-3.5-0.1-7.1,0.8-10.5,1.7c-1.4,0.4-2.4,1.9-3.6,2.8c-2.7,1-5.3,2.7-8,3c-2.2,0.2-4.6-1.3-7-2.1
		c0.9-2,1.8-4,2.7-6c4.7-1.2,9.3-2.3,14-3.5c2.3-0.5,4.6-1,6.9-1.5c2.8,5.1,5.9,2.1,9,0.3c5.4-0.4,10.8-0.8,16.2-1.2
		c4.9,0.7,9.8,1.5,14.7,2.2c-3.7,3.8,1.2,6.9,0.5,10.4C1206.8,209.2,1207.5,208.5,1207.7,202.2z"/>
	<path class="st3" d="M1236.7,152c-0.3-3.7-0.8-7.4-1-11.2c-0.4-6.8,1.3-8.5,8.2-8.5c1.3,0,2.6,0.2,4,0.2c6.3-0.1,12.6-0.2,19-0.3
		c0.9-0.4,2-1.4,2.6-1.1c7.3,3.2,14.9,6.1,21.7,10.1c7.2,4.3,11.5,11.3,12.9,19.7c0.1,1.4,0,2.9,0.4,4.2c2.1,5.8,3.3,11.5,1.5,17.7
		c-1,3.5-0.7,7.4-1,11.2c-3.5,5-7,10.1-10.5,15.1c-3.8,0.2-4.2-2.7-5-5.4c1-4.2,2-8.5,3-12.7c0.7-1.1,2-2.3,2-3.4
		c-0.1-6.6-0.5-13.2-0.8-19.7c-2.3-5.4-3.9-11.4-7.2-16.2c-5.5-8.1-14.2-11.1-23.6-12c-5.9-3.6-8.8-3.1-12,2
		c-0.2,0.5-0.3,0.9-0.5,1.4c-2.5,1.1-2.2,2.9-2,5.3c0.7,6.3,1,12.6,1.4,18.9c0,3.9,0.1,7.7,0.1,11.6c-3.5,1.9-3.3,5-2.9,8.2
		c-0.1,7.3-0.2,14.7-0.3,22c-2.3,0-4.6,0-7,0c0-13.3,0.3-26.5-0.1-39.8C1239.4,163.6,1237.7,157.8,1236.7,152z"/>
	<path class="st4" d="M1148.8,296.2c-0.7,3.3,2.6,7.4-1.4,10c-3,2-6.3,3.7-9.7,4.8c-3.8,1.1-7.9,1.3-11.8,1.9
		c-4.2,0.7-6.3-1-6.5-5.3c-0.5-10.6-0.5-21.3-1.8-31.9c-2.5-21.6-5.7-43.2-8.6-64.8c-1.8-13.3-3.5-26.7-5.5-40
		c-0.6-3.8-2.5-7.3-4.3-12.4c-2.9,4.5-5,7.6-6.9,10.7c-8.8,14-17.7,27.9-26.3,42.1c-7.8,12.9-15.4,26-22.8,39.1
		c-1.8,3.1-2,7-3.6,10.3c-2,4.3-4.6,8.2-7,12.3c-0.6,1.1-1.5,2.1-2,3.3c-1.4,3.6-2.2,7.7-7.1,7.8c-5.5,0.1-10.4-1.7-13-6.7
		c-6.1-11.4-11.7-23-17.7-34.4c-3.9-7.3-8.3-14.4-12-21.8c-2.2-4.5-3.5-9.6-5.2-14.4c1.3,1.1,3,1.9,3.9,3.2c1.8,2.6,3.3,5.5,4.9,8.2
		c4.3,7.8,8.6,15.5,12.8,23.3c2.3,5.9,4.4,12,7,17.7c1.6,3.5,3.7,6.8,6,9.9c2.7,3.7,5.6,7.2,8.9,10.3c0.9,0.8,4.6,0.2,5.5-1
		c3.5-4.5,7.7-9.1,9.3-14.4c2.9-9.5,7.7-18.1,11.9-27c4.2-7,8.4-14.1,12.7-21.1c2.4-3.9,4.8-7.8,7.2-11.7c5.7-9,11.4-18,17.1-27
		c3.5-5.3,6.8-10.7,10.5-15.9c1.5-2,4.5-5.1,5.7-4.6c2.3,0.9,4.7,3.6,5.5,6.1c1.8,6,2.7,12.2,3.9,18.4c1,6.3,2.1,12.5,3.1,18.8
		c0.7,5,1.5,10,2.2,15c0.3,3.3,0.4,6.7,0.9,10c1.3,8.1,1.2,16.5,5.3,24c1,17.7,2.1,35.5,3.1,53.2c0.3,5.7,2,7.5,7.5,6
		s10.7-4.1,16.3-6.4c-1.9-3.1-3.5-5.6-5-8.1c0.9-0.3,1.7-0.6,2.6-0.9C1145.9,294.1,1147.4,295.2,1148.8,296.2z"/>
	<path class="st5" d="M1475,275.8c1.4-4.5,1.9-9.5,4.3-13.3c7.4-11.9,10.4-25.6,16.9-37.8c1.1-2,2.7-3.7,4-5.6
		c1.7,0.4,3.3,0.8,5,1.2c-1.8,4.4-3.4,8.9-5.5,13.1c-3.3,6.6-1.9,9.2,5.7,9.6c3.8,3.3,7.8,2.9,12,0.6c1.9,0,3.9,0.2,5.8,0
		c5.1-0.4,10.2-1,15.3-1.5c2.5-1.1,5-2.2,7.5-3.4c-1.6-5.6-3-10.6-4.4-15.6c2.2-5.5,6.2-2.7,9.7-2.2c3.8,11.5,7.5,23.1,11.4,34.6
		c1.3,3.9,3.1,7.6,4.7,11.5c-3.6-0.4-7.7-2.3-9,3.4c-1.7-3.3-4.3-6.4-4.9-9.8c-1.4-9-1.6-9.6-11-10.6c-3.8-4.2-11.4-4.2-15.8,0
		c-1.7,0-3.3,0.1-5,0.1c-5.9-0.3-11.9-0.8-17.8-0.8c-0.7,0-1.5,1.7-2.3,2.7c-8.2,0.3-13,4.5-14.6,12.5c-0.4,1.9-1.2,3.8-1.8,5.6
		c-1.8,1.9-3.7,3.8-5.5,5.7C1478.2,275.9,1476.6,275.9,1475,275.8z"/>
	<path class="st6" d="M817.7,311.3c-2-0.2-3.9-0.4-5.9-0.6c-1.9-5-6-4.9-10.2-4.4c-0.6-0.1-1.2-0.3-1.8-0.4c0.1-1.5,0.2-3,0.2-3.6
		c-3.4-0.7-6.3-1.3-9.3-1.9c0.3,1.1,0.6,2.4,0.9,3.6c-2.1,0.1-4.2,0.2-6.4,0.4c-3.4-1.2-7.1-1.8-10.2-3.6c-3.4-2-6.3-4.9-9.4-7.4
		c0.3-5.2,4.6-1,6.4-2.6c-3.7-4.3-5.2-4.3-9.6-0.4c-0.9-1-1.9-2.1-2.8-3.1c2.8-3.5,5.1-7.6,10.2-8.1c3.5,2.2,6.8,4.6,10.4,6.5
		c6.4,3.4,13,6.4,19.4,9.6c3.8,4.1,7.8,6.9,13.5,3.1c0.4-0.2,1-0.2,1.5-0.1c5.6,0.7,11,2.1,16.6-0.8c2.3-1.2,5.5-0.7,8.3-1
		c-0.6,6.9-5.8,5.5-10.6,4.8c1.7,4.5,4.2,4.8,7.3,2.9c2.5-1.6,4.9-3.3,7.4-4.9c2.3,1.7,4.6,3.3,6.9,5c-1.5,1.7-3.1,3.4-4.6,5.1
		c-5.4,0-10.8-0.1-16.3-0.1c-4.3-4-5-3.9-9,1.1C819.7,310.6,818.7,310.9,817.7,311.3z"/>
	<path class="st7" d="M1452.7,224.2c-3.4-8.6-8.7-15.3-18.1-17.8c-0.5-0.8-0.9-1.7-1.4-2.5c1-6.7-4.7-4.6-7.8-5.9
		c1.3-0.8,2.6-2.2,4-2.3c4.2-0.3,8.4-0.5,12.6-0.1c2.5,0.2,5.4,1.1,7.1,2.7c3.8,3.6,6.9,7.9,10.3,11.9c-7-1.2-8.6-0.6-8.9,3.3
		c4,0.5,8,1,12,1.6c3,10.3,4.6,20.7,1.8,31.3c-4.2,3.1-3.8,7-1.6,11c-0.8,6-1.6,11.9-2.4,17.9c-1.3,1.7-2.6,3.3-3.9,5
		c-2.3-1-4.6-1.9-6.9-2.9c0.1-1.8,0.2-3.5,0.3-5.3c0.9-0.8,2.6-1.5,2.7-2.4c0.5-6,0.7-12,1-17.9c0.1-0.7,0.1-1.4,0.2-2.1
		c0.9-1.3,2.6-2.6,2.7-4c0.3-4.8,0.2-9.6,0.2-14.5C1456.7,228.1,1456.9,224.9,1452.7,224.2z"/>
	<path class="st8" d="M1289.4,203.9c0.7,2.6,1.2,5.5,5,5.4c-5.9,4.7-11.8,9.5-17.9,13.9c-4.4,3.2-6.4,7.1-4.1,10.3
		c1.8,2.5,4.3,4.5,6.6,6.6c6.1,5.4,12.3,10.7,18.5,16.1c-2.6,0.7-5.3,1.1-7.7,2.3c-1.4,0.7-2.3,2.6-3.4,3.9
		c-6.9-5.1-14-10-20.8-15.2c-3.9-2.9-7.6-6.1-11-9.5c-3.1-3.1-1.7-9.4,2.2-11.5c2.2-1.2,4.3-2.5,6.6-3.4
		C1273.7,218.4,1282.5,212.4,1289.4,203.9z"/>
	<path class="st0" d="M1077.5,164.7c5-9.7,9.8-19.5,15.2-29c3-5.3,6.6-10.4,10.9-14.7c2.3-2.3,6.4-3.5,9.8-3.7
		c5.2-0.3,7.6,2.9,8.1,8.1c2,22.5,3.4,45.1,6.3,67.5c2.6,20.6,6.8,41,10.5,61.4c0.4,2,2.7,3.7,4,5.5c-2.5,1.6-5,3.2-7.6,4.8
		c-0.8-6.5-1.7-12.9-2.5-19.4c-1.9-10.4-3.8-20.7-5.7-31.1c-1-5.7-2-11.3-3-17c-0.7-6-1.4-12-2.1-18c-1.1-10.4-2.2-20.7-3.2-31.1
		c0.1-6.1,0.4-12.2,0.1-18.2c-0.1-2.3-1.1-4.9-2.5-6.8c-0.9-1.2-3.6-2.4-5-1.9c-3,1.1-6.8,2.5-8.2,5c-4.1,7-7.2,14.6-10.8,22
		c-4.2,5.6-8.3,11.2-12.5,16.9c-0.2,0-0.4,0-0.7,0.1C1078.3,165,1077.9,164.9,1077.5,164.7z"/>
	<path class="st9" d="M751.6,239.6c2.8-3.1,5.1-6.2,5.4-10.9c0.2-3,2.1-6.3,4-8.9c3.5-4.6,7.7-8.8,11.5-13.2c2.6-3.1,5.7-5,9.9-4.5
		c2.8,0.7,5.6,1.5,8.3,2.2c-5.8,5.6-11.6,11.1-17.2,16.9c-1.4,1.5-1.9,3.9-2.8,5.9c-2.9,2-5.8,4.1-9.2,6.5c4.4,0.2,7.7,0.4,11,0.5
		c1.3,0.9,2.7,1.8,4,2.7c-4.3,3.4-8.5,6.8-12.8,10.2c-0.7,0.6-1.9,1.1-1.9,1.7c0,4.1,0.3,8.2,0.6,12.3c-3.6,3.1-7.1,1.4-10.7,0.1
		c-0.1-3.6-0.2-7.2-0.3-10.8c0-0.8,0-1.5,0-2.3C751.5,245.3,751.5,242.4,751.6,239.6z"/>
	<path class="st10" d="M1286.6,262.3c1.1-1.3,1.9-3.2,3.4-3.9c2.4-1.2,5.1-1.6,7.7-2.3c9.5,7.1,19,14.3,28.5,21.4
		c1.8,1.4,3.9,2.5,5.8,3.7c0.5,1.3,0.7,2.9,1.6,3.9c3.2,3.2,3.5,7,3.1,11.1c-0.2,0-0.4,0-0.5,0.1c-7.4,6.2-8,6.5-14.2-1.3
		c-9.2-11.6-19.8-21.5-32.2-29.6C1288.5,264.6,1287.6,263.3,1286.6,262.3z"/>
	<path class="st0" d="M669.2,102.3c0.1,2.1,0.2,4.3,0.4,7.5c12.8-0.6,25.5-1.6,38.2-1.6c6.6,0,13.3,1.7,19.9,2.8
		c1,0.2,2.2,1.1,2.5,2c1.9,4.6-3.8,13.5-8.8,13.2c-14.7-0.7-29.4-1.5-44.1-2.7c-6.4-0.5-8.4,0.9-8.8,8.5c-0.3-2.7-0.7-5.4-0.9-8.2
		c-0.3-3.9-0.5-7.8-0.8-11.7c0.1-3.3,0.3-6.6,0.4-9.9C667.9,102.2,668.6,102.3,669.2,102.3z M670.2,113.1c-1.4,4.8-0.1,6.8,4.1,7.1
		c5.4,0.4,10.8,1.5,16.3,1.7c10,0.3,20,0.5,29.9,0.1c1.8-0.1,3.5-3.6,5.2-5.6c-1.5-1.3-2.7-3.3-4.4-3.7c-3.3-0.9-6.9-1.4-10.3-1.2
		c-8.6,0.3-17.1,1.2-25.7,1.6C680.2,113.4,675.1,113.1,670.2,113.1z"/>
	<path class="st10" d="M1248.7,302.4c-1.3,2.6-8.2,4.8-11.4,3.7c-3.7-1.3-6.4-7.6-5.1-11.8c1.1-3.4,2.4-6.8,3.5-10.1
		c0.6-0.9,1.6-1.8,1.7-2.7c0.8-6.1,1.4-12.1,2.1-18.2c2.3,0,4.7,0,7,0c0,4.7,0,9.4,0.2,14.1c0.1,1.3,1.2,2.5,1.8,3.7
		c0.4,2.6,0.7,5.2,1.1,7.9c0,0.8,0.1,1.5,0.1,2.3c-1,3.3-2,6.5-2.8,9.8C1247,301.3,1248.1,301.9,1248.7,302.4z"/>
	<path class="st11" d="M649.9,277.1c2.9-11.1,3.7-22.4,2.2-33.8c-1.1-8.3-1.8-16.7-2.7-25c1.1,0.6,2.2,1.1,3.5,1.8
		c0.9-1.4,1.6-2.5,2.3-3.5c2.3,0.9,4.4,1.8,6.5,2.6c0,3.3-0.1,6.6-0.1,10c-0.9,0.3-2,0.4-2.7,0.9c-1.4,0.9-2.6,2.1-3.9,3.1
		c1.4,1.7,2.7,3.4,4.2,4.9c0.4,0.4,1.6,0.2,2.4,0.3c0,3.3,0.1,6.6,0.1,9.9c-1.8,0.5-3.7,1-5.7,1.6c-0.8,4.5,0.7,6.8,5.6,6.5
		c-0.1,3.6-0.1,7.2-0.2,10.8c-1,0.1-2,0.1-2.9,0.3c-3.4,0.9-6.7,2-2.9,6.3c0.3,0.3,0.1,1,0.1,1.4c-0.9,0.6-1.8,1.3-2.7,1.9
		C651.9,277.1,650.9,277.1,649.9,277.1z"/>
	<path class="st12" d="M1515.7,185.3c1.5-4.8,3-9.7,4.5-14.5c0.9-2.9,1.3-6.1,2.6-8.8c1.1-2.2,3.3-3.8,5-5.7c3.4,1.2,3.7,4,3.9,7.1
		c0.2,3.3-0.4,7.4,4.2,8.7c0.3,0.3,0.6,0.5,0.9,0.8c-1.8,4.4-1.9,8.4,2.8,11.3c0.3,2,0.7,4,1,6c-1-1.4-1.9-2.9-2.9-4.3
		c-0.5,0.2-1.1,0.4-1.6,0.6c-0.9,2.3-1.8,4.6-2.7,7c-1-1.2-2.3-2.2-3-3.6c-1.1-2.3-1.7-4.9-2.8-7.3c-0.6-1.2-1.9-2.1-2.9-3.1
		c-0.9,1-1.7,2.1-2.7,3.1c-1.8,1.9-3.6,3.8-5.5,5.6C1516.3,187.2,1516,186.2,1515.7,185.3z"/>
	<path class="st2" d="M1134.8,264.7c2.5-1.6,5-3.2,7.6-4.8c1.7-0.6,3.4-1.2,5.1-1.9c1.2,0.5,2.4,1,3.6,1.5
		c-8.4,7.2-9.6,11.4-6.4,20.6c-1.2,2.3-2,4.9-3.7,6.8c-1.3,1.5-3.5,2.2-5.3,3.3c-5.7-2.1-7.8-5.1-8.1-10.5
		C1127.3,273.2,1130.6,268.8,1134.8,264.7z"/>
	<path class="st9" d="M854.2,220.2c0.1,0.5,0.2,0.9,0.3,1.3c-0.6,1.2-1.2,2.3-1.8,3.5c-3.8-2.4-6.4-7.2-12-5.9
		c-0.3-2.6,0.4-5.8-3.8-6c-1.8-3.9-3.6-7.8-5.4-11.7c1.9-3.4,0.9-5.5-2.8-6.3c-0.3-1.7-0.7-3.3-1-5c0.3-0.2,0.6-0.4,0.9-0.6
		c7-1.7,11.5,2,15.2,7.2c-2.2,5.7-1.7,6.5,5,7.3c1.2,2.3,2.4,4.6,3.6,6.9c-0.9,1.5-3,3.4-2.6,4.3
		C850.6,217.2,852.6,218.6,854.2,220.2z"/>
	<path class="st8" d="M1246.6,263.2c-2.3,0-4.7,0-7,0c0-4.6-0.1-9.3-0.1-13.9c0-13.4,0.1-26.7,0.1-40.1c2.3,0,4.6,0,7,0
		c0.2,0.2,0.2,0.5,0.3,0.8c0.6,4.1,1.1,8.2,1.7,12.3c0,1.1-0.1,2.2-0.1,3.3c-0.6,2.6-1.7,5.2-1.7,7.7c0.1,4.6,1,9.2,1.5,13.8
		c0,1.2,0,2.5,0,3.8c-0.6,1.4-1.5,2.7-1.6,4.1C1246.4,257.7,1246.6,260.5,1246.6,263.2z"/>
	<path class="st3" d="M1558.5,270.5c1.3-5.7,5.4-3.8,9-3.4c2.9,7.6,5.8,15.2,8.6,22.8c1.1,2.9,1,5.6-2.3,7.1c-2.2,1-4.3,2.3-6.5,3
		c-4.8,1.6-5.4,1-5.4-4.3c3.9-3.6,3.4-9.6-1.2-13.6C1559.9,278.3,1559.2,274.4,1558.5,270.5z"/>
	<path class="st0" d="M1019.1,245.5c7.3,3,12.7,1.3,17-6.2c7.1-12.4,13.7-25.2,20.6-37.7c6.8-12.3,13.8-24.6,20.7-36.9
		c0.4,0.2,0.8,0.4,1.1,0.5c0,1,0,2,0,3.1c-0.8,2.5-1.6,5-2.3,7.6v0.2c-0.3,0.4-0.6,0.7-0.8,1.1c-2,3.2-4,6.3-5.8,9.5
		c-2.6,4.7-4.9,9.5-7.3,14.3c-2.6,4.1-5.2,8.1-7.8,12.2c-4.3,8-8.6,16-12.9,24c-2.4,2.9-4.6,6-7.1,8.7c-6.3,6.9-9,7-16.7,1.2
		C1018.2,246.6,1018.7,246,1019.1,245.5z"/>
	<path class="st12" d="M726.5,202.3c-0.5-4.3-5.3-1.9-6.9-4.4c-1.2-0.9-2.4-2.4-3.8-2.5c-9.1-1-17.6,1.6-25.9,4.9
		c-0.5-1.8-0.9-3.5-1.4-5.3c6.2-4.8,13-8,21-7.9c1,6.7,6.2,3.1,9.6,4c1.5,0,3.1-0.3,4.4,0.2c3.8,1.3,4.2-0.9,4.2-3.7
		c0.6,0.1,1.1,0.3,1.7,0.4c1,5.2,4.9,4.2,8.4,3.9c1.3,2,2.7,4.1,4,6.1c-1.2,0.4-2.4,0.8-3.5,1.2c-2-0.6-4-1.3-4.8-1.5
		C730.6,199.7,728.5,201,726.5,202.3z"/>
	<path class="st13" d="M1533.4,193.3c0.9-2.3,1.8-4.6,2.7-7c0.5-0.2,1.1-0.4,1.6-0.6c1,1.4,1.9,2.9,2.9,4.3c2.3,5.5,4.8,11,6.8,16.6
		c1.6,4.7,2.6,9.6,3.9,14.4c-3.5-0.6-7.6-3.4-9.7,2.2C1538.9,213.3,1536.2,203.3,1533.4,193.3z"/>
	<path class="st14" d="M984.5,218.3c-1.6-2.8-3.1-5.6-4.9-8.2c-0.9-1.3-2.6-2.2-3.9-3.2c-0.2-0.4-0.4-0.8-0.6-1.2
		c-0.9-3.4-1.8-6.9-2.6-10.3c3.8-3.8,8.2-1.8,12.4-1.3c3.9,7.4,7.8,14.7,11.8,22.1C992.6,216.9,988.6,217.6,984.5,218.3z"/>
	<path class="st15" d="M1384.6,208.1c-3.4-8.8-5.5-11.7,6.2-18.3c-1.1,3.1-2.2,6.2-3.7,10.4c1.4,0.5,4,1.4,7.8,2.8
		c-3.8-7.3-3.8-7.3,2.8-9.5c0.6-0.2,1.3-0.4,1.9-0.6c-0.2,2.3-0.5,4.6-0.8,6.9c-0.2,1.8-0.6,3.6-0.8,5.4c-1.2,2.5-2.4,5-3.4,7.2
		c2.5,0.9,4.7,1.8,6.9,2.7c0.9,0.1,1.7,0.2,2.6,0.3c-1.8,2.7-3.7,5.3-5.5,8c-0.2,0-0.4,0-0.6,0c-1.1-0.4-2.2-0.8-3.4-1.2
		c-0.8-2.3-1.7-4.5-2.6-7c-1.5,0.5-2.7,0.9-3.9,1.3C1386.9,213.7,1385.7,210.9,1384.6,208.1z"/>
	<path class="st10" d="M1239.6,209.2c0,13.4-0.1,26.7-0.1,40.1c-0.6,0.6-1.3,1.2-1.9,1.9c-0.2-21.4-0.3-42.9-0.6-64.3
		c-0.1-10-0.3-19.9-0.5-29.9c0-1.7,0.1-3.3,0.1-5c1,5.8,2.7,11.6,2.9,17.4C1240,182.7,1239.7,195.9,1239.6,209.2z"/>
	<path class="st11" d="M726.5,202.3c2-1.3,4.1-2.7,7-4.5c0.8,0.2,2.8,0.9,4.8,1.5c0.1,3.2,0.1,6.5,0.2,9.7c-1.1,1.4-2.3,2.9-3.4,4.3
		c1.2,0.6,2.4,1.2,3.6,1.8c0.1,4.9,0.2,9.9,0.3,14.8c0.3,1.7,0.6,3.5,0.9,5.2c-0.6,5.9-1.2,11.9-1.7,17.8c0,0.7-0.1,1.5-0.1,2.2
		c0,0.3,0,0.6-0.1,0.9c-1.3,0-2.7,0-4,0c0.4-3.4,1.1-6.8,1.2-10.2c0.1-9,0.3-17.9-0.6-26.8c-0.3-3.7-3.1-7.2-4.7-10.7
		C728.6,206.4,727.5,204.4,726.5,202.3z"/>
	<path class="st12" d="M666.9,112.2c0.3,3.9,0.5,7.8,0.8,11.7c0.2,2.7,0.6,5.5,0.9,8.2c0,3.8,0,7.5,0,11.3c-1.7-0.7-3.3-1.5-5-2
		c-0.5-0.2-1.4,0.6-2,0.9c-2.2-0.2-4.4-0.5-6.6-0.7c1.1-2.7,1.5-6.7,3.5-7.9c3.7-2.2,3.5-5,3-7.9c-0.2-1.3-2.5-2.2-3.7-3.5
		c-1.1-1.2-2.7-2.6-2.9-4c-0.1-1.2,1.3-2.9,2.5-3.8c1.1-0.9,2.7-1,4.1-1.4C663.7,115.8,665.2,113.5,666.9,112.2z"/>
	<path class="st7" d="M1394.5,222.1c1.1,0.4,2.2,0.8,3.4,1.2c-0.7,7.2-1.4,14.4-2.1,21.7c-0.5,2.5-1,4.9-1.4,7.4
		c-2.2,0.3-4.5,0.6-6.7,0.9c-0.6-0.3-1.3-0.7-1.9-1c0-1.3,0-2.6,0-3.9c0.6-0.8,1.6-1.5,1.7-2.3c0.8-6,0.5-11.9,0-17.9
		c-0.1-0.8-1.1-1.5-1.7-2.3c0-1.3,0-2.6,0-3.8c0.6-0.3,1.3-0.6,1.9-1C1390,221.5,1392.3,221.8,1394.5,222.1z"/>
	<path class="st1" d="M1367.6,166.3c2.2,0.7,4.6,1,6.5,2.1c2,1.1,4.6,2.6,5.1,4.5c0.4,1.3-1.9,4.4-3.6,5.1
		c-5.8,2.4-11.7,6.4-17.6-0.3c-1.5-1.7-4.2-2.4-7-3.9c1.8-2.2,3.2-3.9,4.6-5.6C1359.6,167.5,1363.6,166.9,1367.6,166.3z"/>
	<path class="st3" d="M1475,275.8c1.6,0,3.2,0,4.8,0.1c0.7,1.2,1.3,2.3,2,3.5c-0.5,1.6-1,3.1-1.5,4.7c-3.4,2.7-5.5,5.6-2.1,9.7
		c-0.5,2.2-1.1,4.3-1.6,6.5c-5.1-0.9-10.8,1.9-15.4-2.3C1465.8,290.6,1470.4,283.2,1475,275.8z"/>
	<path class="st11" d="M751.4,250.3c0.1,3.6,0.2,7.2,0.3,10.8c-0.1,0.3-0.1,0.7-0.2,1c-1.2,0.4-2.4,0.8-3.6,1.2
		c2.1-6.9-5.4-6.9-8.1-10.1c9-10,9-10,6.1-16.4c0.1-2,5.2-2.5,1.9-5.7c-0.6-4.1-1.2-8.3-1.8-12.4c-0.1-2.5-0.1-5-0.2-7.4
		c1-0.6,2-1.3,3-1.9c0.5,6.6,1,13.3,1.6,19.9c0.3,3.4,0.9,6.8,1.3,10.3c-0.1,2.8-0.2,5.6-0.3,8.4
		C751.4,248.8,751.4,249.6,751.4,250.3z"/>
	<path class="st12" d="M661.5,179.2c-4.7,0.5-7.2-1.3-5.6-5.4c1.9-1.9,3.8-3.7,5.7-5.6c1.1,1.3,2.3,2.6,3.4,3.9
		c0.6-1.7,1.9-3.5,1.5-5c-0.7-2.9-2.2-5.7-3.4-8.5c-0.4,0.1-0.8,0.3-1.2,0.4c-0.1,2.4-0.3,4.8-0.4,7.2c-2.1-1.9-4.6-3.6-6.4-5.8
		c-2.7-3.5,0.2-7,6.4-8.3c5.1,3.3,4.5-2.1,6.1-4c0,4.4-0.2,8.9,0,13.3c0.2,5.2,0.6,10.4,0.9,15.5c-0.1,0.7-0.1,1.5-0.2,2.2
		c-0.2,0.4-0.4,0.8-0.5,1.2l0.1,0.2l-0.2,0.2c-1.3-0.7-2.5-1.6-3.8-2C663.3,178.6,662.3,179.1,661.5,179.2z"/>
	<path class="st7" d="M1457.5,289.2c-0.9,2.5-1.8,5.1-2.5,7.7c-0.4,1.6-0.9,3.5-0.3,4.8c1.3,3,0.2,5-1.9,6.9
		c-3.6,3.2-10,1.9-13.6-2.6c-2.9-3.6-1.9-7.1,3.3-11.1c2.7,1.6,5.4,3.2,8.2,4.9c0-3.7,0-6.1,0-8.5
		C1452.9,290.6,1455.2,289.9,1457.5,289.2z"/>
	<path class="st13" d="M1515.7,185.3c0.3,1,0.6,1.9,1,2.9c0.1,2.3,1,5,0.2,6.9c-3.6,8.5-7.7,16.8-11.6,25.2c-1.7-0.4-3.3-0.8-5-1.2
		c0.3-1.9,0-4.1,0.9-5.8c4.2-8.4,8.8-16.6,13.2-24.9C1514.9,187.4,1515.2,186.3,1515.7,185.3z"/>
	<path class="st15" d="M1396.1,279.2c1,2.1,2.1,4.1,3.1,6.2c-0.7,1.3-1.7,3.1-2.7,4.9c-3.9-0.2-7.7-0.2-9.6,4.2
		c-0.3,0.8-1.4,1.2-2.2,1.8c-4.7-1.7-5.7-5-3.9-9.4c0.9-2.2,1.9-4.4,2.8-6.6c1.1-0.8,2.2-1.6,3.2-2.5
		C1390,278.2,1393,278.7,1396.1,279.2z"/>
	<path class="st11" d="M667.8,181.8c0.6,3.3,1.5,6.6,1.7,10c0.6,7.5,3.5,9.3,10.2,6.4c2-0.9,4.5-0.9,6.7-1.3c-2,1.7-4,3.4-6.9,5.8
		c1.9,1.4,3.2,2.4,4.5,3.4c-5,4.2-10,8.4-15,12.6c-0.5-0.2-0.9-0.3-1.4-0.5c0.4-2.2,0.8-4.4,1.1-6.6c4.8-3.8,2.6-8.1,0.8-12.3
		c-0.8-3.1-1.6-6.3-2.4-9.4C667.3,187.2,667.6,184.5,667.8,181.8z"/>
	<path class="st2" d="M1148.8,296.2c-1.4-1.1-2.9-2.1-4.3-3.2c0.7-2,1.3-4,2.2-6.4c1.1-0.6,3.1-1.6,5.1-2.7
		c3.7,0.9,7.4,1.7,11.1,2.6c1.5,4.8,6,2.5,9,3.8c0,1.5-0.1,2.9-0.1,4.4c-4.3,0.1-8.7,0.2-13,0.3c-0.6-1.6-1.3-3.2-1.9-4.7
		c-1,1.8-2,3.7-3,5.5C1152.1,295.9,1150.5,296.1,1148.8,296.2z"/>
	<path class="st12" d="M649.9,277.1c1,0,2,0,3,0c-0.1,1.6-0.2,3.3-0.2,4.9c0,4.9,1.3,5.9,5.9,4.9c1-0.2,1.9-0.6,2.8-0.9
		c2,0.3,3.9,0.6,5.9,0.9c0.4,2.7,0.9,5.4,1.3,8.1c-3.2,3-4.3-0.4-6.1-1.9c-2.5,0.5-5,1.1-8.1,1.8c-0.6,0.9-1.8,2.6-3,4.2
		c-0.6-2-1.3-4.1-1.9-6.1c0.2-1.9,0.6-3.9,0.4-5.8c-0.2-1.4-1.4-2.7-2.2-4C648.5,281.2,649.2,279.2,649.9,277.1z"/>
	<path class="st7" d="M1404,215.3c-0.9-0.1-1.7-0.2-2.6-0.3c-0.4-2.6-0.7-5.2-1.1-7.8c0.5-0.4,1.1-0.8,1.6-1.2
		c3.6-0.6,7.8,1.8,10.6-2.3c4-1.7,7.9-3.4,11.9-5.1c2.2,1.6,4.4,3.3,6.6,4.9c-3.1,1.5-7.9-1.4-9.7,3.7
		C1415.6,210,1409.8,212.7,1404,215.3z"/>
	<path class="st6" d="M854.7,233.1c-1.4,1-2.8,1.9-4.1,2.9c-0.7-0.9-1.3-1.9-2-2.8c-4-4.5-5.7-4.3-9.9,0.9c0,0.7,0,1.4,0,2
		c-2.3-0.4-4.7-0.7-7-1.1c-1-1.9-1.9-3.9-2.9-5.8c3-0.8,8,2.1,7.8-4.4l-0.1,0.1c1.4-0.6,2.8-1.2,4.3-1.8c2.2,0.6,4.5,1.1,6.7,1.8
		c1.8,0.6,3.5,1.5,5.2,2.3C853.3,229.3,854,231.2,854.7,233.1z"/>
	<path class="st6" d="M764.5,266.2c1.3,3,2.7,6,4,9c-1.6,0.8-3.3,1.3-4.7,2.4c-2.5,2-4.7,4.3-7,6.5c-0.8-2.3-1.6-4.6-2.4-6.9
		c1.4-0.5,2.7-1,3.1-1.1c-2.1-4.3-4-8.1-5.8-11.8C756,265,760.3,265.6,764.5,266.2z"/>
	<path class="st12" d="M669.2,102.3c-0.7,0-1.3,0-2-0.1c-1.5-0.6-2.9-1.2-4.5-1.9c-0.3,0.5-0.8,1.2-1.4,2c-3.6,1-7.2,2.1-10.7,3.1
		c-1.2-2.1-3.1-4.1-3.5-6.3c-0.3-2.2,0.9-4.6,1.4-6.9c1.4,0.1,2.9-0.1,4.1,0.3c3.1,1.1,6,2.4,9,3.7c2.3-0.4,4.5-0.8,6.8-1.2
		c0.3,2.1,0.7,4.1,1,6.2C669.4,101.5,669.3,101.9,669.2,102.3z"/>
	<path class="st12" d="M668.8,211.6c-0.4,2.2-0.8,4.4-1.1,6.6c-1.8-0.5-3.6-0.9-5.7-1.5c-0.1,0.9-0.2,1.7-0.3,2.5
		c-2.1-0.8-4.1-1.7-6.5-2.6c-0.7,1-1.4,2.2-2.3,3.5c-1.2-0.6-2.3-1.2-3.5-1.8l0.1,0.1c-0.3-0.7-0.7-1.5-1-2.2c-2.5-4-1-7.2,1.8-10.2
		c1.4,1.6,2.7,3.2,4.3,5c2.1-0.6,4.5-1.2,6.9-1.9C663.9,209.9,666.3,210.7,668.8,211.6z"/>
	<path class="st16" d="M839.5,296.4c-2.8,0.3-6-0.2-8.3,1c-5.6,2.9-11,1.4-16.6,0.8c-0.5-0.1-1.1-0.1-1.5,0.1
		c-5.6,3.8-9.7,1-13.5-3.1c13.7-0.1,27.3-0.3,41-0.4C840.2,295.3,839.9,295.9,839.5,296.4z"/>
	<path class="st11" d="M724.7,291.2c2-5.7,4-11.3,6-17c0.6-0.7,1.2-1.3,1.8-2c1.9,1.1,3.8,2.1,5.7,3.2c0,3.6,0,7.1,0.1,10.7
		C733.5,286.9,728.5,287.4,724.7,291.2z"/>
	<path class="st2" d="M1199.6,289.9c-2.8,0.4-5.6,0.6-8.3,1.4c-2.2,0.6-4.1,2-6.2,2.9c-1.1,0.5-2.4,0.6-3.7,0.8
		c-0.4-0.2-0.8-0.4-1.1-0.6c-0.5,0-1.1,0.1-1.6,0.1c-0.1-1.6-0.3-3.2-0.4-4.8c1.8-0.5,3.6-0.8,5.3-1.5c2.7-1.2,5.4-2.6,8.1-3.9
		c3-0.7,6-1.4,8.9-2.1C1200.3,284.8,1200,287.3,1199.6,289.9z"/>
	<path class="st9" d="M802.6,191.8c4.3-1.2,8.6-2.3,12.8-3.5c2.1,1,4.2,1.9,6.2,2.9c-1,1.4-2,2.7-3.1,4.1c-2.1-0.1-4.4,0.4-6.3-0.3
		c-3.7-1.3-5.4,0.5-7.1,3.2c-1.1,0.1-2.2,0.3-3.3,0.4c-2-3.1-4.6-2.3-7.4-1.3c-2.4-3.7,0.8-2.6,2.5-3
		C799.1,193.8,802.2,195.7,802.6,191.8z"/>
	<path class="st11" d="M661.8,96.2c-3-1.2-6-2.6-9-3.7c-1.3-0.4-2.7-0.2-4.1-0.3c-3-2.6-1.1-4.7,1.2-5.2c5.1-1.2,10.4-1.6,15.7-2.3
		C660.3,87.2,661.8,92,661.8,96.2z"/>
	<path class="st7" d="M1386.9,277.7c-1.1,0.8-2.2,1.6-3.2,2.5c0.4-3.7,0.7-7.4,1.1-11.1c4.1-2.8,2-7.4,3-11c2.2,0,4.4,0,6.6,0
		c-0.6,4.8-1.2,9.6-1.9,14.4C1388.9,272.4,1387,274.1,1386.9,277.7z"/>
	<path class="st9" d="M783.6,237.9c-0.7-0.2-1.3-0.5-2-0.7c0-1.9,0-3.9,0-5.8c2.7-0.1,5.4,0.1,8.1-0.2c2.6-0.4,5.2-1.2,7.8-1.9
		c2.3-0.4,4.6-0.7,6.8-1.1c-3.2,2.9-6.5,5.9-9.7,8.8C791,237.3,787.3,237.6,783.6,237.9z"/>
	<path class="st12" d="M724.7,291.2c3.8-3.7,8.8-4.2,13.6-5.1c0.1,0.5,0.2,1.1,0.3,1.6c0,2.2,0,4.4,0,6.6c0,0.3-0.1,0.7-0.1,1
		c-2.3-0.8-4.5-1.5-7.1-2.4c-0.7,2.4-1.4,4.9-2.1,7.5c-1.8-1.7-3.2-4.3-6.4-3.2C723.5,295.2,724.1,293.2,724.7,291.2z"/>
	<path class="st11" d="M668.7,295.1c-0.4-2.7-0.9-5.4-1.3-8.1c-0.7-4.9-1.4-9.7-2.1-14.6c-0.2-1.4-0.5-2.9-0.7-4.3
		c0-4.9-0.1-9.9-0.1-14.8c0.4-1.7,0.9-3.3,1.3-5c0.3-0.1,0.5-0.2,0.8-0.2l0.4,0.1h0.4c0,4,0,8,0,12c0,2,0,3.9,0,5.9
		c0,1.4,0,2.7,0,4.1c0,0.6,0.1,1.3,0.1,1.9c0.6,1.7,1.1,3.4,1.7,5.1c0,0.9,0.1,1.8,0.1,2.7c0.4,5.1,0.9,10.3,1.3,15.4
		C669.9,295.3,669.3,295.2,668.7,295.1z"/>
	<path class="st17" d="M802.6,191.8c-0.4,3.9-3.5,2-5.4,2.4c-1.7,0.4-4.9-0.7-2.5,3c0.3,1.2,0.7,2.5,1,3.7c-1.6,1.1-3.2,2.3-4.9,3.4
		c-2.8-0.7-5.6-1.5-8.3-2.2c3.1-6.3,8-9.9,15.2-9.9C799.3,192.2,800.9,191.9,802.6,191.8z"/>
	<path class="st12" d="M738.3,275.4c-1.9-1.1-3.8-2.1-5.7-3.2c0.9-3,1.5-6.3,5.7-6.2c1.9,4.4,4.9,0.5,7.3,1c0.7,0.5,1.5,0.9,2.2,1.4
		c-0.9,2.6-1.7,5.3-2.6,7.9c-1.4-0.7-2.7-1.7-4.2-2C740.2,274.1,739.2,275,738.3,275.4z"/>
	<path class="st11" d="M651.5,299.2c1.2-1.7,2.3-3.3,3-4.2c3.1-0.7,5.6-1.2,8.1-1.8c-1,3.8-2.4,7.8,3.3,9.3
		c-2.1,2.8-4.6,3.2-7.9,1.9c-3.4-1.3-6.9-2.2-10.4-3.3C649,300.4,650.2,299.8,651.5,299.2z"/>
	<path class="st18" d="M1152.1,207.2c1.2-1,2.2-2.5,3.6-2.8c3.4-0.9,7-1.8,10.5-1.7c4.7,0.2,9.3,1.3,14,2.1c0.3,0.1,0.4,1.5,0.5,2.3
		c-7.9,0.2-15.8,0.4-23.7,0.6C1155.4,207.7,1153.7,207.4,1152.1,207.2z"/>
	<path class="st2" d="M1461.2,298c4.6,4.2,10.3,1.4,15.4,2.3c-1.4,2.1-2.6,5.8-4.1,5.9c-3.9,0.3-8.1-0.8-12-1.8
		C1460.2,304.3,1460.9,300.2,1461.2,298z"/>
	<path class="st19" d="M748.8,209.5c-1,0.6-2,1.3-3,1.9c-2.4-0.8-4.9-1.5-7.3-2.3c-0.1-3.2-0.1-6.5-0.2-9.7c1.2-0.4,2.4-0.8,3.5-1.2
		h-0.1c0.9,0.7,1.7,1.3,2.6,2C745.8,203.2,747.3,206.3,748.8,209.5z"/>
	<path class="st18" d="M1305,194.1c0.3-3.7-0.1-7.6,1-11.2c1.8-6.2,0.6-11.9-1.5-17.7c-0.5-1.3-0.3-2.8-0.4-4.2
		c4.6,4.3,6.2,9.7,5.1,15.7C1308,182.6,1306.4,188.3,1305,194.1z"/>
	<path class="st2" d="M1164.4,250.1c2.7-1,5.4-2.1,8.1-3.1c1.3-0.5,2.6-1.1,3.9-1.6c2.5,0.6,5.1,1.3,7.6,1.9
		c-3.2,1.4-6.7,2.5-9.6,4.4c-3.3,2.1-6.3,2.6-9.8,1.1C1164.6,251.8,1164.5,251,1164.4,250.1z"/>
	<path class="st11" d="M689.9,200.3c8.3-3.3,16.8-5.9,25.9-4.9c1.3,0.1,2.5,1.7,3.8,2.5c-2.4,0.2-4.8,0.4-7.2,0.8
		c-5.4,0.7-10.7,1.6-16.1,2.3c-2.1,0.3-4.3,0.1-6.5,0.1C689.7,200.8,689.8,200.6,689.9,200.3z"/>
	<path class="st20" d="M1225.6,249.1c-6.1,0.1-6.6-0.5-5.6-5.2c3.2-2.4,5.5-4.1,7.7-5.7c5.4,2.6,5.6,4.1,0.9,8.9
		C1227.6,247.7,1226.6,248.4,1225.6,249.1z"/>
	<path class="st18" d="M1184.1,247.3c-2.5-0.6-5.1-1.3-7.6-1.9c1.9-1,3.6-2.5,5.6-2.8c8.5-1.6,17-2.8,25.5-4.2c0,0.4,0,0.9-0.1,1.3
		c-2.3,0.9-4.6,1.7-6.9,2.6c-2.8,0.3-5.7,0.2-8.3,1c-2.7,0.9-5.2,2.6-7.8,4l-0.1,0.1C1184.4,247.4,1184.2,247.4,1184.1,247.3z"/>
	<path class="st19" d="M661.7,219.2c0.1-0.8,0.2-1.6,0.3-2.5c2.1,0.5,3.9,1,5.7,1.5c0.5,0.2,0.9,0.3,1.4,0.5c-0.2,3-0.3,5.9-0.5,8.9
		c-2.3,1-4.6,2-6.9,2.9c0-0.5-0.1-0.9-0.1-1.4C661.6,225.8,661.6,222.5,661.7,219.2z"/>
	<path class="st4" d="M1237.6,251.2c0.6-0.6,1.3-1.2,1.9-1.9c0,4.6,0.1,9.3,0.1,13.9c-0.7,6.1-1.3,12.2-2.1,18.2
		c-0.1,1-1.1,1.8-1.7,2.7C1236.4,273.2,1237,262.2,1237.6,251.2z"/>
	<path class="st19" d="M722.8,297.2c3.2-1.1,4.6,1.5,6.4,3.2c-0.1,1.6-0.3,3.2-0.4,4.9c-1.1,0.9-2.2,1.9-3.3,2.8c-1.6,0-3.2,0-4.9,0
		C718.5,303.8,720.6,300.5,722.8,297.2z"/>
	<path class="st4" d="M615.6,283.2c-0.6,0.7-1.3,1.3-1.9,2c-1.8-5.3-3.6-10.5-5.4-15.8c1.1-1.7,2.1-3.5,3.2-5.2
		C612.9,270.5,614.3,276.9,615.6,283.2z"/>
	<path class="st11" d="M661.7,230.5c2.3-1,4.6-2,6.9-2.9c-0.4,5.7-0.8,11.5-1.2,17.2c-1.2-2.5-2.5-5.1-3.7-7.6
		C663,234.9,662.3,232.7,661.7,230.5z"/>
	<path class="st9" d="M850.5,304.2c-2.3-1.7-4.6-3.3-6.9-5c-0.7-1.7-1.3-3.3-2-5c2.7-0.9,5.3-1.8,8-2.7c0.5,3.7,0.9,7.4,1.4,11
		C850.8,303.1,850.7,303.6,850.5,304.2z"/>
	<path class="st20" d="M1399.5,193c-0.6,0.2-1.3,0.4-1.9,0.6c-6.6,2.1-6.6,2.1-2.8,9.5c-3.8-1.4-6.4-2.3-7.8-2.8
		c1.5-4.1,2.6-7.3,3.7-10.4l0.1-0.2c2.5-0.1,4.9-0.1,7.4-0.2C1398.7,190.7,1399.1,191.8,1399.5,193z"/>
	<path class="st18" d="M1392.5,272.5c0.6-4.8,1.2-9.6,1.9-14.4c0-1.9,0-3.8,0-5.7c0.5-2.5,1-4.9,1.4-7.4c0.6,1,1.2,2.1,1.8,3.1
		c-0.1,0.7-0.2,1.5-0.2,2.2c-0.1,0.4-0.2,0.8-0.3,1.1c-0.2,8.6-0.5,17.3-0.7,25.9C1395,275.7,1393.8,274.1,1392.5,272.5z"/>
	<path class="st21" d="M738.3,266c-4.2-0.1-4.8,3.2-5.7,6.2c-0.6,0.7-1.2,1.3-1.8,2c1-6,1.9-12,2.9-18c1.3,0,2.7,0,4,0
		C737.9,259.5,738.1,262.7,738.3,266z"/>
	<path class="st16" d="M829.7,309.1c5.4,0,10.8,0.1,16.3,0.1c-1.2,0.8-2.2,2.1-3.5,2.3c-8.2,1.6-16.5,2.3-24.7-0.3
		c1-0.4,1.9-0.8,2.9-1.1C823.9,311.5,827,312.4,829.7,309.1z"/>
	<path class="st20" d="M1207.7,202.2c-0.2,6.3-0.8,7-6.6,6.6c0.7-3.5-4.1-6.6-0.5-10.4C1202.9,199.7,1205.3,201,1207.7,202.2z"/>
	<path class="st16" d="M747.8,268.4c-0.7-0.5-1.5-0.9-2.2-1.4c0.8-1.2,1.6-2.4,2.3-3.6c1.2-0.4,2.4-0.8,3.6-1.2
		c0.1,0.7,0.2,1.5,0.3,2.2c1.8,3.7,3.7,7.4,5.8,11.8c-0.3,0.1-1.7,0.6-3.1,1.1c-1.3-1.5-2.6-2.9-3.7-4.4
		C749.7,271.4,748.8,269.8,747.8,268.4z"/>
	<path class="st4" d="M1336.5,296.2c0.4-4.1,0.1-7.9-3.1-11.1c-0.9-0.9-1.1-2.5-1.6-3.9c4.8,0.6,7.5,3.5,8.8,8.1
		c-0.6,3.6-1.3,7.2-1.9,10.8C1338,298.9,1337.3,297.6,1336.5,296.2z"/>
	<path class="st19" d="M661.8,96.2c0.1-4.2-1.5-9,3.8-11.5c1.4,1.2,2.8,2.3,4.2,3.5c-0.4,2.2-0.7,4.5-1.1,6.7
		C666.3,95.4,664,95.8,661.8,96.2z"/>
	<path class="st19" d="M738.3,275.4c0.9-0.4,1.9-1.3,2.7-1.1c1.5,0.4,2.8,1.3,4.2,2c-0.9,3.6-1.8,7.2-2.7,10.9
		c-1.3,0.2-2.6,0.3-3.8,0.5c-0.1-0.5-0.2-1.1-0.3-1.6C738.3,282.5,738.3,278.9,738.3,275.4z"/>
	<path class="st7" d="M1444.7,290.2c0.7-4.2,0.2-8.9,4.9-11.3c5,4.4,5,5,0.6,9.4c-0.6,0.6-1,1.3-1.5,1.9
		C1447.3,290.2,1446,290.2,1444.7,290.2z"/>
	<path class="st19" d="M667.8,181.8c-0.2,2.7-0.4,5.4-0.7,8.1c-2.2,1.5-4.3,1.9-5.8-0.9c0.1-3.3,0.2-6.5,0.2-9.8
		c0.8-0.2,1.7-0.7,2.4-0.4c1.3,0.5,2.5,1.3,3.8,2c0.1,0.2,0.2,0.4,0.2,0.7C668,181.6,667.8,181.7,667.8,181.8z"/>
	<path class="st16" d="M831.6,235.1c2.3,0.4,4.7,0.7,7,1.1c0.3,0.7,0.5,1.4,0.8,2.1c-9.2-0.1-18.5-0.3-27.7-0.4
		c-0.1-0.2-0.1-0.5-0.1-0.7c0.4-0.7,0.7-1.4,1.1-2.1c2.4,0,4.7,0,7.1,0C823.7,235.1,827.7,235.1,831.6,235.1z"/>
	<path class="st19" d="M667.7,148.1c-1.7,1.9-1,7.4-6.1,4c0-3.3,0-6.6,0-9.9c0.7-0.3,1.5-1.1,2-0.9c1.7,0.5,3.3,1.3,5,2
		c0,1.3,0,2.6,0.1,4C668.3,147.6,668,147.9,667.7,148.1z"/>
	<path class="st20" d="M1448.6,290.2c0.5-0.6,1-1.3,1.5-1.9c4.4-4.4,4.4-5-0.6-9.4c0-0.5,0-0.9,0-1.4c2.3,1,4.6,1.9,6.9,2.9
		c0.4,2.6,0.8,5.2,1.1,7.8c0,0.3-0.1,0.7-0.1,1c-2.3,0.7-4.5,1.4-6.8,2.1C1450,291,1449.3,290.6,1448.6,290.2z"/>
	<path class="st20" d="M1164.4,250.1c0.1,0.9,0.2,1.8,0.2,2.6c-4.5,2.3-9,4.5-13.6,6.8c-1.2-0.5-2.4-1-3.6-1.5
		C1153.1,255.4,1158.8,252.7,1164.4,250.1z"/>
	<path class="st20" d="M1223.8,267.2c-1.4-1.2-3.6-2.1-4-3.5c-1-3.9,2-5,5.1-5.6c0.4,0.1,0.8,0.1,1.2,0.2c0.3,2.7,0.5,5.3,0.8,8
		C1225.9,266.6,1224.9,266.9,1223.8,267.2z"/>
	<path class="st11" d="M1535.9,172c-4.6-1.3-4-5.4-4.2-8.7c-0.2-3.1-0.5-5.9-3.9-7.1c4-3.2,5.1-3,6,1.7
		C1534.7,162.6,1535.2,167.3,1535.9,172z"/>
	<path class="st20" d="M1199.6,289.9c0.4-2.6,0.7-5.1,1.1-7.7c0.6-1,1.2-2,1.9-3c1.5,0,2.9,0,5.5,0c-1,3.2-1.7,5.6-2.5,8.1
		C1203.6,288.2,1201.6,289,1199.6,289.9z"/>
	<path class="st0" d="M1246.6,263.2c0-2.7-0.2-5.5,0-8.2c0.1-1.4,1-2.8,1.6-4.1c0.1,4.8,0.3,9.6,0.4,14.5c0,5.2,0,10.5,0,15.7
		c-0.6-1.2-1.8-2.4-1.8-3.7C1246.6,272.6,1246.7,267.9,1246.6,263.2z"/>
	<path class="st6" d="M1448.6,290.2c0.7,0.4,1.4,0.8,2.1,1.2c0,2.4,0,4.7,0,8.5c-2.8-1.7-5.5-3.3-8.2-4.9c0.7-1.6,1.5-3.1,2.2-4.7
		C1446,290.2,1447.3,290.2,1448.6,290.2z"/>
	<path class="st18" d="M1365.6,285.2c-1.2-1.1-3.3-2-3.5-3.2c-0.8-4.9-0.9-9.8-1.3-14.7c0.4-0.1,0.9-0.1,1.3-0.2
		c0.3,1.1,0.6,2.1,0.9,3.2C1363.9,275.2,1364.8,280.2,1365.6,285.2z"/>
	<path class="st11" d="M647.8,283.2c0.8,1.3,2,2.6,2.2,4c0.3,1.9-0.2,3.9-0.4,5.8c-1.7,1-3.5,2.1-5.2,3.1
		C643.9,291.4,643.8,286.8,647.8,283.2z"/>
	<path class="st19" d="M665.9,302.5c-5.7-1.4-4.3-5.4-3.3-9.3c1.8,1.5,2.9,4.9,6.1,1.9c0.6,0.1,1.3,0.2,1.9,0.4
		C671.4,299.4,670.5,302.1,665.9,302.5z"/>
	<path class="st9" d="M839.5,238.3c-0.3-0.7-0.5-1.4-0.8-2.1c0-0.7,0-1.4,0-2c3.3-0.3,6.6-0.6,9.9-0.9c0.7,0.9,1.3,1.9,2,2.8
		c-1.7,0.8-3.5,1.6-5.2,2.6C843.3,239.8,841.3,240.9,839.5,238.3z"/>
	<path class="st22" d="M1501.6,252.1c0.8-0.9,1.5-2.7,2.3-2.7c5.9,0.1,11.9,0.5,17.8,0.8c-2.5,0.7-4.9,1.8-7.4,1.9
		C1510.1,252.5,1505.9,252.1,1501.6,252.1z"/>
	<path class="st9" d="M756.9,284.1c2.3-2.2,4.5-4.5,7-6.5c1.3-1.1,3.1-1.6,4.7-2.4c0.4,1.3,0.8,2.6,1.2,4c-5.1,0.5-7.4,4.6-10.2,8.1
		C758.7,286.2,757.8,285.2,756.9,284.1z"/>
	<path class="st19" d="M689.9,200.3c-0.1,0.2-0.1,0.5-0.1,0.8c-1.9,1.7-3.8,3.4-5.7,5c-1.3-1-2.6-2-4.5-3.4c2.8-2.4,4.8-4.1,6.9-5.8
		c0.7-0.6,1.4-1.2,2.1-1.9C688.9,196.8,689.4,198.6,689.9,200.3z"/>
	<path class="st18" d="M1362,243.1c0.2-3.7,0.1-7.5,0.7-11.2c0.3-1.7,1.9-3.1,3-4.7c-0.7,5.7-1.4,11.4-2,17
		C1363.1,243.9,1362.5,243.5,1362,243.1z"/>
	<path class="st10" d="M1266.8,132.2c-6.3,0.1-12.6,0.2-19,0.3C1254.1,127.6,1260.5,130.1,1266.8,132.2z"/>
	<path class="st17" d="M841.6,294.2c0.7,1.7,1.3,3.3,2,5c-2.5,1.7-4.9,3.4-7.4,4.9c-3.1,1.9-5.6,1.7-7.3-2.9
		c4.8,0.6,9.9,2.1,10.6-4.8c0.4-0.6,0.7-1.1,1.1-1.7C840.9,294.6,841.3,294.4,841.6,294.2z"/>
	<path class="st6" d="M1462.5,215.1c-4-0.5-8-1-12-1.6c0.3-3.9,1.9-4.5,8.9-3.3C1460.5,211.9,1461.5,213.5,1462.5,215.1z"/>
	<path class="st18" d="M1453.5,251.9c-0.3,6-0.5,12-1,17.9c-0.1,0.9-1.7,1.6-2.7,2.4C1451,265.4,1452.3,258.7,1453.5,251.9z"/>
	<path class="st18" d="M1223.8,267.2c1-0.3,2.1-0.6,3.1-0.9c0.1,5.1,0.2,10.1,0.3,15.2c-0.6-0.7-1.1-1.5-1.7-2.2
		C1224.9,275.2,1224.4,271.2,1223.8,267.2z"/>
	<path class="st22" d="M1249.7,167.4c-0.4-6.3-0.7-12.6-1.4-18.9c-0.3-2.3-0.6-4.2,2-5.3c0.1,7.4,0.3,14.7,0.3,22.1
		C1250.5,166,1250,166.7,1249.7,167.4z"/>
	<path class="st11" d="M719.1,191.2c-3.4-0.9-8.6,2.6-9.6-4c3.6-1.1,7.2-2.7,10.3,0.9C719.6,189.1,719.3,190.1,719.1,191.2z"/>
	<path class="st6" d="M781.6,231.4c0,1.9,0,3.9,0,5.8c-1.7-0.1-3.4-0.2-5.1-0.3c-1.3-0.9-2.7-1.8-4-2.7c0-1.1,0-2.1,0-3.2
		C775.6,231.1,778.6,231.3,781.6,231.4z"/>
	<path class="st18" d="M1387.8,258.1c-1,3.7,1.1,8.2-3,11c0.3-5.6,0.7-11.2,1-16.9c0.6,0.3,1.3,0.7,1.9,1
		C1387.7,254.9,1387.7,256.5,1387.8,258.1z"/>
	<path class="st20" d="M1225.4,229.1c-1.6,0-3.2,0-4.9,0c-2-3.8-0.6-6.6,2.2-9C1226.5,222.2,1225.8,225.7,1225.4,229.1z"/>
	<path class="st17" d="M751.8,264.4c-0.1-0.7-0.2-1.5-0.3-2.2c0.1-0.3,0.1-0.7,0.2-1c3.6,1.4,7.2,3,10.7-0.1
		c0.7,0.1,1.5,0.1,2.2,0.2c0,1.6,0,3.3-0.1,4.9C760.3,265.6,756,265,751.8,264.4z"/>
	<path class="st23" d="M1343.8,237.2c4.1,4.7,4.1,10.4,0.1,13.8C1343.9,246.5,1343.8,241.8,1343.8,237.2z"/>
	<path class="st4" d="M1010.5,238.3c0.7-1.1,1.5-2.3,2.2-3.4c2,3.4,4,6.9,6,10.3c-0.5,0.6-1,1.2-1.5,1.7
		C1015,244,1012.8,241.1,1010.5,238.3z"/>
	<path class="st0" d="M1385.8,226c0.6,0.8,1.6,1.5,1.7,2.3c0.5,6,0.8,11.9,0,17.9c-0.1,0.8-1.1,1.5-1.7,2.3
		C1385.8,240.9,1385.8,233.5,1385.8,226z"/>
	<path class="st19" d="M663.7,237.2c1.2,2.5,2.5,5.1,3.7,7.6c0,0.8,0.1,1.7,0.1,2.5c-0.3,0.3-0.6,0.6-0.9,0.9c-0.3,0-0.6,0-0.8,0.2
		c-1.4,0-2.8-0.1-4.1-0.1c0-3.3-0.1-6.6-0.1-9.9C662.2,237.9,662.9,237.5,663.7,237.2z"/>
	<path class="st7" d="M1228.8,310.3c-0.7-1.4-1.4-2.8-2.1-4.2c0-2.5,0-5.1,0-7.7c0.7-0.5,1.4-1,2.1-1.4
		C1231,301.4,1231.7,305.8,1228.8,310.3z"/>
	<path class="st18" d="M785.2,304.4c2.1-0.1,4.2-0.2,6.4-0.4c2.7,0.6,5.5,1.3,8.2,1.9c0.6,0.1,1.2,0.3,1.8,0.4
		c0.3,0.9,0.7,1.8,1,2.8C796.8,307.5,791,306,785.2,304.4z"/>
	<path class="st20" d="M1178.4,289.7c0.1,1.6,0.3,3.2,0.4,4.8c-1.7,0.7-3.4,1.5-5.1,2.2c-0.7-0.7-1.3-1.3-2-2c0-1.5,0.1-2.9,0.1-4.4
		C1174,290.1,1176.2,289.9,1178.4,289.7z"/>
	<path class="st16" d="M821.7,191.2c-2.1-1-4.1-1.9-6.2-2.9c4.6-1.3,9.2-4,13.1,1.3c-0.3,0.2-0.6,0.4-0.9,0.6
		C825.6,190.5,823.7,190.9,821.7,191.2z"/>
	<path class="st11" d="M720.7,308c1.6,0,3.2,0,4.9,0c3.8,0.5,7.6,0.9,11.4,1.4C729.4,313.9,724.8,313.5,720.7,308z"/>
	<path class="st21" d="M1456.5,231.3c0,4.8,0.2,9.7-0.2,14.5c-0.1,1.4-1.7,2.7-2.7,4c-0.1-6.2-0.2-12.4-0.4-18.6
		C1454.4,231.2,1455.5,231.2,1456.5,231.3z"/>
	<path class="st4" d="M1248.3,247.1c-0.5-4.6-1.4-9.2-1.5-13.8c-0.1-2.6,1.1-5.1,1.7-7.7C1248.4,232.8,1248.3,240,1248.3,247.1z"/>
	<path class="st23" d="M1346.6,274.2c0,2.1,0.5,4.4-0.1,6.3c-0.6,2-2.3,3.7-3.5,5.5C1343.5,281.8,1340.2,276.5,1346.6,274.2z"/>
	<path class="st18" d="M1171.7,294.7c0.7,0.7,1.3,1.3,2,2c-5.9,0.4-11.8,2.8-17.5-0.9c0.8-0.3,1.7-0.6,2.5-0.9
		C1163,294.9,1167.3,294.8,1171.7,294.7z"/>
	<path class="st0" d="M1246.9,210c0-0.3-0.1-0.6-0.3-0.8c0.1-7.3,0.2-14.7,0.3-22c0.6,2,1.2,4.1,1.7,6.1c-0.1,5.9-0.1,11.8-0.2,17.7
		C1247.9,210.7,1247.4,210.3,1246.9,210z"/>
	<path class="st4" d="M1248.7,281.1c0-5.2,0-10.5,0-15.7c0.4,7.9,0.7,15.7,1.1,23.6C1249.4,286.3,1249,283.7,1248.7,281.1z"/>
	<path class="st20" d="M1392.5,272.5c1.3,1.6,2.5,3.3,3.8,4.9c-0.1,0.6-0.1,1.2-0.2,1.8c-3.1-0.5-6.1-1-9.2-1.4
		C1387,274.1,1388.9,272.4,1392.5,272.5z"/>
	<path class="st23" d="M1397.6,248.1c-0.6-1-1.2-2.1-1.8-3.1c0.7-7.2,1.4-14.4,2.1-21.7c0.2,0,0.4,0,0.6,0
		C1398.2,231.6,1397.9,239.8,1397.6,248.1z"/>
	<path class="st18" d="M1526.7,250.1c4.4-4.2,12-4.2,15.8,0C1537.3,250.2,1532,250.1,1526.7,250.1z"/>
	<path class="st6" d="M1384.7,296.2c0.7-0.6,1.8-1,2.2-1.8c1.9-4.5,5.7-4.5,9.6-4.2C1393.6,294.3,1390.4,297.8,1384.7,296.2z"/>
	<path class="st23" d="M1362,243.1c0.6,0.4,1.1,0.8,1.7,1.2c0,2.1-0.1,4.2-0.1,6.3v-0.1c-0.2,6.6-0.4,13.2-0.6,19.8
		c-0.3-1.1-0.6-2.1-0.9-3.2c0-1.9,0-3.9,0-5.8c0-0.4,0.1-0.7,0.1-1.1c0-2.4,0.2-4.8,0.1-7.2c0-0.6-0.9-1.2-1.5-1.8
		C1361.2,248.5,1361.6,245.8,1362,243.1z"/>
	<path class="st18" d="M1248.7,193.3c-0.6-2-1.2-4.1-1.7-6.1c-0.5-3.2-0.6-6.4,2.9-8.2C1249.4,183.8,1249.1,188.6,1248.7,193.3z"/>
	<path class="st18" d="M1182.1,207.3c0.6-0.8,1.2-1.5,2.2-2.9c3.4,2.2,6.9,4.5,10.4,6.7C1190.6,209.8,1186.4,208.6,1182.1,207.3z"/>
	<path class="st4" d="M1365.7,214.4c0-3.5,0.1-7,0.1-10.5c0-1.1,0-2.3,0-3.4C1369.4,204.5,1369.4,210.2,1365.7,214.4z"/>
	<path class="st20" d="M1400.3,207.3c0.4,2.6,0.7,5.2,1.1,7.8c-2.2-0.9-4.5-1.7-6.9-2.7c1-2.2,2.2-4.7,3.4-7.2
		C1398.7,205.9,1399.5,206.6,1400.3,207.3z"/>
	<path class="st18" d="M1560.6,282.2c4.6,3.9,5.1,10,1.2,13.6C1561.4,291.3,1561,286.7,1560.6,282.2z"/>
	<path class="st16" d="M1387.7,221.2c-0.6,0.3-1.3,0.6-1.9,1c-0.4-4.7-0.8-9.3-1.2-14c1.1,2.8,2.2,5.6,3.3,8.4
		C1387.9,218,1387.8,219.6,1387.7,221.2z"/>
	<path class="st18" d="M1153.7,198.6c-4.7,1.2-9.3,2.3-14,3.5C1143.4,197,1148.6,198,1153.7,198.6z"/>
	<path class="st18" d="M1421.4,207.3c1.8-5.1,6.6-2.2,9.7-3.7c0.7,0.1,1.4,0.1,2.1,0.2c0.5,0.8,0.9,1.7,1.4,2.5
		C1430.2,206.7,1425.8,207,1421.4,207.3z"/>
	<path class="st22" d="M1293.6,168c0.3,6.6,0.7,13.2,0.8,19.7c0,1.1-1.3,2.3-2,3.4c0.1-6.5,0.2-13.1,0.3-19.6
		C1292.8,170.3,1293.3,169.2,1293.6,168z"/>
	<path class="st18" d="M1457.6,288.2c-0.4-2.6-0.8-5.2-1.1-7.8c1.3-1.7,2.6-3.3,3.9-5C1459.4,279.6,1458.5,283.9,1457.6,288.2z"/>
	<path class="st7" d="M1226.1,258.3c-0.4-0.1-0.8-0.1-1.2-0.2c0.2-3,0.4-6,0.6-9c1-0.7,2-1.4,3-2
		C1228.9,251.1,1229.6,255.1,1226.1,258.3z"/>
	<path class="st16" d="M764.6,261.3c-0.7-0.1-1.5-0.1-2.2-0.2c-0.2-4.1-0.5-8.2-0.6-12.3c0-0.5,1.2-1.1,1.9-1.7
		C764,251.8,764.3,256.6,764.6,261.3z"/>
	<path class="st16" d="M851,302.5c-0.5-3.7-0.9-7.4-1.4-11c1.6,1.7,4.2,3.3,4.6,5.3C854.5,298.4,852.1,300.6,851,302.5z"/>
	<path class="st22" d="M1349.9,303c4.1-0.6,8.2-1.3,12.3-1.9C1358.5,304.1,1354.5,305.5,1349.9,303z"/>
	<path class="st4" d="M1398.3,189.5c-2.5,0.1-4.9,0.1-7.4,0.2c0.5-5.8,4.7-4.2,8.9-4.4C1399.2,187.1,1398.7,188.3,1398.3,189.5z"/>
	<path class="st18" d="M811.6,237.1c0,0.2,0.1,0.5,0.1,0.7c-9.4,0-18.8,0-28.1,0.1c3.7-0.3,7.4-0.6,11.1-0.9
		C800.3,237.1,805.9,237.1,811.6,237.1z"/>
	<path class="st19" d="M644.4,296.1c1.7-1,3.5-2.1,5.2-3.1c0.6,2,1.3,4.1,1.9,6.1c-1.3,0.6-2.6,1.2-3.9,1.9
		C644.3,300.9,644.3,298.6,644.4,296.1z"/>
	<path class="st7" d="M1209.6,289.4c1.7,0.6,3.3,1.2,6.3,2.2c-2.7,2.8-4.4,4.7-6.2,6.6C1209.6,295.2,1209.6,292.3,1209.6,289.4z"/>
	<path class="st11" d="M738.7,287.7c1.3-0.2,2.6-0.3,3.8-0.5c0,0.4,0.1,0.7,0.1,1.1c-0.1,1.3-0.1,2.6-0.2,3.9c0,2-0.1,4-0.1,6.1
		c-0.5,0-1,0.1-1.5,0.1c-0.7-1.4-1.4-2.7-2.2-4.1C738.7,292.1,738.7,289.9,738.7,287.7z"/>
	<path class="st18" d="M854.7,233.1c-0.7-1.9-1.4-3.8-2.1-5.7c0-0.8,0-1.5,0.1-2.3c0.6-1.2,1.2-2.3,1.8-3.5
		C855.7,225.4,858.7,229.2,854.7,233.1z"/>
	<path class="st18" d="M1169.7,197.4c-3.1,1.8-6.2,4.8-9-0.3c3-0.3,6-0.6,9-0.9C1169.7,196.6,1169.7,197,1169.7,197.4z"/>
	<path class="st7" d="M1209.7,226.1c4.3,2.3,4.8,8.4,0.9,11C1210.3,233.5,1210,229.8,1209.7,226.1z"/>
	<path class="st18" d="M1367.6,166.3c-4,0.6-8,1.3-12,1.9C1360.4,163.4,1362.2,163.1,1367.6,166.3z"/>
	<path class="st18" d="M1250.7,141.8c3.2-5.1,6.1-5.6,12-2C1258.7,140.5,1254.7,141.1,1250.7,141.8z"/>
	<path class="st10" d="M1246.9,210c0.5,0.3,1.1,0.7,1.6,1c0,3.8,0,7.5,0.1,11.3C1248,218.2,1247.4,214.1,1246.9,210z"/>
	<path class="st19" d="M719.1,191.2c0.2-1,0.5-2.1,0.7-3.1c2.6-0.1,5.2-0.3,7.8-0.4c0.1,2.9-0.3,5-4.2,3.7
		C722.2,190.9,720.6,191.2,719.1,191.2z"/>
	<path class="st12" d="M736.9,309.4c-3.8-0.5-7.6-0.9-11.4-1.4c1.1-0.9,2.2-1.9,3.3-2.8c3.2,0.7,6.3,1.3,9.5,2
		c0.5,0.1,0.9,0.1,1.4,0.2C738.8,308.1,737.9,308.7,736.9,309.4z"/>
	<path class="st4" d="M1169.7,197.4c0-0.4,0-0.8,0-1.2c5.4,0,10.8,0,16.2,0C1180.4,196.6,1175,197,1169.7,197.4z"/>
	<path class="st22" d="M668.6,94.9c0.4-2.2,0.7-4.5,1.1-6.7c3,4.3,2,8.6-0.1,12.9C669.2,99.1,668.9,97,668.6,94.9z"/>
	<path class="st19" d="M739.8,307.4c-0.5-0.1-0.9-0.1-1.4-0.2c0-4,0.1-7.9,0.1-11.9c0-0.3,0.1-0.7,0.1-1c0.7,1.4,1.4,2.7,2.2,4.1
		c0.3,2.7,0.7,5.4,1,8.1v-0.1c-0.4,0.3-0.7,0.5-1.1,0.8C740.4,307.2,740.1,307.3,739.8,307.4z"/>
	<path class="st16" d="M802.6,309.1c-0.3-0.9-0.7-1.8-1-2.8c4.2-0.5,8.3-0.7,10.2,4.4C808.8,310.2,805.7,309.6,802.6,309.1z"/>
	<path class="st18" d="M667.7,148.1c0.3-0.3,0.6-0.6,0.9-0.8c0,9.9,0,19.8,0,29.7c-0.3-5.2-0.7-10.4-0.9-15.5
		C667.5,157,667.7,152.6,667.7,148.1z"/>
	<path class="st18" d="M1462.7,257.4c-2.2-4.1-2.6-7.9,1.6-11C1463.8,250.1,1463.3,253.8,1462.7,257.4z"/>
	<path class="st18" d="M1539.6,184.1c-4.7-2.8-4.6-6.8-2.8-11.3C1537.7,176.6,1538.7,180.3,1539.6,184.1z"/>
	<path class="st16" d="M1456.5,231.3c-1.1,0-2.1-0.1-3.2-0.1c-0.2-2.3-0.5-4.6-0.7-7C1456.9,224.9,1456.7,228.1,1456.5,231.3z"/>
	<path class="st20" d="M1433.2,203.9c-0.7-0.1-1.4-0.1-2.1-0.2c-2.2-1.6-4.4-3.3-6.6-4.9c0.3-0.3,0.6-0.5,0.9-0.8
		C1428.5,199.3,1434.2,197.2,1433.2,203.9z"/>
	<path class="st16" d="M854.2,220.2c-1.6-1.6-3.6-3-4.4-5c-0.4-0.9,1.7-2.8,2.6-4.3C853,214.1,853.6,217.2,854.2,220.2z"/>
	<path class="st17" d="M848.7,204.2c-6.7-0.8-7.2-1.6-5-7.3C845.4,199.3,847.1,201.7,848.7,204.2z"/>
	<path class="st18" d="M1213.8,316.2c3.3-1,6.5-2,9.8-2.9C1221.2,317.2,1217.8,317.7,1213.8,316.2z"/>
	<path class="st17" d="M762.4,290.4c4.3-4,5.9-3.9,9.6,0.4c-1.8,1.6-6.1-2.6-6.4,2.6C764.5,292.4,763.5,291.4,762.4,290.4z"/>
	<path class="st11" d="M737.7,192c-3.6,0.3-7.4,1.3-8.4-3.9C733.1,187.2,735.7,189,737.7,192z"/>
	<path class="st20" d="M1225.5,279.3c0.6,0.7,1.1,1.5,1.7,2.2c0.1,0.2,0,0.4-0.2,0.6c-2,1.1-3.9,2.2-6.2,3.5c0-1.9,0-3.7,0-6
		C1222.4,279.4,1223.9,279.3,1225.5,279.3z"/>
	<path class="st20" d="M1158.7,295c-0.8,0.3-1.7,0.6-2.5,0.9c-0.8,0-1.7,0-2.5-0.1c1-1.9,2-3.7,3-5.5
		C1157.4,291.8,1158.1,293.4,1158.7,295z"/>
	<path class="st18" d="M1481.8,279.4c-0.7-1.2-1.3-2.3-2-3.5c1.8-1.9,3.7-3.8,5.5-5.7C1484.1,273.2,1482.9,276.3,1481.8,279.4z"/>
	<path class="st18" d="M1228.5,295.3c-4.6-2.2-5.2-5.3-1.8-9.4C1227.3,289,1227.9,292.2,1228.5,295.3z"/>
	<path class="st22" d="M1478.2,293.8c-3.4-4.2-1.2-7.1,2.1-9.7C1479.6,287.3,1478.9,290.6,1478.2,293.8z"/>
	<path class="st18" d="M1412.6,203.8c-2.8,4.1-7,1.7-10.6,2.3C1404.8,202.1,1408.7,203,1412.6,203.8z"/>
	<path class="st4" d="M1248.7,302.4c-0.6-0.5-1.7-1.1-1.6-1.4c0.8-3.3,1.8-6.5,2.8-9.8C1250.4,295.1,1252,299,1248.7,302.4z"/>
	<path class="st18" d="M741.8,306.4c-0.3-2.7-0.7-5.4-1-8.1c0.5,0,1-0.1,1.5-0.1C742.8,301,748.4,304.1,741.8,306.4z"/>
	<path class="st18" d="M667.4,266.2c0-2,0-3.9,0-5.9C667.4,262.2,667.4,264.2,667.4,266.2z"/>
	<path class="st18" d="M742.4,292.2c0.1-1.3,0.1-2.6,0.2-3.9C742.5,289.6,742.5,290.9,742.4,292.2z"/>
	<path class="st12" d="M744.3,200.1c-0.9-0.7-1.7-1.3-2.6-2C742.5,198.7,743.4,199.4,744.3,200.1z"/>
	<path class="st18" d="M669.3,280c0-0.9-0.1-1.8-0.1-2.7C669.2,278.2,669.3,279.1,669.3,280z"/>
	<path class="st18" d="M667.5,272.1c0-0.6-0.1-1.3-0.1-1.9C667.4,270.9,667.4,271.5,667.5,272.1z"/>
	<path class="st11" d="M648.5,216.1c0.3,0.7,0.7,1.5,1,2.2C649.2,217.6,648.9,216.9,648.5,216.1z"/>
	<path class="st18" d="M740.7,307.1c0.4-0.3,0.7-0.5,1.1-0.8C741.5,306.6,741.1,306.8,740.7,307.1z"/>
	<path class="st0" d="M1017.2,246.9c0.5-0.6,1-1.2,1.5-1.7c0.2,0,0.4,0.1,0.4,0.3c-0.5,0.6-0.9,1.1-1.4,1.7
		C1017.6,247,1017.4,246.9,1017.2,246.9z"/>
	<path class="st18" d="M666.6,248.2c0.3-0.3,0.6-0.6,0.9-0.9c0.2,0.3,0.1,0.6-0.1,0.9H667H666.6z"/>
	<path class="st18" d="M1363.6,250.5v0.1c0.1,0,0.2,0.1,0.3,0.1C1363.8,250.6,1363.7,250.5,1363.6,250.5z"/>
	<path class="st23" d="M1397,251.4c0.1-0.4,0.2-0.8,0.3-1.1C1397.3,250.6,1397.1,251,1397,251.4z"/>
	<path class="st11" d="M667.8,180.4c0.2-0.4,0.4-0.8,0.5-1.2C668.2,179.6,668,180,667.8,180.4z"/>
	<path class="st20" d="M1180.4,294.4c0.4,0.2,0.8,0.4,1.1,0.6C1181.2,294.8,1180.8,294.6,1180.4,294.4z"/>
	<path class="st10" d="M590.7,151.3c-0.7-5.1-1.3-10.2-2-15.2c-0.6-3.7-1.2-7.5-2.1-11.1c-0.3-1.1-1.6-2.3-2.6-2.6
		c-2.8-0.9-5.7-1.9-8.6-2c-19.1-0.5-38.2,0.3-57.1,3.6c-3.7,0.6-7.7,0.4-11.4-0.4c-2.2-0.5-6.1-3.2-5.9-3.9c1.1-3.4,2.9-6.8,5.2-9.5
		c0.9-1.1,3.8-1,5.7-0.8c22.1,2.7,44.3,3.6,66.6,2c5-0.4,10,0.1,15-0.1c4.3-0.1,8.6-0.7,12.9-0.9c5.1-0.3,9.9,0,14.9,2.3
		c3.8,1.8,9,1.2,13.5,0.9c5.9-0.4,11.9-2.3,16.7,3c0.4,0.5,0.7,1,1.4,2.3c-3.1,0.5-5.6,1.2-8.1,1.3c-6.7,0.2-13.3,0.1-20,0.1
		c-4.4,0-7.7,1.6-8.6,6.5c-1.4,7.8-3,15.5-4.6,23.2c-0.3,1.4-0.8,2.8-1.1,4.3c-1.8-1.3-3.5-3.6-5.4-3.7
		C600.4,150.2,595.5,151,590.7,151.3z"/>
	<path class="st23" d="M608.3,269.4c1.8,5.3,3.6,10.5,5.4,15.8c-1.3,6.8-11.4,12.6-19.2,11c-1.1-0.2-2.2-0.7-3.4-0.9
		c-2.8-0.6-7.6-0.5-7.9-1.7c-1.2-4.3-2.1-9.4-0.8-13.5c3.8-11.9,5.8-24.1,6.4-36.5c0.4-7.8,0.6-15.6,0.8-23.4
		c5.9-4.1,11.5-2.7,16.9,1.1c0,1.6-0.1,3.3-0.1,4.9c-0.1,0.1-0.3,0.2-0.3,0.3c0.1,0.3,0.2,0.5,0.3,0.8c0,3,0,5.9,0,8.9
		c0,1,0,2-0.1,3c0.7,5.9,1.6,11.7,2,17.6c0.1,2.7-0.5,5.5-1.6,8C605.7,267.2,605.9,268.5,608.3,269.4z"/>
	<path class="st22" d="M606.5,221.3c-5.4-3.8-11-5.1-16.9-1.1c0.4-16.2,0.7-32.3,1-48.5c0.1-6.8,0-13.6,0.1-20.4
		c4.8-0.3,9.7-1.1,14.5-0.8c1.8,0.1,3.6,2.4,5.4,3.7C608.6,176.5,611.2,199.1,606.5,221.3z"/>
	<path class="st19" d="M668.8,211.6c-2.4-0.8-4.9-1.7-7.3-2.5c0-3.3,0-6.5,0-9.8c0.1-0.8,0.2-1.6,0.2-1.3c2.8,0.5,5.4,0.9,7.9,1.3
		C671.3,203.5,673.6,207.8,668.8,211.6z"/>
	<path class="st12" d="M669.6,199.3c-2.5-0.4-5.1-0.8-7.9-1.3c0-0.2-0.1,0.6-0.2,1.3c-1.8-0.2-3.5-0.3-5.3-0.5
		c-1.7-5.3,0.2-8.4,5.1-9.9c1.6,2.8,3.6,2.4,5.8,0.9C667.9,193,668.7,196.1,669.6,199.3z"/>
	<path class="st19" d="M661.4,102.3c0.5-0.8,1-1.6,1.4-2c1.6,0.7,3.1,1.3,4.5,1.9c-0.1,3.3-0.3,6.6-0.4,9.9
		c-1.6,1.4-3.1,3.7-5.4,0.9C661.4,109.5,661.4,105.9,661.4,102.3z"/>
	<path class="st19" d="M661.6,166.3c0.1-2.4,0.3-4.8,0.4-7.2c0.4-0.1,0.8-0.3,1.2-0.4c1.2,2.8,2.7,5.5,3.4,8.5c0.3,1.5-1,3.3-1.5,5
		c-1.1-1.3-2.3-2.6-3.4-3.9C661.6,167.5,661.6,166.9,661.6,166.3z"/>
	<path class="st22" d="M606.4,239.2c0-1,0-2,0.1-3C606.4,237.2,606.4,238.2,606.4,239.2z"/>
	<path class="st22" d="M606.4,227.2c-0.1-0.3-0.2-0.5-0.3-0.8c0-0.1,0.2-0.2,0.3-0.3C606.4,226.5,606.4,226.9,606.4,227.2z"/>
	<path class="st24" d="M1017.2,246.9c0.2,0,0.4,0.1,0.5,0.2c7.7,5.8,10.3,5.7,16.7-1.2c2.5-2.8,4.8-5.8,7.1-8.7
		c1.5,0,2.9,0.1,4.4,0.1c-4.2,8.9-9,17.4-11.9,27c-1.6,5.3-5.8,9.9-9.3,14.4c-0.9,1.2-4.6,1.8-5.5,1c-3.3-3-6.2-6.6-8.9-10.3
		c-2.3-3.1-4.4-6.4-6-9.9c-2.6-5.8-4.7-11.8-7-17.7c0.9-3.5,3-4.7,6.5-3.9c1.9,0.4,3.9,0.3,5.8,0.4c0.3,0,0.5,0.1,0.8,0.1
		C1012.8,241.1,1015,244,1017.2,246.9z"/>
	<path class="st24" d="M929.9,230.6c-1.9,9-4,18-5.6,27.1c-1,5.8-1.3,11.8-1.8,17.7c-0.8,8.2-1.3,16.4-2.4,24.6
		c-0.6,4.9-10.2,10.4-15.1,9.2c-3.7-0.9-4.8-3.3-3.5-7c5.1-14.7,10.4-29.3,15-44.2c2.6-8.5,4-17.3,6-26c0.2-0.9,0.9-1.8,1.3-2.6
		C925.9,229.7,927.9,230.1,929.9,230.6z"/>
	<path class="st25" d="M963.5,178.3c-2.8-4.3-5.3-8.7-8.3-12.9c-2.9-4-5.5-3.9-7.8,0.6c-1.8,3.5-2.5,7.4-3.8,11.1
		c-2.1-0.1-4.3-0.2-6.4-0.3c1.1-6.6,2.1-13.2,3.2-19.8c0-0.6,0.1-1.3,0.1-1.9h0.3c0.1-0.1,0.4-0.2,0.3-0.3c-0.1-0.3-0.2-0.5-0.3-0.8
		c0-1,0-1.9,0-2.9c2.2-0.7,4.5-2,6.6-1.9c5.8,0.3,11.6,1.1,17.5,1.8c0.2,0.1,0.5,0.1,0.7,0.1c4.3,8.7,8.6,17.3,13,26
		C973.5,177.6,968.5,178,963.5,178.3z"/>
	<path class="st26" d="M964.9,151.1c-5.8-0.6-11.6-1.5-17.5-1.8c-2.2-0.1-4.4,1.2-6.6,1.9c-0.1-3-0.3-6.1-0.4-9.1
		c-0.2-0.4-0.4-0.8-0.6-1.2c1-3.2,2.1-6.5,3.1-9.7c4.9,0,9.8,0,14.7,0c1.7,2.7,3.4,5.3,5.1,8c0.3,0.4,0.6,0.8,0.9,1.2
		c0.4,2.3,0.9,4.5,1.3,6.8c0.2,0.4,0.5,0.8,0.7,1.1c0,0.6,0,1.2,0,1.7C965.3,150.4,965.1,150.8,964.9,151.1z"/>
	<path class="st27" d="M1009.7,238.2c-1.9-0.1-3.9,0-5.8-0.4c-3.5-0.8-5.7,0.4-6.5,3.9c-4.3-7.8-8.6-15.5-12.8-23.3
		c4-0.7,8-1.4,12.1-2.1C1001,223.5,1005.3,230.8,1009.7,238.2z"/>
	<path class="st28" d="M963.5,178.3c5-0.4,10-0.8,15.1-1.1c4.4,4.8,6.8,10.3,6.3,16.9c-4.2-0.5-8.6-2.5-12.4,1.3
		C969.5,189.7,966.5,184,963.5,178.3z"/>
	<path class="st14" d="M940,191.2c-2.5,9.7-5,19.3-7.5,29c-2.3,0-4.6,0-6.8,0c1.5-7.8,3.1-15.5,4.6-23.3c0.4-1.9,1-3.8,1.5-5.7
		C934.5,191.3,937.3,191.2,940,191.2z"/>
	<path class="st28" d="M940,191.2c-2.7,0-5.5,0-8.2,0c1.8-4.8,3.6-9.6,5.4-14.4c2.1,0.1,4.3,0.2,6.4,0.3
		C942.4,181.9,941.2,186.5,940,191.2z"/>
	<path class="st27" d="M925.7,220.2c2.3,0,4.6,0,6.8,0c-0.9,3.5-1.7,6.9-2.6,10.4c-2-0.4-4-0.9-6-1.3
		C924.5,226.2,925.1,223.2,925.7,220.2z"/>
	<path class="st12" d="M957.6,131.2c-4.9,0-9.8,0-14.7,0c1.3-3.2,2.8-6.3,6.8-5.8C953.2,125.9,957.1,126.4,957.6,131.2z"/>
	<path class="st21" d="M940.5,155.2c0,0.6-0.1,1.3-0.1,1.9C940.4,156.5,940.5,155.9,940.5,155.2z"/>
	<path class="st21" d="M965.6,148.4c-0.2-0.4-0.5-0.8-0.7-1.1C965.1,147.6,965.3,148,965.6,148.4z"/>
	<path class="st21" d="M963.5,140.4c-0.3-0.4-0.6-0.8-0.9-1.2C962.9,139.6,963.2,140,963.5,140.4z"/>
	<path class="st26" d="M940.8,154.2c0.1,0.3,0.2,0.5,0.3,0.8c0,0.1-0.2,0.2-0.3,0.3C940.8,154.9,940.8,154.5,940.8,154.2z"/>
	<path class="st21" d="M964.9,151.1c0.2-0.3,0.5-0.7,0.7-1c0,0.4,0,0.8,0,1.1C965.4,151.2,965.1,151.1,964.9,151.1z"/>
	<path class="st21" d="M939.7,141c0.2,0.4,0.4,0.8,0.6,1.2C940.2,141.8,940,141.4,939.7,141z"/>
	<path class="st4" d="M1362.1,261.2c0,1.9,0,3.9,0,5.8c-0.4,0.1-0.9,0.1-1.3,0.2c0-5.3,0-10.7,0.1-16c0.5,0.6,1.4,1.1,1.5,1.8
		c0.1,2.4,0,4.8-0.1,7.2C1362.2,260.5,1362.2,260.9,1362.1,261.2z"/>
	<path class="st18" d="M1206.3,249.1c-6.7,0.4-13.4,0.8-20.1,0.9c-0.5,0-1.1-1.8-1.7-2.7l0.1-0.1c5.3-0.2,10.6-0.4,15.9-0.5
		c1.9,0.6,3.9,1.2,5.8,1.8C1206.3,248.7,1206.3,248.9,1206.3,249.1z"/>
	<path class="st20" d="M1226.7,298.4c0,2.6,0,5.1,0,7.7c-2.1,0-4.2,0-6.6,0c0-2.6,0-4.8,0-7.6
		C1222.3,298.4,1224.5,298.4,1226.7,298.4z"/>
	<path class="st20" d="M1206.3,248.5c-1.9-0.6-3.9-1.2-5.8-1.8c0.1-1.5,0.1-3,0.2-4.5c2.3-0.9,4.6-1.7,6.9-2.6
		C1207.2,242.6,1206.7,245.5,1206.3,248.5z"/>
	<path class="st20" d="M1208.6,273.2c0.3-1,0.6-2.1,0.9-3.1c2.2,0.7,5,0.7,6.4,2.2c1.6,1.8-1.2,3.7-4.2,2.4
		C1210.7,274.2,1209.7,273.7,1208.6,273.2z"/>
	<path class="st18" d="M1210.7,266.1c0.6-2.9,1.2-5.9,1.7-8.8C1215.7,262.9,1215.5,264,1210.7,266.1z"/>
	<path class="st20" d="M1212.4,256.3c-0.6-0.6-1.2-1.3-1.8-1.9c0.9-1.3,1.7-2.6,2.8-3.7c0.2-0.2,2,0.6,2.3,1.3
		C1217.2,255.2,1214.6,255.7,1212.4,256.3z"/>
	<path class="st24" d="M1134.8,264.7c-4.2,4.1-7.5,8.6-7.1,15c0.3,5.4,2.3,8.4,8.1,10.5c2,1.3,4.1,2.5,6.1,3.8
		c1.6,2.5,3.1,5.1,5,8.1c-5.6,2.2-10.7,4.9-16.3,6.4c-5.5,1.5-7.2-0.3-7.5-6c-1.1-17.7-2.1-35.5-3.1-53.2c1.8-6.5,4.1-7.5,10.5-4.6
		c0.6,0.3,1.2,0.5,1.9,0.7C1133.1,251.7,1134,258.2,1134.8,264.7z"/>
	<path class="st25" d="M1076.3,175.8c0.8-2.5,1.6-5,2.3-7.6c0.2-1,0.4-2.1,0.6-3.1c4.2-5.6,8.3-11.2,12.5-16.9
		c2.1-0.3,4.2-0.7,6.3-0.7c6.7,0.1,13.4,0.4,20,0.6c1.1,10.4,2.2,20.7,3.2,31.1c-3.1,0-6.2-0.3-9.3,0.1c-1.3,0.1-2.5,1.4-3.7,2.1
		c-1.2-6.1-2.1-12.4-3.9-18.4c-0.7-2.5-3.2-5.2-5.5-6.1c-1.1-0.4-4.2,2.6-5.7,4.6c-3.7,5.1-7,10.6-10.5,15.9
		C1080.7,176.9,1078.5,176.4,1076.3,175.8z"/>
	<path class="st27" d="M1132.3,245.3c-0.6-0.2-1.3-0.4-1.9-0.7c-6.4-2.9-8.6-1.9-10.5,4.6c-4.1-7.5-4-15.9-5.3-24
		c-0.5-3.3-0.6-6.7-0.9-10c4.2-1.1,8.4-3,12.8-1C1128.5,224.6,1130.4,234.9,1132.3,245.3z M1116.8,219.4c0.3,0.1,0.6,0.1,0.9,0.2
		c0.2-0.9,0.4-1.8,0.6-2.7c-0.4-0.1-0.7-0.1-1.1-0.2C1117.1,217.5,1116.9,218.5,1116.8,219.4z"/>
	<path class="st28" d="M1108.5,181.4c1.2-0.7,2.4-2,3.7-2.1c3.1-0.3,6.2-0.1,9.3-0.1c0.7,6,1.4,12,2.1,18c-4.4-0.6-8.4,0.2-12,3
		C1110.5,193.9,1109.5,187.7,1108.5,181.4z"/>
	<path class="st14" d="M1111.6,200.2c3.6-2.8,7.6-3.5,12-3c1,5.7,2,11.3,3,17c-4.5-1.9-8.6-0.1-12.8,1
		C1113,210.2,1112.3,205.2,1111.6,200.2z"/>
	<path class="st28" d="M1076.3,175.8c2.2,0.5,4.4,1.1,6.6,1.6c-5.7,9-11.4,18-17.1,27c-1.2-1.2-2.3-2.3-3.5-3.5
		c2.4-4.8,4.8-9.6,7.3-14.3c1.8-3.3,3.9-6.3,5.8-9.5c0.3-0.4,0.5-0.7,0.8-1.1L1076.3,175.8z"/>
	<path class="st27" d="M1045.9,237.3c-1.5,0-2.9-0.1-4.4-0.1c4.3-8,8.6-16,12.9-24c1.4,1,2.7,2,4.1,3
		C1054.4,223.2,1050.2,230.2,1045.9,237.3z"/>
	<path class="st20" d="M1141.9,293.9c-2-1.3-4.1-2.5-6.1-3.8c1.8-1.1,4-1.8,5.3-3.3c1.6-1.9,2.5-4.5,3.7-6.8c2.3,1.3,4.7,2.6,7,3.8
		c-2,1.1-4,2.1-5.1,2.7c-0.8,2.4-1.5,4.4-2.2,6.4C1143.6,293.3,1142.7,293.6,1141.9,293.9z"/>
	<path class="st14" d="M1058.6,216.1c-1.4-1-2.7-2-4.1-3c2.6-4.1,5.2-8.1,7.8-12.2c1.2,1.2,2.3,2.3,3.5,3.5
		C1063.4,208.3,1061,212.2,1058.6,216.1z"/>
	<path class="st4" d="M1517.6,242.1c7,0,14,0.1,21,0.1c-5.1,0.5-10.2,1.1-15.3,1.5c-1.9,0.2-3.9,0-5.8-0.1
		C1517.5,243.1,1517.5,242.6,1517.6,242.1z"/>
	<path class="st22" d="M1517.6,242.1c-0.1,0.5-0.1,1-0.2,1.6c-4.1,2.3-8.2,2.7-12-0.6C1509.5,242.7,1513.5,242.4,1517.6,242.1z"/>
	<path class="st17" d="M799.8,305.9c-2.7-0.6-5.5-1.3-8.2-1.9c-0.3-1.2-0.6-2.5-0.9-3.6c3,0.6,5.9,1.2,9.3,1.9
		C799.9,302.9,799.9,304.4,799.8,305.9z"/>
	<path class="st17" d="M829.7,309.1c-2.7,3.3-5.8,2.4-9,1.1C824.6,305.2,825.3,305.1,829.7,309.1z"/>
	<path class="st26" d="M1118.2,148.2c-6.7-0.2-13.4-0.5-20-0.6c-2.1,0-4.2,0.5-6.3,0.7c3.5-7.4,6.6-15,10.8-22
		c1.5-2.5,5.2-3.9,8.2-5c1.3-0.5,4,0.6,5,1.9c1.4,1.9,2.4,4.4,2.5,6.8C1118.6,136,1118.3,142.1,1118.2,148.2z"/>
	<path class="st21" d="M1079.3,165.1c-0.2,1-0.4,2.1-0.6,3.1c0-1,0-2,0-3.1C1078.9,165.2,1079.1,165.2,1079.3,165.1z"/>
	<path class="st17" d="M770.8,227.2c0.3,0.7,0.6,1.3,1,2c0.3,0.6,0.6,1.2,0.9,1.8c0,1.1,0,2.1,0,3.2c-3.3-0.2-6.6-0.3-11-0.5
		C765,231.2,767.9,229.2,770.8,227.2z"/>
	<path class="st16" d="M751.4,250.3c0-0.8,0-1.5,0-2.3C751.4,248.8,751.4,249.6,751.4,250.3z"/>
	<path class="st10" d="M670.2,113.1c4.9,0,10,0.2,15.1,0c8.6-0.4,17.1-1.3,25.7-1.6c3.4-0.1,7,0.4,10.3,1.2c1.7,0.5,3,2.4,4.4,3.7
		c-1.7,1.9-3.4,5.5-5.2,5.6c-9.9,0.5-19.9,0.3-29.9-0.1c-5.4-0.2-10.8-1.2-16.3-1.7C670.1,119.9,668.7,117.9,670.2,113.1z"/>
	<path class="st0" d="M661.4,286.1c-0.9,0.3-1.9,0.6-2.8,0.9c-4.7,1-5.9,0-5.9-4.9c0-1.6,0.1-3.3,0.2-4.9c0.9-0.6,1.8-1.3,2.7-1.9
		c1.9,0.1,3.9,0.1,5.8,0.2C661.5,278.9,661.5,282.5,661.4,286.1z"/>
	<path class="st12" d="M661.5,275.3c-1.9-0.1-3.9-0.1-5.8-0.2c0-0.5,0.1-1.2-0.1-1.4c-3.8-4.3-0.5-5.4,2.9-6.3
		c0.9-0.3,1.9-0.2,2.9-0.3c1.1,0.4,2.2,0.7,3.2,1.1c0.2,1.4,0.5,2.9,0.7,4.3C662.7,271.7,661.5,272.7,661.5,275.3z"/>
	<path class="st12" d="M661.6,248.2c1.4,0,2.8,0.1,4.1,0.1c-0.4,1.7-0.9,3.3-1.3,5c-1,1-2,2-2.9,2.9c-4.9,0.4-6.5-2-5.6-6.5
		C658,249.2,659.8,248.7,661.6,248.2z"/>
	<path class="st19" d="M661.5,256.3c1-1,2-2,2.9-2.9c0,4.9,0.1,9.9,0.1,14.8c-1.1-0.4-2.2-0.7-3.2-1.1
		C661.4,263.5,661.5,259.9,661.5,256.3z"/>
	<path class="st12" d="M663.7,237.2c-0.7,0.4-1.5,0.8-2.2,1.1c-0.8-0.1-1.9,0.2-2.4-0.3c-1.5-1.5-2.8-3.2-4.2-4.9
		c1.3-1.1,2.5-2.2,3.9-3.1c0.8-0.5,1.8-0.6,2.7-0.9c0,0.5,0.1,0.9,0.1,1.4C662.3,232.7,663,234.9,663.7,237.2z"/>
	<path class="st6" d="M831.5,201.5c-4.5,2.2-7.1-2.2-10.8-3.1c-0.1-0.7-0.2-1.4-0.3-2.1c2.5-2.4,5.3-2.3,8.3-1.1
		C832.4,196,833.4,198.1,831.5,201.5z"/>
	<path class="st17" d="M852.7,225.1c0,0.8,0,1.5-0.1,2.3c-1.7-0.8-3.4-1.7-5.2-2.3c-2.2-0.7-4.5-1.2-6.7-1.8c0-1.4,0-2.7,0-4.1
		C846.3,217.9,848.9,222.7,852.7,225.1z"/>
	<path class="st16" d="M840.6,219.2c0,1.4,0,2.7,0,4.1c-1.4,0.6-2.8,1.2-4.3,1.8c0.2-4,0.3-8,0.5-11.9
		C841,213.4,840.4,216.6,840.6,219.2z"/>
	<path class="st17" d="M828.7,195.2c-3-1.2-5.8-1.3-8.3,1.1c-0.6-0.3-1.2-0.7-1.8-1c1-1.4,2-2.7,3.1-4.1c2-0.3,4-0.6,6-0.9
		C828,191.9,828.3,193.6,828.7,195.2z"/>
	<path class="st25" d="M1076.3,176c-0.3,0.4-0.5,0.7-0.8,1.1C1075.7,176.7,1076,176.3,1076.3,176z"/>
	<path class="st20" d="M1387.7,221.2c0.1-1.6,0.2-3.1,0.3-4.7c1.2-0.4,2.4-0.8,3.9-1.3c0.9,2.5,1.8,4.7,2.6,7
		C1392.3,221.8,1390,221.5,1387.7,221.2z"/>
	<path class="st19" d="M747.9,263.4c-0.8,1.2-1.6,2.4-2.3,3.6c-2.4-0.5-5.4,3.4-7.3-1c-0.2-3.3-0.4-6.5-0.6-9.8
		c0.1-0.3,0.2-0.6,0.1-0.9c0-0.7,0.1-1.5,0.1-2.2c0.6-5.9,1.2-11.9,1.7-17.8c1.5,2.9,3.6,3,6.2,1.6c2.9,6.3,2.9,6.3-6.1,16.4
		C742.5,256.5,750,256.5,747.9,263.4z"/>
	<path class="st19" d="M745.9,218.8c0.6,4.1,1.2,8.3,1.8,12.4c-3-0.4-5.9-0.8-8.9-1.2c-0.1-4.9-0.2-9.9-0.3-14.8
		C740.1,218.2,742.1,220.3,745.9,218.8z"/>
	<path class="st12" d="M745.9,218.8c-3.8,1.5-5.8-0.6-7.4-3.6c-1.2-0.6-2.4-1.2-3.6-1.8c1.1-1.4,2.3-2.9,3.4-4.3
		c2.4,0.8,4.9,1.5,7.3,2.3C745.8,213.8,745.8,216.3,745.9,218.8z"/>
	<path class="st12" d="M738.8,230c3,0.4,5.9,0.8,8.9,1.2c3.4,3.2-1.7,3.6-1.9,5.7c-2.6,1.4-4.7,1.2-6.2-1.6
		C739.4,233.5,739.1,231.8,738.8,230z"/>
	<path class="st12" d="M737.9,253.1c0,0.7-0.1,1.5-0.1,2.2C737.9,254.5,737.9,253.8,737.9,253.1z"/>
	<path class="st6" d="M1387.8,258.1c0-1.6-0.1-3.2-0.1-4.8c2.2-0.3,4.5-0.6,6.7-0.9c0,1.9,0,3.8,0,5.7
		C1392.2,258.1,1390,258.1,1387.8,258.1z"/>
	<path class="st18" d="M1162.8,286.5c9.9,2,19.4-0.4,28.9-2.2c-2.7,1.3-5.3,2.7-8.1,3.9c-1.7,0.7-3.5,1-5.3,1.5
		c-2.2,0.2-4.4,0.4-6.6,0.6C1168.8,289,1164.3,291.4,1162.8,286.5z"/>
	<path class="st19" d="M661.5,275.3c0.1-2.6,1.3-3.7,3.8-2.9c0.7,4.9,1.4,9.7,2.1,14.6c-2-0.3-3.9-0.6-5.9-0.9
		C661.5,282.5,661.5,278.9,661.5,275.3z"/>
	<path class="st17" d="M821.7,229.1c1,0,2,0.1,3,0.1c1.3,0.1,2.7,0.1,4,0.2c1,1.9,1.9,3.9,2.9,5.8c-3.9,0-7.9,0-11.8-0.1
		C820.4,233,821.1,231.1,821.7,229.1z"/>
	<path class="st16" d="M828.8,229.3c-1.3-0.1-2.7-0.1-4-0.2c3.9-1.4,7.9-2.8,11.8-4.2C836.8,231.4,831.7,228.5,828.8,229.3z"/>
	<path class="st17" d="M848.6,233.2c-3.3,0.3-6.6,0.6-9.9,0.9C843,228.9,844.6,228.7,848.6,233.2z"/>
	<path class="st16" d="M818.6,195.2c0.6,0.3,1.2,0.7,1.8,1c0.1,0.7,0.2,1.4,0.3,2.1c-0.8,0-1.5,0-2.3,0c-3.8,0-7.7,0.1-11.5,0.1
		c-0.5-0.1-1.1-0.2-1.6-0.4c1.6-2.7,3.4-4.5,7.1-3.2C814.2,195.6,816.5,195.2,818.6,195.2z"/>
	<path class="st16" d="M802,198.5c-2.1,0.8-4.2,1.6-6.4,2.4c-0.3-1.2-0.7-2.5-1-3.7C797.4,196.3,800,195.5,802,198.5z"/>
	<path class="st17" d="M804.4,228.2c1.1,0.3,2.2,0.6,3.3,0.9c1.7,2,3.3,3.9,5,5.9c-0.4,0.7-0.7,1.4-1.1,2.1
		c-5.6,0-11.3-0.1-16.9-0.1C797.9,234.1,801.1,231.1,804.4,228.2z"/>
	<path class="st16" d="M772.6,231c-0.3-0.6-0.6-1.2-0.9-1.8c8.6,0,17.2,0.1,25.8,0.1c-2.6,0.7-5.2,1.5-7.8,1.9
		c-2.7,0.4-5.4,0.2-8.1,0.2C778.6,231.3,775.6,231.1,772.6,231z"/>
	<path class="st0" d="M738.5,295.3c0,4-0.1,7.9-0.1,11.9c-3.2-0.7-6.3-1.3-9.5-2c0.1-1.6,0.3-3.2,0.4-4.9c0.7-2.5,1.4-5,2.1-7.5
		C734,293.8,736.2,294.5,738.5,295.3z"/>
	<path class="st2" d="M1200.7,242.2c-0.1,1.5-0.1,3-0.2,4.5c-5.3,0.2-10.6,0.4-15.9,0.5c2.6-1.4,5.1-3.1,7.8-4
		C1195,242.4,1197.9,242.5,1200.7,242.2z"/>
	<path class="st6" d="M812.7,235c-1.7-2-3.3-3.9-5-5.9c4.7,0,9.4-0.1,14-0.1c-0.7,2-1.3,4-2,6C817.4,235,815,235,812.7,235z"/>
	<path class="st18" d="M1362.1,261.2c0-0.4,0.1-0.7,0.1-1.1C1362.2,260.5,1362.2,260.9,1362.1,261.2z"/>
	<path class="st14" d="M1116.8,219.4c0.1-0.9,0.3-1.9,0.4-2.8c0.4,0.1,0.7,0.1,1.1,0.2c-0.2,0.9-0.4,1.8-0.6,2.7
		C1117.4,219.5,1117.1,219.4,1116.8,219.4z"/>
	<path class="st6" d="M806.9,198.5c3.8,0,7.7-0.1,11.5-0.1C814.6,198.4,810.8,198.4,806.9,198.5z"/>
</g>
<g id="Layer_2">
</g>
<g id="Layer_3">
	<path class="st29" d="M1830.7,211.8c2.6-4.1,5.2-8.1,7.8-12.2c5.5-0.3,11-1.2,14.7,4.4c-0.9,3.5-1.7,7-2.6,10.7
		c-4-0.2-4.4-2-3.2-5.4c0.5-1.2-1.2-3.2-1.8-4.7c-1.8,0.9-4.6,1.2-5.4,2.8c-0.9,1.8-1.4,5.7-0.2,6.7c2.4,2.1,6,3.1,9.2,4.4
		c6.3,1.1,11-1.4,14.8-6.1c4.7-2.3,4.1-5.7,0.8-8.4c-8.3-6.6-16.1-14.8-25.6-18.7c-11.9-5-25.4-7.5-38.3-9.2
		c-32.6-4.3-62.3,2.3-86.8,26c-4.3,4.1-9.2,8-13.9,12.1c-7.3-12.1-13.8-24.3-28-28.5c-0.5-0.2-1.1-0.3-1.5-0.6
		c0,0.6,0.2,1.1,0.2,1.7c1.8,3.8,3.5,7.7,5.4,11.6c0.5,0.6,0.8,1.2,1.2,1.8l-0.5-0.2c3.8,9.9,2.3,19.3-2.1,28.8
		c-2.1,4.6-3.5,9.3-5.7,15.3c14.4-1.8,20.8-12.2,29.1-20.8c1.4,1.1,2.8,1.8,3.7,2.9c21.9,29.5,52,37.6,86.9,33.7
		c2.8-0.3,5.5-0.8,8.3-1.1c3.1,4.7,6.1,9.5,9.2,14.1l0,0c-1.1,0-2,0-3.1,0c-5.1,0-10.1,0.2-15.3,0.2c-22.6,0.2-44.8-2.4-64.1-15.9
		c-9.3-6.4-17.4-14.5-26.3-22c-1.2,2-2.8,4.4-4.4,7c-1.1,0.9-2.1,2-3.2,2.9c-0.5,0.5-1.1,1.1-1.5,1.5s-1.1,0.9-1.5,1.4
		c-8.9,4.9-17.4,10.9-28.9,7.7c0-2,0-4,0-6c0.3-0.2,0.5-0.6,0.5-0.9c0.2-0.8,0.5-1.5,0.6-2.1c3.4-9.6,6.7-19.3,10.1-28.9
		c0.6-3.2,2.8-7.2,1.7-9.6c-5.8-12.4-12.4-24.5-18.7-36.7c-1.5-5,2.3-4,5.2-3.7c16.8,1.7,28.2,11.8,37.8,24.5
		c2.4,3.2,4.3,6.7,6.6,10.6c4.3-4.7,8.3-9.3,12.5-13.6c24.5-23.7,54.3-30.5,87.2-27.1c25.7,2.6,48.2,12.1,65.3,32.1
		c2.6,3.1,4.7,6.6,7,9.9c3.1,4.6,2.9,8.6-2.4,11.3c-4.6,2.6-8.9,5.8-13.6,7.8C1848.4,227.6,1834.6,226.2,1830.7,211.8z"/>
	<path class="st30" d="M1790.3,252.2c-2.3-2.8-4.9-5.4-7-8.4c-5.4-8-5.4-8-12.4-2c-4.1,3.5-8.6,7-13.6,11.3
		c-4.7-6.9-9-13.3-13.9-20.4c-3.7,2.1-7,4.1-10.4,6.3c-4,2.4-6.4,1.4-9.3-2.6c-6.9-9.5-7.7-18.1,0.6-27.2c3.2-3.7,5.2-8.4,8.4-13.8
		c4.6,5.8,8.4,10.7,12.9,16.4c5.7-8,10.9-15.1,17.4-24c3.4,7,5.7,12.1,8.1,16.8c0.9,1.7,2.3,3.1,3.4,4.6c1.5-1.2,3.4-2.1,4.3-3.7
		c3.8-5.8,7.5-11.6,11.2-17.6c0.6,0.3,1.2,0.5,2,0.8c0,20.8,0,41.6,0,62.4C1791.2,251.5,1790.7,251.9,1790.3,252.2z"/>
	<path class="st31" d="M1676.1,198.2c-1.8-3.8-3.5-7.7-5.4-11.6c0.5-0.5,0.9-0.8,1.4-1.2c14.2,4.3,20.7,16.4,28,28.5
		c4.7-4.1,9.6-7.8,13.9-12.1c24.3-23.6,54.2-30.1,86.8-25.9c13,1.7,26.3,4.1,38.3,9.2c9.5,4,17.3,12.1,25.6,18.7
		c3.2,2.6,4,6-0.8,8.4c-3.5-2.8-7.2-5.4-10.7-8.1c-3.7-5.7-9.2-4.7-14.7-4.4c1.7-0.9,3.4-1.7,7.3-3.8c-10.9-3.8-19.7-8.9-29.2-9.9
		c-18.8-2-38.1-3.2-56.9-2.1c-19.9,1.2-35.3,13.6-49.9,26.2c-12.5,10.7-11.9,10.9-21.9-1.7c-2.6-3.4-7.2-5.4-10.9-8l0.3-0.2
		c0-0.8,0-1.7,0-2.4C1676.9,197.8,1676.6,198.1,1676.1,198.2z"/>
	<path class="st32" d="M1863,254.8c-1.1,1.1-2,2.1-3.1,3.2c-11.2,7.7-23.3,10.6-36.7,9c-13.8-1.7-22.3-9-23.6-22.6
		c-0.9-10.9-0.2-21.7-0.2-32.6c1.5-2,3.1-4.1,4.6-6.1c0.6,2.3,1.7,4.4,1.8,6.7c0.3,6.1-0.3,12.2,0.3,18.4
		c2.1,19.9,16.8,29.2,36,23.3c15.9-4.9,25.4-17.3,34.7-29.7c1.4-1.8,2.4-3.7,3.7-5.7c0.8,0.2,1.5,0.2,2.4,0.3
		c-0.5,3.2,0.2,6.9-1.4,9.3c-5.4,8.6-11.5,16.7-17.4,25.1C1864,253.8,1863.6,254.4,1863,254.8z"/>
	<path class="st33" d="M1693.1,242.6c1.5-2.6,3.2-5,4.4-7c8.9,7.5,17.1,15.6,26.3,22c19.1,13.3,41.3,15.9,64.1,15.9
		c5.1,0,10.1-0.2,15.3-0.2c0,0.3,0,0.6-0.2,1.1c0.3,1.4,0.6,2.9,1.1,4.6c-27.9,1.2-55.7,3.8-80.5-12.1c-9.3-6-17.3-13.9-25.9-21
		C1696.3,244.6,1694.6,243.7,1693.1,242.6z"/>
	<path class="st34" d="M1799.6,211.7c0,10.9-0.8,21.9,0.2,32.6c1.1,13.6,9.6,21,23.6,22.6c13.5,1.7,25.6-1.4,36.7-9
		c-1.1,7.8-7.8,11.2-13.5,12.7c-9.5,2.3-19.7,2.3-29.7,2.9c-3.5,0.3-7-0.3-10.6-0.5c-3.1-4.7-6.1-9.5-9.2-14.1
		c-0.8-6.6-2-13.2-2-19.7c-0.2-8.1,0.5-16.1,1.1-24.2C1796.2,213.8,1798.4,212.9,1799.6,211.7z"/>
	<path class="st35" d="M1830.7,211.8c4,14.4,17.8,15.8,27.1,11.6c4.7-2.1,9-5.2,13.6-7.8c0.2,0.5,0.6,1.1,0.5,1.4
		c-3.8,12.1-29.7,19.6-39,11.5C1827.2,223.8,1826.5,218.7,1830.7,211.8z"/>
	<path class="st36" d="M1651.9,171.9c6.3,12.2,13,24.3,18.7,36.7c1.1,2.4-1.1,6.3-1.7,9.6c-6.4-13-13.2-25.7-19.3-38.9
		C1648.9,177.7,1651.2,174.5,1651.9,171.9z"/>
	<path class="st37" d="M1657.9,250.1c0,2,0,3.8,0,6c11.5,3.4,20-2.6,28.9-7.7c-4.3,11-17.8,17.1-34.3,14.4
		C1654.4,258.4,1656.1,254.2,1657.9,250.1z"/>
	<path class="st34" d="M1803.1,274.1c0-0.3,0.2-0.6,0.2-1.1c1.1,0,2,0,3.1,0C1805.3,273.5,1804.2,273.8,1803.1,274.1z"/>
	<path class="st37" d="M1688.4,247c0.5-0.5,1.1-1.1,1.5-1.5C1689.4,246,1689,246.6,1688.4,247z"/>
	<path class="st37" d="M1659,247c-0.2,0.8-0.5,1.5-0.6,2.1C1658.5,248.4,1658.8,247.8,1659,247z"/>
	<path class="st34" d="M1863,254.8c0.5-0.5,0.9-1.1,1.4-1.5C1864,253.8,1863.6,254.4,1863,254.8z"/>
	<path class="st38" d="M1850.6,214.7c-0.5,1.2-0.9,2.3-1.4,3.5c-3.1-1.4-6.7-2.3-9.2-4.4c-1.1-0.9-0.8-4.7,0.2-6.7
		c0.8-1.4,3.5-1.8,5.4-2.8c0.6,1.7,2.3,3.5,1.8,4.7C1846.1,212.8,1846.6,214.6,1850.6,214.7z"/>
	<path class="st39" d="M1676.1,198.2c0.5-0.2,0.8-0.5,1.2-0.6c0,0.8,0,1.7,0,2.4C1676.9,199.4,1676.6,198.8,1676.1,198.2z"/>
	<path class="st31" d="M1670.8,186.6c0-0.6-0.2-1.1-0.2-1.7c0.5,0.2,1.1,0.3,1.5,0.6C1671.7,185.8,1671.2,186.3,1670.8,186.6z"/>
</g>
</svg>
