<?xml version="1.0" encoding="utf-8"?>
<!-- Generator: Adobe Illustrator 19.1.0, SVG Export Plug-In . SVG Version: 6.00 Build 0)  -->
<svg version="1.1" xmlns="http://www.w3.org/2000/svg" xmlns:xlink="http://www.w3.org/1999/xlink" x="0px" y="0px"
	 viewBox="0 0 1079.1 146.4" style="enable-background:new 0 0 1079.1 146.4;" xml:space="preserve">
<style type="text/css">
	.st0{fill:#111111;}
	.st1{fill:#0C0C0D;}
	.st2{fill:#FCE500;}
	.st3{fill:#B4B2CD;}
	.st4{fill:#0E0E0F;}
	.st5{fill:#B5B3CE;}
	.st6{fill:#B2B1CC;}
	.st7{fill:#B6B4CF;}
	.st8{fill:#B9B8D3;}
	.st9{fill:#ADAEC3;}
	.st10{fill:#B5B3C5;}
	.st11{fill:#FDFEFF;}
</style>
<g id="Layer_1">
</g>
<g id="Layer_2">
	<path class="st0" d="M194,8.2c5.8,5.5,6.4,10.6-2.3,12.2c-13.2,2.3-18.7,11.3-21.9,22.5c-2.6,8.7-5.5,17.7,9.3,16.7
		c2.9-0.3,5.5,0.6,5.5,4.2c0,2.6-1.9,3.9-4.2,3.9c-18.7-1-11.9,12.2-12.9,21.9c-0.6,6.4,9,18.7-4.5,19c-10,0-4.5-12.2-3.9-18.3
		c1-13.2-3.5-25.4,0-39.9c4.8-20.3,14.5-32.8,31.5-42.2C191.7,8.2,192.7,8.2,194,8.2z"/>
	<path class="st0" d="M451.1,102.8c-8.4-4.2-6.1-9-3.9-15.8c2.9-9,8-15.8,17.4-20c-10.3-12.2-21.6-5.8-31.9-3.9
		c-1.6,2.3-8.4,4.8,0.6,6.4c4.5,0.6,10.3,0,9.3,7.7c-0.6,4.2-1,9.7-5.5,10.6c-5.1,1.3-8-4.2-11.3-7.4c-6.8-7.7-12.9-15.8,2.3-20.6
		c4.5-6.1,10.3-11.9,5.1-19.6c-2.9-4.8-8.4-3.9-13.2-2.9c-8.7,1.6-14.5,6.1-15.8,15.4c-0.3,1-0.3,2.3-0.3,3.2
		c0.6,6.8-2.6,11.9-6.4,17.4c-6.8,9.3-9.3,19.6-1.6,29.6c7.1,9.3,16.7,10,27.4,5.5c7.4-2.9,14.8-3.5,20.6,3.5
		c3.2,3.5,6.1,8.7,11.3,2.3C459.8,108.3,455,104.7,451.1,102.8z M421.5,44.5c3.2-0.6,4.5,2.3,4.5,5.1c-0.3,5.5-4.8,7.7-9,9.7
		c-3.5-0.3-4.5-2.6-4.5-5.5C412.8,48.1,416.4,45.2,421.5,44.5z M418,102.2c-10.6-0.6-17.1-5.8-17.1-15.8c0-4.5,2.6-14.2,7.1-11.3
		c8,5.1,14.5,13.8,18.7,22.5C428.9,102.5,420.6,100.6,418,102.2z"/>
	<path class="st0" d="M540,69c-2.6-2.9-6.8-4.2-5.1-10.3c5.1-20.3-0.6-27.7-20.9-28.6c-8-0.3-11.9,2.3-10.6,10.9
		c2.3,12.6,3.5,25.4,1.3,36c-0.6,9.7-1.3,17.1-2.3,24.5c0,3.9,0,8.7,4.5,9c12.6,1,25.1-0.3,33.5-10.9C547.7,89.9,549,79,540,69z
		 M520.7,40.4c5.5,0.6,8.4,4.5,8.4,10.6c-0.3,6.8-4.8,9.7-10.6,9.7c-9-0.3-3.9-8-5.1-12.2C512,43.9,513.6,39.7,520.7,40.4z
		 M521.6,102.5c-8.4,1-9.7-5.5-8.4-11.6c1.3-6.8-5.8-17.7,7.4-20c9.3,1,16.4,5.1,16.4,14.2S531.3,101.2,521.6,102.5z"/>
	<path class="st0" d="M354.9,111.5c0-4.5-0.6-9.3-1.6-14.2c-3.9-18.7,2.6-38-4.2-56.3c0.3-4.8,6.1-12.6-4.5-14.2
		c-7.1-0.6-8,5.5-6.1,10c7.1,17.1-1,23.5-15.8,29.3c-13.2,5.5-16.7,18.3-12.6,31.2c4.2,12.6,15.1,12.6,25.4,9.3
		c6.8-2.3,8.7-0.3,8.7,6.1c0,3.5-1.3,8.4,4.8,8C355.2,120.8,355.2,115.7,354.9,111.5z M330.4,99.9c-8.4-0.3-13.5-5.5-12.9-12.9
		c1-9,6.1-17.7,16.7-18c11.9-0.6,6.1,9.3,7.7,13.8C343.3,93.1,341.7,100.2,330.4,99.9z"/>
	<path class="st0" d="M766.2,69.7c10.9-4.5,22.5-4.8,31.9-11.6c2.3-1.6,7.1-0.3,10.9,0c3.5,0.6,6.1,2.6,5.1,6.4
		c-1,3.2-3.5,5.5-7.4,3.5c-4.5-2.3-10-4.8-11.3,2.3c-1.3,5.8,5.5,5.1,9.3,6.4c11.9,3.5,14.8,11.6,10.9,22.5
		c-4.2,10.9-13.2,13.2-23.5,11.3c-3.2-0.6-6.4-2.3-5.5-6.4c0.6-3.9,3.9-2.9,6.4-2.6c7.1,1,14.2,0,15.1-8c1-8-7.1-9-12.6-9.3
		c-7.1-0.6-6.4-13.2-16.1-9.7c-10.9,3.9-14.5,11.6-13.5,22.2c0.3,4.5,2.6,10.6-5.1,10.6c-8,0-5.8-6.4-4.8-10.6c1.6-9,0.3-18-0.3-27
		c-0.3-5.5-3.9-13.2,5.5-13.5C769.8,56.1,762.4,65.1,766.2,69.7z"/>
	<path class="st0" d="M690,86.4c0-3.5,0-5.8-0.3-7.4c0-29.9-0.3-30.3-27-16.1c-11.3,6.1-18.3,14.5-15.8,28.3
		c2.6,13.2,12.6,15.8,23.8,17.1c4.5,0.6,10.9-1,10.9,5.8c0,6.1-1.6,12.9-8.7,15.8c-4.8,1.6-9.7,0.6-14.2-1c-3.5-1-7.4-2.6-8,3.5
		c-0.3,4.8,2.6,6.4,6.4,7.7c15.1,4.5,29.9-4.2,32.5-20C691.6,108.6,691.9,96.7,690,86.4z M673.2,100.6c-9.3,0-17.7-5.5-18-14.8
		c-0.3-10.3,6.8-19,17.4-19.6c13.8-0.6,7.1,11.6,8.4,14.8C682.6,91.5,684.8,100.6,673.2,100.6z"/>
	<path class="st0" d="M279.6,58.1c-20-0.3-33.5,11.3-33.5,29.3c0,12.9,9.3,20.6,25.1,20.9C291.2,108.6,304,97,304,79
		C304,64.8,296,58.1,279.6,58.1z M294.1,82.2c-1,12.2-9.7,16.7-20,17.7c-10.6-1-17.7-5.5-17.1-16.1c0.6-11.9,8.7-18,20.3-18
		C288,65.8,295,70.9,294.1,82.2z"/>
	<path class="st0" d="M215.9,57.7c-19.3,0.3-31.5,11.6-31.5,29c0,14.2,9,21.6,26.1,21.2c18.3-0.3,31.9-12.2,31.9-29.3
		C242.3,64.8,232.9,57.4,215.9,57.7z M216.2,98.9c-10.3,0.3-18.7-3.9-18.3-15.1c0.3-11.9,9-17.1,19.3-18.3
		c10.9,0,18.3,4.5,18.3,14.5C235.8,91.9,228.1,98.6,216.2,98.9z"/>
	<path class="st0" d="M142.5,106.7V76.4c0-8.4-1.6-16.4-10.6-19.6s-17.4-2.9-27,8c6.4-0.6,9-1,11.9-1.3c5.8,0.3,12.9-0.6,14.8,6.4
		c2.3,8.4-7.1,5.8-10.6,8.7c-2.6,1.9-5.5,3.2-8,5.1c-5.1,4.2-10,8.7-7.4,16.1c2.6,7.7,8.7,8,15.4,8c3.5,0,9-4.2,10.3,3.2
		c0.6,4.5,2.9,6.8,7.4,5.1C142.8,114.7,142.5,110.5,142.5,106.7z M122.2,99.6c-3.2-0.6-8.4,0-8-5.1c0.3-6.8,6.4-7.7,11.6-9
		c3.2-0.6,7.1-0.6,7.1,3.9C132.5,96,128.3,98.9,122.2,99.6z"/>
	<path class="st0" d="M58.5,92.5c-6.1-4.8-5.1,1.6-6.8,4.2c-6.1,10.6-15.8,15.4-27.7,16.4c-3.2,0.3-7.1,0.3-7.4-4.2
		c-0.3-3.5,3.2-3.5,5.8-3.9c9.3-1,19-2.3,20.9-13.5s-7.4-15.4-15.1-20.3c-8.4-5.1-14.5-11.9-10.3-22.5c4.5-11.3,14.2-15.1,25.7-15.1
		c3.9,0,7.7,1.6,7.1,6.4c-0.6,4.2-4.5,3.9-7.7,3.2c-7.1-1.6-13.2,0-15.8,7.1c-2.9,8.4,4.5,11.9,10,14.2c10,4.2,12.9,14.8,20.9,20.3
		C60.7,87.4,60.7,89.9,58.5,92.5z"/>
	<path class="st0" d="M599.5,83.8c0,5.8,0,11.9,0,17.7c0,3.2,1,6.8-2.9,8.4c-3.9,1.6-5.5-1.3-7.1-4.5c-3.2-6.4-5.8,0-8,1
		c-6.4,3.2-12.6,7.1-19.3,1.9c-7.4-5.5-8.4-12.9-6.4-21.6c1.6-7.7,2.3-15.8,3.9-23.8c0.6-3.5,3.2-5.5,7.1-4.5c4.5,1,3.5,4.2,2.6,7.4
		c-1.6,6.8-3.2,13.5-4.5,20.3c-1,5.8-1.6,12.6,5.8,14.8c7.1,1.9,12.2-2.3,15.8-8.4c4.5-8,3.9-16.7,2.6-25.1c-0.6-4.8-0.3-9,5.5-9
		c6.8,0,5.1,5.1,4.8,9.3c-0.3,5.5-0.6,10.6-0.6,16.1C598.9,83.8,599.2,83.8,599.5,83.8z"/>
	<path class="st0" d="M66.5,87.4c0.3-10.3,10-6.8,16.4-7.7c2.3-0.3,4.2-0.3,6.4-0.3c5.8-0.3,12.6,1.3,11.9-8.4
		c-0.6-7.4-3.9-11.9-11.6-12.9c-16.1-1.9-27.4,7.4-31.2,26.7v7.7c7.4,17.7,26.4,24.1,41.2,13.5c-5.1-3.9-11.6-2.6-17.1-3.5
		C73.6,100.6,66.2,96.4,66.5,87.4z M91,68c-6.1,6.1-10.9,5.5-16.4,2.6C78.7,63.9,83.9,65.5,91,68z"/>
	<path class="st0" d="M727.6,102.2c-9.3-1.6-17.4-5.5-16.7-15.8c0.6-10.6,10.6-5.5,16.4-6.8c1.6-0.3,3.2-0.3,4.8-0.3
		c6.1-0.3,13.5,1.6,12.6-9c-0.6-8.7-5.5-11.9-13.5-12.2c-13.2-0.3-22.9,5.8-27.4,18c-3.5,9.7-4.8,20.6,4.8,27.7
		c10.6,7.7,22.5,10.3,37,4.2C738.2,101.2,732.8,103.1,727.6,102.2z M731.5,65.8c2.3,0.6,3.9,3.2,1.9,4.5c-5.5,4.5-11.6,2.6-18,1.3
		C719.2,64.2,725,64.2,731.5,65.8z"/>
	<path class="st0" d="M628.5,69.3c1.9-1,4.2-1.9,6.8-2.6c3.2-1,7.4-4.2,9.3,1.3c1.6,4.5-1.6,6.4-5.8,7.7
		C627.5,79.3,624,87,627.2,98.3c1.6,5.8,0.3,9.7-6.4,9.7c-7.1,0-4.5-5.5-4.5-9.3c0-9,0-18,0.3-27c0-5.5-3.9-13.5,4.2-14.8
		C630.4,54.5,623,65.8,628.5,69.3z"/>
</g>
<g id="Layer_3">
	<path class="st1" d="M1029.7,76.4c2.1-3.4,4.3-6.6,6.4-10c4.5-0.3,9-1,12,3.6c-0.8,2.9-1.4,5.8-2.1,8.8c-3.3-0.1-3.6-1.6-2.6-4.4
		c0.4-1-1-2.6-1.5-3.9c-1.5,0.8-3.8,1-4.4,2.3c-0.8,1.5-1.1,4.6-0.1,5.5c2,1.8,4.9,2.5,7.5,3.6c5.1,0.9,9-1.1,12.2-5
		c3.9-1.9,3.4-4.6,0.6-6.9c-6.8-5.4-13.2-12.2-20.9-15.3c-9.8-4.1-20.8-6.1-31.3-7.5c-26.7-3.5-51,1.9-71.1,21.3
		c-3.5,3.4-7.5,6.5-11.4,9.9c-6-9.9-11.3-19.9-22.9-23.3c-0.4-0.1-0.9-0.3-1.3-0.5c0,0.5,0.1,0.9,0.1,1.4c1.5,3.1,2.9,6.3,4.4,9.5
		c0.4,0.5,0.6,1,1,1.5l-0.4-0.1c3.1,8.1,1.9,15.8-1.8,23.6c-1.8,3.8-2.9,7.6-4.6,12.5c11.8-1.5,17.1-10,23.8-17.1
		c1.1,0.9,2.3,1.5,3,2.4c17.9,24.2,42.6,30.8,71.2,27.6c2.3-0.3,4.5-0.6,6.8-0.9c2.5,3.9,5,7.8,7.5,11.5l0,0c-0.9,0-1.6,0-2.5,0
		c-4.1,0-8.3,0.1-12.5,0.1c-18.6,0.1-36.7-2-52.5-13c-7.6-5.3-14.3-11.9-21.6-18.1c-1,1.6-2.3,3.6-3.6,5.8c-0.9,0.8-1.8,1.6-2.6,2.4
		c-0.4,0.4-0.9,0.9-1.3,1.3s-0.9,0.8-1.3,1.1c-7.3,4-14.3,8.9-23.7,6.3c0-1.6,0-3.3,0-4.9c0.3-0.1,0.4-0.5,0.4-0.8
		c0.1-0.6,0.4-1.3,0.5-1.8c2.8-7.9,5.5-15.8,8.3-23.7c0.5-2.6,2.3-5.9,1.4-7.9c-4.8-10.2-10.2-20.1-15.3-30.1
		c-1.3-4.1,1.9-3.3,4.3-3c13.8,1.4,23.1,9.7,31,20.1c2,2.6,3.5,5.5,5.4,8.7c3.5-3.9,6.8-7.6,10.3-11.2c20.1-19.4,44.5-25,71.5-22.2
		c21.1,2.1,39.5,9.9,53.5,26.3c2.1,2.5,3.9,5.4,5.8,8.1c2.5,3.8,2.4,7-2,9.3c-3.8,2.1-7.3,4.8-11.2,6.4
		C1044.2,89.3,1032.9,88.2,1029.7,76.4z"/>
	<path class="st2" d="M996.6,109.5c-1.9-2.3-4-4.4-5.8-6.9c-4.4-6.5-4.4-6.5-10.2-1.6c-3.4,2.9-7,5.8-11.2,9.3
		c-3.9-5.6-7.4-10.9-11.4-16.7c-3,1.8-5.8,3.4-8.5,5.1c-3.3,2-5.3,1.1-7.6-2.1c-5.6-7.8-6.3-14.8,0.5-22.3c2.6-3,4.3-6.9,6.9-11.3
		c3.8,4.8,6.9,8.8,10.5,13.4c4.6-6.5,8.9-12.4,14.3-19.7c2.8,5.8,4.6,9.9,6.6,13.8c0.8,1.4,1.9,2.5,2.8,3.8c1.3-1,2.8-1.8,3.5-3
		c3.1-4.8,6.1-9.5,9.2-14.4c0.5,0.3,1,0.4,1.6,0.6c0,17.1,0,34.1,0,51.2C997.3,108.9,996.9,109.2,996.6,109.5z"/>
	<path class="st3" d="M903,65.2c-1.5-3.1-2.9-6.3-4.4-9.5c0.4-0.4,0.8-0.6,1.1-1c11.7,3.5,16.9,13.4,22.9,23.3
		c3.9-3.4,7.9-6.4,11.4-9.9c19.9-19.3,44.4-24.7,71.1-21.2c10.7,1.4,21.6,3.4,31.3,7.5c7.8,3.3,14.2,9.9,20.9,15.3
		c2.6,2.1,3.3,4.9-0.6,6.9c-2.9-2.3-5.9-4.4-8.8-6.6c-3-4.6-7.5-3.9-12-3.6c1.4-0.8,2.8-1.4,6-3.1c-8.9-3.1-16.2-7.3-23.9-8.1
		c-15.4-1.6-31.2-2.6-46.6-1.8c-16.3,1-29,11.2-40.9,21.4c-10.3,8.8-9.8,8.9-17.9-1.4c-2.1-2.8-5.9-4.4-8.9-6.5l0.3-0.1
		c0-0.6,0-1.4,0-2C903.6,64.8,903.4,65.1,903,65.2z"/>
	<path class="st4" d="M1056.1,111.6c-0.9,0.9-1.6,1.8-2.5,2.6c-9.2,6.3-19.1,8.7-30.1,7.4c-11.3-1.4-18.3-7.4-19.3-18.6
		c-0.8-8.9-0.1-17.8-0.1-26.7c1.3-1.6,2.5-3.4,3.8-5c0.5,1.9,1.4,3.6,1.5,5.5c0.3,5-0.3,10,0.3,15c1.8,16.3,13.8,23.9,29.5,19.1
		c13-4,20.8-14.2,28.5-24.3c1.1-1.5,2-3,3-4.6c0.6,0.1,1.3,0.1,2,0.3c-0.4,2.6,0.1,5.6-1.1,7.6c-4.4,7-9.4,13.7-14.3,20.6
		C1057,110.7,1056.6,111.2,1056.1,111.6z"/>
	<path class="st5" d="M916.9,101.6c1.3-2.1,2.6-4.1,3.6-5.8c7.3,6.1,14,12.8,21.6,18.1c15.7,10.9,33.9,13,52.5,13
		c4.1,0,8.3-0.1,12.5-0.1c0,0.3,0,0.5-0.1,0.9c0.3,1.1,0.5,2.4,0.9,3.8c-22.8,1-45.6,3.1-66-9.9c-7.6-4.9-14.2-11.4-21.2-17.2
		C919.6,103.2,918.2,102.5,916.9,101.6z"/>
	<path class="st6" d="M1004.2,76.3c0,8.9-0.6,17.9,0.1,26.7c0.9,11.2,7.9,17.2,19.3,18.6c11,1.4,20.9-1.1,30.1-7.4
		c-0.9,6.4-6.4,9.2-11,10.4c-7.8,1.9-16.2,1.9-24.3,2.4c-2.9,0.3-5.8-0.3-8.7-0.4c-2.5-3.9-5-7.8-7.5-11.5
		c-0.6-5.4-1.6-10.8-1.6-16.2c-0.1-6.6,0.4-13.2,0.9-19.8C1001.4,78,1003.2,77.3,1004.2,76.3z"/>
	<path class="st7" d="M1029.7,76.4c3.3,11.8,14.5,12.9,22.2,9.5c3.9-1.8,7.4-4.3,11.2-6.4c0.1,0.4,0.5,0.9,0.4,1.1
		c-3.1,9.9-24.3,16-32,9.4C1026.8,86.2,1026.3,82,1029.7,76.4z"/>
	<path class="st8" d="M883.2,43.7c5.1,10,10.7,19.9,15.3,30.1c0.9,2-0.9,5.1-1.4,7.9c-5.3-10.7-10.8-21.1-15.8-31.8
		C880.7,48.4,882.6,45.8,883.2,43.7z"/>
	<path class="st9" d="M888.1,107.7c0,1.6,0,3.1,0,4.9c9.4,2.8,16.4-2.1,23.7-6.3c-3.5,9-14.5,14-28.1,11.8
		C885.2,114.5,886.6,111.1,888.1,107.7z"/>
	<path class="st6" d="M1007.1,127.4c0-0.3,0.1-0.5,0.1-0.9c0.9,0,1.6,0,2.5,0C1008.8,126.9,1008,127.2,1007.1,127.4z"/>
	<path class="st9" d="M913.1,105.2c0.4-0.4,0.9-0.9,1.3-1.3C913.9,104.3,913.6,104.8,913.1,105.2z"/>
	<path class="st9" d="M889,105.2c-0.1,0.6-0.4,1.3-0.5,1.8C888.6,106.4,888.9,105.8,889,105.2z"/>
	<path class="st6" d="M1056.1,111.6c0.4-0.4,0.8-0.9,1.1-1.3C1057,110.7,1056.6,111.2,1056.1,111.6z"/>
	<path class="st10" d="M1046,78.8c-0.4,1-0.8,1.9-1.1,2.9c-2.5-1.1-5.5-1.9-7.5-3.6c-0.9-0.8-0.6-3.9,0.1-5.5
		c0.6-1.1,2.9-1.5,4.4-2.3c0.5,1.4,1.9,2.9,1.5,3.9C1042.3,77.1,1042.7,78.6,1046,78.8z"/>
	<path class="st11" d="M903,65.2c0.4-0.1,0.6-0.4,1-0.5c0,0.6,0,1.4,0,2C903.6,66.2,903.4,65.7,903,65.2z"/>
	<path class="st3" d="M898.6,55.7c0-0.5-0.1-0.9-0.1-1.4c0.4,0.1,0.9,0.3,1.3,0.5C899.4,55.1,899,55.4,898.6,55.7z"/>
</g>
</svg>
