<?xml version="1.0" encoding="utf-8"?>
<!-- Generator: Adobe Illustrator 19.1.0, SVG Export Plug-In . SVG Version: 6.00 Build 0)  -->
<svg version="1.1" xmlns="http://www.w3.org/2000/svg" xmlns:xlink="http://www.w3.org/1999/xlink" x="0px" y="0px"
	 viewBox="0 0 641.6 84.8" style="enable-background:new 0 0 641.6 84.8;" xml:space="preserve">
<style type="text/css">
	.st0{fill:#34B4E0;}
	.st1{fill:#2AB4DD;}
	.st2{fill:#37B3E4;}
	.st3{fill:#3AB1DE;}
	.st4{fill:#3FB5E0;}
	.st5{fill:#3AB5E4;}
	.st6{fill:#38B6E2;}
	.st7{fill:#40B3DC;}
	.st8{fill:#3EB4DF;}
	.st9{fill:#29B4E8;}
	.st10{fill:#0C0C0D;}
	.st11{fill:#FCE500;}
	.st12{fill:#B4B2CD;}
	.st13{fill:#0E0E0F;}
	.st14{fill:#B5B3CE;}
	.st15{fill:#B2B1CC;}
	.st16{fill:#B6B4CF;}
	.st17{fill:#B9B8D3;}
	.st18{fill:#ADAEC3;}
	.st19{fill:#B5B3C5;}
	.st20{fill:#FDFEFF;}
</style>
<g id="Layer_1">
</g>
<g id="Layer_2">
	<path class="st0" d="M313.9,50.5c5.6-10,6.2-19.4,6.8-28.5c0.3-3.5,1.5-7.4,5.9-6.5c5.3,0.9,3.2,5,2.4,8.2
		c-3.8,12.1-7.4,24.4-7.9,37.1c-0.3,3.5-0.6,7.1-5,7.4c-4.1,0.3-5.6-2.9-7.4-5.9c-5.3-9.7-10.6-19.4-16.8-30.3
		c-9.1,9.7-10.6,22.1-17.1,31.8c-1.8,2.6-2.4,7.1-6.8,6.2c-3.5-0.9-2.9-4.7-3.2-7.4c-2.6-12.9-5-25.9-7.6-38.8
		c-0.6-2.6-1.2-6.5,2.4-7.4c5-1.2,5.3,2.9,5.9,6.2c0,0.6,0,0.9,0,1.5c2.4,7.6,0,22.1,5.9,22.1c8.8,0,9.7-13.8,15-20.9
		c2.1-2.9,1.2-8.8,6.2-9.1c5.9-0.3,5.6,6.2,7.1,9.7C303.6,33.7,306.6,42.6,313.9,50.5z"/>
	<path class="st1" d="M35.6,14.6C17.6,15.2,4.7,28.4,4.7,46.7c0,15.6,9.7,24.7,26.5,24.4c17.9-0.3,30.6-13.8,30.6-32.4
		C61.8,22.3,52.9,14.3,35.6,14.6z M32.9,64.3c-10,0.3-20-9.1-20.6-19.1C11.5,33.7,22.9,22,37.1,21.7c10,0.6,15.6,7.4,16.5,18.5
		C54.4,52.3,43.8,64,32.9,64.3z"/>
	<path class="st2" d="M159.7,36.7c0-8.8,0-17.7,0-26.5c0-2.9,0-6.5,3.8-6.8c3.8-0.3,4.4,3.2,4.4,6.2s0,5.9,0,8.8
		c0.6,8.2-5,21.8,13.5,15c5-1.8,8.8,3.2,9.7,8.8c0.9,6.2,1.2,12.9-1.2,18.8c-1.2,3.2-0.6,9.4-5.9,8.2c-6.2-1.2-2.4-6.2-2.1-9.7
		c0.3-1.5,0.6-2.9,0.6-4.4c0.3-5,2.9-12.4-4.4-13.2c-7.9-1.2-10.3,5-10.6,12.4c-0.3,5.3,4.1,14.7-3.5,14.7c-9.7,0-3.8-10-4.7-15.3
		C158.9,48.7,159.7,42.6,159.7,36.7L159.7,36.7z"/>
	<path class="st3" d="M359.5,42.6c-1.5-13.5-9.7-16.5-22.7-8.8c3.5,4.1,11.8,1.2,13.2,7.6c1.2,7.4-7.1,6.8-10.9,9.7
		c-4.1,3.2-7.4,6.5-6.8,12.1c0.6,6.5,5.3,7.4,10.6,7.6c3.5,0,6.2,0,8.5,3.8c5,7.6,7.9,3.5,8.2-2.9C360.1,62,360.7,52.3,359.5,42.6z
		 M345.4,64.3c-2.6,0-5.3-1.2-5.3-3.5c0-3.2,2.6-5,5.9-5.6c2.9-0.9,4.7,0.9,5,3.5C351,62,348.3,63.4,345.4,64.3z"/>
	<path class="st4" d="M67.9,52.9c0-4.7-0.3-8.5,0-12.7c0-1.8,0.3-4.1,1.5-5.6c4.1-4.7,29.7,3.2,31.5,9.7c2.4,8.8-0.3,17.4-2.9,25.9
		c-0.9,2.6-2.6,4.4-5.3,3.5c-4.4-1.5-2.6-4.4-1.5-7.1c1.8-4.1,2.9-8.2,2.9-12.7c0-5.6-1.8-9.4-8.2-9.7c-6.2,0-8.2,3.2-9.4,8.8
		s4.4,16.5-4.1,15.9C62.6,68.7,70.9,57.9,67.9,52.9z"/>
	<path class="st5" d="M224.2,64.6c-6.8-1.8-17.1-0.9-16.5-10.3c0.6-7.6,10.3-3.8,15.9-4.7c5-0.6,8.8-1.5,7.9-7.6
		c-0.9-5.9-5.3-8.2-10.3-8.2c-8.5,0-16.5,2.4-20.3,11.5c-2.9,7.4-4.1,14.4,2.4,20.3c7.6,7.1,16.2,7.1,28.5,1.8
		C226.8,65.8,225.4,65.2,224.2,64.6z M218,37.9c2.9-0.9,4.7,0.9,5,3.5c0,3.2-2.6,4.7-5.6,5.6c-2.6,0-5.3-1.2-5.3-3.5
		C212.1,40.2,214.8,38.4,218,37.9z"/>
	<path class="st6" d="M418.9,65.2c-7.4-0.9-17.1-2.1-17.4-10c-0.3-8.8,10.3-3.2,15.3-5.9c3.5-2.1,9.7-0.3,9.1-7.1
		c-0.6-6.2-5.3-8.2-10.3-8.5c-7.9-0.6-15.3,2.1-19.4,10c-3.5,6.8-5.3,14.1,0.6,20.3c7.9,8.2,17.7,9.1,31.5,2.9
		C423.1,65.8,421.3,65.2,418.9,65.2z M411.3,37c2.9-0.9,4.7,0.9,5,3.5c0,3.2-2.6,4.7-5.6,5.6c-2.6,0-5.3-1.2-5.3-3.5
		C405.4,39.3,407.8,37.6,411.3,37z"/>
	<path class="st7" d="M154.1,66.7c-11.8,3.8-17.7,0.3-19.7-9.7c-0.9-5.6,0-11.5-5.9-15.9c-5-3.8,1.5-5.6,3.5-6.8
		c7.1-4.4-0.6-18.2,8.5-17.9c9.1,0.3-0.9,13.5,4.7,16.8c9.7,5.9,7.9,8.8-0.3,14.1c-4.4,2.6-4.4,7.4-0.6,11.2
		C147.7,61.1,150.9,63.7,154.1,66.7z"/>
	<path class="st8" d="M395.7,37.6c-19.1,11.2-19.4,13.2-7.6,25.3c1.8,1.8,4.4,2.9,2.6,5.9c-1.5,2.4-4.1,2.4-6.5,1.5
		c-2.1-1.2-4.4-2.4-6.2-3.8c-8.2-7.6-8.5-42.1-0.9-49.4c0.9-0.9,2.6-1.2,3.8-0.9c2.6,0.6,2.1,2.9,2.1,4.7
		C382.8,28.1,380.7,36.1,395.7,37.6z"/>
	<path class="st9" d="M456,40.8c-9.1,6.2-14.7,12.7-13.5,23.2c0.3,2.4-0.9,5-4.1,4.7c-3.2-0.3-2.9-3.2-3.2-5.6c0-0.9,0-2.1,0-2.9
		c0.3-8.2-2.6-18.2,1.5-24.1C440.7,30.8,447.8,43.4,456,40.8z"/>
</g>
<g id="Layer_3">
	<path class="st10" d="M604.8,42.3c1.4-2.3,2.8-4.4,4.3-6.7c3-0.2,6-0.7,8,2.4c-0.5,1.9-0.9,3.8-1.4,5.9c-2.2-0.1-2.4-1.1-1.8-2.9
		c0.3-0.7-0.7-1.8-1-2.6c-1,0.5-2.5,0.7-2.9,1.5c-0.5,1-0.8,3.1-0.1,3.7c1.3,1.2,3.3,1.7,5,2.4c3.4,0.6,6-0.8,8.1-3.3
		c2.6-1.3,2.3-3.1,0.4-4.6c-4.5-3.6-8.8-8.1-14-10.2c-6.5-2.8-13.9-4.1-20.9-5c-17.8-2.3-34,1.3-47.4,14.2c-2.3,2.3-5,4.3-7.6,6.6
		c-4-6.6-7.5-13.3-15.3-15.6c-0.3-0.1-0.6-0.2-0.8-0.3c0,0.3,0.1,0.6,0.1,0.9c1,2.1,1.9,4.2,2.9,6.4c0.3,0.3,0.4,0.7,0.7,1l-0.3-0.1
		c2.1,5.4,1.3,10.5-1.2,15.7c-1.2,2.5-1.9,5.1-3.1,8.4c7.9-1,11.4-6.7,15.9-11.4c0.8,0.6,1.5,1,2,1.6c12,16.1,28.4,20.6,47.5,18.4
		c1.5-0.2,3-0.4,4.5-0.6c1.7,2.6,3.3,5.2,5,7.7l0,0c-0.6,0-1.1,0-1.7,0c-2.8,0-5.5,0.1-8.4,0.1c-12.4,0.1-24.5-1.3-35-8.7
		c-5.1-3.5-9.5-7.9-14.4-12c-0.7,1.1-1.5,2.4-2.4,3.8c-0.6,0.5-1.2,1.1-1.8,1.6c-0.3,0.3-0.6,0.6-0.8,0.8c-0.3,0.3-0.6,0.5-0.8,0.8
		c-4.8,2.7-9.5,5.9-15.8,4.2c0-1.1,0-2.2,0-3.3c0.2-0.1,0.3-0.3,0.3-0.5c0.1-0.4,0.3-0.8,0.3-1.2c1.8-5.3,3.7-10.5,5.5-15.8
		c0.3-1.8,1.5-3.9,0.9-5.3c-3.2-6.8-6.8-13.4-10.2-20.1c-0.8-2.8,1.3-2.2,2.8-2c9.2,0.9,15.4,6.4,20.7,13.4c1.3,1.8,2.3,3.7,3.6,5.8
		c2.3-2.6,4.5-5.1,6.9-7.4c13.4-13,29.7-16.6,47.7-14.8c14,1.4,26.3,6.6,35.7,17.6c1.4,1.7,2.6,3.6,3.8,5.4c1.7,2.5,1.6,4.7-1.3,6.2
		c-2.5,1.4-4.8,3.2-7.4,4.3C614.5,50.9,607,50.2,604.8,42.3z"/>
	<path class="st11" d="M582.8,64.4c-1.3-1.5-2.7-2.9-3.8-4.6c-2.9-4.3-2.9-4.3-6.8-1.1c-2.3,1.9-4.7,3.8-7.4,6.2
		c-2.6-3.8-4.9-7.3-7.6-11.1c-2,1.2-3.8,2.3-5.7,3.4c-2.2,1.3-3.5,0.8-5.1-1.4c-3.8-5.2-4.2-9.9,0.3-14.9c1.8-2,2.8-4.6,4.6-7.5
		c2.5,3.2,4.6,5.9,7,8.9c3.1-4.3,5.9-8.3,9.5-13.1c1.8,3.8,3.1,6.6,4.4,9.2c0.5,0.9,1.3,1.7,1.8,2.5c0.8-0.7,1.8-1.2,2.3-2
		c2.1-3.2,4.1-6.4,6.1-9.6c0.3,0.2,0.7,0.3,1.1,0.4c0,11.4,0,22.7,0,34.1C583.3,64,583,64.2,582.8,64.4z"/>
	<path class="st12" d="M520.4,34.9c-1-2.1-1.9-4.2-2.9-6.4c0.3-0.3,0.5-0.4,0.8-0.7c7.8,2.3,11.3,8.9,15.3,15.6
		c2.6-2.3,5.3-4.3,7.6-6.6c13.3-12.9,29.6-16.5,47.4-14.1c7.1,0.9,14.4,2.3,20.9,5c5.2,2.2,9.4,6.6,14,10.2c1.8,1.4,2.2,3.3-0.4,4.6
		c-1.9-1.5-3.9-2.9-5.9-4.4c-2-3.1-5-2.6-8-2.4c0.9-0.5,1.8-0.9,4-2.1c-5.9-2.1-10.8-4.8-16-5.4c-10.3-1.1-20.8-1.8-31.1-1.2
		c-10.9,0.7-19.3,7.4-27.3,14.3c-6.9,5.9-6.5,5.9-12-0.9c-1.4-1.8-3.9-2.9-5.9-4.3l0.2-0.1c0-0.4,0-0.9,0-1.3
		C520.8,34.6,520.6,34.8,520.4,34.9z"/>
	<path class="st13" d="M622.5,65.8c-0.6,0.6-1.1,1.2-1.7,1.8c-6.1,4.2-12.7,5.8-20.1,4.9c-7.5-0.9-12.2-4.9-12.9-12.4
		c-0.5-5.9-0.1-11.9-0.1-17.8c0.8-1.1,1.7-2.3,2.5-3.3c0.3,1.3,0.9,2.4,1,3.7c0.2,3.3-0.2,6.7,0.2,10c1.2,10.9,9.2,16,19.6,12.7
		c8.7-2.7,13.9-9.4,19-16.2c0.8-1,1.3-2,2-3.1c0.4,0.1,0.8,0.1,1.3,0.2c-0.3,1.8,0.1,3.8-0.8,5.1c-2.9,4.7-6.3,9.1-9.5,13.7
		C623.1,65.2,622.8,65.5,622.5,65.8z"/>
	<path class="st14" d="M529.7,59.1c0.8-1.4,1.8-2.8,2.4-3.8c4.8,4.1,9.4,8.5,14.4,12c10.5,7.3,22.6,8.7,35,8.7
		c2.8,0,5.5-0.1,8.4-0.1c0,0.2,0,0.3-0.1,0.6c0.2,0.8,0.3,1.6,0.6,2.5c-15.2,0.7-30.4,2.1-44-6.6c-5.1-3.3-9.4-7.6-14.1-11.5
		C531.4,60.2,530.5,59.7,529.7,59.1z"/>
	<path class="st15" d="M587.9,42.2c0,5.9-0.4,12,0.1,17.8c0.6,7.4,5.3,11.5,12.9,12.4c7.4,0.9,14-0.8,20.1-4.9
		c-0.6,4.3-4.3,6.1-7.4,6.9c-5.2,1.3-10.8,1.3-16.2,1.6c-1.9,0.2-3.8-0.2-5.8-0.3c-1.7-2.6-3.3-5.2-5-7.7c-0.4-3.6-1.1-7.2-1.1-10.8
		c-0.1-4.4,0.3-8.8,0.6-13.2C586,43.4,587.2,42.9,587.9,42.2z"/>
	<path class="st16" d="M604.8,42.3c2.2,7.9,9.7,8.6,14.8,6.4c2.6-1.2,4.9-2.8,7.4-4.3c0.1,0.3,0.3,0.6,0.3,0.8
		c-2.1,6.6-16.2,10.7-21.3,6.3C602.9,48.8,602.6,46.1,604.8,42.3z"/>
	<path class="st17" d="M507.2,20.5c3.4,6.7,7.1,13.3,10.2,20.1c0.6,1.3-0.6,3.4-0.9,5.3c-3.5-7.1-7.2-14-10.5-21.2
		C505.5,23.7,506.8,21.9,507.2,20.5z"/>
	<path class="st18" d="M510.4,63.2c0,1.1,0,2.1,0,3.3c6.3,1.8,11-1.4,15.8-4.2c-2.3,6-9.7,9.4-18.7,7.9
		C508.5,67.7,509.4,65.5,510.4,63.2z"/>
	<path class="st15" d="M589.8,76.3c0-0.2,0.1-0.3,0.1-0.6c0.6,0,1.1,0,1.7,0C591,76,590.4,76.2,589.8,76.3z"/>
	<path class="st18" d="M527.1,61.5c0.3-0.3,0.6-0.6,0.8-0.8C527.7,60.9,527.4,61.3,527.1,61.5z"/>
	<path class="st18" d="M511,61.5c-0.1,0.4-0.3,0.8-0.3,1.2C510.8,62.3,510.9,61.9,511,61.5z"/>
	<path class="st15" d="M622.5,65.8c0.3-0.3,0.5-0.6,0.8-0.8C623.1,65.2,622.8,65.5,622.5,65.8z"/>
	<path class="st19" d="M615.7,43.9c-0.3,0.7-0.5,1.3-0.8,1.9c-1.7-0.8-3.7-1.3-5-2.4c-0.6-0.5-0.4-2.6,0.1-3.7
		c0.4-0.8,1.9-1,2.9-1.5c0.3,0.9,1.3,1.9,1,2.6C613.3,42.8,613.5,43.8,615.7,43.9z"/>
	<path class="st20" d="M520.4,34.9c0.3-0.1,0.4-0.3,0.7-0.3c0,0.4,0,0.9,0,1.3C520.8,35.5,520.6,35.2,520.4,34.9z"/>
	<path class="st12" d="M517.5,28.5c0-0.3-0.1-0.6-0.1-0.9c0.3,0.1,0.6,0.2,0.8,0.3C518,28.1,517.7,28.3,517.5,28.5z"/>
</g>
</svg>
