<svg xmlns="http://www.w3.org/2000/svg" viewBox="0 0 1080.4 232.3" >

<path fill="#110D10" d="M154.1,121.2c3.1-4.3,2.8-9.3,2.8-14.3c-0.1-22.3,0-44.6,0-68.3c-9.6,0.6-18.5,0.9-27.3,1.8c-4.9,0.5-6.3,5-7.2,9.1c-4.1,18.8-6.1,37.7-5.3,57c0.3,7.2-0.6,14.6-2.2,21.7c-2.6,11.8-0.8,23.5-0.2,35.3c0.3,5.3,0.4,10.6,0.5,15.9c-1.1,1.7-2.1,3.5-3.2,5.2c-2.5-0.9-2.6-2.2-1.6-4.6c1.1-2.5,1.7-5.4,1.6-8c-0.3-5.9-1.3-11.7-2-17.6c0-1,0-2,0.1-3c0-3,0-5.9,0-8.9c0-0.4,0-0.7,0-1.1c0-1.6,0.1-3.3,0.1-4.9c4.6-22.2,2-44.7,4-67.1c0.4-1.4,0.9-2.8,1.1-4.3c1.6-7.7,3.1-15.5,4.6-23.2c0.9-4.9,4.2-6.4,8.6-6.5c6.7,0,13.3,0.1,20-0.1c2.5-0.1,5-0.8,8.1-1.3c-0.8-1.3-1-1.9-1.4-2.3c-4.8-5.4-10.8-3.4-16.7-3c-4.5,0.3-9.7,0.9-13.5-0.9c-5-2.4-9.8-2.7-14.9-2.3c-4.3,0.3-8.6,0.8-12.9,0.9c-5,0.2-10-0.3-15,0.1c-22.3,1.6-44.4,0.7-66.6-2c-1.9-0.2-4.7-0.3-5.7,0.8c-2.3,2.8-4.1,6.1-5.2,9.5c-0.2,0.7,3.6,3.4,5.9,3.9c3.7,0.7,7.7,1,11.4,0.4C40.8,36,59.9,35.1,79,35.6c2.9,0.1,5.8,1.1,8.6,2c1.1,0.4,2.4,1.6,2.6,2.6c0.9,3.6,1.6,7.4,2.1,11.1c0.8,5.1,1.4,10.1,2,15.2c0,6.8,0.1,13.6-0.1,20.4c-0.3,16.2-0.7,32.3-1,48.5c-0.3,7.8-0.4,15.6-0.8,23.4c-0.6,12.4-2.6,24.5-6.4,36.5c-1.3,4.1-0.4,9.2,0.8,13.5c0.3,1.2,5.2,1.1,7.9,1.7c1.1,0.2,2.2,0.7,3.4,0.9c7.8,1.6,18-4.2,19.2-11c0.6-0.7,1.3-1.3,1.9-2c3.3,8.1,1.1,13.4-7.1,15.8c-3,0.9-6.2,1.3-9.3,1.2c-7.4-0.2-14.9-0.9-23.1-1.4c1.4-9,1.9-18.4,4.6-27c2.4-7.5,3.4-14.9,3.6-22.4c0.7-22,1.2-43.9,1.3-65.9c0.1-15.4,0-30.9-1.3-46.3c-1.1-13.1-1.5-13.5-13.6-13c-17.9,0.7-35.8,2.6-53.7,3.4c-5.7,0.3-11.5-0.9-17.2-1.9c-3-0.5-4.1-2.7-3.5-6c2.7-13.2,3.7-14,17.1-13.4c18.4,0.8,36.9,2.1,55.3,2.3c12.9,0.1,25.9-1.7,38.8-2c4.1-0.1,8.2,1.6,12.4,2.3c3.2,0.6,6.5,1.5,9.7,1.5c6-0.1,11.9-0.9,17.9-1c3.1,0,3-1.8,3-3.8c3.6-1,7.2-2.1,10.7-3.1c0,3.6,0,7.1,0,10.7c-1.4,0.5-3.1,0.6-4.1,1.4c-1.2,0.9-2.6,2.6-2.5,3.8c0.2,1.4,1.7,2.8,2.9,4c1.2,1.3,3.5,2.1,3.7,3.5c0.5,2.9,0.7,5.8-3,7.9c-2,1.2-2.4,5.2-3.5,7.9c2.2,0.2,4.4,0.5,6.6,0.7c0,3.3,0,6.6,0,9.9c-6.2,1.2-9,4.8-6.4,8.3c1.7,2.2,4.2,3.9,6.4,5.8c0,0.6,0,1.3,0.1,1.9c-1.9,1.9-3.8,3.7-5.7,5.6c-1.6,4.2,0.9,6,5.6,5.4c-0.1,3.3-0.2,6.5-0.2,9.8c-4.9,1.5-6.8,4.6-5.1,9.9c1.7,0.2,3.5,0.3,5.3,0.5c0,3.3,0,6.5,0,9.8c-2.4,0.6-4.7,1.3-6.9,1.9C156.8,124.4,155.4,122.8,154.1,121.2z"/>
<path fill="#110D10" d="M478.8,121c-1.7-1.7-3.9-3.1-5-5.2c-5.4-9.6-10.4-19.3-15.6-28.9c-0.7-1.2-1.6-2.4-2.9-4.4c-1.2,2.4-2.2,3.9-2.6,5.5c-5,20.7-10,41.3-14.6,62.1c-2.7,12.3-3.7,25-7.2,37.1c-2.4,8.4-2.5,16.5-2.6,24.8c-0.1,9.4-10.1,17.4-19.6,15.9c-7.2-1.1-9.8-7.6-5.8-13.6c2-3,3.5-6.5,4.4-9.9c6.8-26,13.4-52.1,19.9-78.2c3.9-15.3,8.2-30.5,11.2-45.9c1.7-8.9,1.5-18.2,1.8-27.3c0.3-8.7,4.4-14.5,12.4-15.6c2.8-0.4,6.6,0.9,8.7,2.8c6.1,5.7,9,13.5,10.9,21.5c3.2,12.8,10.4,23.6,17,34.8c0.7,1.1,1.7,2.2,2,3.4c4.3,17.6,14,32.5,23.5,47.4c0.6,1,1.1,2,1.7,3c-0.7,1.1-1.5,2.3-2.2,3.4c-0.3,0-0.5-0.1-0.8-0.1c-4.4-7.3-8.8-14.6-13.1-21.9c-3.9-7.4-7.8-14.7-11.8-22.1c0.6-6.6-1.8-12.1-6.3-16.9c-4.3-8.7-8.6-17.3-13-26c0-0.4,0-0.8,0-1.1c0-0.6,0-1.2,0-1.7c-0.2-0.4-0.5-0.8-0.7-1.1c-0.4-2.3-0.9-4.5-1.3-6.8c-0.3-0.4-0.6-0.8-0.9-1.2c-1.7-2.7-3.4-5.3-5.1-8c-0.5-4.8-4.3-5.4-7.9-5.8c-4-0.5-5.6,2.7-6.8,5.8c-1,3.2-2.1,6.5-3.1,9.7c0.2,0.4,0.4,0.8,0.6,1.2c0.1,3,0.3,6.1,0.4,9.1c0,1,0,1.9,0,2.9c0,0.4,0,0.7,0,1.1l-0.3,0c0,0.6-0.1,1.3-0.1,1.9c-1.1,6.6-2.1,13.2-3.2,19.8c-1.8,4.8-3.6,9.6-5.4,14.4c-0.5,1.9-1.1,3.8-1.5,5.7c-1.6,7.7-3.1,15.5-4.6,23.3c-0.6,3-1.2,6-1.8,9c-0.4,0.9-1.1,1.7-1.3,2.6c-2,8.7-3.4,17.5-6,26c-4.6,14.8-9.9,29.5-15,44.2c-1.3,3.7-0.2,6.1,3.5,7c4.9,1.2,14.4-4.3,15.1-9.2c1.1-8.2,1.6-16.4,2.4-24.6c0.6-5.9,0.8-11.9,1.8-17.7c1.6-9.1,3.7-18,5.6-27.1c0.9-3.5,1.7-6.9,2.6-10.4c2.5-9.7,5-19.3,7.5-29c1.2-4.7,2.4-9.4,3.6-14c1.2-3.7,2-7.7,3.8-11.1c2.3-4.5,4.9-4.6,7.8-0.6c3,4.1,5.6,8.6,8.3,12.9c3,5.7,6,11.4,9,17.1C477,114.1,477.9,117.5,478.8,121z"/>
<path fill="#AEDDE7" d="M850.3,189.5c-2.5-4.5-3-9-1.6-14.2c0.7-2.7-0.6-6-1.1-9c4-3.4,3.9-9.1-0.1-13.8c-0.4-6.5-0.6-13.1-1.4-19.5c-0.4-3.2-1.8-6.3-2.9-9.4c-1.2-3.4,0.1-5.4,3.4-6.3c5.7-1.6,11.4-3.2,17.2-4.6c2.4-0.5,5.2-0.7,5.5,3c0,1.1,0,2.3,0,3.4c0,3.5,0,7-0.1,10.5c0,4.3,0,8.6,0,12.9c-1,1.6-2.7,3-3,4.7c-0.6,3.7-0.5,7.4-0.7,11.2c-0.4,2.7-0.8,5.4-1.1,8.2c0,5.3,0,10.7-0.1,16c0.4,4.9,0.5,9.9,1.3,14.7c0.2,1.2,2.3,2.2,3.5,3.2c1.2,1.8,2.4,3.5,3.6,5.3c4.1,5.9,2.6,9.4-4.5,10.6c-0.8,0.1-1.7,0-2.5,0c-4.1,0.6-8.2,1.3-12.3,1.9c-4.4,1.9-8,0.1-11.2-2.7c0.6-3.6,1.3-7.2,1.9-10.8c0.8-1.1,1.6-2.3,2.3-3.4c1.2-1.8,2.9-3.5,3.5-5.5C850.8,193.9,850.3,191.6,850.3,189.5z"/>
<path fill="#F28104" d="M711.4,117.5c9,2.6,12.2,10.1,15.1,17.9c-2.8,2.4-4.2,5.2-2.2,9c1.7,0,3.3,0,4.9,0c0.7,3,1.5,6,2.2,9c-2.2,1.7-4.5,3.3-7.7,5.7c-1,4.7-0.5,5.3,5.6,5.2c-0.2,3-0.4,6-0.6,9c-3.1,0.6-6.1,1.8-5.1,5.6c0.3,1.4,2.6,2.4,4,3.5c0.6,4,1.1,8.1,1.7,12.1c-1.6,0.1-3.1,0.2-4.6,0.3c0,2.4,0,4.1,0,6c2.3-1.3,4.2-2.4,6.2-3.5c-0.1,1.3-0.3,2.6-0.4,3.9c-3.4,4.1-2.8,7.1,1.8,9.4c0.1,0.6,0.2,1.1,0.3,1.7c-0.7,0.5-1.4,1-2.1,1.4c-2.2,0-4.4,0-6.7,0c0,2.9,0,5.1,0,7.6c2.4,0,4.5,0,6.6,0c0.7,1.4,1.4,2.8,2.1,4.2c-1.7,1-3.5,2-5.2,3c-3.3,1-6.5,2-9.8,2.9c-1.1-0.2-2.4-0.9-3.3-0.7c-2.6,0.8-5.3,2.2-6.4-1.7c-1-3.7-2.8-7.6,2.2-10.4c1.6-0.9,2.3-3.5,3.4-5.3c1.8-1.9,3.5-3.8,6.2-6.6c-2.9-1-4.6-1.6-6.3-2.2c-1.3-0.7-2.7-1.4-4-2.1c0.8-2.5,1.5-4.9,2.5-8.1c-2.6,0-4.1,0-5.5,0c-0.4-4.5,3.7-4.4,6.1-6c1,0.5,2,1,3.1,1.4c3,1.3,5.8-0.6,4.2-2.4c-1.3-1.4-4.2-1.5-6.4-2.2c0.4-1.3,0.8-2.7,1.2-4c4.7-2,4.9-3.2,1.7-8.8c-0.1-0.3-0.1-0.6-0.1-1c2.3-0.6,4.8-1.1,3.3-4.4c-0.3-0.7-2.1-1.5-2.3-1.3c-1.1,1.1-1.9,2.5-2.8,3.7c-1.4-1.8-2.9-3.5-4.3-5.3c0-0.2,0-0.4,0-0.6c0.4-3,0.8-5.9,1.2-8.9c0-0.4,0-0.9,0.1-1.3c1-0.4,2-0.8,3-1.2c3.9-2.5,3.4-8.7-0.9-11c-2.7-5.4-4.5-11.5-11.4-13.3c-1.2-0.3-2.3-1.2-3.5-1.8c-3.5-2.3-7.1-4.6-10.4-6.7c-1.1,1.4-1.7,2.2-2.2,2.9c-0.5-0.1-1-0.1-1.5-0.2c-0.2-0.8-0.2-2.2-0.5-2.3c-4.6-0.9-9.3-2-14-2.1c-3.5-0.1-7.1,0.8-10.5,1.7c-1.4,0.4-2.4,1.9-3.6,2.8c-2.7,1-5.3,2.7-8,3c-2.2,0.2-4.6-1.3-7-2.1c0.9-2,1.8-4,2.7-6c4.7-1.2,9.3-2.3,14-3.5c2.3-0.5,4.6-1,6.9-1.5c2.8,5.1,5.9,2.1,9,0.3c5.4-0.4,10.8-0.8,16.2-1.2c4.9,0.7,9.8,1.5,14.7,2.2c-3.7,3.8,1.2,6.9,0.5,10.4C710.5,124.5,711.2,123.8,711.4,117.5z"/>
<path fill="#E80002" d="M740.4,67.3c-0.3-3.7-0.8-7.4-1-11.2c-0.4-6.8,1.3-8.5,8.2-8.5c1.3,0,2.6,0.2,4,0.2c6.3-0.1,12.6-0.2,19-0.3c0.9-0.4,2-1.4,2.6-1.1c7.3,3.2,14.9,6.1,21.7,10.1c7.2,4.3,11.5,11.3,12.9,19.7c0.1,1.4,0,2.9,0.4,4.2c2.1,5.8,3.3,11.5,1.5,17.7c-1,3.5-0.7,7.4-1,11.2c-3.5,5-7,10.1-10.5,15.1c-3.8,0.2-4.2-2.7-5-5.4c1-4.2,2-8.5,3-12.7c0.7-1.1,2-2.3,2-3.4c-0.1-6.6-0.5-13.2-0.8-19.7c-2.3-5.4-3.9-11.4-7.2-16.2c-5.5-8.1-14.2-11.1-23.6-12c-5.9-3.6-8.8-3.1-12,2c-0.2,0.5-0.3,0.9-0.5,1.4c-2.5,1.1-2.2,2.9-2,5.3c0.7,6.3,1,12.6,1.4,18.9c0,3.9,0.1,7.7,0.1,11.6c-3.5,1.9-3.3,5-2.9,8.2c-0.1,7.3-0.2,14.7-0.3,22c-2.3,0-4.6,0-7,0c0-13.3,0.3-26.5-0.1-39.8C743.1,78.9,741.4,73.1,740.4,67.3z"/>
<path fill="#142022" d="M652.5,211.5c-0.7,3.3,2.6,7.4-1.4,10c-3,2-6.3,3.7-9.7,4.8c-3.8,1.1-7.9,1.3-11.8,1.9
c-4.2,0.7-6.3-1-6.5-5.3c-0.5-10.6-0.5-21.3-1.8-31.9c-2.5-21.6-5.7-43.2-8.6-64.8c-1.8-13.3-3.5-26.7-5.5-40
c-0.6-3.8-2.5-7.3-4.3-12.4c-2.9,4.5-5,7.6-6.9,10.7c-8.8,14-17.7,27.9-26.3,42.1c-7.8,12.9-15.4,26-22.8,39.1
c-1.8,3.1-2,7-3.6,10.3c-2,4.3-4.6,8.2-7,12.3c-0.6,1.1-1.5,2.1-2,3.3c-1.4,3.6-2.2,7.7-7.1,7.8c-5.5,0.1-10.4-1.7-13-6.7
c-6.1-11.4-11.7-23-17.7-34.4c-3.9-7.3-8.3-14.4-12-21.8c-2.2-4.5-3.5-9.6-5.2-14.4c1.3,1.1,3,1.9,3.9,3.2c1.8,2.6,3.3,5.5,4.9,8.2
c4.3,7.8,8.6,15.5,12.8,23.3c2.3,5.9,4.4,12,7,17.7c1.6,3.5,3.7,6.8,6,9.9c2.7,3.7,5.6,7.2,8.9,10.3c0.9,0.8,4.6,0.2,5.5-1
c3.5-4.5,7.7-9.1,9.3-14.4c2.9-9.5,7.7-18.1,11.9-27c4.2-7,8.4-14.1,12.7-21.1c2.4-3.9,4.8-7.8,7.2-11.7c5.7-9,11.4-18,17.1-27
c3.5-5.3,6.8-10.7,10.5-15.9c1.5-2,4.5-5.1,5.7-4.6c2.3,0.9,4.7,3.6,5.5,6.1c1.8,6,2.7,12.2,3.9,18.4c1,6.3,2.1,12.5,3.1,18.8
c0.7,5,1.5,10,2.2,15c0.3,3.3,0.4,6.7,0.9,10c1.3,8.1,1.2,16.5,5.3,24c1,17.7,2.1,35.5,3.1,53.2c0.3,5.7,2,7.5,7.5,6
c5.5-1.5,10.7-4.1,16.3-6.4c-1.9-3.1-3.5-5.6-5-8.1c0.9-0.3,1.7-0.6,2.6-0.9C649.6,209.4,651.1,210.5,652.5,211.5z"/>
<path fill="#A3056C" d="M978.7,191.1c1.4-4.5,1.9-9.5,4.3-13.3c7.4-11.9,10.4-25.6,16.9-37.8c1.1-2,2.7-3.7,4-5.6
c1.7,0.4,3.3,0.8,5,1.2c-1.8,4.4-3.4,8.9-5.5,13.1c-3.3,6.6-1.9,9.2,5.7,9.6c3.8,3.3,7.8,2.9,12,0.6c1.9,0,3.9,0.2,5.8,0
c5.1-0.4,10.2-1,15.3-1.5c2.5-1.1,5-2.2,7.5-3.4c-1.6-5.6-3-10.6-4.4-15.6c2.2-5.5,6.2-2.7,9.7-2.2c3.8,11.5,7.5,23.1,11.4,34.6
c1.3,3.9,3.1,7.6,4.7,11.5c-3.6-0.4-7.7-2.3-9,3.4c-1.7-3.3-4.3-6.4-4.9-9.8c-1.4-9-1.6-9.6-11-10.6c-3.8-4.2-11.4-4.2-15.8,0
c-1.7,0-3.3,0.1-5,0.1c-5.9-0.3-11.9-0.8-17.8-0.8c-0.7,0-1.5,1.7-2.3,2.7c-8.2,0.3-13,4.5-14.6,12.5c-0.4,1.9-1.2,3.8-1.8,5.6
c-1.8,1.9-3.7,3.8-5.5,5.7C981.9,191.2,980.3,191.2,978.7,191.1z"/>
<path fill="#84BD03" d="M321.4,226.6c-2-0.2-3.9-0.4-5.9-0.6c-1.9-5-6-4.9-10.2-4.4c-0.6-0.1-1.2-0.3-1.8-0.4
c0.1-1.5,0.2-3,0.2-3.6c-3.4-0.7-6.3-1.3-9.3-1.9c0.3,1.1,0.6,2.4,0.9,3.6c-2.1,0.1-4.2,0.2-6.4,0.4c-3.4-1.2-7.1-1.8-10.2-3.6
c-3.4-2-6.3-4.9-9.4-7.4c0.3-5.2,4.6-1,6.4-2.6c-3.7-4.3-5.2-4.3-9.6-0.4c-0.9-1-1.9-2.1-2.8-3.1c2.8-3.5,5.1-7.6,10.2-8.1
c3.5,2.2,6.8,4.6,10.4,6.5c6.4,3.4,13,6.4,19.4,9.6c3.8,4.1,7.8,6.9,13.5,3.1c0.4-0.2,1-0.2,1.5-0.1c5.6,0.7,11,2.1,16.6-0.8
c2.3-1.2,5.5-0.7,8.3-1c-0.6,6.9-5.8,5.5-10.6,4.8c1.7,4.5,4.2,4.8,7.3,2.9c2.5-1.6,4.9-3.3,7.4-4.9c2.3,1.7,4.6,3.3,6.9,5
c-1.5,1.7-3.1,3.4-4.6,5.1c-5.4,0-10.8-0.1-16.3-0.1c-4.3-4-5-3.9-9,1.1C323.4,225.9,322.4,226.2,321.4,226.6z"/>
<path fill="#818106" d="M956.4,139.5c-3.4-8.6-8.7-15.3-18.1-17.8c-0.5-0.8-0.9-1.7-1.4-2.5c1-6.7-4.7-4.6-7.8-5.9
c1.3-0.8,2.6-2.2,4-2.3c4.2-0.3,8.4-0.5,12.6-0.1c2.5,0.2,5.4,1.1,7.1,2.7c3.8,3.6,6.9,7.9,10.3,11.9c-7-1.2-8.6-0.6-8.9,3.3
c4,0.5,8,1,12,1.6c3,10.3,4.6,20.7,1.8,31.3c-4.2,3.1-3.8,7-1.6,11c-0.8,6-1.6,11.9-2.4,17.9c-1.3,1.7-2.6,3.3-3.9,5
c-2.3-1-4.6-1.9-6.9-2.9c0.1-1.8,0.2-3.5,0.3-5.3c0.9-0.8,2.6-1.5,2.7-2.4c0.5-6,0.7-12,1-17.9c0.1-0.7,0.1-1.4,0.2-2.1
c0.9-1.3,2.6-2.6,2.7-4c0.3-4.8,0.2-9.6,0.2-14.5C960.4,143.4,960.6,140.2,956.4,139.5z"/>
<path fill="#B70405" d="M793.1,119.2c0.7,2.6,1.2,5.5,5,5.4c-5.9,4.7-11.8,9.5-17.9,13.9c-4.4,3.2-6.4,7.1-4.1,10.3
c1.8,2.5,4.3,4.5,6.6,6.6c6.1,5.4,12.3,10.7,18.5,16.1c-2.6,0.7-5.3,1.1-7.7,2.3c-1.4,0.7-2.3,2.6-3.4,3.9
c-6.9-5.1-14-10-20.8-15.2c-3.9-2.9-7.6-6.1-11-9.5c-3.1-3.1-1.7-9.4,2.2-11.5c2.2-1.2,4.3-2.5,6.6-3.4
C777.4,133.7,786.2,127.7,793.1,119.2z"/>
<path fill="#110D10" d="M581.2,80c5-9.7,9.8-19.5,15.2-29c3-5.3,6.6-10.4,10.9-14.7c2.3-2.3,6.4-3.5,9.8-3.7
c5.2-0.3,7.6,2.9,8.1,8.1c2,22.5,3.4,45.1,6.3,67.5c2.6,20.6,6.8,41,10.5,61.4c0.4,2,2.7,3.7,4,5.5c-2.5,1.6-5,3.2-7.6,4.8
c-0.8-6.5-1.7-12.9-2.5-19.4c-1.9-10.4-3.8-20.7-5.7-31.1c-1-5.7-2-11.3-3-17c-0.7-6-1.4-12-2.1-18c-1.1-10.4-2.2-20.7-3.2-31.1
c0.1-6.1,0.4-12.2,0.1-18.2c-0.1-2.3-1.1-4.9-2.5-6.8c-0.9-1.2-3.6-2.4-5-1.9c-3,1.1-6.8,2.5-8.2,5c-4.1,7-7.2,14.6-10.8,22
c-4.2,5.6-8.3,11.2-12.5,16.9c-0.2,0-0.4,0-0.7,0.1C582,80.3,581.6,80.2,581.2,80z"/>
<path fill="#7DB505" d="M255.3,154.9c2.8-3.1,5.1-6.2,5.4-10.9c0.2-3,2.1-6.3,4-8.9c3.5-4.6,7.7-8.8,11.5-13.2
c2.6-3.1,5.7-5,9.9-4.5c2.8,0.7,5.6,1.5,8.3,2.2c-5.8,5.6-11.6,11.1-17.2,16.9c-1.4,1.5-1.9,3.9-2.8,5.9c-2.9,2-5.8,4.1-9.2,6.5
c4.4,0.2,7.7,0.4,11,0.5c1.3,0.9,2.7,1.8,4,2.7c-4.3,3.4-8.5,6.8-12.8,10.2c-0.7,0.6-1.9,1.1-1.9,1.7c0,4.1,0.3,8.2,0.6,12.3
c-3.6,3.1-7.1,1.4-10.7,0.1c-0.1-3.6-0.2-7.2-0.3-10.8c0-0.8,0-1.5,0-2.3C255.2,160.6,255.2,157.7,255.3,154.9z"/>
<path fill="#7B0D13" d="M790.3,177.6c1.1-1.3,1.9-3.2,3.4-3.9c2.4-1.2,5.1-1.6,7.7-2.3c9.5,7.1,19,14.3,28.5,21.4
c1.8,1.4,3.9,2.5,5.8,3.7c0.5,1.3,0.7,2.9,1.6,3.9c3.2,3.2,3.5,7,3.1,11.1c-0.2,0-0.4,0-0.5,0.1c-7.4,6.2-8,6.5-14.2-1.3
c-9.2-11.6-19.8-21.5-32.2-29.6C792.2,179.9,791.3,178.6,790.3,177.6z"/>
<path fill="#110D10" d="M172.9,17.6c0.1,2.1,0.2,4.3,0.4,7.5c12.8-0.6,25.5-1.6,38.2-1.6c6.6,0,13.3,1.7,19.9,2.8
c1,0.2,2.2,1.1,2.5,2c1.9,4.6-3.8,13.5-8.8,13.2c-14.7-0.7-29.4-1.5-44.1-2.7c-6.4-0.5-8.4,0.9-8.8,8.5c-0.3-2.7-0.7-5.4-0.9-8.2
c-0.3-3.9-0.5-7.8-0.8-11.7c0.1-3.3,0.3-6.6,0.4-9.9C171.6,17.5,172.3,17.6,172.9,17.6z M173.9,28.4c-1.4,4.8-0.1,6.8,4.1,7.1
c5.4,0.4,10.8,1.5,16.3,1.7c10,0.3,20,0.5,29.9,0.1c1.8-0.1,3.5-3.6,5.2-5.6c-1.5-1.3-2.7-3.3-4.4-3.7c-3.3-0.9-6.9-1.4-10.3-1.2
c-8.6,0.3-17.1,1.2-25.7,1.6C183.9,28.7,178.8,28.4,173.9,28.4z"/>
<path fill="#7B0D13" d="M752.4,217.7c-1.3,2.6-8.2,4.8-11.4,3.7c-3.7-1.3-6.4-7.6-5.1-11.8c1.1-3.4,2.4-6.8,3.5-10.1
c0.6-0.9,1.6-1.8,1.7-2.7c0.8-6.1,1.4-12.1,2.1-18.2c2.3,0,4.7,0,7,0c0,4.7,0,9.4,0.2,14.1c0.1,1.3,1.2,2.5,1.8,3.7
c0.4,2.6,0.7,5.2,1.1,7.9c0,0.8,0.1,1.5,0.1,2.3c-1,3.3-2,6.5-2.8,9.8C750.7,216.6,751.8,217.2,752.4,217.7z"/>
<path fill="#12122D" d="M153.6,192.4c2.9-11.1,3.7-22.4,2.2-33.8c-1.1-8.3-1.8-16.7-2.7-25c1.1,0.6,2.2,1.1,3.5,1.8
c0.9-1.4,1.6-2.5,2.3-3.5c2.3,0.9,4.4,1.8,6.5,2.6c0,3.3-0.1,6.6-0.1,10c-0.9,0.3-2,0.4-2.7,0.9c-1.4,0.9-2.6,2.1-3.9,3.1
c1.4,1.7,2.7,3.4,4.2,4.9c0.4,0.4,1.6,0.2,2.4,0.3c0,3.3,0.1,6.6,0.1,9.9c-1.8,0.5-3.7,1-5.7,1.6c-0.8,4.5,0.7,6.8,5.6,6.5
c-0.1,3.6-0.1,7.2-0.2,10.8c-1,0.1-2,0.1-2.9,0.3c-3.4,0.9-6.7,2-2.9,6.3c0.3,0.3,0.1,1,0.1,1.4c-0.9,0.6-1.8,1.3-2.7,1.9
C155.6,192.4,154.6,192.4,153.6,192.4z"/>
<path fill="#04037F" d="M1019.4,100.6c1.5-4.8,3-9.7,4.5-14.5c0.9-2.9,1.3-6.1,2.6-8.8c1.1-2.2,3.3-3.8,5-5.7
c3.4,1.2,3.7,4,3.9,7.1c0.2,3.3-0.4,7.4,4.2,8.7c0.3,0.3,0.6,0.5,0.9,0.8c-1.8,4.4-1.9,8.4,2.8,11.3c0.3,2,0.7,4,1,6
c-1-1.4-1.9-2.9-2.9-4.3c-0.5,0.2-1.1,0.4-1.6,0.6c-0.9,2.3-1.8,4.6-2.7,7c-1-1.2-2.3-2.2-3-3.6c-1.1-2.3-1.7-4.9-2.8-7.3
c-0.6-1.2-1.9-2.1-2.9-3.1c-0.9,1-1.7,2.1-2.7,3.1c-1.8,1.9-3.6,3.8-5.5,5.6C1020,102.5,1019.7,101.5,1019.4,100.6z"/>
<path fill="#F28104" d="M638.5,180c2.5-1.6,5-3.2,7.6-4.8c1.7-0.6,3.4-1.2,5.1-1.9c1.2,0.5,2.4,1,3.6,1.5
c-8.4,7.2-9.6,11.4-6.4,20.6c-1.2,2.3-2,4.9-3.7,6.8c-1.3,1.5-3.5,2.2-5.3,3.3c-5.7-2.1-7.8-5.1-8.1-10.5
C631,188.5,634.3,184.1,638.5,180z"/>
<path fill="#7DB505" d="M357.9,135.5c0.1,0.5,0.2,0.9,0.3,1.3c-0.6,1.2-1.2,2.3-1.8,3.5c-3.8-2.4-6.4-7.2-12-5.9
c-0.3-2.6,0.4-5.8-3.8-6c-1.8-3.9-3.6-7.8-5.4-11.7c1.9-3.4,0.9-5.5-2.8-6.3c-0.3-1.7-0.7-3.3-1-5c0.3-0.2,0.6-0.4,0.9-0.6
c7-1.7,11.5,2,15.2,7.2c-2.2,5.7-1.7,6.5,5,7.3c1.2,2.3,2.4,4.6,3.6,6.9c-0.9,1.5-3,3.4-2.6,4.3
C354.3,132.5,356.3,133.9,357.9,135.5z"/>
<path fill="#B70405" d="M750.3,178.5c-2.3,0-4.7,0-7,0c0-4.6-0.1-9.3-0.1-13.9c0-13.4,0.1-26.7,0.1-40.1c2.3,0,4.6,0,7,0
c0.2,0.2,0.2,0.5,0.3,0.8c0.6,4.1,1.1,8.2,1.7,12.3c0,1.1-0.1,2.2-0.1,3.3c-0.6,2.6-1.7,5.2-1.7,7.7c0.1,4.6,1,9.2,1.5,13.8
c0,1.2,0,2.5,0,3.8c-0.6,1.4-1.5,2.7-1.6,4.1C750.1,173,750.3,175.8,750.3,178.5z"/>
<path fill="#E80002" d="M1062.2,185.8c1.3-5.7,5.4-3.8,9-3.4c2.9,7.6,5.8,15.2,8.6,22.8c1.1,2.9,1,5.6-2.3,7.1
c-2.2,1-4.3,2.3-6.5,3c-4.8,1.6-5.4,1-5.4-4.3c3.9-3.6,3.4-9.6-1.2-13.6C1063.6,193.6,1062.9,189.7,1062.2,185.8z"/>
<path fill="#110D10" d="M522.8,160.8c7.3,3,12.7,1.3,17-6.2c7.1-12.4,13.7-25.2,20.6-37.7c6.8-12.3,13.8-24.6,20.7-36.9
c0.4,0.2,0.8,0.4,1.1,0.5c0,1,0,2,0,3.1c-0.8,2.5-1.6,5-2.3,7.6c0,0,0,0.2,0,0.2c-0.3,0.4-0.6,0.7-0.8,1.1c-2,3.2-4,6.3-5.8,9.5
c-2.6,4.7-4.9,9.5-7.3,14.3c-2.6,4.1-5.2,8.1-7.8,12.2c-4.3,8-8.6,16-12.9,24c-2.4,2.9-4.6,6-7.1,8.7c-6.3,6.9-9,7-16.7,1.2
C521.9,161.9,522.4,161.3,522.8,160.8z"/>
<path fill="#04037F" d="M230.2,117.6c-0.5-4.3-5.3-1.9-6.9-4.4c-1.2-0.9-2.4-2.4-3.8-2.5c-9.1-1-17.6,1.6-25.9,4.9
c-0.5-1.8-0.9-3.5-1.4-5.3c6.2-4.8,13-8,21-7.9c1,6.7,6.2,3.1,9.6,4c1.5,0,3.1-0.3,4.4,0.2c3.8,1.3,4.2-0.9,4.2-3.7
c0.6,0.1,1.1,0.3,1.7,0.4c1,5.2,4.9,4.2,8.4,3.9c1.3,2,2.7,4.1,4,6.1c-1.2,0.4-2.4,0.8-3.5,1.2c-2-0.6-4-1.3-4.8-1.5
C234.3,115,232.2,116.3,230.2,117.6z"/>
<path fill="#6B1A7A" d="M1037.1,108.6c0.9-2.3,1.8-4.6,2.7-7c0.5-0.2,1.1-0.4,1.6-0.6c1,1.4,1.9,2.9,2.9,4.3
c2.3,5.5,4.8,11,6.8,16.6c1.6,4.7,2.6,9.6,3.9,14.4c-3.5-0.6-7.6-3.4-9.7,2.2C1042.6,128.6,1039.9,118.6,1037.1,108.6z"/>
<path fill="#00B1C1" d="M488.2,133.6c-1.6-2.8-3.1-5.6-4.9-8.2c-0.9-1.3-2.6-2.2-3.9-3.2c-0.2-0.4-0.4-0.8-0.6-1.2
c-0.9-3.4-1.8-6.9-2.6-10.3c3.8-3.8,8.2-1.8,12.4-1.3c3.9,7.4,7.8,14.7,11.8,22.1C496.3,132.2,492.3,132.9,488.2,133.6z"/>
<path fill="#878804" d="M888.3,123.4c-3.4-8.8-5.5-11.7,6.2-18.3c-1.1,3.1-2.2,6.2-3.7,10.4c1.4,0.5,4,1.4,7.8,2.8
c-3.8-7.3-3.8-7.3,2.8-9.5c0.6-0.2,1.3-0.4,1.9-0.6c-0.2,2.3-0.5,4.6-0.8,6.9c-0.2,1.8-0.6,3.6-0.8,5.4c-1.2,2.5-2.4,5-3.4,7.2
c2.5,0.9,4.7,1.8,6.9,2.7c0.9,0.1,1.7,0.2,2.6,0.3c-1.8,2.7-3.7,5.3-5.5,8c-0.2,0-0.4,0-0.6,0c-1.1-0.4-2.2-0.8-3.4-1.2
c-0.8-2.3-1.7-4.5-2.6-7c-1.5,0.5-2.7,0.9-3.9,1.3C890.6,129,889.4,126.2,888.3,123.4z"/>
<path fill="#7B0D13" d="M743.3,124.5c0,13.4-0.1,26.7-0.1,40.1c-0.6,0.6-1.3,1.2-1.9,1.9c-0.2-21.4-0.3-42.9-0.6-64.3
c-0.1-10-0.3-19.9-0.5-29.9c0-1.7,0.1-3.3,0.1-5c1,5.8,2.7,11.6,2.9,17.4C743.7,98,743.4,111.2,743.3,124.5z"/>
<path fill="#12122D" d="M230.2,117.6c2-1.3,4.1-2.7,7-4.5c0.8,0.2,2.8,0.9,4.8,1.5c0.1,3.2,0.1,6.5,0.2,9.7
c-1.1,1.4-2.3,2.9-3.4,4.3c1.2,0.6,2.4,1.2,3.6,1.8c0.1,4.9,0.2,9.9,0.3,14.8c0.3,1.7,0.6,3.5,0.9,5.2c-0.6,5.9-1.2,11.9-1.7,17.8
c0,0.7-0.1,1.5-0.1,2.2c0,0.3,0,0.6-0.1,0.9c-1.3,0-2.7,0-4,0c0.4-3.4,1.1-6.8,1.2-10.2c0.1-9,0.3-17.9-0.6-26.8
c-0.3-3.7-3.1-7.2-4.7-10.7C232.3,121.7,231.2,119.7,230.2,117.6z"/>
<path fill="#04037F" d="M170.6,27.5c0.3,3.9,0.5,7.8,0.8,11.7c0.2,2.7,0.6,5.5,0.9,8.2c0,3.8,0,7.5,0,11.3c-1.7-0.7-3.3-1.5-5-2
c-0.5-0.2-1.4,0.6-2,0.9c-2.2-0.2-4.4-0.5-6.6-0.7c1.1-2.7,1.5-6.7,3.5-7.9c3.7-2.2,3.5-5,3-7.9c-0.2-1.3-2.5-2.2-3.7-3.5
c-1.1-1.2-2.7-2.6-2.9-4c-0.1-1.2,1.3-2.9,2.5-3.8c1.1-0.9,2.7-1,4.1-1.4C167.4,31.1,168.9,28.8,170.6,27.5z"/>
<path fill="#818106" d="M898.2,137.4c1.1,0.4,2.2,0.8,3.4,1.2c-0.7,7.2-1.4,14.4-2.1,21.7c-0.5,2.5-1,4.9-1.4,7.4
c-2.2,0.3-4.5,0.6-6.7,0.9c-0.6-0.3-1.3-0.7-1.9-1c0-1.3,0-2.6,0-3.9c0.6-0.8,1.6-1.5,1.7-2.3c0.8-6,0.5-11.9,0-17.9
c-0.1-0.8-1.1-1.5-1.7-2.3c0-1.3,0-2.6,0-3.8c0.6-0.3,1.3-0.6,1.9-1C893.7,136.8,896,137.1,898.2,137.4z"/>
<path fill="#AEDDE7" d="M871.3,81.6c2.2,0.7,4.6,1,6.5,2.1c2,1.1,4.6,2.6,5.1,4.5c0.4,1.3-1.9,4.4-3.6,5.1
c-5.8,2.4-11.7,6.4-17.6-0.3c-1.5-1.7-4.2-2.4-7-3.9c1.8-2.2,3.2-3.9,4.6-5.6C863.3,82.8,867.3,82.2,871.3,81.6z"/>
<path fill="#E80002" d="M978.7,191.1c1.6,0,3.2,0,4.8,0.1c0.7,1.2,1.3,2.3,2,3.5c-0.5,1.6-1,3.1-1.5,4.7c-3.4,2.7-5.5,5.6-2.1,9.7
c-0.5,2.2-1.1,4.3-1.6,6.5c-5.1-0.9-10.8,1.9-15.4-2.3C969.5,205.9,974.1,198.5,978.7,191.1z"/>
<path fill="#12122D" d="M255.1,165.6c0.1,3.6,0.2,7.2,0.3,10.8c-0.1,0.3-0.1,0.7-0.2,1c-1.2,0.4-2.4,0.8-3.6,1.2
c2.1-6.9-5.4-6.9-8.1-10.1c9-10,9-10,6.1-16.4c0.1-2,5.2-2.5,1.9-5.7c-0.6-4.1-1.2-8.3-1.8-12.4c-0.1-2.5-0.1-5-0.2-7.4
c1-0.6,2-1.3,3-1.9c0.5,6.6,1,13.3,1.6,19.9c0.3,3.4,0.9,6.8,1.3,10.3c-0.1,2.8-0.2,5.6-0.3,8.4
C255.1,164.1,255.1,164.9,255.1,165.6z"/>
<path fill="#04037F" d="M165.2,94.5c-4.7,0.5-7.2-1.3-5.6-5.4c1.9-1.9,3.8-3.7,5.7-5.6c1.1,1.3,2.3,2.6,3.4,3.9
c0.6-1.7,1.9-3.5,1.5-5c-0.7-2.9-2.2-5.7-3.4-8.5c-0.4,0.1-0.8,0.3-1.2,0.4c-0.1,2.4-0.3,4.8-0.4,7.2c-2.1-1.9-4.6-3.6-6.4-5.8
c-2.7-3.5,0.2-7,6.4-8.3c5.1,3.3,4.5-2.1,6.1-4c0,4.4-0.2,8.9,0,13.3c0.2,5.2,0.6,10.4,0.9,15.5c-0.1,0.7-0.1,1.5-0.2,2.2
c-0.2,0.4-0.4,0.8-0.5,1.2l0.1,0.2c0,0-0.2,0.2-0.2,0.2c-1.3-0.7-2.5-1.6-3.8-2C167,93.9,166,94.4,165.2,94.5z"/>
<path fill="#818106" d="M961.2,204.5c-0.9,2.5-1.8,5.1-2.5,7.7c-0.4,1.6-0.9,3.5-0.3,4.8c1.3,3,0.2,5-1.9,6.9
c-3.6,3.2-10,1.9-13.6-2.6c-2.9-3.6-1.9-7.1,3.3-11.1c2.7,1.6,5.4,3.2,8.2,4.9c0-3.7,0-6.1,0-8.5
C956.6,205.9,958.9,205.2,961.2,204.5z"/>
<path fill="#6B1A7A" d="M1019.4,100.6c0.3,1,0.6,1.9,1,2.9c0.1,2.3,1,5,0.2,6.9c-3.6,8.5-7.7,16.8-11.6,25.2
c-1.7-0.4-3.3-0.8-5-1.2c0.3-1.9,0-4.1,0.9-5.8c4.2-8.4,8.8-16.6,13.2-24.9C1018.6,102.7,1018.9,101.6,1019.4,100.6z"/>
<path fill="#878804" d="M899.8,194.5c1,2.1,2.1,4.1,3.1,6.2c-0.7,1.3-1.7,3.1-2.7,4.9c-3.9-0.2-7.7-0.2-9.6,4.2
c-0.3,0.8-1.4,1.2-2.2,1.8c-4.7-1.7-5.7-5-3.9-9.4c0.9-2.2,1.9-4.4,2.8-6.6c1.1-0.8,2.2-1.6,3.2-2.5
C893.7,193.5,896.7,194,899.8,194.5z"/>
<path fill="#12122D" d="M171.5,97.1c0.6,3.3,1.5,6.6,1.7,10c0.6,7.5,3.5,9.3,10.2,6.4c2-0.9,4.5-0.9,6.7-1.3c-2,1.7-4,3.4-6.9,5.8
c1.9,1.4,3.2,2.4,4.5,3.4c-5,4.2-10,8.4-15,12.6c-0.5-0.2-0.9-0.3-1.4-0.5c0.4-2.2,0.8-4.4,1.1-6.6c4.8-3.8,2.6-8.1,0.8-12.3
c-0.8-3.1-1.6-6.3-2.4-9.4C171,102.5,171.3,99.8,171.5,97.1z"/>
<path fill="#F28104" d="M652.5,211.5c-1.4-1.1-2.9-2.1-4.3-3.2c0.7-2,1.3-4,2.2-6.4c1.1-0.6,3.1-1.6,5.1-2.7
c3.7,0.9,7.4,1.7,11.1,2.6c1.5,4.8,6,2.5,9,3.8c0,1.5-0.1,2.9-0.1,4.4c-4.3,0.1-8.7,0.2-13,0.3c-0.6-1.6-1.3-3.2-1.9-4.7
c-1,1.8-2,3.7-3,5.5C655.8,211.2,654.2,211.4,652.5,211.5z"/>
<path fill="#04037F" d="M153.6,192.4c1,0,2,0,3,0c-0.1,1.6-0.2,3.3-0.2,4.9c0,4.9,1.3,5.9,5.9,4.9c1-0.2,1.9-0.6,2.8-0.9
c2,0.3,3.9,0.6,5.9,0.9c0.4,2.7,0.9,5.4,1.3,8.1c-3.2,3-4.3-0.4-6.1-1.9c-2.5,0.5-5,1.1-8.1,1.8c-0.6,0.9-1.8,2.6-3,4.2
c-0.6-2-1.3-4.1-1.9-6.1c0.2-1.9,0.6-3.9,0.4-5.8c-0.2-1.4-1.4-2.7-2.2-4C152.2,196.5,152.9,194.5,153.6,192.4z"/>
<path fill="#818106" d="M907.7,130.6c-0.9-0.1-1.7-0.2-2.6-0.3c-0.4-2.6-0.7-5.2-1.1-7.8c0.5-0.4,1.1-0.8,1.6-1.2
c3.6-0.6,7.8,1.8,10.6-2.3c4-1.7,7.9-3.4,11.9-5.1c2.2,1.6,4.4,3.3,6.6,4.9c-3.1,1.5-7.9-1.4-9.7,3.7
C919.3,125.3,913.5,128,907.7,130.6z"/>
<path fill="#84BD03" d="M358.4,148.4c-1.4,1-2.8,1.9-4.1,2.9c-0.7-0.9-1.3-1.9-2-2.8c-4-4.5-5.7-4.3-9.9,0.9c0,0.7,0,1.4,0,2
c-2.3-0.4-4.7-0.7-7-1.1c-1-1.9-1.9-3.9-2.9-5.8c3-0.8,8,2.1,7.8-4.4c0,0-0.1,0.1-0.1,0.1c1.4-0.6,2.8-1.2,4.3-1.8
c2.2,0.6,4.5,1.1,6.7,1.8c1.8,0.6,3.5,1.5,5.2,2.3C357,144.6,357.7,146.5,358.4,148.4z"/>
<path fill="#84BD03" d="M268.2,181.5c1.3,3,2.7,6,4,9c-1.6,0.8-3.3,1.3-4.7,2.4c-2.5,2-4.7,4.3-7,6.5c-0.8-2.3-1.6-4.6-2.4-6.9
c1.4-0.5,2.7-1,3.1-1.1c-2.1-4.3-4-8.1-5.8-11.8C259.7,180.3,264,180.9,268.2,181.5z"/>
<path fill="#04037F" d="M172.9,17.6c-0.7,0-1.3,0-2-0.1c-1.5-0.6-2.9-1.2-4.5-1.9c-0.3,0.5-0.8,1.2-1.4,2c-3.6,1-7.2,2.1-10.7,3.1
c-1.2-2.1-3.1-4.1-3.5-6.3c-0.3-2.2,0.9-4.6,1.4-6.9c1.4,0.1,2.9-0.1,4.1,0.3c3.1,1.1,6,2.4,9,3.7c2.3-0.4,4.5-0.8,6.8-1.2
c0.3,2.1,0.7,4.1,1,6.2C173.1,16.8,173,17.2,172.9,17.6z"/>
<path fill="#04037F" d="M172.5,126.9c-0.4,2.2-0.8,4.4-1.1,6.6c-1.8-0.5-3.6-0.9-5.7-1.5c-0.1,0.9-0.2,1.7-0.3,2.5
c-2.1-0.8-4.1-1.7-6.5-2.6c-0.7,1-1.4,2.2-2.3,3.5c-1.2-0.6-2.3-1.2-3.5-1.8c0,0,0.1,0.1,0.1,0.1c-0.3-0.7-0.7-1.5-1-2.2
c-2.5-4-1-7.2,1.8-10.2c1.4,1.6,2.7,3.2,4.3,5c2.1-0.6,4.5-1.2,6.9-1.9C167.6,125.2,170,126,172.5,126.9z"/>
<path fill="#4B6A1B" d="M343.2,211.7c-2.8,0.3-6-0.2-8.3,1c-5.6,2.9-11,1.4-16.6,0.8c-0.5-0.1-1.1-0.1-1.5,0.1
c-5.6,3.8-9.7,1-13.5-3.1c13.7-0.1,27.3-0.3,41-0.4C343.9,210.6,343.6,211.2,343.2,211.7z"/>
<path fill="#12122D" d="M228.4,206.5c2-5.7,4-11.3,6-17c0.6-0.7,1.2-1.3,1.8-2c1.9,1.1,3.8,2.1,5.7,3.2c0,3.6,0,7.1,0.1,10.7
C237.2,202.2,232.2,202.7,228.4,206.5z"/>
<path fill="#F28104" d="M703.3,205.2c-2.8,0.4-5.6,0.6-8.3,1.4c-2.2,0.6-4.1,2-6.2,2.9c-1.1,0.5-2.4,0.6-3.7,0.8
c-0.4-0.2-0.8-0.4-1.1-0.6c-0.5,0-1.1,0.1-1.6,0.1c-0.1-1.6-0.3-3.2-0.4-4.8c1.8-0.5,3.6-0.8,5.3-1.5c2.7-1.2,5.4-2.6,8.1-3.9
c3-0.7,6-1.4,8.9-2.1C704,200.1,703.7,202.6,703.3,205.2z"/>
<path fill="#7DB505" d="M306.3,107.1c4.3-1.2,8.6-2.3,12.8-3.5c2.1,1,4.2,1.9,6.2,2.9c-1,1.4-2,2.7-3.1,4.1c-2.1-0.1-4.4,0.4-6.3-0.3c-3.7-1.3-5.4,0.5-7.1,3.2c-1.1,0.1-2.2,0.3-3.3,0.4c-2-3.1-4.6-2.3-7.4-1.3c-2.4-3.7,0.8-2.6,2.5-3C302.8,109.1,305.9,111,306.3,107.1z"/>
<path fill="#12122D" d="M165.5,11.5c-3-1.2-6-2.6-9-3.7c-1.3-0.4-2.7-0.2-4.1-0.3c-3-2.6-1.1-4.7,1.2-5.2c5.1-1.2,10.4-1.6,15.7-2.3C164,2.5,165.5,7.3,165.5,11.5z"/>
<path fill="#818106" d="M890.6,193c-1.1,0.8-2.2,1.6-3.2,2.5c0.4-3.7,0.7-7.4,1.1-11.1c4.1-2.8,2-7.4,3-11c2.2,0,4.4,0,6.6,0c-0.6,4.8-1.2,9.6-1.9,14.4C892.6,187.7,890.7,189.4,890.6,193z"/>
<path fill="#7DB505" d="M287.3,153.2c-0.7-0.2-1.3-0.5-2-0.7c0-1.9,0-3.9,0-5.8c2.7-0.1,5.4,0.1,8.1-0.2c2.6-0.4,5.2-1.2,7.8-1.9c2.3-0.4,4.6-0.7,6.8-1.1c-3.2,2.9-6.5,5.9-9.7,8.8C294.7,152.6,291,152.9,287.3,153.2z"/>
<path fill="#04037F" d="M228.4,206.5c3.8-3.7,8.8-4.2,13.6-5.1c0.1,0.5,0.2,1.1,0.3,1.6c0,2.2,0,4.4,0,6.6c0,0.3-0.1,0.7-0.1,1
c-2.3-0.8-4.5-1.5-7.1-2.4c-0.7,2.4-1.4,4.9-2.1,7.5c-1.8-1.7-3.2-4.3-6.4-3.2C227.2,210.5,227.8,208.5,228.4,206.5z"/>
<path fill="#12122D" d="M172.4,210.4c-0.4-2.7-0.9-5.4-1.3-8.1c-0.7-4.9-1.4-9.7-2.1-14.6c-0.2-1.4-0.5-2.9-0.7-4.3
c0-4.9-0.1-9.9-0.1-14.8c0.4-1.7,0.9-3.3,1.3-5c0.3-0.1,0.5-0.2,0.8-0.2l0.4,0.1l0.4,0c0,4,0,8,0,12c0,2,0,3.9,0,5.9
c0,1.4,0,2.7,0,4.1c0,0.6,0.1,1.3,0.1,1.9c0.6,1.7,1.1,3.4,1.7,5.1c0,0.9,0.1,1.8,0.1,2.7c0.4,5.1,0.9,10.3,1.3,15.4
C173.6,210.6,173,210.5,172.4,210.4z"/>
<path fill="#50A100" d="M306.3,107.1c-0.4,3.9-3.5,2-5.4,2.4c-1.7,0.4-4.9-0.7-2.5,3c0.3,1.2,0.7,2.5,1,3.7
c-1.6,1.1-3.2,2.3-4.9,3.4c-2.8-0.7-5.6-1.5-8.3-2.2c3.1-6.3,8-9.9,15.2-9.9C303,107.5,304.6,107.2,306.3,107.1z"/>
<path fill="#04037F" d="M242,190.7c-1.9-1.1-3.8-2.1-5.7-3.2c0.9-3,1.5-6.3,5.7-6.2c1.9,4.4,4.9,0.5,7.3,1c0.7,0.5,1.5,0.9,2.2,1.4
c-0.9,2.6-1.7,5.3-2.6,7.9c-1.4-0.7-2.7-1.7-4.2-2C243.9,189.4,242.9,190.3,242,190.7z"/>
<path fill="#12122D" d="M155.2,214.5c1.2-1.7,2.3-3.3,3-4.2c3.1-0.7,5.6-1.2,8.1-1.8c-1,3.8-2.4,7.8,3.3,9.3
c-2.1,2.8-4.6,3.2-7.9,1.9c-3.4-1.3-6.9-2.2-10.4-3.3C152.7,215.7,153.9,215.1,155.2,214.5z"/>
<path fill="#5B3F2F" d="M655.8,122.5c1.2-1,2.2-2.5,3.6-2.8c3.4-0.9,7-1.8,10.5-1.7c4.7,0.2,9.3,1.3,14,2.1
c0.3,0.1,0.4,1.5,0.5,2.3c-7.9,0.2-15.8,0.4-23.7,0.6C659.1,123,657.4,122.7,655.8,122.5z"/>
<path fill="#F28104" d="M964.9,213.3c4.6,4.2,10.3,1.4,15.4,2.3c-1.4,2.1-2.6,5.8-4.1,5.9c-3.9,0.3-8.1-0.8-12-1.8
C963.9,219.6,964.6,215.5,964.9,213.3z"/>
<path fill="#0000DC" d="M252.5,124.8c-1,0.6-2,1.3-3,1.9c-2.4-0.8-4.9-1.5-7.3-2.3c-0.1-3.2-0.1-6.5-0.2-9.7
c1.2-0.4,2.4-0.8,3.5-1.2c0,0-0.1,0-0.1,0c0.9,0.7,1.7,1.3,2.6,2C249.5,118.5,251,121.6,252.5,124.8z"/>
<path fill="#5B3F2F" d="M808.7,109.4c0.3-3.7-0.1-7.6,1-11.2c1.8-6.2,0.6-11.9-1.5-17.7c-0.5-1.3-0.3-2.8-0.4-4.2
c4.6,4.3,6.2,9.7,5.1,15.7C811.7,97.9,810.1,103.6,808.7,109.4z"/>
<path fill="#F28104" d="M668.1,165.4c2.7-1,5.4-2.1,8.1-3.1c1.3-0.5,2.6-1.1,3.9-1.6c2.5,0.6,5.1,1.3,7.6,1.9
c-3.2,1.4-6.7,2.5-9.6,4.4c-3.3,2.1-6.3,2.6-9.8,1.1C668.3,167.1,668.2,166.3,668.1,165.4z"/>
<path fill="#12122D" d="M193.6,115.6c8.3-3.3,16.8-5.9,25.9-4.9c1.3,0.1,2.5,1.7,3.8,2.5c-2.4,0.2-4.8,0.4-7.2,0.8
c-5.4,0.7-10.7,1.6-16.1,2.3c-2.1,0.3-4.3,0.1-6.5,0.1C193.4,116.1,193.5,115.9,193.6,115.6z"/>
<path fill="#EAB107" d="M729.3,164.4c-6.1,0.1-6.6-0.5-5.6-5.2c3.2-2.4,5.5-4.1,7.7-5.7c5.4,2.6,5.6,4.1,0.9,8.9
C731.3,163,730.3,163.7,729.3,164.4z"/>
<path fill="#5B3F2F" d="M687.8,162.6c-2.5-0.6-5.1-1.3-7.6-1.9c1.9-1,3.6-2.5,5.6-2.8c8.5-1.6,17-2.8,25.5-4.2c0,0.4,0,0.9-0.1,1.3
c-2.3,0.9-4.6,1.7-6.9,2.6c-2.8,0.3-5.7,0.2-8.3,1c-2.7,0.9-5.2,2.6-7.8,4c0,0-0.1,0.1-0.1,0.1
C688.1,162.7,687.9,162.7,687.8,162.6z"/>
<path fill="#0000DC" d="M165.4,134.5c0.1-0.8,0.2-1.6,0.3-2.5c2.1,0.5,3.9,1,5.7,1.5c0.5,0.2,0.9,0.3,1.4,0.5
c-0.2,3-0.3,5.9-0.5,8.9c-2.3,1-4.6,2-6.9,2.9c0-0.5-0.1-0.9-0.1-1.4C165.3,141.1,165.3,137.8,165.4,134.5z"/>
<path fill="#142022" d="M741.3,166.5c0.6-0.6,1.3-1.2,1.9-1.9c0,4.6,0.1,9.3,0.1,13.9c-0.7,6.1-1.3,12.2-2.1,18.2
c-0.1,1-1.1,1.8-1.7,2.7C740.1,188.5,740.7,177.5,741.3,166.5z"/>
<path fill="#0000DC" d="M226.5,212.5c3.2-1.1,4.6,1.5,6.4,3.2c-0.1,1.6-0.3,3.2-0.4,4.9c-1.1,0.9-2.2,1.9-3.3,2.8
c-1.6,0-3.2,0-4.9,0C222.2,219.1,224.3,215.8,226.5,212.5z"/>
<path fill="#142022" d="M119.3,198.5c-0.6,0.7-1.3,1.3-1.9,2c-1.8-5.3-3.6-10.5-5.4-15.8c1.1-1.7,2.1-3.5,3.2-5.2
C116.6,185.8,118,192.2,119.3,198.5z"/>
<path fill="#12122D" d="M165.4,145.8c2.3-1,4.6-2,6.9-2.9c-0.4,5.7-0.8,11.5-1.2,17.2c-1.2-2.5-2.5-5.1-3.7-7.6
C166.7,150.2,166,148,165.4,145.8z"/>
<path fill="#7DB505" d="M354.2,219.5c-2.3-1.7-4.6-3.3-6.9-5c-0.7-1.7-1.3-3.3-2-5c2.7-0.9,5.3-1.8,8-2.7c0.5,3.7,0.9,7.4,1.4,11
C354.5,218.4,354.4,218.9,354.2,219.5z"/>
<path fill="#EAB107" d="M903.2,108.3c-0.6,0.2-1.3,0.4-1.9,0.6c-6.6,2.1-6.6,2.1-2.8,9.5c-3.8-1.4-6.4-2.3-7.8-2.8
c1.5-4.1,2.6-7.3,3.7-10.4c0,0,0.1-0.2,0.1-0.2c2.5-0.1,4.9-0.1,7.4-0.2C902.4,106,902.8,107.1,903.2,108.3z"/>
<path fill="#5B3F2F" d="M896.2,187.8c0.6-4.8,1.2-9.6,1.9-14.4c0-1.9,0-3.8,0-5.7c0.5-2.5,1-4.9,1.4-7.4c0.6,1,1.2,2.1,1.8,3.1
c-0.1,0.7-0.2,1.5-0.2,2.2c-0.1,0.4-0.2,0.8-0.3,1.1c-0.2,8.6-0.5,17.3-0.7,25.9C898.7,191,897.5,189.4,896.2,187.8z"/>
<path fill="#121B1D" d="M242,181.3c-4.2-0.1-4.8,3.2-5.7,6.2c-0.6,0.7-1.2,1.3-1.8,2c1-6,1.9-12,2.9-18c1.3,0,2.7,0,4,0
C241.6,174.8,241.8,178,242,181.3z"/>
<path fill="#4B6A1B" d="M333.4,224.4c5.4,0,10.8,0.1,16.3,0.1c-1.2,0.8-2.2,2.1-3.5,2.3c-8.2,1.6-16.5,2.3-24.7-0.3
c1-0.4,1.9-0.8,2.9-1.1C327.6,226.8,330.7,227.7,333.4,224.4z"/>
<path fill="#EAB107" d="M711.4,117.5c-0.2,6.3-0.8,7-6.6,6.6c0.7-3.5-4.1-6.6-0.5-10.4C706.6,115,709,116.3,711.4,117.5z"/>
<path fill="#4B6A1B" d="M251.5,183.7c-0.7-0.5-1.5-0.9-2.2-1.4c0.8-1.2,1.6-2.4,2.3-3.6c1.2-0.4,2.4-0.8,3.6-1.2
c0.1,0.7,0.2,1.5,0.3,2.2c1.8,3.7,3.7,7.4,5.8,11.8c-0.3,0.1-1.7,0.6-3.1,1.1c-1.3-1.5-2.6-2.9-3.7-4.4
C253.4,186.7,252.5,185.1,251.5,183.7z"/>
<path fill="#142022" d="M840.2,211.5c0.4-4.1,0.1-7.9-3.1-11.1c-0.9-0.9-1.1-2.5-1.6-3.9c4.8,0.6,7.5,3.5,8.8,8.1
c-0.6,3.6-1.3,7.2-1.9,10.8C841.7,214.2,841,212.9,840.2,211.5z"/>
<path fill="#0000DC" d="M165.5,11.5c0.1-4.2-1.5-9,3.8-11.5c1.4,1.2,2.8,2.3,4.2,3.5c-0.4,2.2-0.7,4.5-1.1,6.7
C170,10.7,167.7,11.1,165.5,11.5z"/>
<path fill="#0000DC" d="M242,190.7c0.9-0.4,1.9-1.3,2.7-1.1c1.5,0.4,2.8,1.3,4.2,2c-0.9,3.6-1.8,7.2-2.7,10.9
c-1.3,0.2-2.6,0.3-3.8,0.5c-0.1-0.5-0.2-1.1-0.3-1.6C242,197.8,242,194.2,242,190.7z"/>
<path fill="#818106" d="M948.4,205.5c0.7-4.2,0.2-8.9,4.9-11.3c5,4.4,5,5,0.6,9.4c-0.6,0.6-1,1.3-1.5,1.9
C951,205.5,949.7,205.5,948.4,205.5z"/>
<path fill="#0000DC" d="M171.5,97.1c-0.2,2.7-0.4,5.4-0.7,8.1c-2.2,1.5-4.3,1.9-5.8-0.9c0.1-3.3,0.2-6.5,0.2-9.8
c0.8-0.2,1.7-0.7,2.4-0.4c1.3,0.5,2.5,1.3,3.8,2c0.1,0.2,0.2,0.4,0.2,0.7C171.7,96.9,171.5,97,171.5,97.1z"/>
<path fill="#4B6A1B" d="M335.3,150.4c2.3,0.4,4.7,0.7,7,1.1c0.3,0.7,0.5,1.4,0.8,2.1c-9.2-0.1-18.5-0.3-27.7-0.4
c-0.1-0.2-0.1-0.5-0.1-0.7c0.4-0.7,0.7-1.4,1.1-2.1c2.4,0,4.7,0,7.1,0C327.4,150.4,331.4,150.4,335.3,150.4z"/>
<path fill="#0000DC" d="M171.4,63.4c-1.7,1.9-1,7.4-6.1,4c0-3.3,0-6.6,0-9.9c0.7-0.3,1.5-1.1,2-0.9c1.7,0.5,3.3,1.3,5,2
c0,1.3,0,2.6,0.1,4C172,62.9,171.7,63.2,171.4,63.4z"/>
<path fill="#EAB107" d="M952.3,205.5c0.5-0.6,1-1.3,1.5-1.9c4.4-4.4,4.4-5-0.6-9.4c0-0.5,0-0.9,0-1.4c2.3,1,4.6,1.9,6.9,2.9
c0.4,2.6,0.8,5.2,1.1,7.8c0,0.3-0.1,0.7-0.1,1c-2.3,0.7-4.5,1.4-6.8,2.1C953.7,206.3,953,205.9,952.3,205.5z"/>
<path fill="#EAB107" d="M668.1,165.4c0.1,0.9,0.2,1.8,0.2,2.6c-4.5,2.3-9,4.5-13.6,6.8c-1.2-0.5-2.4-1-3.6-1.5
C656.8,170.7,662.5,168,668.1,165.4z"/>
<path fill="#EAB107" d="M727.5,182.5c-1.4-1.2-3.6-2.1-4-3.5c-1-3.9,2-5,5.1-5.6c0.4,0.1,0.8,0.1,1.2,0.2c0.3,2.7,0.5,5.3,0.8,8
C729.6,181.9,728.6,182.2,727.5,182.5z"/>
<path fill="#12122D" d="M1039.6,87.3c-4.6-1.3-4-5.4-4.2-8.7c-0.2-3.1-0.5-5.9-3.9-7.1c4-3.2,5.1-3,6,1.7
C1038.4,77.9,1038.9,82.6,1039.6,87.3z"/>
<path fill="#EAB107" d="M703.3,205.2c0.4-2.6,0.7-5.1,1.1-7.7c0.6-1,1.2-2,1.9-3c1.5,0,2.9,0,5.5,0c-1,3.2-1.7,5.6-2.5,8.1
C707.3,203.5,705.3,204.3,703.3,205.2z"/>
<path fill="#110D10" d="M750.3,178.5c0-2.7-0.2-5.5,0-8.2c0.1-1.4,1-2.8,1.6-4.1c0.1,4.8,0.3,9.6,0.4,14.5c0,5.2,0,10.5,0,15.7
c-0.6-1.2-1.8-2.4-1.8-3.7C750.3,187.9,750.4,183.2,750.3,178.5z"/>
<path fill="#84BD03" d="M952.3,205.5c0.7,0.4,1.4,0.8,2.1,1.2c0,2.4,0,4.7,0,8.5c-2.8-1.7-5.5-3.3-8.2-4.9c0.7-1.6,1.5-3.1,2.2-4.7
C949.7,205.5,951,205.5,952.3,205.5z"/>
<path fill="#5B3F2F" d="M869.3,200.5c-1.2-1.1-3.3-2-3.5-3.2c-0.8-4.9-0.9-9.8-1.3-14.7c0.4-0.1,0.9-0.1,1.3-0.2
c0.3,1.1,0.6,2.1,0.9,3.2C867.6,190.5,868.5,195.5,869.3,200.5z"/>
<path fill="#12122D" d="M151.5,198.5c0.8,1.3,2,2.6,2.2,4c0.3,1.9-0.2,3.9-0.4,5.8c-1.7,1-3.5,2.1-5.2,3.1
C147.6,206.7,147.5,202.1,151.5,198.5z"/>
<path fill="#0000DC" d="M169.6,217.8c-5.7-1.4-4.3-5.4-3.3-9.3c1.8,1.5,2.9,4.9,6.1,1.9c0.6,0.1,1.3,0.2,1.9,0.4
C175.1,214.7,174.2,217.4,169.6,217.8z"/>
<path fill="#7DB505" d="M343.2,153.6c-0.3-0.7-0.5-1.4-0.8-2.1c0-0.7,0-1.4,0-2c3.3-0.3,6.6-0.6,9.9-0.9c0.7,0.9,1.3,1.9,2,2.8
c-1.7,0.8-3.5,1.6-5.2,2.6C347,155.1,345,156.2,343.2,153.6z"/>
<path fill="#723D5D" d="M1005.3,167.4c0.8-0.9,1.5-2.7,2.3-2.7c5.9,0.1,11.9,0.5,17.8,0.8c-2.5,0.7-4.9,1.8-7.4,1.9
C1013.8,167.8,1009.6,167.4,1005.3,167.4z"/>
<path fill="#7DB505" d="M260.6,199.4c2.3-2.2,4.5-4.5,7-6.5c1.3-1.1,3.1-1.6,4.7-2.4c0.4,1.3,0.8,2.6,1.2,4
c-5.1,0.5-7.4,4.6-10.2,8.1C262.4,201.5,261.5,200.5,260.6,199.4z"/>
<path fill="#0000DC" d="M193.6,115.6c-0.1,0.2-0.1,0.5-0.1,0.8c-1.9,1.7-3.8,3.4-5.7,5c-1.3-1-2.6-2-4.5-3.4
c2.8-2.4,4.8-4.1,6.9-5.8c0.7-0.6,1.4-1.2,2.1-1.9C192.6,112.1,193.1,113.9,193.6,115.6z"/>
<path fill="#5B3F2F" d="M865.7,158.4c0.2-3.7,0.1-7.5,0.7-11.2c0.3-1.7,1.9-3.1,3-4.7c-0.7,5.7-1.4,11.4-2,17
C866.8,159.2,866.2,158.8,865.7,158.4z"/>
<path fill="#7B0D13" d="M770.5,47.5c-6.3,0.1-12.6,0.2-19,0.3C757.8,42.9,764.2,45.4,770.5,47.5z"/>
<path fill="#50A100" d="M345.3,209.5c0.7,1.7,1.3,3.3,2,5c-2.5,1.7-4.9,3.4-7.4,4.9c-3.1,1.9-5.6,1.7-7.3-2.9
c4.8,0.6,9.9,2.1,10.6-4.8c0.4-0.6,0.7-1.1,1.1-1.7C344.6,209.9,345,209.7,345.3,209.5z"/>
<path fill="#84BD03" d="M966.2,130.4c-4-0.5-8-1-12-1.6c0.3-3.9,1.9-4.5,8.9-3.3C964.2,127.2,965.2,128.8,966.2,130.4z"/>
<path fill="#5B3F2F" d="M957.2,167.2c-0.3,6-0.5,12-1,17.9c-0.1,0.9-1.7,1.6-2.7,2.4C954.7,180.7,956,174,957.2,167.2z"/>
<path fill="#5B3F2F" d="M727.5,182.5c1-0.3,2.1-0.6,3.1-0.9c0.1,5.1,0.2,10.1,0.3,15.2c-0.6-0.7-1.1-1.5-1.7-2.2
C728.6,190.5,728.1,186.5,727.5,182.5z"/>
<path fill="#723D5D" d="M753.4,82.7c-0.4-6.3-0.7-12.6-1.4-18.9c-0.3-2.3-0.6-4.2,2-5.3c0.1,7.4,0.3,14.7,0.3,22.1C754.2,81.3,753.7,82,753.4,82.7z"/>
<path fill="#12122D" d="M222.8,106.5c-3.4-0.9-8.6,2.6-9.6-4c3.6-1.1,7.2-2.7,10.3,0.9C223.3,104.4,223,105.4,222.8,106.5z"/>
<path fill="#84BD03" d="M285.3,146.7c0,1.9,0,3.9,0,5.8c-1.7-0.1-3.4-0.2-5.1-0.3c-1.3-0.9-2.7-1.8-4-2.7c0-1.1,0-2.1,0-3.2C279.3,146.4,282.3,146.6,285.3,146.7z"/>
<path fill="#5B3F2F" d="M891.5,173.4c-1,3.7,1.1,8.2-3,11c0.3-5.6,0.7-11.2,1-16.9c0.6,0.3,1.3,0.7,1.9,1C891.4,170.2,891.4,171.8,891.5,173.4z"/>
<path fill="#EAB107" d="M729.1,144.4c-1.6,0-3.2,0-4.9,0c-2-3.8-0.6-6.6,2.2-9C730.2,137.5,729.5,141,729.1,144.4z"/>
<path fill="#50A100" d="M255.5,179.7c-0.1-0.7-0.2-1.5-0.3-2.2c0.1-0.3,0.1-0.7,0.2-1c3.6,1.4,7.2,3,10.7-0.1c0.7,0.1,1.5,0.1,2.2,0.2c0,1.6,0,3.3-0.1,4.9C264,180.9,259.7,180.3,255.5,179.7z"/>
<path fill="#665F90" d="M847.5,152.5c4.1,4.7,4.1,10.4,0.1,13.8C847.6,161.8,847.5,157.1,847.5,152.5z"/>
<path fill="#142022" d="M514.2,153.6c0.7-1.1,1.5-2.3,2.2-3.4c2,3.4,4,6.9,6,10.3c-0.5,0.6-1,1.2-1.5,1.7C518.7,159.3,516.5,156.4,514.2,153.6z"/>
<path fill="#110D10" d="M889.5,141.3c0.6,0.8,1.6,1.5,1.7,2.3c0.5,6,0.8,11.9,0,17.9c-0.1,0.8-1.1,1.5-1.7,2.3C889.5,156.2,889.5,148.8,889.5,141.3z"/>
<path fill="#0000DC" d="M167.4,152.5c1.2,2.5,2.5,5.1,3.7,7.6c0,0.8,0.1,1.7,0.1,2.5c-0.3,0.3-0.6,0.6-0.9,0.9c-0.3,0-0.6,0-0.8,0.2c-1.4,0-2.8-0.1-4.1-0.1c0-3.3-0.1-6.6-0.1-9.9C165.9,153.2,166.6,152.8,167.4,152.5z"/>
<path fill="#818106" d="M732.5,225.6c-0.7-1.4-1.4-2.8-2.1-4.2c0-2.5,0-5.1,0-7.7c0.7-0.5,1.4-1,2.1-1.4C734.7,216.7,735.4,221.1,732.5,225.6z"/>
<path fill="#5B3F2F" d="M288.9,219.7c2.1-0.1,4.2-0.2,6.4-0.4c2.7,0.6,5.5,1.3,8.2,1.9c0.6,0.1,1.2,0.3,1.8,0.4c0.3,0.9,0.7,1.8,1,2.8C300.5,222.8,294.7,221.3,288.9,219.7z"/>
<path fill="#EAB107" d="M682.1,205c0.1,1.6,0.3,3.2,0.4,4.8c-1.7,0.7-3.4,1.5-5.1,2.2c-0.7-0.7-1.3-1.3-2-2c0-1.5,0.1-2.9,0.1-4.4
C677.7,205.4,679.9,205.2,682.1,205z"/>
<path fill="#4B6A1B" d="M325.4,106.5c-2.1-1-4.1-1.9-6.2-2.9c4.6-1.3,9.2-4,13.1,1.3c-0.3,0.2-0.6,0.4-0.9,0.6
C329.3,105.8,327.4,106.2,325.4,106.5z"/>
<path fill="#12122D" d="M224.4,223.3c1.6,0,3.2,0,4.9,0c3.8,0.5,7.6,0.9,11.4,1.4C233.1,229.2,228.5,228.8,224.4,223.3z"/>
<path fill="#121B1D" d="M960.2,146.6c0,4.8,0.2,9.7-0.2,14.5c-0.1,1.4-1.7,2.7-2.7,4c-0.1-6.2-0.2-12.4-0.4-18.6
C958.1,146.5,959.2,146.5,960.2,146.6z"/>
<path fill="#142022" d="M752,162.4c-0.5-4.6-1.4-9.2-1.5-13.8c-0.1-2.6,1.1-5.1,1.7-7.7C752.1,148.1,752,155.3,752,162.4z"/>
<path fill="#665F90" d="M850.3,189.5c0,2.1,0.5,4.4-0.1,6.3c-0.6,2-2.3,3.7-3.5,5.5C847.2,197.1,843.9,191.8,850.3,189.5z"/>
<path fill="#5B3F2F" d="M675.4,210c0.7,0.7,1.3,1.3,2,2c-5.9,0.4-11.8,2.8-17.5-0.9c0.8-0.3,1.7-0.6,2.5-0.9
C666.7,210.2,671,210.1,675.4,210z"/>
<path fill="#110D10" d="M750.6,125.3c0-0.3-0.1-0.6-0.3-0.8c0.1-7.3,0.2-14.7,0.3-22c0.6,2,1.2,4.1,1.7,6.1
c-0.1,5.9-0.1,11.8-0.2,17.7C751.6,126,751.1,125.6,750.6,125.3z"/>
<path fill="#142022" d="M752.4,196.4c0-5.2,0-10.5,0-15.7c0.4,7.9,0.7,15.7,1.1,23.6C753.1,201.6,752.7,199,752.4,196.4z"/>
<path fill="#EAB107" d="M896.2,187.8c1.3,1.6,2.5,3.3,3.8,4.9c-0.1,0.6-0.1,1.2-0.2,1.8c-3.1-0.5-6.1-1-9.2-1.4
C890.7,189.4,892.6,187.7,896.2,187.8z"/>
<path fill="#665F90" d="M901.3,163.4c-0.6-1-1.2-2.1-1.8-3.1c0.7-7.2,1.4-14.4,2.1-21.7c0.2,0,0.4,0,0.6,0
C901.9,146.9,901.6,155.1,901.3,163.4z"/>
<path fill="#5B3F2F" d="M1030.4,165.4c4.4-4.2,12-4.2,15.8,0C1041,165.5,1035.7,165.4,1030.4,165.4z"/>
<path fill="#84BD03" d="M888.4,211.5c0.7-0.6,1.8-1,2.2-1.8c1.9-4.5,5.7-4.5,9.6-4.2C897.3,209.6,894.1,213.1,888.4,211.5z"/>
<path fill="#665F90" d="M865.7,158.4c0.6,0.4,1.1,0.8,1.7,1.2c0,2.1-0.1,4.2-0.1,6.3c0,0,0-0.1,0-0.1c-0.2,6.6-0.4,13.2-0.6,19.8
c-0.3-1.1-0.6-2.1-0.9-3.2c0-1.9,0-3.9,0-5.8c0-0.4,0.1-0.7,0.1-1.1c0-2.4,0.2-4.8,0.1-7.2c0-0.6-0.9-1.2-1.5-1.8
C864.9,163.8,865.3,161.1,865.7,158.4z"/>
<path fill="#5B3F2F" d="M752.4,108.6c-0.6-2-1.2-4.1-1.7-6.1c-0.5-3.2-0.6-6.4,2.9-8.2C753.1,99.1,752.8,103.9,752.4,108.6z"/>
<path fill="#5B3F2F" d="M685.8,122.6c0.6-0.8,1.2-1.5,2.2-2.9c3.4,2.2,6.9,4.5,10.4,6.7C694.3,125.1,690.1,123.9,685.8,122.6z"/>
<path fill="#142022" d="M869.4,129.7c0-3.5,0.1-7,0.1-10.5c0-1.1,0-2.3,0-3.4C873.1,119.8,873.1,125.5,869.4,129.7z"/>
<path fill="#EAB107" d="M904,122.6c0.4,2.6,0.7,5.2,1.1,7.8c-2.2-0.9-4.5-1.7-6.9-2.7c1-2.2,2.2-4.7,3.4-7.2
C902.4,121.2,903.2,121.9,904,122.6z"/>
<path fill="#5B3F2F" d="M1064.3,197.5c4.6,3.9,5.1,10,1.2,13.6C1065.1,206.6,1064.7,202,1064.3,197.5z"/>
<path fill="#4B6A1B" d="M891.4,136.5c-0.6,0.3-1.3,0.6-1.9,1c-0.4-4.7-0.8-9.3-1.2-14c1.1,2.8,2.2,5.6,3.3,8.4
C891.6,133.3,891.5,134.9,891.4,136.5z"/>
<path fill="#5B3F2F" d="M657.4,113.9c-4.7,1.2-9.3,2.3-14,3.5C647.1,112.3,652.3,113.3,657.4,113.9z"/>
<path fill="#5B3F2F" d="M925.1,122.6c1.8-5.1,6.6-2.2,9.7-3.7c0.7,0.1,1.4,0.1,2.1,0.2c0.5,0.8,0.9,1.7,1.4,2.5
C933.9,122,929.5,122.3,925.1,122.6z"/>
<path fill="#723D5D" d="M797.3,83.3c0.3,6.6,0.7,13.2,0.8,19.7c0,1.1-1.3,2.3-2,3.4c0.1-6.5,0.2-13.1,0.3-19.6
C796.5,85.6,797,84.5,797.3,83.3z"/>
<path fill="#5B3F2F" d="M961.3,203.5c-0.4-2.6-0.8-5.2-1.1-7.8c1.3-1.7,2.6-3.3,3.9-5C963.1,194.9,962.2,199.2,961.3,203.5z"/>
<path fill="#818106" d="M729.8,173.6c-0.4-0.1-0.8-0.1-1.2-0.2c0.2-3,0.4-6,0.6-9c1-0.7,2-1.4,3-2
C732.6,166.4,733.3,170.4,729.8,173.6z"/>
<path fill="#4B6A1B" d="M268.3,176.6c-0.7-0.1-1.5-0.1-2.2-0.2c-0.2-4.1-0.5-8.2-0.6-12.3c0-0.5,1.2-1.1,1.9-1.7
C267.7,167.1,268,171.9,268.3,176.6z"/>
<path fill="#4B6A1B" d="M354.7,217.8c-0.5-3.7-0.9-7.4-1.4-11c1.6,1.7,4.2,3.3,4.6,5.3C358.2,213.7,355.8,215.9,354.7,217.8z"/>
<path fill="#723D5D" d="M853.6,218.3c4.1-0.6,8.2-1.3,12.3-1.9C862.2,219.4,858.2,220.8,853.6,218.3z"/>
<path fill="#142022" d="M902,104.8c-2.5,0.1-4.9,0.1-7.4,0.2c0.5-5.8,4.7-4.2,8.9-4.4C902.9,102.4,902.4,103.6,902,104.8z"/>
<path fill="#5B3F2F" d="M315.3,152.4c0,0.2,0.1,0.5,0.1,0.7c-9.4,0-18.8,0-28.1,0.1c3.7-0.3,7.4-0.6,11.1-0.9
C304,152.4,309.6,152.4,315.3,152.4z"/>
<path fill="#0000DC" d="M148.1,211.4c1.7-1,3.5-2.1,5.2-3.1c0.6,2,1.3,4.1,1.9,6.1c-1.3,0.6-2.6,1.2-3.9,1.9
C148,216.2,148,213.9,148.1,211.4z"/>
<path fill="#818106" d="M713.3,204.7c1.7,0.6,3.3,1.2,6.3,2.2c-2.7,2.8-4.4,4.7-6.2,6.6C713.3,210.5,713.3,207.6,713.3,204.7z"/>
<path fill="#12122D" d="M242.4,203c1.3-0.2,2.6-0.3,3.8-0.5c0,0.4,0.1,0.7,0.1,1.1c-0.1,1.3-0.1,2.6-0.2,3.9c0,2-0.1,4-0.1,6.1
c-0.5,0-1,0.1-1.5,0.1c-0.7-1.4-1.4-2.7-2.2-4.1C242.4,207.4,242.4,205.2,242.4,203z"/>
<path fill="#5B3F2F" d="M358.4,148.4c-0.7-1.9-1.4-3.8-2.1-5.7c0-0.8,0-1.5,0.1-2.3c0.6-1.2,1.2-2.3,1.8-3.5
C359.4,140.7,362.4,144.5,358.4,148.4z"/>
<path fill="#5B3F2F" d="M673.4,112.7c-3.1,1.8-6.2,4.8-9-0.3c3-0.3,6-0.6,9-0.9C673.4,111.9,673.4,112.3,673.4,112.7z"/>
<path fill="#818106" d="M713.4,141.4c4.3,2.3,4.8,8.4,0.9,11C714,148.8,713.7,145.1,713.4,141.4z"/>
<path fill="#5B3F2F" d="M871.3,81.6c-4,0.6-8,1.3-12,1.9C864.1,78.7,865.9,78.4,871.3,81.6z"/>
<path fill="#5B3F2F" d="M754.4,57.1c3.2-5.1,6.1-5.6,12-2C762.4,55.8,758.4,56.4,754.4,57.1z"/>
<path fill="#7B0D13" d="M750.6,125.3c0.5,0.3,1.1,0.7,1.6,1c0,3.8,0,7.5,0.1,11.3C751.7,133.5,751.1,129.4,750.6,125.3z"/>
<path fill="#0000DC" d="M222.8,106.5c0.2-1,0.5-2.1,0.7-3.1c2.6-0.1,5.2-0.3,7.8-0.4c0.1,2.9-0.3,5-4.2,3.7
C225.9,106.2,224.3,106.5,222.8,106.5z"/>
<path fill="#04037F" d="M240.6,224.7c-3.8-0.5-7.6-0.9-11.4-1.4c1.1-0.9,2.2-1.9,3.3-2.8c3.2,0.7,6.3,1.3,9.5,2
c0.5,0.1,0.9,0.1,1.4,0.2C242.5,223.4,241.6,224,240.6,224.7z"/>
<path fill="#142022" d="M673.4,112.7c0-0.4,0-0.8,0-1.2c5.4,0,10.8,0,16.2,0C684.1,111.9,678.7,112.3,673.4,112.7z"/>
<path fill="#723D5D" d="M172.3,10.2c0.4-2.2,0.7-4.5,1.1-6.7c3,4.3,2,8.6-0.1,12.9C172.9,14.4,172.6,12.3,172.3,10.2z"/>
<path fill="#0000DC" d="M243.5,222.7c-0.5-0.1-0.9-0.1-1.4-0.2c0-4,0.1-7.9,0.1-11.9c0-0.3,0.1-0.7,0.1-1c0.7,1.4,1.4,2.7,2.2,4.1
c0.3,2.7,0.7,5.4,1,8.1c0,0,0-0.1,0-0.1c-0.4,0.3-0.7,0.5-1.1,0.8C244.1,222.5,243.8,222.6,243.5,222.7z"/>
<path fill="#4B6A1B" d="M306.3,224.4c-0.3-0.9-0.7-1.8-1-2.8c4.2-0.5,8.3-0.7,10.2,4.4C312.5,225.5,309.4,224.9,306.3,224.4z"/>
<path fill="#5B3F2F" d="M171.4,63.4c0.3-0.3,0.6-0.6,0.9-0.8c0,9.9,0,19.8,0,29.7c-0.3-5.2-0.7-10.4-0.9-15.5
C171.2,72.3,171.4,67.9,171.4,63.4z"/>
<path fill="#5B3F2F" d="M966.4,172.7c-2.2-4.1-2.6-7.9,1.6-11C967.5,165.4,967,169.1,966.4,172.7z"/>
<path fill="#5B3F2F" d="M1043.3,99.4c-4.7-2.8-4.6-6.8-2.8-11.3C1041.4,91.9,1042.4,95.6,1043.3,99.4z"/>
<path fill="#4B6A1B" d="M960.2,146.6c-1.1,0-2.1-0.1-3.2-0.1c-0.2-2.3-0.5-4.6-0.7-7C960.6,140.2,960.4,143.4,960.2,146.6z"/>
<path fill="#EAB107" d="M936.9,119.2c-0.7-0.1-1.4-0.1-2.1-0.2c-2.2-1.6-4.4-3.3-6.6-4.9c0.3-0.3,0.6-0.5,0.9-0.8
C932.2,114.6,937.9,112.5,936.9,119.2z"/>
<path fill="#4B6A1B" d="M357.9,135.5c-1.6-1.6-3.6-3-4.4-5c-0.4-0.9,1.7-2.8,2.6-4.3C356.7,129.4,357.3,132.5,357.9,135.5z"/>
<path fill="#50A100" d="M352.4,119.5c-6.7-0.8-7.2-1.6-5-7.3C349.1,114.6,350.8,117,352.4,119.5z"/>
<path fill="#5B3F2F" d="M717.5,231.5c3.3-1,6.5-2,9.8-2.9C724.9,232.5,721.5,233,717.5,231.5z"/>
<path fill="#50A100" d="M266.1,205.7c4.3-4,5.9-3.9,9.6,0.4c-1.8,1.6-6.1-2.6-6.4,2.6C268.2,207.7,267.2,206.7,266.1,205.7z"/>
<path fill="#12122D" d="M241.4,107.3c-3.6,0.3-7.4,1.3-8.4-3.9C236.8,102.5,239.4,104.3,241.4,107.3z"/>
<path fill="#EAB107" d="M729.2,194.6c0.6,0.7,1.1,1.5,1.7,2.2c0.1,0.2,0,0.4-0.2,0.6c-2,1.1-3.9,2.2-6.2,3.5c0-1.9,0-3.7,0-6
C726.1,194.7,727.6,194.6,729.2,194.6z"/>
<path fill="#EAB107" d="M662.4,210.3c-0.8,0.3-1.7,0.6-2.5,0.9c-0.8,0-1.7,0-2.5-0.1c1-1.9,2-3.7,3-5.5
C661.1,207.1,661.8,208.7,662.4,210.3z"/>
<path fill="#5B3F2F" d="M985.5,194.7c-0.7-1.2-1.3-2.3-2-3.5c1.8-1.9,3.7-3.8,5.5-5.7C987.8,188.5,986.6,191.6,985.5,194.7z"/>
<path fill="#5B3F2F" d="M732.2,210.6c-4.6-2.2-5.2-5.3-1.8-9.4C731,204.3,731.6,207.5,732.2,210.6z"/>
<path fill="#723D5D" d="M981.9,209.1c-3.4-4.2-1.2-7.1,2.1-9.7C983.3,202.6,982.6,205.9,981.9,209.1z"/>
<path fill="#5B3F2F" d="M916.3,119.1c-2.8,4.1-7,1.7-10.6,2.3C908.5,117.4,912.4,118.3,916.3,119.1z"/>
<path fill="#142022" d="M752.4,217.7c-0.6-0.5-1.7-1.1-1.6-1.4c0.8-3.3,1.8-6.5,2.8-9.8C754.1,210.4,755.7,214.3,752.4,217.7z"/>
<path fill="#5B3F2F" d="M245.5,221.7c-0.3-2.7-0.7-5.4-1-8.1c0.5,0,1-0.1,1.5-0.1C246.5,216.3,252.1,219.4,245.5,221.7z"/>
<path fill="#5B3F2F" d="M171.1,181.5c0-2,0-3.9,0-5.9C171.1,177.5,171.1,179.5,171.1,181.5z"/>
<path fill="#5B3F2F" d="M246.1,207.5c0.1-1.3,0.1-2.6,0.2-3.9C246.2,204.9,246.2,206.2,246.1,207.5z"/>
<path fill="#04037F" d="M248,115.4c-0.9-0.7-1.7-1.3-2.6-2C246.2,114,247.1,114.7,248,115.4z"/>
<path fill="#5B3F2F" d="M173,195.3c0-0.9-0.1-1.8-0.1-2.7C172.9,193.5,173,194.4,173,195.3z"/>
<path fill="#5B3F2F" d="M171.2,187.4c0-0.6-0.1-1.3-0.1-1.9C171.1,186.2,171.1,186.8,171.2,187.4z"/>
<path fill="#12122D" d="M152.2,131.4c0.3,0.7,0.7,1.5,1,2.2C152.9,132.9,152.6,132.2,152.2,131.4z"/>
<path fill="#5B3F2F" d="M244.4,222.4c0.4-0.3,0.7-0.5,1.1-0.8C245.2,221.9,244.8,222.1,244.4,222.4z"/>
<path fill="#110D10" d="M520.9,162.2c0.5-0.6,1-1.2,1.5-1.7c0.2,0,0.4,0.1,0.4,0.3c-0.5,0.6-0.9,1.1-1.4,1.7
C521.3,162.3,521.1,162.2,520.9,162.2z"/>
<path fill="#5B3F2F" d="M170.3,163.5c0.3-0.3,0.6-0.6,0.9-0.9c0.2,0.3,0.1,0.6-0.1,0.9c0,0-0.4,0-0.4,0L170.3,163.5z"/>
<path fill="#5B3F2F" d="M867.3,165.8c0,0,0,0.1,0,0.1c0.1,0,0.2,0.1,0.3,0.1C867.5,165.9,867.4,165.8,867.3,165.8z"/>
<path fill="#665F90" d="M900.7,166.7c0.1-0.4,0.2-0.8,0.3-1.1C901,165.9,900.8,166.3,900.7,166.7z"/>
<path fill="#12122D" d="M171.5,95.7c0.2-0.4,0.4-0.8,0.5-1.2C171.9,94.9,171.7,95.3,171.5,95.7z"/>
<path fill="#EAB107" d="M684.1,209.7c0.4,0.2,0.8,0.4,1.1,0.6C684.9,210.1,684.5,209.9,684.1,209.7z"/>
<path fill="#7B0D13" d="M94.4,66.6c-0.7-5.1-1.3-10.2-2-15.2c-0.6-3.7-1.2-7.5-2.1-11.1c-0.3-1.1-1.6-2.3-2.6-2.6
c-2.8-0.9-5.7-1.9-8.6-2c-19.1-0.5-38.2,0.3-57.1,3.6c-3.7,0.6-7.7,0.4-11.4-0.4c-2.2-0.5-6.1-3.2-5.9-3.9c1.1-3.4,2.9-6.8,5.2-9.5
c0.9-1.1,3.8-1,5.7-0.8c22.1,2.7,44.3,3.6,66.6,2c5-0.4,10,0.1,15-0.1c4.3-0.1,8.6-0.7,12.9-0.9c5.1-0.3,9.9,0,14.9,2.3
c3.8,1.8,9,1.2,13.5,0.9c5.9-0.4,11.9-2.3,16.7,3c0.4,0.5,0.7,1,1.4,2.3c-3.1,0.5-5.6,1.2-8.1,1.3c-6.7,0.2-13.3,0.1-20,0.1
c-4.4,0-7.7,1.6-8.6,6.5c-1.4,7.8-3,15.5-4.6,23.2c-0.3,1.4-0.8,2.8-1.1,4.3c-1.8-1.3-3.5-3.6-5.4-3.7
C104.1,65.5,99.2,66.3,94.4,66.6z"/>
<path fill="#665F90" d="M112,184.7c1.8,5.3,3.6,10.5,5.4,15.8c-1.3,6.8-11.4,12.6-19.2,11c-1.1-0.2-2.2-0.7-3.4-0.9
c-2.8-0.6-7.6-0.5-7.9-1.7c-1.2-4.3-2.1-9.4-0.8-13.5c3.8-11.9,5.8-24.1,6.4-36.5c0.4-7.8,0.6-15.6,0.8-23.4
c5.9-4.1,11.5-2.7,16.9,1.1c0,1.6-0.1,3.3-0.1,4.9c-0.1,0.1-0.3,0.2-0.3,0.3c0.1,0.3,0.2,0.5,0.3,0.8c0,3,0,5.9,0,8.9
c0,1,0,2-0.1,3c0.7,5.9,1.6,11.7,2,17.6c0.1,2.7-0.5,5.5-1.6,8C109.4,182.5,109.6,183.8,112,184.7z"/>
<path fill="#723D5D" d="M110.2,136.6c-5.4-3.8-11-5.1-16.9-1.1c0.4-16.2,0.7-32.3,1-48.5c0.1-6.8,0-13.6,0.1-20.4
c4.8-0.3,9.7-1.1,14.5-0.8c1.8,0.1,3.6,2.4,5.4,3.7C112.3,91.8,114.9,114.4,110.2,136.6z"/>
<path fill="#0000DC" d="M172.5,126.9c-2.4-0.8-4.9-1.7-7.3-2.5c0-3.3,0-6.5,0-9.8c0.1-0.8,0.2-1.6,0.2-1.3c2.8,0.5,5.4,0.9,7.9,1.3
C175,118.8,177.3,123.1,172.5,126.9z"/>
<path fill="#04037F" d="M173.3,114.6c-2.5-0.4-5.1-0.8-7.9-1.3c0-0.2-0.1,0.6-0.2,1.3c-1.8-0.2-3.5-0.3-5.3-0.5
c-1.7-5.3,0.2-8.4,5.1-9.9c1.6,2.8,3.6,2.4,5.8,0.9C171.6,108.3,172.4,111.4,173.3,114.6z"/>
<path fill="#0000DC" d="M165.1,17.6c0.5-0.8,1-1.6,1.4-2c1.6,0.7,3.1,1.3,4.5,1.9c-0.1,3.3-0.3,6.6-0.4,9.9
c-1.6,1.4-3.1,3.7-5.4,0.9C165.1,24.8,165.1,21.2,165.1,17.6z"/>
<path fill="#0000DC" d="M165.3,81.6c0.1-2.4,0.3-4.8,0.4-7.2c0.4-0.1,0.8-0.3,1.2-0.4c1.2,2.8,2.7,5.5,3.4,8.5c0.3,1.5-1,3.3-1.5,5
c-1.1-1.3-2.3-2.6-3.4-3.9C165.3,82.8,165.3,82.2,165.3,81.6z"/>
<path fill="#723D5D" d="M110.1,154.5c0-1,0-2,0.1-3C110.1,152.5,110.1,153.5,110.1,154.5z"/>
<path fill="#723D5D" d="M110.1,142.5c-0.1-0.3-0.2-0.5-0.3-0.8c0-0.1,0.2-0.2,0.3-0.3C110.1,141.8,110.1,142.2,110.1,142.5z"/>
<path fill="#00E9EC" d="M520.9,162.2c0.2,0,0.4,0.1,0.5,0.2c7.7,5.8,10.3,5.7,16.7-1.2c2.5-2.8,4.8-5.8,7.1-8.7
c1.5,0,2.9,0.1,4.4,0.1c-4.2,8.9-9,17.4-11.9,27c-1.6,5.3-5.8,9.9-9.3,14.4c-0.9,1.2-4.6,1.8-5.5,1c-3.3-3-6.2-6.6-8.9-10.3
c-2.3-3.1-4.4-6.4-6-9.9c-2.6-5.8-4.7-11.8-7-17.7c0.9-3.5,3-4.7,6.5-3.9c1.9,0.4,3.9,0.3,5.8,0.4c0.3,0,0.5,0.1,0.8,0.1
C516.5,156.4,518.7,159.3,520.9,162.2z"/>
<path fill="#00E9EC" d="M433.6,145.9c-1.9,9-4,18-5.6,27.1c-1,5.8-1.3,11.8-1.8,17.7c-0.8,8.2-1.3,16.4-2.4,24.6
c-0.6,4.9-10.2,10.4-15.1,9.2c-3.7-0.9-4.8-3.3-3.5-7c5.1-14.7,10.4-29.3,15-44.2c2.6-8.5,4-17.3,6-26c0.2-0.9,0.9-1.8,1.3-2.6
C429.6,145,431.6,145.4,433.6,145.9z"/>
<path fill="#005D8F" d="M467.2,93.6c-2.8-4.3-5.3-8.7-8.3-12.9c-2.9-4-5.5-3.9-7.8,0.6c-1.8,3.5-2.5,7.4-3.8,11.1
c-2.1-0.1-4.3-0.2-6.4-0.3c1.1-6.6,2.1-13.2,3.2-19.8c0-0.6,0.1-1.3,0.1-1.9c0,0,0.3,0,0.3,0c0.1-0.1,0.4-0.2,0.3-0.3
c-0.1-0.3-0.2-0.5-0.3-0.8c0-1,0-1.9,0-2.9c2.2-0.7,4.5-2,6.6-1.9c5.8,0.3,11.6,1.1,17.5,1.8c0.2,0.1,0.5,0.1,0.7,0.1
c4.3,8.7,8.6,17.3,13,26C477.2,92.9,472.2,93.3,467.2,93.6z"/>
<path fill="#003B84" d="M468.6,66.4c-5.8-0.6-11.6-1.5-17.5-1.8c-2.2-0.1-4.4,1.2-6.6,1.9c-0.1-3-0.3-6.1-0.4-9.1
c-0.2-0.4-0.4-0.8-0.6-1.2c1-3.2,2.1-6.5,3.1-9.7c4.9,0,9.8,0,14.7,0c1.7,2.7,3.4,5.3,5.1,8c0.3,0.4,0.6,0.8,0.9,1.2
c0.4,2.3,0.9,4.5,1.3,6.8c0.2,0.4,0.5,0.8,0.7,1.1c0,0.6,0,1.2,0,1.7C469,65.7,468.8,66.1,468.6,66.4z"/>
<path fill="#00C4CF" d="M513.4,153.5c-1.9-0.1-3.9,0-5.8-0.4c-3.5-0.8-5.7,0.4-6.5,3.9c-4.3-7.8-8.6-15.5-12.8-23.3
c4-0.7,8-1.4,12.1-2.1C504.7,138.8,509,146.1,513.4,153.5z"/>
<path fill="#0080A2" d="M467.2,93.6c5-0.4,10-0.8,15.1-1.1c4.4,4.8,6.8,10.3,6.3,16.9c-4.2-0.5-8.6-2.5-12.4,1.3
C473.2,105,470.2,99.3,467.2,93.6z"/>
<path fill="#00B1C1" d="M443.7,106.5c-2.5,9.7-5,19.3-7.5,29c-2.3,0-4.6,0-6.8,0c1.5-7.8,3.1-15.5,4.6-23.3c0.4-1.9,1-3.8,1.5-5.7
C438.2,106.6,441,106.5,443.7,106.5z"/>
<path fill="#0080A2" d="M443.7,106.5c-2.7,0-5.5,0-8.2,0c1.8-4.8,3.6-9.6,5.4-14.4c2.1,0.1,4.3,0.2,6.4,0.3
C446.1,97.2,444.9,101.8,443.7,106.5z"/>
<path fill="#00C4CF" d="M429.4,135.5c2.3,0,4.6,0,6.8,0c-0.9,3.5-1.7,6.9-2.6,10.4c-2-0.4-4-0.9-6-1.3
C428.2,141.5,428.8,138.5,429.4,135.5z"/>
<path fill="#04037F" d="M461.3,46.5c-4.9,0-9.8,0-14.7,0c1.3-3.2,2.8-6.3,6.8-5.8C456.9,41.2,460.8,41.7,461.3,46.5z"/>
<path fill="#121B1D" d="M444.2,70.5c0,0.6-0.1,1.3-0.1,1.9C444.1,71.8,444.2,71.2,444.2,70.5z"/>
<path fill="#121B1D" d="M469.3,63.7c-0.2-0.4-0.5-0.8-0.7-1.1C468.8,62.9,469,63.3,469.3,63.7z"/>
<path fill="#121B1D" d="M467.2,55.7c-0.3-0.4-0.6-0.8-0.9-1.2C466.6,54.9,466.9,55.3,467.2,55.7z"/>
<path fill="#003B84" d="M444.5,69.5c0.1,0.3,0.2,0.5,0.3,0.8c0,0.1-0.2,0.2-0.3,0.3C444.5,70.2,444.5,69.8,444.5,69.5z"/>
<path fill="#121B1D" d="M468.6,66.4c0.2-0.3,0.5-0.7,0.7-1c0,0.4,0,0.8,0,1.1C469.1,66.5,468.8,66.4,468.6,66.4z"/>
<path fill="#121B1D" d="M443.4,56.3c0.2,0.4,0.4,0.8,0.6,1.2C443.9,57.1,443.7,56.7,443.4,56.3z"/>
<path fill="#142022" d="M865.8,176.5c0,1.9,0,3.9,0,5.8c-0.4,0.1-0.9,0.1-1.3,0.2c0-5.3,0-10.7,0.1-16c0.5,0.6,1.4,1.1,1.5,1.8
c0.1,2.4,0,4.8-0.1,7.2C865.9,175.8,865.9,176.2,865.8,176.5z"/>
<path fill="#5B3F2F" d="M710,164.4c-6.7,0.4-13.4,0.8-20.1,0.9c-0.5,0-1.1-1.8-1.7-2.7c0,0,0.1-0.1,0.1-0.1
c5.3-0.2,10.6-0.4,15.9-0.5c1.9,0.6,3.9,1.2,5.8,1.8C710,164,710,164.2,710,164.4z"/>
<path fill="#EAB107" d="M730.4,213.7c0,2.6,0,5.1,0,7.7c-2.1,0-4.2,0-6.6,0c0-2.6,0-4.8,0-7.6C726,213.7,728.2,213.7,730.4,213.7z"
/>
<path fill="#EAB107" d="M710,163.8c-1.9-0.6-3.9-1.2-5.8-1.8c0.1-1.5,0.1-3,0.2-4.5c2.3-0.9,4.6-1.7,6.9-2.6
C710.9,157.9,710.4,160.8,710,163.8z"/>
<path fill="#EAB107" d="M712.3,188.5c0.3-1,0.6-2.1,0.9-3.1c2.2,0.7,5,0.7,6.4,2.2c1.6,1.8-1.2,3.7-4.2,2.4
C714.4,189.5,713.4,189,712.3,188.5z"/>
<path fill="#5B3F2F" d="M714.4,181.4c0.6-2.9,1.2-5.9,1.7-8.8C719.4,178.2,719.2,179.3,714.4,181.4z"/>
<path fill="#EAB107" d="M716.1,171.6c-0.6-0.6-1.2-1.3-1.8-1.9c0.9-1.3,1.7-2.6,2.8-3.7c0.2-0.2,2,0.6,2.3,1.3
C720.9,170.5,718.3,171,716.1,171.6z"/>
<path fill="#00E9EC" d="M638.5,180c-4.2,4.1-7.5,8.6-7.1,15c0.3,5.4,2.3,8.4,8.1,10.5c2,1.3,4.1,2.5,6.1,3.8c1.6,2.5,3.1,5.1,5,8.1
c-5.6,2.2-10.7,4.9-16.3,6.4c-5.5,1.5-7.2-0.3-7.5-6c-1.1-17.7-2.1-35.5-3.1-53.2c1.8-6.5,4.1-7.5,10.5-4.6
c0.6,0.3,1.2,0.5,1.9,0.7C636.8,167,637.7,173.5,638.5,180z"/>
<path fill="#005D8F" d="M580,91.1c0.8-2.5,1.6-5,2.3-7.6c0.2-1,0.4-2.1,0.6-3.1c4.2-5.6,8.3-11.2,12.5-16.9
c2.1-0.3,4.2-0.7,6.3-0.7c6.7,0.1,13.4,0.4,20,0.6c1.1,10.4,2.2,20.7,3.2,31.1c-3.1,0-6.2-0.3-9.3,0.1c-1.3,0.1-2.5,1.4-3.7,2.1
c-1.2-6.1-2.1-12.4-3.9-18.4c-0.7-2.5-3.2-5.2-5.5-6.1c-1.1-0.4-4.2,2.6-5.7,4.6c-3.7,5.1-7,10.6-10.5,15.9
C584.4,92.2,582.2,91.7,580,91.1z"/>
<path fill="#00C4CF" d="M636,160.6c-0.6-0.2-1.3-0.4-1.9-0.7c-6.4-2.9-8.6-1.9-10.5,4.6c-4.1-7.5-4-15.9-5.3-24
c-0.5-3.3-0.6-6.7-0.9-10c4.2-1.1,8.4-3,12.8-1C632.2,139.9,634.1,150.2,636,160.6z M620.5,134.7c0.3,0.1,0.6,0.1,0.9,0.2
c0.2-0.9,0.4-1.8,0.6-2.7c-0.4-0.1-0.7-0.1-1.1-0.2C620.8,132.8,620.6,133.8,620.5,134.7z"/>
<path fill="#0080A2" d="M612.2,96.7c1.2-0.7,2.4-2,3.7-2.1c3.1-0.3,6.2-0.1,9.3-0.1c0.7,6,1.4,12,2.1,18c-4.4-0.6-8.4,0.2-12,3
C614.2,109.2,613.2,103,612.2,96.7z"/>
<path fill="#00B1C1" d="M615.3,115.5c3.6-2.8,7.6-3.5,12-3c1,5.7,2,11.3,3,17c-4.5-1.9-8.6-0.1-12.8,1
C616.7,125.5,616,120.5,615.3,115.5z"/>
<path fill="#0080A2" d="M580,91.1c2.2,0.5,4.4,1.1,6.6,1.6c-5.7,9-11.4,18-17.1,27c-1.2-1.2-2.3-2.3-3.5-3.5
c2.4-4.8,4.8-9.6,7.3-14.3c1.8-3.3,3.9-6.3,5.8-9.5c0.3-0.4,0.5-0.7,0.8-1.1L580,91.1z"/>
<path fill="#00C4CF" d="M549.6,152.6c-1.5,0-2.9-0.1-4.4-0.1c4.3-8,8.6-16,12.9-24c1.4,1,2.7,2,4.1,3
C558.1,138.5,553.9,145.5,549.6,152.6z"/>
<path fill="#EAB107" d="M645.6,209.2c-2-1.3-4.1-2.5-6.1-3.8c1.8-1.1,4-1.8,5.3-3.3c1.6-1.9,2.5-4.5,3.7-6.8c2.3,1.3,4.7,2.6,7,3.8
c-2,1.1-4,2.1-5.1,2.7c-0.8,2.4-1.5,4.4-2.2,6.4C647.3,208.6,646.4,208.9,645.6,209.2z"/>
<path fill="#00B1C1" d="M562.3,131.4c-1.4-1-2.7-2-4.1-3c2.6-4.1,5.2-8.1,7.8-12.2c1.2,1.2,2.3,2.3,3.5,3.5
C567.1,123.6,564.7,127.5,562.3,131.4z"/>
<path fill="#142022" d="M1021.3,157.4c7,0,14,0.1,21,0.1c-5.1,0.5-10.2,1.1-15.3,1.5c-1.9,0.2-3.9,0-5.8-0.1
C1021.2,158.4,1021.2,157.9,1021.3,157.4z"/>
<path fill="#723D5D" d="M1021.3,157.4c-0.1,0.5-0.1,1-0.2,1.6c-4.1,2.3-8.2,2.7-12-0.6C1013.2,158,1017.2,157.7,1021.3,157.4z"/>
<path fill="#50A100" d="M303.5,221.2c-2.7-0.6-5.5-1.3-8.2-1.9c-0.3-1.2-0.6-2.5-0.9-3.6c3,0.6,5.9,1.2,9.3,1.9
C303.6,218.2,303.6,219.7,303.5,221.2z"/>
<path fill="#50A100" d="M333.4,224.4c-2.7,3.3-5.8,2.4-9,1.1C328.3,220.5,329,220.4,333.4,224.4z"/>
<path fill="#003B84" d="M621.9,63.5c-6.7-0.2-13.4-0.5-20-0.6c-2.1,0-4.2,0.5-6.3,0.7c3.5-7.4,6.6-15,10.8-22
c1.5-2.5,5.2-3.9,8.2-5c1.3-0.5,4,0.6,5,1.9c1.4,1.9,2.4,4.4,2.5,6.8C622.3,51.3,622,57.4,621.9,63.5z"/>
<path fill="#121B1D" d="M583,80.4c-0.2,1-0.4,2.1-0.6,3.1c0-1,0-2,0-3.1C582.6,80.5,582.8,80.5,583,80.4z"/>
<path fill="#50A100" d="M274.5,142.5c0.3,0.7,0.6,1.3,1,2c0.3,0.6,0.6,1.2,0.9,1.8c0,1.1,0,2.1,0,3.2c-3.3-0.2-6.6-0.3-11-0.5C268.7,146.5,271.6,144.5,274.5,142.5z"/>
<path fill="#4B6A1B" d="M255.1,165.6c0-0.8,0-1.5,0-2.3C255.1,164.1,255.1,164.9,255.1,165.6z"/>
<path fill="#7B0D13" d="M173.9,28.4c4.9,0,10,0.2,15.1,0c8.6-0.4,17.1-1.3,25.7-1.6c3.4-0.1,7,0.4,10.3,1.2c1.7,0.5,3,2.4,4.4,3.7c-1.7,1.9-3.4,5.5-5.2,5.6c-9.9,0.5-19.9,0.3-29.9-0.1c-5.4-0.2-10.8-1.2-16.3-1.7C173.8,35.2,172.4,33.2,173.9,28.4z"/>
<path fill="#110D10" d="M165.1,201.4c-0.9,0.3-1.9,0.6-2.8,0.9c-4.7,1-5.9,0-5.9-4.9c0-1.6,0.1-3.3,0.2-4.9c0.9-0.6,1.8-1.3,2.7-1.9c1.9,0.1,3.9,0.1,5.8,0.2C165.2,194.2,165.2,197.8,165.1,201.4z"/>
<path fill="#04037F" d="M165.2,190.6c-1.9-0.1-3.9-0.1-5.8-0.2c0-0.5,0.1-1.2-0.1-1.4c-3.8-4.3-0.5-5.4,2.9-6.3c0.9-0.3,1.9-0.2,2.9-0.3c1.1,0.4,2.2,0.7,3.2,1.1c0.2,1.4,0.5,2.9,0.7,4.3C166.4,187,165.2,188,165.2,190.6z"/>
<path fill="#04037F" d="M165.3,163.5c1.4,0,2.8,0.1,4.1,0.1c-0.4,1.7-0.9,3.3-1.3,5c-1,1-2,2-2.9,2.9c-4.9,0.4-6.5-2-5.6-6.5C161.7,164.5,163.5,164,165.3,163.5z"/>
<path fill="#0000DC" d="M165.2,171.6c1-1,2-2,2.9-2.9c0,4.9,0.1,9.9,0.1,14.8c-1.1-0.4-2.2-0.7-3.2-1.1C165.1,178.8,165.2,175.2,165.2,171.6z"/>
<path fill="#04037F" d="M167.4,152.5c-0.7,0.4-1.5,0.8-2.2,1.1c-0.8-0.1-1.9,0.2-2.4-0.3c-1.5-1.5-2.8-3.2-4.2-4.9c1.3-1.1,2.5-2.2,3.9-3.1c0.8-0.5,1.8-0.6,2.7-0.9c0,0.5,0.1,0.9,0.1,1.4C166,148,166.7,150.2,167.4,152.5z"/>
<path fill="#84BD03" d="M335.2,116.8c-4.5,2.2-7.1-2.2-10.8-3.1c-0.1-0.7-0.2-1.4-0.3-2.1c2.5-2.4,5.3-2.3,8.3-1.1C336.1,111.3,337.1,113.4,335.2,116.8z"/>
<path fill="#50A100" d="M356.4,140.4c0,0.8,0,1.5-0.1,2.3c-1.7-0.8-3.4-1.7-5.2-2.3c-2.2-0.7-4.5-1.2-6.7-1.8c0-1.4,0-2.7,0-4.1C350,133.2,352.6,138,356.4,140.4z"/>
<path fill="#4B6A1B" d="M344.3,134.5c0,1.4,0,2.7,0,4.1c-1.4,0.6-2.8,1.2-4.3,1.8c0.2-4,0.3-8,0.5-11.9C344.7,128.7,344.1,131.9,344.3,134.5z"/>
<path fill="#50A100" d="M332.4,110.5c-3-1.2-5.8-1.3-8.3,1.1c-0.6-0.3-1.2-0.7-1.8-1c1-1.4,2-2.7,3.1-4.1c2-0.3,4-0.6,6-0.9C331.7,107.2,332,108.9,332.4,110.5z"/>
<path fill="#005D8F" d="M580,91.3c-0.3,0.4-0.5,0.7-0.8,1.1C579.4,92,579.7,91.6,580,91.3z"/>
<path fill="#EAB107" d="M891.4,136.5c0.1-1.6,0.2-3.1,0.3-4.7c1.2-0.4,2.4-0.8,3.9-1.3c0.9,2.5,1.8,4.7,2.6,7C896,137.1,893.7,136.8,891.4,136.5z"/>
<path fill="#0000DC" d="M251.6,178.7c-0.8,1.2-1.6,2.4-2.3,3.6c-2.4-0.5-5.4,3.4-7.3-1c-0.2-3.3-0.4-6.5-0.6-9.8c0.1-0.3,0.2-0.6,0.1-0.9c0-0.7,0.1-1.5,0.1-2.2c0.6-5.9,1.2-11.9,1.7-17.8c1.5,2.9,3.6,3,6.2,1.6c2.9,6.3,2.9,6.3-6.1,16.4C246.2,171.8,253.7,171.8,251.6,178.7z"/>
<path fill="#0000DC" d="M249.6,134.1c0.6,4.1,1.2,8.3,1.8,12.4c-3-0.4-5.9-0.8-8.9-1.2c-0.1-4.9-0.2-9.9-0.3-14.8C243.8,133.5,245.8,135.6,249.6,134.1z"/>
<path fill="#04037F" d="M249.6,134.1c-3.8,1.5-5.8-0.6-7.4-3.6c-1.2-0.6-2.4-1.2-3.6-1.8c1.1-1.4,2.3-2.9,3.4-4.3c2.4,0.8,4.9,1.5,7.3,2.3C249.5,129.1,249.5,131.6,249.6,134.1z"/>
<path fill="#04037F" d="M242.5,145.3c3,0.4,5.9,0.8,8.9,1.2c3.4,3.2-1.7,3.6-1.9,5.7c-2.6,1.4-4.7,1.2-6.2-1.6C243.1,148.8,242.8,147.1,242.5,145.3z"/>
<path fill="#04037F" d="M241.6,168.4c0,0.7-0.1,1.5-0.1,2.2C241.6,169.8,241.6,169.1,241.6,168.4z"/>
<path fill="#84BD03" d="M891.5,173.4c0-1.6-0.1-3.2-0.1-4.8c2.2-0.3,4.5-0.6,6.7-0.9c0,1.9,0,3.8,0,5.7C895.9,173.4,893.7,173.4,891.5,173.4z"/>
<path fill="#5B3F2F" d="M666.5,201.8c9.9,2,19.4-0.4,28.9-2.2c-2.7,1.3-5.3,2.7-8.1,3.9c-1.7,0.7-3.5,1-5.3,1.5c-2.2,0.2-4.4,0.4-6.6,0.6C672.5,204.3,668,206.7,666.5,201.8z"/>
<path fill="#0000DC" d="M165.2,190.6c0.1-2.6,1.3-3.7,3.8-2.9c0.7,4.9,1.4,9.7,2.1,14.6c-2-0.3-3.9-0.6-5.9-0.9C165.2,197.8,165.2,194.2,165.2,190.6z"/>
<path fill="#50A100" d="M325.4,144.4c1,0,2,0.1,3,0.1c1.3,0.1,2.7,0.1,4,0.2c1,1.9,1.9,3.9,2.9,5.8c-3.9,0-7.9,0-11.8-0.1C324.1,148.3,324.8,146.4,325.4,144.4z"/>
<path fill="#4B6A1B" d="M332.5,144.6c-1.3-0.1-2.7-0.1-4-0.2c3.9-1.4,7.9-2.8,11.8-4.2C340.5,146.7,335.4,143.8,332.5,144.6z"/>
<path fill="#50A100" d="M352.3,148.5c-3.3,0.3-6.6,0.6-9.9,0.9C346.7,144.2,348.3,144,352.3,148.5z"/>
<path fill="#4B6A1B" d="M322.3,110.5c0.6,0.3,1.2,0.7,1.8,1c0.1,0.7,0.2,1.4,0.3,2.1c-0.8,0-1.5,0-2.3,0c-3.8,0-7.7,0.1-11.5,0.1c-0.5-0.1-1.1-0.2-1.6-0.4c1.6-2.7,3.4-4.5,7.1-3.2C317.9,110.9,320.2,110.5,322.3,110.5z"/>
<path fill="#4B6A1B" d="M305.7,113.8c-2.1,0.8-4.2,1.6-6.4,2.4c-0.3-1.2-0.7-2.5-1-3.7C301.1,111.6,303.7,110.8,305.7,113.8z"/>
<path fill="#50A100" d="M308.1,143.5c1.1,0.3,2.2,0.6,3.3,0.9c1.7,2,3.3,3.9,5,5.9c-0.4,0.7-0.7,1.4-1.1,2.1c-5.6,0-11.3-0.1-16.9-0.1C301.6,149.4,304.8,146.4,308.1,143.5z"/>
<path fill="#4B6A1B" d="M276.3,146.3c-0.3-0.6-0.6-1.2-0.9-1.8c8.6,0,17.2,0.1,25.8,0.1c-2.6,0.7-5.2,1.5-7.8,1.9c-2.7,0.4-5.4,0.2-8.1,0.2C282.3,146.6,279.3,146.4,276.3,146.3z"/>
<path fill="#110D10" d="M242.2,210.6c0,4-0.1,7.9-0.1,11.9c-3.2-0.7-6.3-1.3-9.5-2c0.1-1.6,0.3-3.2,0.4-4.9c0.7-2.5,1.4-5,2.1-7.5C237.7,209.1,239.9,209.8,242.2,210.6z"/>
<path fill="#F28104" d="M704.4,157.5c-0.1,1.5-0.1,3-0.2,4.5c-5.3,0.2-10.6,0.4-15.9,0.5c2.6-1.4,5.1-3.1,7.8-4C698.7,157.7,701.6,157.8,704.4,157.5z"/>
<path fill="#84BD03" d="M316.4,150.3c-1.7-2-3.3-3.9-5-5.9c4.7,0,9.4-0.1,14-0.1c-0.7,2-1.3,4-2,6C321.1,150.3,318.7,150.3,316.4,150.3z"/>
<path fill="#5B3F2F" d="M865.8,176.5c0-0.4,0.1-0.7,0.1-1.1C865.9,175.8,865.9,176.2,865.8,176.5z"/>
<path fill="#00B1C1" d="M620.5,134.7c0.1-0.9,0.3-1.9,0.4-2.8c0.4,0.1,0.7,0.1,1.1,0.2c-0.2,0.9-0.4,1.8-0.6,2.7C621.1,134.8,620.8,134.7,620.5,134.7z"/>
<path fill="#84BD03" d="M310.6,113.8c3.8,0,7.7-0.1,11.5-0.1C318.3,113.7,314.5,113.7,310.6,113.8z"/>
</svg>