<?xml version="1.0" encoding="utf-8"?>
<!-- Generator: Adobe Illustrator 19.1.0, SVG Export Plug-In . SVG Version: 6.00 Build 0)  -->
<svg version="1.1" xmlns="http://www.w3.org/2000/svg" xmlns:xlink="http://www.w3.org/1999/xlink" x="0px" y="0px"
	 viewBox="0 0 454.8 78.1" style="enable-background:new 0 0 454.8 78.1;" xml:space="preserve">
<style type="text/css">
	.st0{fill:#34B4E0;}
	.st1{fill:#2AB4DD;}
	.st2{fill:#37B3E4;}
	.st3{fill:#3AB1DE;}
	.st4{fill:#3FB5E0;}
	.st5{fill:#3AB5E4;}
	.st6{fill:#38B6E2;}
	.st7{fill:#40B3DC;}
	.st8{fill:#3EB4DF;}
	.st9{fill:#29B4E8;}
</style>
<g id="Layer_1">
</g>
<g id="Layer_2">
	<path class="st0" d="M311.4,49.3c5.6-10,6.2-19.4,6.8-28.5c0.3-3.5,1.5-7.4,5.9-6.5c5.3,0.9,3.2,5,2.4,8.2
		c-3.8,12.1-7.4,24.4-7.9,37.1c-0.3,3.5-0.6,7.1-5,7.4c-4.1,0.3-5.6-2.9-7.4-5.9c-5.3-9.7-10.6-19.4-16.8-30.3
		c-9.1,9.7-10.6,22.1-17.1,31.8c-1.8,2.6-2.4,7.1-6.8,6.2c-3.5-0.9-2.9-4.7-3.2-7.4c-2.6-12.9-5-25.9-7.6-38.8
		c-0.6-2.6-1.2-6.5,2.4-7.4c5-1.2,5.3,2.9,5.9,6.2c0,0.6,0,0.9,0,1.5c2.4,7.6,0,22.1,5.9,22.1c8.8,0,9.7-13.8,15-20.9
		c2.1-2.9,1.2-8.8,6.2-9.1c5.9-0.3,5.6,6.2,7.1,9.7C301.1,32.5,304.1,41.4,311.4,49.3z"/>
	<path class="st1" d="M33.1,13.4C15.1,14,2.2,27.2,2.2,45.5c0,15.6,9.7,24.7,26.5,24.4c17.9-0.3,30.6-13.8,30.6-32.4
		C59.3,21.1,50.4,13.1,33.1,13.4z M30.4,63.1c-10,0.3-20-9.1-20.6-19.1C9,32.5,20.4,20.8,34.5,20.5c10,0.6,15.6,7.4,16.5,18.5
		C51.9,51.1,41.3,62.8,30.4,63.1z"/>
	<path class="st2" d="M157.2,35.5c0-8.8,0-17.7,0-26.5c0-2.9,0-6.5,3.8-6.8s4.4,3.2,4.4,6.2s0,5.9,0,8.8c0.6,8.2-5,21.8,13.5,15
		c5-1.8,8.8,3.2,9.7,8.8c0.9,6.2,1.2,12.9-1.2,18.8c-1.2,3.2-0.6,9.4-5.9,8.2c-6.2-1.2-2.4-6.2-2.1-9.7c0.3-1.5,0.6-2.9,0.6-4.4
		c0.3-5,2.9-12.4-4.4-13.2c-7.9-1.2-10.3,5-10.6,12.4c-0.3,5.3,4.1,14.7-3.5,14.7c-9.7,0-3.8-10-4.7-15.3
		C156.4,47.5,157.2,41.4,157.2,35.5L157.2,35.5z"/>
	<path class="st3" d="M357,41.4c-1.5-13.5-9.7-16.5-22.7-8.8c3.5,4.1,11.8,1.2,13.2,7.6c1.2,7.4-7.1,6.8-10.9,9.7
		c-4.1,3.2-7.4,6.5-6.8,12.1c0.6,6.5,5.3,7.4,10.6,7.6c3.5,0,6.2,0,8.5,3.8c5,7.6,7.9,3.5,8.2-2.9C357.6,60.8,358.2,51.1,357,41.4z
		 M342.9,63.1c-2.6,0-5.3-1.2-5.3-3.5c0-3.2,2.6-5,5.9-5.6c2.9-0.9,4.7,0.9,5,3.5C348.5,60.8,345.8,62.3,342.9,63.1z"/>
	<path class="st4" d="M65.4,51.7c0-4.7-0.3-8.5,0-12.7c0-1.8,0.3-4.1,1.5-5.6c4.1-4.7,29.7,3.2,31.5,9.7c2.4,8.8-0.3,17.4-2.9,25.9
		c-0.9,2.6-2.6,4.4-5.3,3.5c-4.4-1.5-2.6-4.4-1.5-7.1c1.8-4.1,2.9-8.2,2.9-12.7c0-5.6-1.8-9.4-8.2-9.7c-6.2,0-8.2,3.2-9.4,8.8
		s4.4,16.5-4.1,15.9C60.1,67.6,68.4,56.7,65.4,51.7z"/>
	<path class="st5" d="M221.7,63.4c-6.8-1.8-17.1-0.9-16.5-10.3c0.6-7.6,10.3-3.8,15.9-4.7c5-0.6,8.8-1.5,7.9-7.6
		c-0.9-5.9-5.3-8.2-10.3-8.2c-8.5,0-16.5,2.4-20.3,11.5c-2.9,7.4-4.1,14.4,2.4,20.3c7.6,7.1,16.2,7.1,28.5,1.8
		C224.3,64.6,222.8,64,221.7,63.4z M215.5,36.7c2.9-0.9,4.7,0.9,5,3.5c0,3.2-2.6,4.7-5.6,5.6c-2.6,0-5.3-1.2-5.3-3.5
		C209.6,39,212.3,37.2,215.5,36.7z"/>
	<path class="st6" d="M416.4,64c-7.4-0.9-17.1-2.1-17.4-10c-0.3-8.8,10.3-3.2,15.3-5.9c3.5-2.1,9.7-0.3,9.1-7.1
		c-0.6-6.2-5.3-8.2-10.3-8.5c-7.9-0.6-15.3,2.1-19.4,10c-3.5,6.8-5.3,14.1,0.6,20.3c7.9,8.2,17.7,9.1,31.5,2.9
		C420.6,64.6,418.8,64,416.4,64z M408.8,35.8c2.9-0.9,4.7,0.9,5,3.5c0,3.2-2.6,4.7-5.6,5.6c-2.6,0-5.3-1.2-5.3-3.5
		C402.9,38.1,405.3,36.4,408.8,35.8z"/>
	<path class="st7" d="M151.6,65.5c-11.8,3.8-17.7,0.3-19.7-9.7c-0.9-5.6,0-11.5-5.9-15.9c-5-3.8,1.5-5.6,3.5-6.8
		c7.1-4.4-0.6-18.2,8.5-17.9c9.1,0.3-0.9,13.5,4.7,16.8c9.7,5.9,7.9,8.8-0.3,14.1c-4.4,2.6-4.4,7.4-0.6,11.2
		C145.2,59.9,148.4,62.5,151.6,65.5z"/>
	<path class="st8" d="M393.2,36.4c-19.1,11.2-19.4,13.2-7.6,25.3c1.8,1.8,4.4,2.9,2.6,5.9c-1.5,2.4-4.1,2.4-6.5,1.5
		c-2.1-1.2-4.4-2.4-6.2-3.8c-8.2-7.6-8.5-42.1-0.9-49.4c0.9-0.9,2.6-1.2,3.8-0.9c2.6,0.6,2.1,2.9,2.1,4.7
		C380.3,26.9,378.2,34.9,393.2,36.4z"/>
	<path class="st9" d="M453.5,39.6c-9.1,6.2-14.7,12.7-13.5,23.2c0.3,2.4-0.9,5-4.1,4.7c-3.2-0.3-2.9-3.2-3.2-5.6c0-0.9,0-2.1,0-2.9
		c0.3-8.2-2.6-18.2,1.5-24.1C438.2,29.6,445.3,42.2,453.5,39.6z"/>
</g>
<g id="Layer_3">
</g>
</svg>
