<?xml version="1.0" encoding="utf-8"?>
<!-- Generator: Adobe Illustrator 19.1.0, SVG Export Plug-In . SVG Version: 6.00 Build 0)  -->
<svg version="1.1" xmlns="http://www.w3.org/2000/svg" xmlns:xlink="http://www.w3.org/1999/xlink" x="0px" y="0px"
	 viewBox="0 0 740.5 128.9" style="enable-background:new 0 0 740.5 128.9;" xml:space="preserve">
<style type="text/css">
	.st0{fill:#111111;}
</style>
<g id="Layer_1">
</g>
<g id="Layer_2">
	<path class="st0" d="M166.6,3.5c5.3,5,5.9,9.7-2.1,11.2c-12.1,2.1-17.1,10.3-20,20.6c-2.4,7.9-5,16.2,8.5,15.3c2.6-0.3,5,0.6,5,3.8
		c0,2.4-1.8,3.5-3.8,3.5c-17.1-0.9-10.9,11.2-11.8,20c-0.6,5.9,8.2,17.1-4.1,17.4c-9.1,0-4.1-11.2-3.5-16.8
		c0.9-12.1-3.2-23.2,0-36.5c4.4-18.5,13.2-30,28.8-38.5C164.6,3.5,165.5,3.5,166.6,3.5z"/>
	<path class="st0" d="M401.7,90c-7.6-3.8-5.6-8.2-3.5-14.4c2.6-8.2,7.4-14.4,15.9-18.2c-9.4-11.2-19.7-5.3-29.1-3.5
		c-1.5,2.1-7.6,4.4,0.6,5.9c4.1,0.6,9.4,0,8.5,7.1c-0.6,3.8-0.9,8.8-5,9.7c-4.7,1.2-7.4-3.8-10.3-6.8c-6.2-7.1-11.8-14.4,2.1-18.8
		c4.1-5.6,9.4-10.9,4.7-17.9c-2.6-4.4-7.6-3.5-12.1-2.6c-7.9,1.5-13.2,5.6-14.4,14.1c-0.3,0.9-0.3,2.1-0.3,2.9
		c0.6,6.2-2.4,10.9-5.9,15.9c-6.2,8.5-8.5,17.9-1.5,27.1c6.5,8.5,15.3,9.1,25,5c6.8-2.6,13.5-3.2,18.8,3.2c2.9,3.2,5.6,7.9,10.3,2.1
		C409.7,95,405.2,91.8,401.7,90z M374.7,36.8c2.9-0.6,4.1,2.1,4.1,4.7c-0.3,5-4.4,7.1-8.2,8.8c-3.2-0.3-4.1-2.4-4.1-5
		C366.7,40,369.9,37.4,374.7,36.8z M371.4,89.4c-9.7-0.6-15.6-5.3-15.6-14.4c0-4.1,2.4-12.9,6.5-10.3c7.4,4.7,13.2,12.7,17.1,20.6
		C381.4,89.7,373.8,88,371.4,89.4z"/>
	<path class="st0" d="M482.9,59.1c-2.4-2.6-6.2-3.8-4.7-9.4c4.7-18.5-0.6-25.3-19.1-26.2c-7.4-0.3-10.9,2.1-9.7,10
		c2.1,11.5,3.2,23.2,1.2,33c-0.6,8.8-1.2,15.6-2.1,22.4c0,3.5,0,7.9,4.1,8.2c11.5,0.9,22.9-0.3,30.6-10
		C490,78.3,491.2,68.3,482.9,59.1z M465.3,33c5,0.6,7.6,4.1,7.6,9.7c-0.3,6.2-4.4,8.8-9.7,8.8c-8.2-0.3-3.5-7.4-4.7-11.2
		C457.3,36.2,458.8,32.4,465.3,33z M466.2,89.7c-7.6,0.9-8.8-5-7.6-10.6c1.2-6.2-5.3-16.2,6.8-18.2c8.5,0.9,15,4.7,15,12.9
		S475,88.6,466.2,89.7z"/>
	<path class="st0" d="M313.7,98c0-4.1-0.6-8.5-1.5-12.9c-3.5-17.1,2.4-34.7-3.8-51.5c0.3-4.4,5.6-11.5-4.1-12.9
		c-6.5-0.6-7.4,5-5.6,9.1c6.5,15.6-0.9,21.5-14.4,26.8c-12.1,5-15.3,16.8-11.5,28.5c3.8,11.5,13.8,11.5,23.2,8.5
		c6.2-2.1,7.9-0.3,7.9,5.6c0,3.2-1.2,7.6,4.4,7.4C314,106.5,314,101.8,313.7,98z M291.4,87.4c-7.6-0.3-12.4-5-11.8-11.8
		c0.9-8.2,5.6-16.2,15.3-16.5c10.9-0.6,5.6,8.5,7.1,12.7C303.2,81.2,301.7,87.7,291.4,87.4z"/>
	<path class="st0" d="M689.8,59.7c10-4.1,20.6-4.4,29.1-10.6c2.1-1.5,6.5-0.3,10,0c3.2,0.6,5.6,2.4,4.7,5.9c-0.9,2.9-3.2,5-6.8,3.2
		c-4.1-2.1-9.1-4.4-10.3,2.1c-1.2,5.3,5,4.7,8.5,5.9c10.9,3.2,13.5,10.6,10,20.6c-3.8,10-12.1,12.1-21.5,10.3
		c-2.9-0.6-5.9-2.1-5-5.9c0.6-3.5,3.5-2.6,5.9-2.4c6.5,0.9,12.9,0,13.8-7.4c0.9-7.4-6.5-8.2-11.5-8.5c-6.5-0.6-5.9-12.1-14.7-8.8
		c-10,3.5-13.2,10.6-12.4,20.3c0.3,4.1,2.4,9.7-4.7,9.7c-7.4,0-5.3-5.9-4.4-9.7c1.5-8.2,0.3-16.5-0.3-24.7c-0.3-5-3.5-12.1,5-12.4
		C693,47.4,686.2,55.6,689.8,59.7z"/>
	<path class="st0" d="M620,75c0-3.2,0-5.3-0.3-6.8c0-27.4-0.3-27.7-24.7-14.7c-10.3,5.6-16.8,13.2-14.4,25.9
		c2.4,12.1,11.5,14.4,21.8,15.6c4.1,0.6,10-0.9,10,5.3c0,5.6-1.5,11.8-7.9,14.4c-4.4,1.5-8.8,0.6-12.9-0.9c-3.2-0.9-6.8-2.4-7.4,3.2
		c-0.3,4.4,2.4,5.9,5.9,7.1c13.8,4.1,27.4-3.8,29.7-18.2C621.5,95.3,621.8,84.4,620,75z M604.7,88c-8.5,0-16.2-5-16.5-13.5
		c-0.3-9.4,6.2-17.4,15.9-17.9c12.7-0.6,6.5,10.6,7.6,13.5C613.3,79.7,615.3,88,604.7,88z"/>
	<path class="st0" d="M244.9,49.1c-18.2-0.3-30.6,10.3-30.6,26.8c0,11.8,8.5,18.8,22.9,19.1c18.2,0.3,30-10.3,30-26.8
		C267.3,55.3,259.9,49.1,244.9,49.1z M258.1,71.2c-0.9,11.2-8.8,15.3-18.2,16.2c-9.7-0.9-16.2-5-15.6-14.7
		c0.6-10.9,7.9-16.5,18.5-16.5C252.5,56.2,259,60.9,258.1,71.2z"/>
	<path class="st0" d="M186.6,48.8c-17.7,0.3-28.8,10.6-28.8,26.5c0,12.9,8.2,19.7,23.8,19.4c16.8-0.3,29.1-11.2,29.1-26.8
		C210.8,55.3,202.2,48.5,186.6,48.8z M186.9,86.5c-9.4,0.3-17.1-3.5-16.8-13.8c0.3-10.9,8.2-15.6,17.7-16.8c10,0,16.8,4.1,16.8,13.2
		C204.9,80,197.8,86.2,186.9,86.5z"/>
	<path class="st0" d="M119.6,93.6V65.9c0-7.6-1.5-15-9.7-17.9c-8.2-2.9-15.9-2.6-24.7,7.4c5.9-0.6,8.2-0.9,10.9-1.2
		c5.3,0.3,11.8-0.6,13.5,5.9c2.1,7.6-6.5,5.3-9.7,7.9c-2.4,1.8-5,2.9-7.4,4.7c-4.7,3.8-9.1,7.9-6.8,14.7c2.4,7.1,7.9,7.4,14.1,7.4
		c3.2,0,8.2-3.8,9.4,2.9c0.6,4.1,2.6,6.2,6.8,4.7C119.9,100.9,119.6,97.1,119.6,93.6z M101,87.1c-2.9-0.6-7.6,0-7.4-4.7
		c0.3-6.2,5.9-7.1,10.6-8.2c2.9-0.6,6.5-0.6,6.5,3.5C110.4,83.9,106.6,86.5,101,87.1z"/>
	<path class="st0" d="M42.8,80.6c-5.6-4.4-4.7,1.5-6.2,3.8c-5.6,9.7-14.4,14.1-25.3,15c-2.9,0.3-6.5,0.3-6.8-3.8
		c-0.3-3.2,2.9-3.2,5.3-3.5c8.5-0.9,17.4-2.1,19.1-12.4s-6.8-14.1-13.8-18.5C7.5,56.5,1.9,50.3,5.7,40.6
		c4.1-10.3,12.9-13.8,23.5-13.8c3.5,0,7.1,1.5,6.5,5.9c-0.6,3.8-4.1,3.5-7.1,2.9c-6.5-1.5-12.1,0-14.4,6.5
		C11.6,49.7,18.4,53,23.4,55c9.1,3.8,11.8,13.5,19.1,18.5C44.8,75.9,44.8,78.3,42.8,80.6z"/>
	<path class="st0" d="M537.4,72.7c0,5.3,0,10.9,0,16.2c0,2.9,0.9,6.2-2.6,7.6c-3.5,1.5-5-1.2-6.5-4.1c-2.9-5.9-5.3,0-7.4,0.9
		c-5.9,2.9-11.5,6.5-17.7,1.8c-6.8-5-7.6-11.8-5.9-19.7c1.5-7.1,2.1-14.4,3.5-21.8c0.6-3.2,2.9-5,6.5-4.1c4.1,0.9,3.2,3.8,2.4,6.8
		c-1.5,6.2-2.9,12.4-4.1,18.5c-0.9,5.3-1.5,11.5,5.3,13.5c6.5,1.8,11.2-2.1,14.4-7.6c4.1-7.4,3.5-15.3,2.4-22.9
		c-0.6-4.4-0.3-8.2,5-8.2c6.2,0,4.7,4.7,4.4,8.5c-0.3,5-0.6,9.7-0.6,14.7C536.8,72.7,537.1,72.7,537.4,72.7z"/>
	<path class="st0" d="M50.1,75.9c0.3-9.4,9.1-6.2,15-7.1c2.1-0.3,3.8-0.3,5.9-0.3c5.3-0.3,11.5,1.2,10.9-7.6
		c-0.6-6.8-3.5-10.9-10.6-11.8c-14.7-1.8-25,6.8-28.5,24.4v7.1c6.8,16.2,24.1,22.1,37.7,12.4c-4.7-3.5-10.6-2.4-15.6-3.2
		C56.6,88,49.8,84.1,50.1,75.9z M72.5,58.3c-5.6,5.6-10,5-15,2.4C61.3,54.4,66,55.9,72.5,58.3z"/>
	<path class="st0" d="M654.5,89.4c-8.5-1.5-15.9-5-15.3-14.4c0.6-9.7,9.7-5,15-6.2c1.5-0.3,2.9-0.3,4.4-0.3
		c5.6-0.3,12.4,1.5,11.5-8.2c-0.6-7.9-5-10.9-12.4-11.2c-12.1-0.3-20.9,5.3-25,16.5c-3.2,8.8-4.4,18.8,4.4,25.3
		c9.7,7.1,20.6,9.4,33.8,3.8C664.2,88.6,659.2,90.3,654.5,89.4z M658,56.2c2.1,0.6,3.5,2.9,1.8,4.1c-5,4.1-10.6,2.4-16.5,1.2
		C646.8,54.7,652.1,54.7,658,56.2z"/>
	<path class="st0" d="M563.8,59.4c1.8-0.9,3.8-1.8,6.2-2.4c2.9-0.9,6.8-3.8,8.5,1.2c1.5,4.1-1.5,5.9-5.3,7.1
		c-10.3,3.2-13.5,10.3-10.6,20.6c1.5,5.3,0.3,8.8-5.9,8.8c-6.5,0-4.1-5-4.1-8.5c0-8.2,0-16.5,0.3-24.7c0-5-3.5-12.4,3.8-13.5
		C565.6,45.9,558.8,56.2,563.8,59.4z"/>
</g>
<g id="Layer_3">
</g>
</svg>
