<?xml version="1.0" encoding="utf-8"?>
<!-- Generator: Adobe Illustrator 19.1.0, SVG Export Plug-In . SVG Version: 6.00 Build 0)  -->
<svg version="1.1" xmlns="http://www.w3.org/2000/svg" xmlns:xlink="http://www.w3.org/1999/xlink" x="0px" y="0px"
	 viewBox="0 0 1080.7 416.5" style="enable-background:new 0 0 1080.7 416.5;" xml:space="preserve">
<style type="text/css">
	.st0{fill:#131012;}
	.st1{fill:#AFDDE7;}
	.st2{fill:#F18221;}
	.st3{fill:#E61E25;}
	.st4{fill:#142022;}
	.st5{fill:#A2216E;}
	.st6{fill:#84BE41;}
	.st7{fill:#818334;}
	.st8{fill:#B61F24;}
	.st9{fill:#7DB642;}
	.st10{fill:#7B1316;}
	.st11{fill:#13142E;}
	.st12{fill:#282A74;}
	.st13{fill:#6A297A;}
	.st14{fill:#04B1C1;}
	.st15{fill:#878A35;}
	.st16{fill:#4D6B31;}
	.st17{fill:#51A245;}
	.st18{fill:#5C4030;}
	.st19{fill:#374BA0;}
	.st20{fill:#E9B221;}
	.st21{fill:#131B1D;}
	.st22{fill:#733E5E;}
	.st23{fill:#676091;}
	.st24{fill:#5EC8D5;}
	.st25{fill:#005E90;}
	.st26{fill:#204180;}
	.st27{fill:#27BFCC;}
	.st28{fill:#0780A3;}
	.st29{fill:#111111;}
	.st30{fill:#34B4E0;}
	.st31{fill:#2AB4DD;}
	.st32{fill:#37B3E4;}
	.st33{fill:#3AB1DE;}
	.st34{fill:#3FB5E0;}
	.st35{fill:#3AB5E4;}
	.st36{fill:#38B6E2;}
	.st37{fill:#40B3DC;}
	.st38{fill:#3EB4DF;}
	.st39{fill:#29B4E8;}
	.st40{fill:#0C0C0D;}
	.st41{fill:#FCE500;}
	.st42{fill:#B4B2CD;}
	.st43{fill:#0E0E0F;}
	.st44{fill:#B5B3CE;}
	.st45{fill:#B2B1CC;}
	.st46{fill:#B6B4CF;}
	.st47{fill:#B9B8D3;}
	.st48{fill:#ADAEC3;}
	.st49{fill:#B5B3C5;}
	.st50{fill:#FDFEFF;}
</style>
<g id="Layer_1">
	<path class="st0" d="M154.4,121.2c3.1-4.3,2.8-9.3,2.8-14.3c-0.1-22.3,0-44.6,0-68.3c-9.6,0.6-18.5,0.9-27.3,1.8
		c-4.9,0.5-6.3,5-7.2,9.1c-4.1,18.8-6.1,37.7-5.3,57c0.3,7.2-0.6,14.6-2.2,21.7c-2.6,11.8-0.8,23.5-0.2,35.3
		c0.3,5.3,0.4,10.6,0.5,15.9c-1.1,1.7-2.1,3.5-3.2,5.2c-2.5-0.9-2.6-2.2-1.6-4.6c1.1-2.5,1.7-5.4,1.6-8c-0.3-5.9-1.3-11.7-2-17.6
		c0-1,0-2,0.1-3c0-3,0-5.9,0-8.9c0-0.4,0-0.7,0-1.1c0-1.6,0.1-3.3,0.1-4.9c4.6-22.2,2-44.7,4-67.1c0.4-1.4,0.9-2.8,1.1-4.3
		c1.6-7.7,3.1-15.5,4.6-23.2c0.9-4.9,4.2-6.4,8.6-6.5c6.7,0,13.3,0.1,20-0.1c2.5-0.1,5-0.8,8.1-1.3c-0.8-1.3-1-1.9-1.4-2.3
		c-4.8-5.4-10.8-3.4-16.7-3c-4.5,0.3-9.7,0.9-13.5-0.9c-5-2.4-9.8-2.7-14.9-2.3c-4.3,0.3-8.6,0.8-12.9,0.9c-5,0.2-10-0.3-15,0.1
		c-22.3,1.6-44.4,0.7-66.6-2c-1.9-0.2-4.7-0.3-5.7,0.8c-2.3,2.8-4.1,6.1-5.2,9.5c-0.2,0.7,3.6,3.4,5.9,3.9c3.7,0.7,7.7,1,11.4,0.4
		c18.8-3.1,37.9-4,57-3.5c2.9,0.1,5.8,1.1,8.6,2c1.1,0.4,2.4,1.6,2.6,2.6c0.9,3.6,1.6,7.4,2.1,11.1c0.8,5.1,1.4,10.1,2,15.2
		c0,6.8,0.1,13.6-0.1,20.4c-0.3,16.2-0.7,32.3-1,48.5c-0.3,7.8-0.4,15.6-0.8,23.4c-0.6,12.4-2.6,24.5-6.4,36.5
		c-1.3,4.1-0.4,9.2,0.8,13.5c0.3,1.2,5.2,1.1,7.9,1.7c1.1,0.2,2.2,0.7,3.4,0.9c7.8,1.6,18-4.2,19.2-11c0.6-0.7,1.3-1.3,1.9-2
		c3.3,8.1,1.1,13.4-7.1,15.8c-3,0.9-6.2,1.3-9.3,1.2c-7.4-0.2-14.9-0.9-23.1-1.4c1.4-9,1.9-18.4,4.6-27c2.4-7.5,3.4-14.9,3.6-22.4
		c0.7-22,1.2-43.9,1.3-65.9c0.1-15.4,0-30.9-1.3-46.3c-1.1-13.1-1.5-13.5-13.6-13c-17.9,0.7-35.8,2.6-53.7,3.4
		c-5.7,0.3-11.5-0.9-17.2-1.9c-3-0.5-4.1-2.7-3.5-6c2.7-13.2,3.7-14,17.1-13.4c18.4,0.8,36.9,2.1,55.3,2.3c12.9,0.1,25.9-1.7,38.8-2
		c4.1-0.1,8.2,1.6,12.4,2.3c3.2,0.6,6.5,1.5,9.7,1.5c6-0.1,11.9-0.9,17.9-1c3.1,0,3-1.8,3-3.8c3.6-1,7.2-2.1,10.7-3.1
		c0,3.6,0,7.1,0,10.7c-1.4,0.5-3.1,0.6-4.1,1.4c-1.2,0.9-2.6,2.6-2.5,3.8c0.2,1.4,1.7,2.8,2.9,4c1.2,1.3,3.5,2.1,3.7,3.5
		c0.5,2.9,0.7,5.8-3,7.9c-2,1.2-2.4,5.2-3.5,7.9c2.2,0.2,4.4,0.5,6.6,0.7c0,3.3,0,6.6,0,9.9c-6.2,1.2-9,4.8-6.4,8.3
		c1.7,2.2,4.2,3.9,6.4,5.8c0,0.6,0,1.3,0.1,1.9c-1.9,1.9-3.8,3.7-5.7,5.6c-1.6,4.2,0.9,6,5.6,5.4c-0.1,3.3-0.2,6.5-0.2,9.8
		c-4.9,1.5-6.8,4.6-5.1,9.9c1.7,0.2,3.5,0.3,5.3,0.5c0,3.3,0,6.5,0,9.8c-2.4,0.6-4.7,1.3-6.9,1.9
		C157.1,124.4,155.7,122.8,154.4,121.2z"/>
	<path class="st0" d="M479.1,121c-1.7-1.7-3.9-3.1-5-5.2c-5.4-9.6-10.4-19.3-15.6-28.9c-0.7-1.2-1.6-2.4-2.9-4.4
		c-1.2,2.4-2.2,3.9-2.6,5.5c-5,20.7-10,41.3-14.6,62.1c-2.7,12.3-3.7,25-7.2,37.1c-2.4,8.4-2.5,16.5-2.6,24.8
		c-0.1,9.4-10.1,17.4-19.6,15.9c-7.2-1.1-9.8-7.6-5.8-13.6c2-3,3.5-6.5,4.4-9.9c6.8-26,13.4-52.1,19.9-78.2
		c3.9-15.3,8.2-30.5,11.2-45.9c1.7-8.9,1.5-18.2,1.8-27.3c0.3-8.7,4.4-14.5,12.4-15.6c2.8-0.4,6.6,0.9,8.7,2.8
		c6.1,5.7,9,13.5,10.9,21.5c3.2,12.8,10.4,23.6,17,34.8c0.7,1.1,1.7,2.2,2,3.4c4.3,17.6,14,32.5,23.5,47.4c0.6,1,1.1,2,1.7,3
		c-0.7,1.1-1.5,2.3-2.2,3.4c-0.3,0-0.5-0.1-0.8-0.1c-4.4-7.3-8.8-14.6-13.1-21.9c-3.9-7.4-7.8-14.7-11.8-22.1
		c0.6-6.6-1.8-12.1-6.3-16.9c-4.3-8.7-8.6-17.3-13-26c0-0.4,0-0.8,0-1.1c0-0.6,0-1.2,0-1.7c-0.2-0.4-0.5-0.8-0.7-1.1
		c-0.4-2.3-0.9-4.5-1.3-6.8c-0.3-0.4-0.6-0.8-0.9-1.2c-1.7-2.7-3.4-5.3-5.1-8c-0.5-4.8-4.3-5.4-7.9-5.8c-4-0.5-5.6,2.7-6.8,5.8
		c-1,3.2-2.1,6.5-3.1,9.7c0.2,0.4,0.4,0.8,0.6,1.2c0.1,3,0.3,6.1,0.4,9.1c0,1,0,1.9,0,2.9c0,0.4,0,0.7,0,1.1h-0.3
		c0,0.6-0.1,1.3-0.1,1.9c-1.1,6.6-2.1,13.2-3.2,19.8c-1.8,4.8-3.6,9.6-5.4,14.4c-0.5,1.9-1.1,3.8-1.5,5.7
		c-1.6,7.7-3.1,15.5-4.6,23.3c-0.6,3-1.2,6-1.8,9c-0.4,0.9-1.1,1.7-1.3,2.6c-2,8.7-3.4,17.5-6,26c-4.6,14.8-9.9,29.5-15,44.2
		c-1.3,3.7-0.2,6.1,3.5,7c4.9,1.2,14.4-4.3,15.1-9.2c1.1-8.2,1.6-16.4,2.4-24.6c0.6-5.9,0.8-11.9,1.8-17.7c1.6-9.1,3.7-18,5.6-27.1
		c0.9-3.5,1.7-6.9,2.6-10.4c2.5-9.7,5-19.3,7.5-29c1.2-4.7,2.4-9.4,3.6-14c1.2-3.7,2-7.7,3.8-11.1c2.3-4.5,4.9-4.6,7.8-0.6
		c3,4.1,5.6,8.6,8.3,12.9c3,5.7,6,11.4,9,17.1C477.3,114.1,478.2,117.5,479.1,121z"/>
	<path class="st1" d="M850.6,189.5c-2.5-4.5-3-9-1.6-14.2c0.7-2.7-0.6-6-1.1-9c4-3.4,3.9-9.1-0.1-13.8c-0.4-6.5-0.6-13.1-1.4-19.5
		c-0.4-3.2-1.8-6.3-2.9-9.4c-1.2-3.4,0.1-5.4,3.4-6.3c5.7-1.6,11.4-3.2,17.2-4.6c2.4-0.5,5.2-0.7,5.5,3c0,1.1,0,2.3,0,3.4
		c0,3.5,0,7-0.1,10.5c0,4.3,0,8.6,0,12.9c-1,1.6-2.7,3-3,4.7c-0.6,3.7-0.5,7.4-0.7,11.2c-0.4,2.7-0.8,5.4-1.1,8.2
		c0,5.3,0,10.7-0.1,16c0.4,4.9,0.5,9.9,1.3,14.7c0.2,1.2,2.3,2.2,3.5,3.2c1.2,1.8,2.4,3.5,3.6,5.3c4.1,5.9,2.6,9.4-4.5,10.6
		c-0.8,0.1-1.7,0-2.5,0c-4.1,0.6-8.2,1.3-12.3,1.9c-4.4,1.9-8,0.1-11.2-2.7c0.6-3.6,1.3-7.2,1.9-10.8c0.8-1.1,1.6-2.3,2.3-3.4
		c1.2-1.8,2.9-3.5,3.5-5.5C851.1,193.9,850.6,191.6,850.6,189.5z"/>
	<path class="st2" d="M711.7,117.5c9,2.6,12.2,10.1,15.1,17.9c-2.8,2.4-4.2,5.2-2.2,9c1.7,0,3.3,0,4.9,0c0.7,3,1.5,6,2.2,9
		c-2.2,1.7-4.5,3.3-7.7,5.7c-1,4.7-0.5,5.3,5.6,5.2c-0.2,3-0.4,6-0.6,9c-3.1,0.6-6.1,1.8-5.1,5.6c0.3,1.4,2.6,2.4,4,3.5
		c0.6,4,1.1,8.1,1.7,12.1c-1.6,0.1-3.1,0.2-4.6,0.3c0,2.4,0,4.1,0,6c2.3-1.3,4.2-2.4,6.2-3.5c-0.1,1.3-0.3,2.6-0.4,3.9
		c-3.4,4.1-2.8,7.1,1.8,9.4c0.1,0.6,0.2,1.1,0.3,1.7c-0.7,0.5-1.4,1-2.1,1.4c-2.2,0-4.4,0-6.7,0c0,2.9,0,5.1,0,7.6
		c2.4,0,4.5,0,6.6,0c0.7,1.4,1.4,2.8,2.1,4.2c-1.7,1-3.5,2-5.2,3c-3.3,1-6.5,2-9.8,2.9c-1.1-0.2-2.4-0.9-3.3-0.7
		c-2.6,0.8-5.3,2.2-6.4-1.7c-1-3.7-2.8-7.6,2.2-10.4c1.6-0.9,2.3-3.5,3.4-5.3c1.8-1.9,3.5-3.8,6.2-6.6c-2.9-1-4.6-1.6-6.3-2.2
		c-1.3-0.7-2.7-1.4-4-2.1c0.8-2.5,1.5-4.9,2.5-8.1c-2.6,0-4.1,0-5.5,0c-0.4-4.5,3.7-4.4,6.1-6c1,0.5,2,1,3.1,1.4
		c3,1.3,5.8-0.6,4.2-2.4c-1.3-1.4-4.2-1.5-6.4-2.2c0.4-1.3,0.8-2.7,1.2-4c4.7-2,4.9-3.2,1.7-8.8c-0.1-0.3-0.1-0.6-0.1-1
		c2.3-0.6,4.8-1.1,3.3-4.4c-0.3-0.7-2.1-1.5-2.3-1.3c-1.1,1.1-1.9,2.5-2.8,3.7c-1.4-1.8-2.9-3.5-4.3-5.3c0-0.2,0-0.4,0-0.6
		c0.4-3,0.8-5.9,1.2-8.9c0-0.4,0-0.9,0.1-1.3c1-0.4,2-0.8,3-1.2c3.9-2.5,3.4-8.7-0.9-11c-2.7-5.4-4.5-11.5-11.4-13.3
		c-1.2-0.3-2.3-1.2-3.5-1.8c-3.5-2.3-7.1-4.6-10.4-6.7c-1.1,1.4-1.7,2.2-2.2,2.9c-0.5-0.1-1-0.1-1.5-0.2c-0.2-0.8-0.2-2.2-0.5-2.3
		c-4.6-0.9-9.3-2-14-2.1c-3.5-0.1-7.1,0.8-10.5,1.7c-1.4,0.4-2.4,1.9-3.6,2.8c-2.7,1-5.3,2.7-8,3c-2.2,0.2-4.6-1.3-7-2.1
		c0.9-2,1.8-4,2.7-6c4.7-1.2,9.3-2.3,14-3.5c2.3-0.5,4.6-1,6.9-1.5c2.8,5.1,5.9,2.1,9,0.3c5.4-0.4,10.8-0.8,16.2-1.2
		c4.9,0.7,9.8,1.5,14.7,2.2c-3.7,3.8,1.2,6.9,0.5,10.4C710.8,124.5,711.5,123.8,711.7,117.5z"/>
	<path class="st3" d="M740.7,67.3c-0.3-3.7-0.8-7.4-1-11.2c-0.4-6.8,1.3-8.5,8.2-8.5c1.3,0,2.6,0.2,4,0.2c6.3-0.1,12.6-0.2,19-0.3
		c0.9-0.4,2-1.4,2.6-1.1c7.3,3.2,14.9,6.1,21.7,10.1c7.2,4.3,11.5,11.3,12.9,19.7c0.1,1.4,0,2.9,0.4,4.2c2.1,5.8,3.3,11.5,1.5,17.7
		c-1,3.5-0.7,7.4-1,11.2c-3.5,5-7,10.1-10.5,15.1c-3.8,0.2-4.2-2.7-5-5.4c1-4.2,2-8.5,3-12.7c0.7-1.1,2-2.3,2-3.4
		c-0.1-6.6-0.5-13.2-0.8-19.7c-2.3-5.4-3.9-11.4-7.2-16.2c-5.5-8.1-14.2-11.1-23.6-12c-5.9-3.6-8.8-3.1-12,2
		c-0.2,0.5-0.3,0.9-0.5,1.4c-2.5,1.1-2.2,2.9-2,5.3c0.7,6.3,1,12.6,1.4,18.9c0,3.9,0.1,7.7,0.1,11.6c-3.5,1.9-3.3,5-2.9,8.2
		c-0.1,7.3-0.2,14.7-0.3,22c-2.3,0-4.6,0-7,0c0-13.3,0.3-26.5-0.1-39.8C743.4,78.9,741.7,73.1,740.7,67.3z"/>
	<path class="st4" d="M652.8,211.5c-0.7,3.3,2.6,7.4-1.4,10c-3,2-6.3,3.7-9.7,4.8c-3.8,1.1-7.9,1.3-11.8,1.9c-4.2,0.7-6.3-1-6.5-5.3
		c-0.5-10.6-0.5-21.3-1.8-31.9c-2.5-21.6-5.7-43.2-8.6-64.8c-1.8-13.3-3.5-26.7-5.5-40c-0.6-3.8-2.5-7.3-4.3-12.4
		c-2.9,4.5-5,7.6-6.9,10.7c-8.8,14-17.7,27.9-26.3,42.1c-7.8,12.9-15.4,26-22.8,39.1c-1.8,3.1-2,7-3.6,10.3c-2,4.3-4.6,8.2-7,12.3
		c-0.6,1.1-1.5,2.1-2,3.3c-1.4,3.6-2.2,7.7-7.1,7.8c-5.5,0.1-10.4-1.7-13-6.7c-6.1-11.4-11.7-23-17.7-34.4
		c-3.9-7.3-8.3-14.4-12-21.8c-2.2-4.5-3.5-9.6-5.2-14.4c1.3,1.1,3,1.9,3.9,3.2c1.8,2.6,3.3,5.5,4.9,8.2c4.3,7.8,8.6,15.5,12.8,23.3
		c2.3,5.9,4.4,12,7,17.7c1.6,3.5,3.7,6.8,6,9.9c2.7,3.7,5.6,7.2,8.9,10.3c0.9,0.8,4.6,0.2,5.5-1c3.5-4.5,7.7-9.1,9.3-14.4
		c2.9-9.5,7.7-18.1,11.9-27c4.2-7,8.4-14.1,12.7-21.1c2.4-3.9,4.8-7.8,7.2-11.7c5.7-9,11.4-18,17.1-27c3.5-5.3,6.8-10.7,10.5-15.9
		c1.5-2,4.5-5.1,5.7-4.6c2.3,0.9,4.7,3.6,5.5,6.1c1.8,6,2.7,12.2,3.9,18.4c1,6.3,2.1,12.5,3.1,18.8c0.7,5,1.5,10,2.2,15
		c0.3,3.3,0.4,6.7,0.9,10c1.3,8.1,1.2,16.5,5.3,24c1,17.7,2.1,35.5,3.1,53.2c0.3,5.7,2,7.5,7.5,6s10.7-4.1,16.3-6.4
		c-1.9-3.1-3.5-5.6-5-8.1c0.9-0.3,1.7-0.6,2.6-0.9C649.9,209.4,651.4,210.5,652.8,211.5z"/>
	<path class="st5" d="M979,191.1c1.4-4.5,1.9-9.5,4.3-13.3c7.4-11.9,10.4-25.6,16.9-37.8c1.1-2,2.7-3.7,4-5.6c1.7,0.4,3.3,0.8,5,1.2
		c-1.8,4.4-3.4,8.9-5.5,13.1c-3.3,6.6-1.9,9.2,5.7,9.6c3.8,3.3,7.8,2.9,12,0.6c1.9,0,3.9,0.2,5.8,0c5.1-0.4,10.2-1,15.3-1.5
		c2.5-1.1,5-2.2,7.5-3.4c-1.6-5.6-3-10.6-4.4-15.6c2.2-5.5,6.2-2.7,9.7-2.2c3.8,11.5,7.5,23.1,11.4,34.6c1.3,3.9,3.1,7.6,4.7,11.5
		c-3.6-0.4-7.7-2.3-9,3.4c-1.7-3.3-4.3-6.4-4.9-9.8c-1.4-9-1.6-9.6-11-10.6c-3.8-4.2-11.4-4.2-15.8,0c-1.7,0-3.3,0.1-5,0.1
		c-5.9-0.3-11.9-0.8-17.8-0.8c-0.7,0-1.5,1.7-2.3,2.7c-8.2,0.3-13,4.5-14.6,12.5c-0.4,1.9-1.2,3.8-1.8,5.6c-1.8,1.9-3.7,3.8-5.5,5.7
		C982.2,191.2,980.6,191.2,979,191.1z"/>
	<path class="st6" d="M321.7,226.6c-2-0.2-3.9-0.4-5.9-0.6c-1.9-5-6-4.9-10.2-4.4c-0.6-0.1-1.2-0.3-1.8-0.4c0.1-1.5,0.2-3,0.2-3.6
		c-3.4-0.7-6.3-1.3-9.3-1.9c0.3,1.1,0.6,2.4,0.9,3.6c-2.1,0.1-4.2,0.2-6.4,0.4c-3.4-1.2-7.1-1.8-10.2-3.6c-3.4-2-6.3-4.9-9.4-7.4
		c0.3-5.2,4.6-1,6.4-2.6c-3.7-4.3-5.2-4.3-9.6-0.4c-0.9-1-1.9-2.1-2.8-3.1c2.8-3.5,5.1-7.6,10.2-8.1c3.5,2.2,6.8,4.6,10.4,6.5
		c6.4,3.4,13,6.4,19.4,9.6c3.8,4.1,7.8,6.9,13.5,3.1c0.4-0.2,1-0.2,1.5-0.1c5.6,0.7,11,2.1,16.6-0.8c2.3-1.2,5.5-0.7,8.3-1
		c-0.6,6.9-5.8,5.5-10.6,4.8c1.7,4.5,4.2,4.8,7.3,2.9c2.5-1.6,4.9-3.3,7.4-4.9c2.3,1.7,4.6,3.3,6.9,5c-1.5,1.7-3.1,3.4-4.6,5.1
		c-5.4,0-10.8-0.1-16.3-0.1c-4.3-4-5-3.9-9,1.1C323.7,225.9,322.7,226.2,321.7,226.6z"/>
	<path class="st7" d="M956.7,139.5c-3.4-8.6-8.7-15.3-18.1-17.8c-0.5-0.8-0.9-1.7-1.4-2.5c1-6.7-4.7-4.6-7.8-5.9
		c1.3-0.8,2.6-2.2,4-2.3c4.2-0.3,8.4-0.5,12.6-0.1c2.5,0.2,5.4,1.1,7.1,2.7c3.8,3.6,6.9,7.9,10.3,11.9c-7-1.2-8.6-0.6-8.9,3.3
		c4,0.5,8,1,12,1.6c3,10.3,4.6,20.7,1.8,31.3c-4.2,3.1-3.8,7-1.6,11c-0.8,6-1.6,11.9-2.4,17.9c-1.3,1.7-2.6,3.3-3.9,5
		c-2.3-1-4.6-1.9-6.9-2.9c0.1-1.8,0.2-3.5,0.3-5.3c0.9-0.8,2.6-1.5,2.7-2.4c0.5-6,0.7-12,1-17.9c0.1-0.7,0.1-1.4,0.2-2.1
		c0.9-1.3,2.6-2.6,2.7-4c0.3-4.8,0.2-9.6,0.2-14.5C960.7,143.4,960.9,140.2,956.7,139.5z"/>
	<path class="st8" d="M793.4,119.2c0.7,2.6,1.2,5.5,5,5.4c-5.9,4.7-11.8,9.5-17.9,13.9c-4.4,3.2-6.4,7.1-4.1,10.3
		c1.8,2.5,4.3,4.5,6.6,6.6c6.1,5.4,12.3,10.7,18.5,16.1c-2.6,0.7-5.3,1.1-7.7,2.3c-1.4,0.7-2.3,2.6-3.4,3.9
		c-6.9-5.1-14-10-20.8-15.2c-3.9-2.9-7.6-6.1-11-9.5c-3.1-3.1-1.7-9.4,2.2-11.5c2.2-1.2,4.3-2.5,6.6-3.4
		C777.7,133.7,786.5,127.7,793.4,119.2z"/>
	<path class="st0" d="M581.5,80c5-9.7,9.8-19.5,15.2-29c3-5.3,6.6-10.4,10.9-14.7c2.3-2.3,6.4-3.5,9.8-3.7c5.2-0.3,7.6,2.9,8.1,8.1
		c2,22.5,3.4,45.1,6.3,67.5c2.6,20.6,6.8,41,10.5,61.4c0.4,2,2.7,3.7,4,5.5c-2.5,1.6-5,3.2-7.6,4.8c-0.8-6.5-1.7-12.9-2.5-19.4
		c-1.9-10.4-3.8-20.7-5.7-31.1c-1-5.7-2-11.3-3-17c-0.7-6-1.4-12-2.1-18c-1.1-10.4-2.2-20.7-3.2-31.1c0.1-6.1,0.4-12.2,0.1-18.2
		c-0.1-2.3-1.1-4.9-2.5-6.8c-0.9-1.2-3.6-2.4-5-1.9c-3,1.1-6.8,2.5-8.2,5c-4.1,7-7.2,14.6-10.8,22c-4.2,5.6-8.3,11.2-12.5,16.9
		c-0.2,0-0.4,0-0.7,0.1C582.3,80.3,581.9,80.2,581.5,80z"/>
	<path class="st9" d="M255.6,154.9c2.8-3.1,5.1-6.2,5.4-10.9c0.2-3,2.1-6.3,4-8.9c3.5-4.6,7.7-8.8,11.5-13.2c2.6-3.1,5.7-5,9.9-4.5
		c2.8,0.7,5.6,1.5,8.3,2.2c-5.8,5.6-11.6,11.1-17.2,16.9c-1.4,1.5-1.9,3.9-2.8,5.9c-2.9,2-5.8,4.1-9.2,6.5c4.4,0.2,7.7,0.4,11,0.5
		c1.3,0.9,2.7,1.8,4,2.7c-4.3,3.4-8.5,6.8-12.8,10.2c-0.7,0.6-1.9,1.1-1.9,1.7c0,4.1,0.3,8.2,0.6,12.3c-3.6,3.1-7.1,1.4-10.7,0.1
		c-0.1-3.6-0.2-7.2-0.3-10.8c0-0.8,0-1.5,0-2.3C255.5,160.6,255.5,157.7,255.6,154.9z"/>
	<path class="st10" d="M790.6,177.6c1.1-1.3,1.9-3.2,3.4-3.9c2.4-1.2,5.1-1.6,7.7-2.3c9.5,7.1,19,14.3,28.5,21.4
		c1.8,1.4,3.9,2.5,5.8,3.7c0.5,1.3,0.7,2.9,1.6,3.9c3.2,3.2,3.5,7,3.1,11.1c-0.2,0-0.4,0-0.5,0.1c-7.4,6.2-8,6.5-14.2-1.3
		c-9.2-11.6-19.8-21.5-32.2-29.6C792.5,179.9,791.6,178.6,790.6,177.6z"/>
	<path class="st0" d="M173.2,17.6c0.1,2.1,0.2,4.3,0.4,7.5c12.8-0.6,25.5-1.6,38.2-1.6c6.6,0,13.3,1.7,19.9,2.8c1,0.2,2.2,1.1,2.5,2
		c1.9,4.6-3.8,13.5-8.8,13.2c-14.7-0.7-29.4-1.5-44.1-2.7c-6.4-0.5-8.4,0.9-8.8,8.5c-0.3-2.7-0.7-5.4-0.9-8.2
		c-0.3-3.9-0.5-7.8-0.8-11.7c0.1-3.3,0.3-6.6,0.4-9.9C171.9,17.5,172.6,17.6,173.2,17.6z M174.2,28.4c-1.4,4.8-0.1,6.8,4.1,7.1
		c5.4,0.4,10.8,1.5,16.3,1.7c10,0.3,20,0.5,29.9,0.1c1.8-0.1,3.5-3.6,5.2-5.6c-1.5-1.3-2.7-3.3-4.4-3.7c-3.3-0.9-6.9-1.4-10.3-1.2
		c-8.6,0.3-17.1,1.2-25.7,1.6C184.2,28.7,179.1,28.4,174.2,28.4z"/>
	<path class="st10" d="M752.7,217.7c-1.3,2.6-8.2,4.8-11.4,3.7c-3.7-1.3-6.4-7.6-5.1-11.8c1.1-3.4,2.4-6.8,3.5-10.1
		c0.6-0.9,1.6-1.8,1.7-2.7c0.8-6.1,1.4-12.1,2.1-18.2c2.3,0,4.7,0,7,0c0,4.7,0,9.4,0.2,14.1c0.1,1.3,1.2,2.5,1.8,3.7
		c0.4,2.6,0.7,5.2,1.1,7.9c0,0.8,0.1,1.5,0.1,2.3c-1,3.3-2,6.5-2.8,9.8C751,216.6,752.1,217.2,752.7,217.7z"/>
	<path class="st11" d="M153.9,192.4c2.9-11.1,3.7-22.4,2.2-33.8c-1.1-8.3-1.8-16.7-2.7-25c1.1,0.6,2.2,1.1,3.5,1.8
		c0.9-1.4,1.6-2.5,2.3-3.5c2.3,0.9,4.4,1.8,6.5,2.6c0,3.3-0.1,6.6-0.1,10c-0.9,0.3-2,0.4-2.7,0.9c-1.4,0.9-2.6,2.1-3.9,3.1
		c1.4,1.7,2.7,3.4,4.2,4.9c0.4,0.4,1.6,0.2,2.4,0.3c0,3.3,0.1,6.6,0.1,9.9c-1.8,0.5-3.7,1-5.7,1.6c-0.8,4.5,0.7,6.8,5.6,6.5
		c-0.1,3.6-0.1,7.2-0.2,10.8c-1,0.1-2,0.1-2.9,0.3c-3.4,0.9-6.7,2-2.9,6.3c0.3,0.3,0.1,1,0.1,1.4c-0.9,0.6-1.8,1.3-2.7,1.9
		C155.9,192.4,154.9,192.4,153.9,192.4z"/>
	<path class="st12" d="M1019.7,100.6c1.5-4.8,3-9.7,4.5-14.5c0.9-2.9,1.3-6.1,2.6-8.8c1.1-2.2,3.3-3.8,5-5.7c3.4,1.2,3.7,4,3.9,7.1
		c0.2,3.3-0.4,7.4,4.2,8.7c0.3,0.3,0.6,0.5,0.9,0.8c-1.8,4.4-1.9,8.4,2.8,11.3c0.3,2,0.7,4,1,6c-1-1.4-1.9-2.9-2.9-4.3
		c-0.5,0.2-1.1,0.4-1.6,0.6c-0.9,2.3-1.8,4.6-2.7,7c-1-1.2-2.3-2.2-3-3.6c-1.1-2.3-1.7-4.9-2.8-7.3c-0.6-1.2-1.9-2.1-2.9-3.1
		c-0.9,1-1.7,2.1-2.7,3.1c-1.8,1.9-3.6,3.8-5.5,5.6C1020.3,102.5,1020,101.5,1019.7,100.6z"/>
	<path class="st2" d="M638.8,180c2.5-1.6,5-3.2,7.6-4.8c1.7-0.6,3.4-1.2,5.1-1.9c1.2,0.5,2.4,1,3.6,1.5c-8.4,7.2-9.6,11.4-6.4,20.6
		c-1.2,2.3-2,4.9-3.7,6.8c-1.3,1.5-3.5,2.2-5.3,3.3c-5.7-2.1-7.8-5.1-8.1-10.5C631.3,188.5,634.6,184.1,638.8,180z"/>
	<path class="st9" d="M358.2,135.5c0.1,0.5,0.2,0.9,0.3,1.3c-0.6,1.2-1.2,2.3-1.8,3.5c-3.8-2.4-6.4-7.2-12-5.9
		c-0.3-2.6,0.4-5.8-3.8-6c-1.8-3.9-3.6-7.8-5.4-11.7c1.9-3.4,0.9-5.5-2.8-6.3c-0.3-1.7-0.7-3.3-1-5c0.3-0.2,0.6-0.4,0.9-0.6
		c7-1.7,11.5,2,15.2,7.2c-2.2,5.7-1.7,6.5,5,7.3c1.2,2.3,2.4,4.6,3.6,6.9c-0.9,1.5-3,3.4-2.6,4.3
		C354.6,132.5,356.6,133.9,358.2,135.5z"/>
	<path class="st8" d="M750.6,178.5c-2.3,0-4.7,0-7,0c0-4.6-0.1-9.3-0.1-13.9c0-13.4,0.1-26.7,0.1-40.1c2.3,0,4.6,0,7,0
		c0.2,0.2,0.2,0.5,0.3,0.8c0.6,4.1,1.1,8.2,1.7,12.3c0,1.1-0.1,2.2-0.1,3.3c-0.6,2.6-1.7,5.2-1.7,7.7c0.1,4.6,1,9.2,1.5,13.8
		c0,1.2,0,2.5,0,3.8c-0.6,1.4-1.5,2.7-1.6,4.1C750.4,173,750.6,175.8,750.6,178.5z"/>
	<path class="st3" d="M1062.5,185.8c1.3-5.7,5.4-3.8,9-3.4c2.9,7.6,5.8,15.2,8.6,22.8c1.1,2.9,1,5.6-2.3,7.1c-2.2,1-4.3,2.3-6.5,3
		c-4.8,1.6-5.4,1-5.4-4.3c3.9-3.6,3.4-9.6-1.2-13.6C1063.9,193.6,1063.2,189.7,1062.5,185.8z"/>
	<path class="st0" d="M523.1,160.8c7.3,3,12.7,1.3,17-6.2c7.1-12.4,13.7-25.2,20.6-37.7c6.8-12.3,13.8-24.6,20.7-36.9
		c0.4,0.2,0.8,0.4,1.1,0.5c0,1,0,2,0,3.1c-0.8,2.5-1.6,5-2.3,7.6v0.2c-0.3,0.4-0.6,0.7-0.8,1.1c-2,3.2-4,6.3-5.8,9.5
		c-2.6,4.7-4.9,9.5-7.3,14.3c-2.6,4.1-5.2,8.1-7.8,12.2c-4.3,8-8.6,16-12.9,24c-2.4,2.9-4.6,6-7.1,8.7c-6.3,6.9-9,7-16.7,1.2
		C522.2,161.9,522.7,161.3,523.1,160.8z"/>
	<path class="st12" d="M230.5,117.6c-0.5-4.3-5.3-1.9-6.9-4.4c-1.2-0.9-2.4-2.4-3.8-2.5c-9.1-1-17.6,1.6-25.9,4.9
		c-0.5-1.8-0.9-3.5-1.4-5.3c6.2-4.8,13-8,21-7.9c1,6.7,6.2,3.1,9.6,4c1.5,0,3.1-0.3,4.4,0.2c3.8,1.3,4.2-0.9,4.2-3.7
		c0.6,0.1,1.1,0.3,1.7,0.4c1,5.2,4.9,4.2,8.4,3.9c1.3,2,2.7,4.1,4,6.1c-1.2,0.4-2.4,0.8-3.5,1.2c-2-0.6-4-1.3-4.8-1.5
		C234.6,115,232.5,116.3,230.5,117.6z"/>
	<path class="st13" d="M1037.4,108.6c0.9-2.3,1.8-4.6,2.7-7c0.5-0.2,1.1-0.4,1.6-0.6c1,1.4,1.9,2.9,2.9,4.3c2.3,5.5,4.8,11,6.8,16.6
		c1.6,4.7,2.6,9.6,3.9,14.4c-3.5-0.6-7.6-3.4-9.7,2.2C1042.9,128.6,1040.2,118.6,1037.4,108.6z"/>
	<path class="st14" d="M488.5,133.6c-1.6-2.8-3.1-5.6-4.9-8.2c-0.9-1.3-2.6-2.2-3.9-3.2c-0.2-0.4-0.4-0.8-0.6-1.2
		c-0.9-3.4-1.8-6.9-2.6-10.3c3.8-3.8,8.2-1.8,12.4-1.3c3.9,7.4,7.8,14.7,11.8,22.1C496.6,132.2,492.6,132.9,488.5,133.6z"/>
	<path class="st15" d="M888.6,123.4c-3.4-8.8-5.5-11.7,6.2-18.3c-1.1,3.1-2.2,6.2-3.7,10.4c1.4,0.5,4,1.4,7.8,2.8
		c-3.8-7.3-3.8-7.3,2.8-9.5c0.6-0.2,1.3-0.4,1.9-0.6c-0.2,2.3-0.5,4.6-0.8,6.9c-0.2,1.8-0.6,3.6-0.8,5.4c-1.2,2.5-2.4,5-3.4,7.2
		c2.5,0.9,4.7,1.8,6.9,2.7c0.9,0.1,1.7,0.2,2.6,0.3c-1.8,2.7-3.7,5.3-5.5,8c-0.2,0-0.4,0-0.6,0c-1.1-0.4-2.2-0.8-3.4-1.2
		c-0.8-2.3-1.7-4.5-2.6-7c-1.5,0.5-2.7,0.9-3.9,1.3C890.9,129,889.7,126.2,888.6,123.4z"/>
	<path class="st10" d="M743.6,124.5c0,13.4-0.1,26.7-0.1,40.1c-0.6,0.6-1.3,1.2-1.9,1.9c-0.2-21.4-0.3-42.9-0.6-64.3
		c-0.1-10-0.3-19.9-0.5-29.9c0-1.7,0.1-3.3,0.1-5c1,5.8,2.7,11.6,2.9,17.4C744,98,743.7,111.2,743.6,124.5z"/>
	<path class="st11" d="M230.5,117.6c2-1.3,4.1-2.7,7-4.5c0.8,0.2,2.8,0.9,4.8,1.5c0.1,3.2,0.1,6.5,0.2,9.7c-1.1,1.4-2.3,2.9-3.4,4.3
		c1.2,0.6,2.4,1.2,3.6,1.8c0.1,4.9,0.2,9.9,0.3,14.8c0.3,1.7,0.6,3.5,0.9,5.2c-0.6,5.9-1.2,11.9-1.7,17.8c0,0.7-0.1,1.5-0.1,2.2
		c0,0.3,0,0.6-0.1,0.9c-1.3,0-2.7,0-4,0c0.4-3.4,1.1-6.8,1.2-10.2c0.1-9,0.3-17.9-0.6-26.8c-0.3-3.7-3.1-7.2-4.7-10.7
		C232.6,121.7,231.5,119.7,230.5,117.6z"/>
	<path class="st12" d="M170.9,27.5c0.3,3.9,0.5,7.8,0.8,11.7c0.2,2.7,0.6,5.5,0.9,8.2c0,3.8,0,7.5,0,11.3c-1.7-0.7-3.3-1.5-5-2
		c-0.5-0.2-1.4,0.6-2,0.9c-2.2-0.2-4.4-0.5-6.6-0.7c1.1-2.7,1.5-6.7,3.5-7.9c3.7-2.2,3.5-5,3-7.9c-0.2-1.3-2.5-2.2-3.7-3.5
		c-1.1-1.2-2.7-2.6-2.9-4c-0.1-1.2,1.3-2.9,2.5-3.8c1.1-0.9,2.7-1,4.1-1.4C167.7,31.1,169.2,28.8,170.9,27.5z"/>
	<path class="st7" d="M898.5,137.4c1.1,0.4,2.2,0.8,3.4,1.2c-0.7,7.2-1.4,14.4-2.1,21.7c-0.5,2.5-1,4.9-1.4,7.4
		c-2.2,0.3-4.5,0.6-6.7,0.9c-0.6-0.3-1.3-0.7-1.9-1c0-1.3,0-2.6,0-3.9c0.6-0.8,1.6-1.5,1.7-2.3c0.8-6,0.5-11.9,0-17.9
		c-0.1-0.8-1.1-1.5-1.7-2.3c0-1.3,0-2.6,0-3.8c0.6-0.3,1.3-0.6,1.9-1C894,136.8,896.3,137.1,898.5,137.4z"/>
	<path class="st1" d="M871.6,81.6c2.2,0.7,4.6,1,6.5,2.1c2,1.1,4.6,2.6,5.1,4.5c0.4,1.3-1.9,4.4-3.6,5.1c-5.8,2.4-11.7,6.4-17.6-0.3
		c-1.5-1.7-4.2-2.4-7-3.9c1.8-2.2,3.2-3.9,4.6-5.6C863.6,82.8,867.6,82.2,871.6,81.6z"/>
	<path class="st3" d="M979,191.1c1.6,0,3.2,0,4.8,0.1c0.7,1.2,1.3,2.3,2,3.5c-0.5,1.6-1,3.1-1.5,4.7c-3.4,2.7-5.5,5.6-2.1,9.7
		c-0.5,2.2-1.1,4.3-1.6,6.5c-5.1-0.9-10.8,1.9-15.4-2.3C969.8,205.9,974.4,198.5,979,191.1z"/>
	<path class="st11" d="M255.4,165.6c0.1,3.6,0.2,7.2,0.3,10.8c-0.1,0.3-0.1,0.7-0.2,1c-1.2,0.4-2.4,0.8-3.6,1.2
		c2.1-6.9-5.4-6.9-8.1-10.1c9-10,9-10,6.1-16.4c0.1-2,5.2-2.5,1.9-5.7c-0.6-4.1-1.2-8.3-1.8-12.4c-0.1-2.5-0.1-5-0.2-7.4
		c1-0.6,2-1.3,3-1.9c0.5,6.6,1,13.3,1.6,19.9c0.3,3.4,0.9,6.8,1.3,10.3c-0.1,2.8-0.2,5.6-0.3,8.4
		C255.4,164.1,255.4,164.9,255.4,165.6z"/>
	<path class="st12" d="M165.5,94.5c-4.7,0.5-7.2-1.3-5.6-5.4c1.9-1.9,3.8-3.7,5.7-5.6c1.1,1.3,2.3,2.6,3.4,3.9
		c0.6-1.7,1.9-3.5,1.5-5c-0.7-2.9-2.2-5.7-3.4-8.5c-0.4,0.1-0.8,0.3-1.2,0.4c-0.1,2.4-0.3,4.8-0.4,7.2c-2.1-1.9-4.6-3.6-6.4-5.8
		c-2.7-3.5,0.2-7,6.4-8.3c5.1,3.3,4.5-2.1,6.1-4c0,4.4-0.2,8.9,0,13.3c0.2,5.2,0.6,10.4,0.9,15.5c-0.1,0.7-0.1,1.5-0.2,2.2
		c-0.2,0.4-0.4,0.8-0.5,1.2l0.1,0.2l-0.2,0.2c-1.3-0.7-2.5-1.6-3.8-2C167.3,93.9,166.3,94.4,165.5,94.5z"/>
	<path class="st7" d="M961.5,204.5c-0.9,2.5-1.8,5.1-2.5,7.7c-0.4,1.6-0.9,3.5-0.3,4.8c1.3,3,0.2,5-1.9,6.9
		c-3.6,3.2-10,1.9-13.6-2.6c-2.9-3.6-1.9-7.1,3.3-11.1c2.7,1.6,5.4,3.2,8.2,4.9c0-3.7,0-6.1,0-8.5
		C956.9,205.9,959.2,205.2,961.5,204.5z"/>
	<path class="st13" d="M1019.7,100.6c0.3,1,0.6,1.9,1,2.9c0.1,2.3,1,5,0.2,6.9c-3.6,8.5-7.7,16.8-11.6,25.2c-1.7-0.4-3.3-0.8-5-1.2
		c0.3-1.9,0-4.1,0.9-5.8c4.2-8.4,8.8-16.6,13.2-24.9C1018.9,102.7,1019.2,101.6,1019.7,100.6z"/>
	<path class="st15" d="M900.1,194.5c1,2.1,2.1,4.1,3.1,6.2c-0.7,1.3-1.7,3.1-2.7,4.9c-3.9-0.2-7.7-0.2-9.6,4.2
		c-0.3,0.8-1.4,1.2-2.2,1.8c-4.7-1.7-5.7-5-3.9-9.4c0.9-2.2,1.9-4.4,2.8-6.6c1.1-0.8,2.2-1.6,3.2-2.5C894,193.5,897,194,900.1,194.5
		z"/>
	<path class="st11" d="M171.8,97.1c0.6,3.3,1.5,6.6,1.7,10c0.6,7.5,3.5,9.3,10.2,6.4c2-0.9,4.5-0.9,6.7-1.3c-2,1.7-4,3.4-6.9,5.8
		c1.9,1.4,3.2,2.4,4.5,3.4c-5,4.2-10,8.4-15,12.6c-0.5-0.2-0.9-0.3-1.4-0.5c0.4-2.2,0.8-4.4,1.1-6.6c4.8-3.8,2.6-8.1,0.8-12.3
		c-0.8-3.1-1.6-6.3-2.4-9.4C171.3,102.5,171.6,99.8,171.8,97.1z"/>
	<path class="st2" d="M652.8,211.5c-1.4-1.1-2.9-2.1-4.3-3.2c0.7-2,1.3-4,2.2-6.4c1.1-0.6,3.1-1.6,5.1-2.7c3.7,0.9,7.4,1.7,11.1,2.6
		c1.5,4.8,6,2.5,9,3.8c0,1.5-0.1,2.9-0.1,4.4c-4.3,0.1-8.7,0.2-13,0.3c-0.6-1.6-1.3-3.2-1.9-4.7c-1,1.8-2,3.7-3,5.5
		C656.1,211.2,654.5,211.4,652.8,211.5z"/>
	<path class="st12" d="M153.9,192.4c1,0,2,0,3,0c-0.1,1.6-0.2,3.3-0.2,4.9c0,4.9,1.3,5.9,5.9,4.9c1-0.2,1.9-0.6,2.8-0.9
		c2,0.3,3.9,0.6,5.9,0.9c0.4,2.7,0.9,5.4,1.3,8.1c-3.2,3-4.3-0.4-6.1-1.9c-2.5,0.5-5,1.1-8.1,1.8c-0.6,0.9-1.8,2.6-3,4.2
		c-0.6-2-1.3-4.1-1.9-6.1c0.2-1.9,0.6-3.9,0.4-5.8c-0.2-1.4-1.4-2.7-2.2-4C152.5,196.5,153.2,194.5,153.9,192.4z"/>
	<path class="st7" d="M908,130.6c-0.9-0.1-1.7-0.2-2.6-0.3c-0.4-2.6-0.7-5.2-1.1-7.8c0.5-0.4,1.1-0.8,1.6-1.2
		c3.6-0.6,7.8,1.8,10.6-2.3c4-1.7,7.9-3.4,11.9-5.1c2.2,1.6,4.4,3.3,6.6,4.9c-3.1,1.5-7.9-1.4-9.7,3.7
		C919.6,125.3,913.8,128,908,130.6z"/>
	<path class="st6" d="M358.7,148.4c-1.4,1-2.8,1.9-4.1,2.9c-0.7-0.9-1.3-1.9-2-2.8c-4-4.5-5.7-4.3-9.9,0.9c0,0.7,0,1.4,0,2
		c-2.3-0.4-4.7-0.7-7-1.1c-1-1.9-1.9-3.9-2.9-5.8c3-0.8,8,2.1,7.8-4.4l-0.1,0.1c1.4-0.6,2.8-1.2,4.3-1.8c2.2,0.6,4.5,1.1,6.7,1.8
		c1.8,0.6,3.5,1.5,5.2,2.3C357.3,144.6,358,146.5,358.7,148.4z"/>
	<path class="st6" d="M268.5,181.5c1.3,3,2.7,6,4,9c-1.6,0.8-3.3,1.3-4.7,2.4c-2.5,2-4.7,4.3-7,6.5c-0.8-2.3-1.6-4.6-2.4-6.9
		c1.4-0.5,2.7-1,3.1-1.1c-2.1-4.3-4-8.1-5.8-11.8C260,180.3,264.3,180.9,268.5,181.5z"/>
	<path class="st12" d="M173.2,17.6c-0.7,0-1.3,0-2-0.1c-1.5-0.6-2.9-1.2-4.5-1.9c-0.3,0.5-0.8,1.2-1.4,2c-3.6,1-7.2,2.1-10.7,3.1
		c-1.2-2.1-3.1-4.1-3.5-6.3c-0.3-2.2,0.9-4.6,1.4-6.9c1.4,0.1,2.9-0.1,4.1,0.3c3.1,1.1,6,2.4,9,3.7c2.3-0.4,4.5-0.8,6.8-1.2
		c0.3,2.1,0.7,4.1,1,6.2C173.4,16.8,173.3,17.2,173.2,17.6z"/>
	<path class="st12" d="M172.8,126.9c-0.4,2.2-0.8,4.4-1.1,6.6c-1.8-0.5-3.6-0.9-5.7-1.5c-0.1,0.9-0.2,1.7-0.3,2.5
		c-2.1-0.8-4.1-1.7-6.5-2.6c-0.7,1-1.4,2.2-2.3,3.5c-1.2-0.6-2.3-1.2-3.5-1.8l0.1,0.1c-0.3-0.7-0.7-1.5-1-2.2c-2.5-4-1-7.2,1.8-10.2
		c1.4,1.6,2.7,3.2,4.3,5c2.1-0.6,4.5-1.2,6.9-1.9C167.9,125.2,170.3,126,172.8,126.9z"/>
	<path class="st16" d="M343.5,211.7c-2.8,0.3-6-0.2-8.3,1c-5.6,2.9-11,1.4-16.6,0.8c-0.5-0.1-1.1-0.1-1.5,0.1
		c-5.6,3.8-9.7,1-13.5-3.1c13.7-0.1,27.3-0.3,41-0.4C344.2,210.6,343.9,211.2,343.5,211.7z"/>
	<path class="st11" d="M228.7,206.5c2-5.7,4-11.3,6-17c0.6-0.7,1.2-1.3,1.8-2c1.9,1.1,3.8,2.1,5.7,3.2c0,3.6,0,7.1,0.1,10.7
		C237.5,202.2,232.5,202.7,228.7,206.5z"/>
	<path class="st2" d="M703.6,205.2c-2.8,0.4-5.6,0.6-8.3,1.4c-2.2,0.6-4.1,2-6.2,2.9c-1.1,0.5-2.4,0.6-3.7,0.8
		c-0.4-0.2-0.8-0.4-1.1-0.6c-0.5,0-1.1,0.1-1.6,0.1c-0.1-1.6-0.3-3.2-0.4-4.8c1.8-0.5,3.6-0.8,5.3-1.5c2.7-1.2,5.4-2.6,8.1-3.9
		c3-0.7,6-1.4,8.9-2.1C704.3,200.1,704,202.6,703.6,205.2z"/>
	<path class="st9" d="M306.6,107.1c4.3-1.2,8.6-2.3,12.8-3.5c2.1,1,4.2,1.9,6.2,2.9c-1,1.4-2,2.7-3.1,4.1c-2.1-0.1-4.4,0.4-6.3-0.3
		c-3.7-1.3-5.4,0.5-7.1,3.2c-1.1,0.1-2.2,0.3-3.3,0.4c-2-3.1-4.6-2.3-7.4-1.3c-2.4-3.7,0.8-2.6,2.5-3
		C303.1,109.1,306.2,111,306.6,107.1z"/>
	<path class="st11" d="M165.8,11.5c-3-1.2-6-2.6-9-3.7c-1.3-0.4-2.7-0.2-4.1-0.3c-3-2.6-1.1-4.7,1.2-5.2c5.1-1.2,10.4-1.6,15.7-2.3
		C164.3,2.5,165.8,7.3,165.8,11.5z"/>
	<path class="st7" d="M890.9,193c-1.1,0.8-2.2,1.6-3.2,2.5c0.4-3.7,0.7-7.4,1.1-11.1c4.1-2.8,2-7.4,3-11c2.2,0,4.4,0,6.6,0
		c-0.6,4.8-1.2,9.6-1.9,14.4C892.9,187.7,891,189.4,890.9,193z"/>
	<path class="st9" d="M287.6,153.2c-0.7-0.2-1.3-0.5-2-0.7c0-1.9,0-3.9,0-5.8c2.7-0.1,5.4,0.1,8.1-0.2c2.6-0.4,5.2-1.2,7.8-1.9
		c2.3-0.4,4.6-0.7,6.8-1.1c-3.2,2.9-6.5,5.9-9.7,8.8C295,152.6,291.3,152.9,287.6,153.2z"/>
	<path class="st12" d="M228.7,206.5c3.8-3.7,8.8-4.2,13.6-5.1c0.1,0.5,0.2,1.1,0.3,1.6c0,2.2,0,4.4,0,6.6c0,0.3-0.1,0.7-0.1,1
		c-2.3-0.8-4.5-1.5-7.1-2.4c-0.7,2.4-1.4,4.9-2.1,7.5c-1.8-1.7-3.2-4.3-6.4-3.2C227.5,210.5,228.1,208.5,228.7,206.5z"/>
	<path class="st11" d="M172.7,210.4c-0.4-2.7-0.9-5.4-1.3-8.1c-0.7-4.9-1.4-9.7-2.1-14.6c-0.2-1.4-0.5-2.9-0.7-4.3
		c0-4.9-0.1-9.9-0.1-14.8c0.4-1.7,0.9-3.3,1.3-5c0.3-0.1,0.5-0.2,0.8-0.2l0.4,0.1h0.4c0,4,0,8,0,12c0,2,0,3.9,0,5.9
		c0,1.4,0,2.7,0,4.1c0,0.6,0.1,1.3,0.1,1.9c0.6,1.7,1.1,3.4,1.7,5.1c0,0.9,0.1,1.8,0.1,2.7c0.4,5.1,0.9,10.3,1.3,15.4
		C173.9,210.6,173.3,210.5,172.7,210.4z"/>
	<path class="st17" d="M306.6,107.1c-0.4,3.9-3.5,2-5.4,2.4c-1.7,0.4-4.9-0.7-2.5,3c0.3,1.2,0.7,2.5,1,3.7c-1.6,1.1-3.2,2.3-4.9,3.4
		c-2.8-0.7-5.6-1.5-8.3-2.2c3.1-6.3,8-9.9,15.2-9.9C303.3,107.5,304.9,107.2,306.6,107.1z"/>
	<path class="st12" d="M242.3,190.7c-1.9-1.1-3.8-2.1-5.7-3.2c0.9-3,1.5-6.3,5.7-6.2c1.9,4.4,4.9,0.5,7.3,1c0.7,0.5,1.5,0.9,2.2,1.4
		c-0.9,2.6-1.7,5.3-2.6,7.9c-1.4-0.7-2.7-1.7-4.2-2C244.2,189.4,243.2,190.3,242.3,190.7z"/>
	<path class="st11" d="M155.5,214.5c1.2-1.7,2.3-3.3,3-4.2c3.1-0.7,5.6-1.2,8.1-1.8c-1,3.8-2.4,7.8,3.3,9.3
		c-2.1,2.8-4.6,3.2-7.9,1.9c-3.4-1.3-6.9-2.2-10.4-3.3C153,215.7,154.2,215.1,155.5,214.5z"/>
	<path class="st18" d="M656.1,122.5c1.2-1,2.2-2.5,3.6-2.8c3.4-0.9,7-1.8,10.5-1.7c4.7,0.2,9.3,1.3,14,2.1c0.3,0.1,0.4,1.5,0.5,2.3
		c-7.9,0.2-15.8,0.4-23.7,0.6C659.4,123,657.7,122.7,656.1,122.5z"/>
	<path class="st2" d="M965.2,213.3c4.6,4.2,10.3,1.4,15.4,2.3c-1.4,2.1-2.6,5.8-4.1,5.9c-3.9,0.3-8.1-0.8-12-1.8
		C964.2,219.6,964.9,215.5,965.2,213.3z"/>
	<path class="st19" d="M252.8,124.8c-1,0.6-2,1.3-3,1.9c-2.4-0.8-4.9-1.5-7.3-2.3c-0.1-3.2-0.1-6.5-0.2-9.7c1.2-0.4,2.4-0.8,3.5-1.2
		h-0.1c0.9,0.7,1.7,1.3,2.6,2C249.8,118.5,251.3,121.6,252.8,124.8z"/>
	<path class="st18" d="M809,109.4c0.3-3.7-0.1-7.6,1-11.2c1.8-6.2,0.6-11.9-1.5-17.7c-0.5-1.3-0.3-2.8-0.4-4.2
		c4.6,4.3,6.2,9.7,5.1,15.7C812,97.9,810.4,103.6,809,109.4z"/>
	<path class="st2" d="M668.4,165.4c2.7-1,5.4-2.1,8.1-3.1c1.3-0.5,2.6-1.1,3.9-1.6c2.5,0.6,5.1,1.3,7.6,1.9
		c-3.2,1.4-6.7,2.5-9.6,4.4c-3.3,2.1-6.3,2.6-9.8,1.1C668.6,167.1,668.5,166.3,668.4,165.4z"/>
	<path class="st11" d="M193.9,115.6c8.3-3.3,16.8-5.9,25.9-4.9c1.3,0.1,2.5,1.7,3.8,2.5c-2.4,0.2-4.8,0.4-7.2,0.8
		c-5.4,0.7-10.7,1.6-16.1,2.3c-2.1,0.3-4.3,0.1-6.5,0.1C193.7,116.1,193.8,115.9,193.9,115.6z"/>
	<path class="st20" d="M729.6,164.4c-6.1,0.1-6.6-0.5-5.6-5.2c3.2-2.4,5.5-4.1,7.7-5.7c5.4,2.6,5.6,4.1,0.9,8.9
		C731.6,163,730.6,163.7,729.6,164.4z"/>
	<path class="st18" d="M688.1,162.6c-2.5-0.6-5.1-1.3-7.6-1.9c1.9-1,3.6-2.5,5.6-2.8c8.5-1.6,17-2.8,25.5-4.2c0,0.4,0,0.9-0.1,1.3
		c-2.3,0.9-4.6,1.7-6.9,2.6c-2.8,0.3-5.7,0.2-8.3,1c-2.7,0.9-5.2,2.6-7.8,4l-0.1,0.1C688.4,162.7,688.2,162.7,688.1,162.6z"/>
	<path class="st19" d="M165.7,134.5c0.1-0.8,0.2-1.6,0.3-2.5c2.1,0.5,3.9,1,5.7,1.5c0.5,0.2,0.9,0.3,1.4,0.5c-0.2,3-0.3,5.9-0.5,8.9
		c-2.3,1-4.6,2-6.9,2.9c0-0.5-0.1-0.9-0.1-1.4C165.6,141.1,165.6,137.8,165.7,134.5z"/>
	<path class="st4" d="M741.6,166.5c0.6-0.6,1.3-1.2,1.9-1.9c0,4.6,0.1,9.3,0.1,13.9c-0.7,6.1-1.3,12.2-2.1,18.2
		c-0.1,1-1.1,1.8-1.7,2.7C740.4,188.5,741,177.5,741.6,166.5z"/>
	<path class="st19" d="M226.8,212.5c3.2-1.1,4.6,1.5,6.4,3.2c-0.1,1.6-0.3,3.2-0.4,4.9c-1.1,0.9-2.2,1.9-3.3,2.8c-1.6,0-3.2,0-4.9,0
		C222.5,219.1,224.6,215.8,226.8,212.5z"/>
	<path class="st4" d="M119.6,198.5c-0.6,0.7-1.3,1.3-1.9,2c-1.8-5.3-3.6-10.5-5.4-15.8c1.1-1.7,2.1-3.5,3.2-5.2
		C116.9,185.8,118.3,192.2,119.6,198.5z"/>
	<path class="st11" d="M165.7,145.8c2.3-1,4.6-2,6.9-2.9c-0.4,5.7-0.8,11.5-1.2,17.2c-1.2-2.5-2.5-5.1-3.7-7.6
		C167,150.2,166.3,148,165.7,145.8z"/>
	<path class="st9" d="M354.5,219.5c-2.3-1.7-4.6-3.3-6.9-5c-0.7-1.7-1.3-3.3-2-5c2.7-0.9,5.3-1.8,8-2.7c0.5,3.7,0.9,7.4,1.4,11
		C354.8,218.4,354.7,218.9,354.5,219.5z"/>
	<path class="st20" d="M903.5,108.3c-0.6,0.2-1.3,0.4-1.9,0.6c-6.6,2.1-6.6,2.1-2.8,9.5c-3.8-1.4-6.4-2.3-7.8-2.8
		c1.5-4.1,2.6-7.3,3.7-10.4l0.1-0.2c2.5-0.1,4.9-0.1,7.4-0.2C902.7,106,903.1,107.1,903.5,108.3z"/>
	<path class="st18" d="M896.5,187.8c0.6-4.8,1.2-9.6,1.9-14.4c0-1.9,0-3.8,0-5.7c0.5-2.5,1-4.9,1.4-7.4c0.6,1,1.2,2.1,1.8,3.1
		c-0.1,0.7-0.2,1.5-0.2,2.2c-0.1,0.4-0.2,0.8-0.3,1.1c-0.2,8.6-0.5,17.3-0.7,25.9C899,191,897.8,189.4,896.5,187.8z"/>
	<path class="st21" d="M242.3,181.3c-4.2-0.1-4.8,3.2-5.7,6.2c-0.6,0.7-1.2,1.3-1.8,2c1-6,1.9-12,2.9-18c1.3,0,2.7,0,4,0
		C241.9,174.8,242.1,178,242.3,181.3z"/>
	<path class="st16" d="M333.7,224.4c5.4,0,10.8,0.1,16.3,0.1c-1.2,0.8-2.2,2.1-3.5,2.3c-8.2,1.6-16.5,2.3-24.7-0.3
		c1-0.4,1.9-0.8,2.9-1.1C327.9,226.8,331,227.7,333.7,224.4z"/>
	<path class="st20" d="M711.7,117.5c-0.2,6.3-0.8,7-6.6,6.6c0.7-3.5-4.1-6.6-0.5-10.4C706.9,115,709.3,116.3,711.7,117.5z"/>
	<path class="st16" d="M251.8,183.7c-0.7-0.5-1.5-0.9-2.2-1.4c0.8-1.2,1.6-2.4,2.3-3.6c1.2-0.4,2.4-0.8,3.6-1.2
		c0.1,0.7,0.2,1.5,0.3,2.2c1.8,3.7,3.7,7.4,5.8,11.8c-0.3,0.1-1.7,0.6-3.1,1.1c-1.3-1.5-2.6-2.9-3.7-4.4
		C253.7,186.7,252.8,185.1,251.8,183.7z"/>
	<path class="st4" d="M840.5,211.5c0.4-4.1,0.1-7.9-3.1-11.1c-0.9-0.9-1.1-2.5-1.6-3.9c4.8,0.6,7.5,3.5,8.8,8.1
		c-0.6,3.6-1.3,7.2-1.9,10.8C842,214.2,841.3,212.9,840.5,211.5z"/>
	<path class="st19" d="M165.8,11.5c0.1-4.2-1.5-9,3.8-11.5c1.4,1.2,2.8,2.3,4.2,3.5c-0.4,2.2-0.7,4.5-1.1,6.7
		C170.3,10.7,168,11.1,165.8,11.5z"/>
	<path class="st19" d="M242.3,190.7c0.9-0.4,1.9-1.3,2.7-1.1c1.5,0.4,2.8,1.3,4.2,2c-0.9,3.6-1.8,7.2-2.7,10.9
		c-1.3,0.2-2.6,0.3-3.8,0.5c-0.1-0.5-0.2-1.1-0.3-1.6C242.3,197.8,242.3,194.2,242.3,190.7z"/>
	<path class="st7" d="M948.7,205.5c0.7-4.2,0.2-8.9,4.9-11.3c5,4.4,5,5,0.6,9.4c-0.6,0.6-1,1.3-1.5,1.9
		C951.3,205.5,950,205.5,948.7,205.5z"/>
	<path class="st19" d="M171.8,97.1c-0.2,2.7-0.4,5.4-0.7,8.1c-2.2,1.5-4.3,1.9-5.8-0.9c0.1-3.3,0.2-6.5,0.2-9.8
		c0.8-0.2,1.7-0.7,2.4-0.4c1.3,0.5,2.5,1.3,3.8,2c0.1,0.2,0.2,0.4,0.2,0.7C172,96.9,171.8,97,171.8,97.1z"/>
	<path class="st16" d="M335.6,150.4c2.3,0.4,4.7,0.7,7,1.1c0.3,0.7,0.5,1.4,0.8,2.1c-9.2-0.1-18.5-0.3-27.7-0.4
		c-0.1-0.2-0.1-0.5-0.1-0.7c0.4-0.7,0.7-1.4,1.1-2.1c2.4,0,4.7,0,7.1,0C327.7,150.4,331.7,150.4,335.6,150.4z"/>
	<path class="st19" d="M171.7,63.4c-1.7,1.9-1,7.4-6.1,4c0-3.3,0-6.6,0-9.9c0.7-0.3,1.5-1.1,2-0.9c1.7,0.5,3.3,1.3,5,2
		c0,1.3,0,2.6,0.1,4C172.3,62.9,172,63.2,171.7,63.4z"/>
	<path class="st20" d="M952.6,205.5c0.5-0.6,1-1.3,1.5-1.9c4.4-4.4,4.4-5-0.6-9.4c0-0.5,0-0.9,0-1.4c2.3,1,4.6,1.9,6.9,2.9
		c0.4,2.6,0.8,5.2,1.1,7.8c0,0.3-0.1,0.7-0.1,1c-2.3,0.7-4.5,1.4-6.8,2.1C954,206.3,953.3,205.9,952.6,205.5z"/>
	<path class="st20" d="M668.4,165.4c0.1,0.9,0.2,1.8,0.2,2.6c-4.5,2.3-9,4.5-13.6,6.8c-1.2-0.5-2.4-1-3.6-1.5
		C657.1,170.7,662.8,168,668.4,165.4z"/>
	<path class="st20" d="M727.8,182.5c-1.4-1.2-3.6-2.1-4-3.5c-1-3.9,2-5,5.1-5.6c0.4,0.1,0.8,0.1,1.2,0.2c0.3,2.7,0.5,5.3,0.8,8
		C729.9,181.9,728.9,182.2,727.8,182.5z"/>
	<path class="st11" d="M1039.9,87.3c-4.6-1.3-4-5.4-4.2-8.7c-0.2-3.1-0.5-5.9-3.9-7.1c4-3.2,5.1-3,6,1.7S1039.2,82.6,1039.9,87.3z"
		/>
	<path class="st20" d="M703.6,205.2c0.4-2.6,0.7-5.1,1.1-7.7c0.6-1,1.2-2,1.9-3c1.5,0,2.9,0,5.5,0c-1,3.2-1.7,5.6-2.5,8.1
		C707.6,203.5,705.6,204.3,703.6,205.2z"/>
	<path class="st0" d="M750.6,178.5c0-2.7-0.2-5.5,0-8.2c0.1-1.4,1-2.8,1.6-4.1c0.1,4.8,0.3,9.6,0.4,14.5c0,5.2,0,10.5,0,15.7
		c-0.6-1.2-1.8-2.4-1.8-3.7C750.6,187.9,750.7,183.2,750.6,178.5z"/>
	<path class="st6" d="M952.6,205.5c0.7,0.4,1.4,0.8,2.1,1.2c0,2.4,0,4.7,0,8.5c-2.8-1.7-5.5-3.3-8.2-4.9c0.7-1.6,1.5-3.1,2.2-4.7
		C950,205.5,951.3,205.5,952.6,205.5z"/>
	<path class="st18" d="M869.6,200.5c-1.2-1.1-3.3-2-3.5-3.2c-0.8-4.9-0.9-9.8-1.3-14.7c0.4-0.1,0.9-0.1,1.3-0.2
		c0.3,1.1,0.6,2.1,0.9,3.2C867.9,190.5,868.8,195.5,869.6,200.5z"/>
	<path class="st11" d="M151.8,198.5c0.8,1.3,2,2.6,2.2,4c0.3,1.9-0.2,3.9-0.4,5.8c-1.7,1-3.5,2.1-5.2,3.1
		C147.9,206.7,147.8,202.1,151.8,198.5z"/>
	<path class="st19" d="M169.9,217.8c-5.7-1.4-4.3-5.4-3.3-9.3c1.8,1.5,2.9,4.9,6.1,1.9c0.6,0.1,1.3,0.2,1.9,0.4
		C175.4,214.7,174.5,217.4,169.9,217.8z"/>
	<path class="st9" d="M343.5,153.6c-0.3-0.7-0.5-1.4-0.8-2.1c0-0.7,0-1.4,0-2c3.3-0.3,6.6-0.6,9.9-0.9c0.7,0.9,1.3,1.9,2,2.8
		c-1.7,0.8-3.5,1.6-5.2,2.6C347.3,155.1,345.3,156.2,343.5,153.6z"/>
	<path class="st22" d="M1005.6,167.4c0.8-0.9,1.5-2.7,2.3-2.7c5.9,0.1,11.9,0.5,17.8,0.8c-2.5,0.7-4.9,1.8-7.4,1.9
		C1014.1,167.8,1009.9,167.4,1005.6,167.4z"/>
	<path class="st9" d="M260.9,199.4c2.3-2.2,4.5-4.5,7-6.5c1.3-1.1,3.1-1.6,4.7-2.4c0.4,1.3,0.8,2.6,1.2,4c-5.1,0.5-7.4,4.6-10.2,8.1
		C262.7,201.5,261.8,200.5,260.9,199.4z"/>
	<path class="st19" d="M193.9,115.6c-0.1,0.2-0.1,0.5-0.1,0.8c-1.9,1.7-3.8,3.4-5.7,5c-1.3-1-2.6-2-4.5-3.4c2.8-2.4,4.8-4.1,6.9-5.8
		c0.7-0.6,1.4-1.2,2.1-1.9C192.9,112.1,193.4,113.9,193.9,115.6z"/>
	<path class="st18" d="M866,158.4c0.2-3.7,0.1-7.5,0.7-11.2c0.3-1.7,1.9-3.1,3-4.7c-0.7,5.7-1.4,11.4-2,17
		C867.1,159.2,866.5,158.8,866,158.4z"/>
	<path class="st10" d="M770.8,47.5c-6.3,0.1-12.6,0.2-19,0.3C758.1,42.9,764.5,45.4,770.8,47.5z"/>
	<path class="st17" d="M345.6,209.5c0.7,1.7,1.3,3.3,2,5c-2.5,1.7-4.9,3.4-7.4,4.9c-3.1,1.9-5.6,1.7-7.3-2.9
		c4.8,0.6,9.9,2.1,10.6-4.8c0.4-0.6,0.7-1.1,1.1-1.7C344.9,209.9,345.3,209.7,345.6,209.5z"/>
	<path class="st6" d="M966.5,130.4c-4-0.5-8-1-12-1.6c0.3-3.9,1.9-4.5,8.9-3.3C964.5,127.2,965.5,128.8,966.5,130.4z"/>
	<path class="st18" d="M957.5,167.2c-0.3,6-0.5,12-1,17.9c-0.1,0.9-1.7,1.6-2.7,2.4C955,180.7,956.3,174,957.5,167.2z"/>
	<path class="st18" d="M727.8,182.5c1-0.3,2.1-0.6,3.1-0.9c0.1,5.1,0.2,10.1,0.3,15.2c-0.6-0.7-1.1-1.5-1.7-2.2
		C728.9,190.5,728.4,186.5,727.8,182.5z"/>
	<path class="st22" d="M753.7,82.7c-0.4-6.3-0.7-12.6-1.4-18.9c-0.3-2.3-0.6-4.2,2-5.3c0.1,7.4,0.3,14.7,0.3,22.1
		C754.5,81.3,754,82,753.7,82.7z"/>
	<path class="st11" d="M223.1,106.5c-3.4-0.9-8.6,2.6-9.6-4c3.6-1.1,7.2-2.7,10.3,0.9C223.6,104.4,223.3,105.4,223.1,106.5z"/>
	<path class="st6" d="M285.6,146.7c0,1.9,0,3.9,0,5.8c-1.7-0.1-3.4-0.2-5.1-0.3c-1.3-0.9-2.7-1.8-4-2.7c0-1.1,0-2.1,0-3.2
		C279.6,146.4,282.6,146.6,285.6,146.7z"/>
	<path class="st18" d="M891.8,173.4c-1,3.7,1.1,8.2-3,11c0.3-5.6,0.7-11.2,1-16.9c0.6,0.3,1.3,0.7,1.9,1
		C891.7,170.2,891.7,171.8,891.8,173.4z"/>
	<path class="st20" d="M729.4,144.4c-1.6,0-3.2,0-4.9,0c-2-3.8-0.6-6.6,2.2-9C730.5,137.5,729.8,141,729.4,144.4z"/>
	<path class="st17" d="M255.8,179.7c-0.1-0.7-0.2-1.5-0.3-2.2c0.1-0.3,0.1-0.7,0.2-1c3.6,1.4,7.2,3,10.7-0.1
		c0.7,0.1,1.5,0.1,2.2,0.2c0,1.6,0,3.3-0.1,4.9C264.3,180.9,260,180.3,255.8,179.7z"/>
	<path class="st23" d="M847.8,152.5c4.1,4.7,4.1,10.4,0.1,13.8C847.9,161.8,847.8,157.1,847.8,152.5z"/>
	<path class="st4" d="M514.5,153.6c0.7-1.1,1.5-2.3,2.2-3.4c2,3.4,4,6.9,6,10.3c-0.5,0.6-1,1.2-1.5,1.7
		C519,159.3,516.8,156.4,514.5,153.6z"/>
	<path class="st0" d="M889.8,141.3c0.6,0.8,1.6,1.5,1.7,2.3c0.5,6,0.8,11.9,0,17.9c-0.1,0.8-1.1,1.5-1.7,2.3
		C889.8,156.2,889.8,148.8,889.8,141.3z"/>
	<path class="st19" d="M167.7,152.5c1.2,2.5,2.5,5.1,3.7,7.6c0,0.8,0.1,1.7,0.1,2.5c-0.3,0.3-0.6,0.6-0.9,0.9c-0.3,0-0.6,0-0.8,0.2
		c-1.4,0-2.8-0.1-4.1-0.1c0-3.3-0.1-6.6-0.1-9.9C166.2,153.2,166.9,152.8,167.7,152.5z"/>
	<path class="st7" d="M732.8,225.6c-0.7-1.4-1.4-2.8-2.1-4.2c0-2.5,0-5.1,0-7.7c0.7-0.5,1.4-1,2.1-1.4
		C735,216.7,735.7,221.1,732.8,225.6z"/>
	<path class="st18" d="M289.2,219.7c2.1-0.1,4.2-0.2,6.4-0.4c2.7,0.6,5.5,1.3,8.2,1.9c0.6,0.1,1.2,0.3,1.8,0.4
		c0.3,0.9,0.7,1.8,1,2.8C300.8,222.8,295,221.3,289.2,219.7z"/>
	<path class="st20" d="M682.4,205c0.1,1.6,0.3,3.2,0.4,4.8c-1.7,0.7-3.4,1.5-5.1,2.2c-0.7-0.7-1.3-1.3-2-2c0-1.5,0.1-2.9,0.1-4.4
		C678,205.4,680.2,205.2,682.4,205z"/>
	<path class="st16" d="M325.7,106.5c-2.1-1-4.1-1.9-6.2-2.9c4.6-1.3,9.2-4,13.1,1.3c-0.3,0.2-0.6,0.4-0.9,0.6
		C329.6,105.8,327.7,106.2,325.7,106.5z"/>
	<path class="st11" d="M224.7,223.3c1.6,0,3.2,0,4.9,0c3.8,0.5,7.6,0.9,11.4,1.4C233.4,229.2,228.8,228.8,224.7,223.3z"/>
	<path class="st21" d="M960.5,146.6c0,4.8,0.2,9.7-0.2,14.5c-0.1,1.4-1.7,2.7-2.7,4c-0.1-6.2-0.2-12.4-0.4-18.6
		C958.4,146.5,959.5,146.5,960.5,146.6z"/>
	<path class="st4" d="M752.3,162.4c-0.5-4.6-1.4-9.2-1.5-13.8c-0.1-2.6,1.1-5.1,1.7-7.7C752.4,148.1,752.3,155.3,752.3,162.4z"/>
	<path class="st23" d="M850.6,189.5c0,2.1,0.5,4.4-0.1,6.3c-0.6,2-2.3,3.7-3.5,5.5C847.5,197.1,844.2,191.8,850.6,189.5z"/>
	<path class="st18" d="M675.7,210c0.7,0.7,1.3,1.3,2,2c-5.9,0.4-11.8,2.8-17.5-0.9c0.8-0.3,1.7-0.6,2.5-0.9
		C667,210.2,671.3,210.1,675.7,210z"/>
	<path class="st0" d="M750.9,125.3c0-0.3-0.1-0.6-0.3-0.8c0.1-7.3,0.2-14.7,0.3-22c0.6,2,1.2,4.1,1.7,6.1
		c-0.1,5.9-0.1,11.8-0.2,17.7C751.9,126,751.4,125.6,750.9,125.3z"/>
	<path class="st4" d="M752.7,196.4c0-5.2,0-10.5,0-15.7c0.4,7.9,0.7,15.7,1.1,23.6C753.4,201.6,753,199,752.7,196.4z"/>
	<path class="st20" d="M896.5,187.8c1.3,1.6,2.5,3.3,3.8,4.9c-0.1,0.6-0.1,1.2-0.2,1.8c-3.1-0.5-6.1-1-9.2-1.4
		C891,189.4,892.9,187.7,896.5,187.8z"/>
	<path class="st23" d="M901.6,163.4c-0.6-1-1.2-2.1-1.8-3.1c0.7-7.2,1.4-14.4,2.1-21.7c0.2,0,0.4,0,0.6,0
		C902.2,146.9,901.9,155.1,901.6,163.4z"/>
	<path class="st18" d="M1030.7,165.4c4.4-4.2,12-4.2,15.8,0C1041.3,165.5,1036,165.4,1030.7,165.4z"/>
	<path class="st6" d="M888.7,211.5c0.7-0.6,1.8-1,2.2-1.8c1.9-4.5,5.7-4.5,9.6-4.2C897.6,209.6,894.4,213.1,888.7,211.5z"/>
	<path class="st23" d="M866,158.4c0.6,0.4,1.1,0.8,1.7,1.2c0,2.1-0.1,4.2-0.1,6.3v-0.1c-0.2,6.6-0.4,13.2-0.6,19.8
		c-0.3-1.1-0.6-2.1-0.9-3.2c0-1.9,0-3.9,0-5.8c0-0.4,0.1-0.7,0.1-1.1c0-2.4,0.2-4.8,0.1-7.2c0-0.6-0.9-1.2-1.5-1.8
		C865.2,163.8,865.6,161.1,866,158.4z"/>
	<path class="st18" d="M752.7,108.6c-0.6-2-1.2-4.1-1.7-6.1c-0.5-3.2-0.6-6.4,2.9-8.2C753.4,99.1,753.1,103.9,752.7,108.6z"/>
	<path class="st18" d="M686.1,122.6c0.6-0.8,1.2-1.5,2.2-2.9c3.4,2.2,6.9,4.5,10.4,6.7C694.6,125.1,690.4,123.9,686.1,122.6z"/>
	<path class="st4" d="M869.7,129.7c0-3.5,0.1-7,0.1-10.5c0-1.1,0-2.3,0-3.4C873.4,119.8,873.4,125.5,869.7,129.7z"/>
	<path class="st20" d="M904.3,122.6c0.4,2.6,0.7,5.2,1.1,7.8c-2.2-0.9-4.5-1.7-6.9-2.7c1-2.2,2.2-4.7,3.4-7.2
		C902.7,121.2,903.5,121.9,904.3,122.6z"/>
	<path class="st18" d="M1064.6,197.5c4.6,3.9,5.1,10,1.2,13.6C1065.4,206.6,1065,202,1064.6,197.5z"/>
	<path class="st16" d="M891.7,136.5c-0.6,0.3-1.3,0.6-1.9,1c-0.4-4.7-0.8-9.3-1.2-14c1.1,2.8,2.2,5.6,3.3,8.4
		C891.9,133.3,891.8,134.9,891.7,136.5z"/>
	<path class="st18" d="M657.7,113.9c-4.7,1.2-9.3,2.3-14,3.5C647.4,112.3,652.6,113.3,657.7,113.9z"/>
	<path class="st18" d="M925.4,122.6c1.8-5.1,6.6-2.2,9.7-3.7c0.7,0.1,1.4,0.1,2.1,0.2c0.5,0.8,0.9,1.7,1.4,2.5
		C934.2,122,929.8,122.3,925.4,122.6z"/>
	<path class="st22" d="M797.6,83.3c0.3,6.6,0.7,13.2,0.8,19.7c0,1.1-1.3,2.3-2,3.4c0.1-6.5,0.2-13.1,0.3-19.6
		C796.8,85.6,797.3,84.5,797.6,83.3z"/>
	<path class="st18" d="M961.6,203.5c-0.4-2.6-0.8-5.2-1.1-7.8c1.3-1.7,2.6-3.3,3.9-5C963.4,194.9,962.5,199.2,961.6,203.5z"/>
	<path class="st7" d="M730.1,173.6c-0.4-0.1-0.8-0.1-1.2-0.2c0.2-3,0.4-6,0.6-9c1-0.7,2-1.4,3-2
		C732.9,166.4,733.6,170.4,730.1,173.6z"/>
	<path class="st16" d="M268.6,176.6c-0.7-0.1-1.5-0.1-2.2-0.2c-0.2-4.1-0.5-8.2-0.6-12.3c0-0.5,1.2-1.1,1.9-1.7
		C268,167.1,268.3,171.9,268.6,176.6z"/>
	<path class="st16" d="M355,217.8c-0.5-3.7-0.9-7.4-1.4-11c1.6,1.7,4.2,3.3,4.6,5.3C358.5,213.7,356.1,215.9,355,217.8z"/>
	<path class="st22" d="M853.9,218.3c4.1-0.6,8.2-1.3,12.3-1.9C862.5,219.4,858.5,220.8,853.9,218.3z"/>
	<path class="st4" d="M902.3,104.8c-2.5,0.1-4.9,0.1-7.4,0.2c0.5-5.8,4.7-4.2,8.9-4.4C903.2,102.4,902.7,103.6,902.3,104.8z"/>
	<path class="st18" d="M315.6,152.4c0,0.2,0.1,0.5,0.1,0.7c-9.4,0-18.8,0-28.1,0.1c3.7-0.3,7.4-0.6,11.1-0.9
		C304.3,152.4,309.9,152.4,315.6,152.4z"/>
	<path class="st19" d="M148.4,211.4c1.7-1,3.5-2.1,5.2-3.1c0.6,2,1.3,4.1,1.9,6.1c-1.3,0.6-2.6,1.2-3.9,1.9
		C148.3,216.2,148.3,213.9,148.4,211.4z"/>
	<path class="st7" d="M713.6,204.7c1.7,0.6,3.3,1.2,6.3,2.2c-2.7,2.8-4.4,4.7-6.2,6.6C713.6,210.5,713.6,207.6,713.6,204.7z"/>
	<path class="st11" d="M242.7,203c1.3-0.2,2.6-0.3,3.8-0.5c0,0.4,0.1,0.7,0.1,1.1c-0.1,1.3-0.1,2.6-0.2,3.9c0,2-0.1,4-0.1,6.1
		c-0.5,0-1,0.1-1.5,0.1c-0.7-1.4-1.4-2.7-2.2-4.1C242.7,207.4,242.7,205.2,242.7,203z"/>
	<path class="st18" d="M358.7,148.4c-0.7-1.9-1.4-3.8-2.1-5.7c0-0.8,0-1.5,0.1-2.3c0.6-1.2,1.2-2.3,1.8-3.5
		C359.7,140.7,362.7,144.5,358.7,148.4z"/>
	<path class="st18" d="M673.7,112.7c-3.1,1.8-6.2,4.8-9-0.3c3-0.3,6-0.6,9-0.9C673.7,111.9,673.7,112.3,673.7,112.7z"/>
	<path class="st7" d="M713.7,141.4c4.3,2.3,4.8,8.4,0.9,11C714.3,148.8,714,145.1,713.7,141.4z"/>
	<path class="st18" d="M871.6,81.6c-4,0.6-8,1.3-12,1.9C864.4,78.7,866.2,78.4,871.6,81.6z"/>
	<path class="st18" d="M754.7,57.1c3.2-5.1,6.1-5.6,12-2C762.7,55.8,758.7,56.4,754.7,57.1z"/>
	<path class="st10" d="M750.9,125.3c0.5,0.3,1.1,0.7,1.6,1c0,3.8,0,7.5,0.1,11.3C752,133.5,751.4,129.4,750.9,125.3z"/>
	<path class="st19" d="M223.1,106.5c0.2-1,0.5-2.1,0.7-3.1c2.6-0.1,5.2-0.3,7.8-0.4c0.1,2.9-0.3,5-4.2,3.7
		C226.2,106.2,224.6,106.5,223.1,106.5z"/>
	<path class="st12" d="M240.9,224.7c-3.8-0.5-7.6-0.9-11.4-1.4c1.1-0.9,2.2-1.9,3.3-2.8c3.2,0.7,6.3,1.3,9.5,2
		c0.5,0.1,0.9,0.1,1.4,0.2C242.8,223.4,241.9,224,240.9,224.7z"/>
	<path class="st4" d="M673.7,112.7c0-0.4,0-0.8,0-1.2c5.4,0,10.8,0,16.2,0C684.4,111.9,679,112.3,673.7,112.7z"/>
	<path class="st22" d="M172.6,10.2c0.4-2.2,0.7-4.5,1.1-6.7c3,4.3,2,8.6-0.1,12.9C173.2,14.4,172.9,12.3,172.6,10.2z"/>
	<path class="st19" d="M243.8,222.7c-0.5-0.1-0.9-0.1-1.4-0.2c0-4,0.1-7.9,0.1-11.9c0-0.3,0.1-0.7,0.1-1c0.7,1.4,1.4,2.7,2.2,4.1
		c0.3,2.7,0.7,5.4,1,8.1v-0.1c-0.4,0.3-0.7,0.5-1.1,0.8C244.4,222.5,244.1,222.6,243.8,222.7z"/>
	<path class="st16" d="M306.6,224.4c-0.3-0.9-0.7-1.8-1-2.8c4.2-0.5,8.3-0.7,10.2,4.4C312.8,225.5,309.7,224.9,306.6,224.4z"/>
	<path class="st18" d="M171.7,63.4c0.3-0.3,0.6-0.6,0.9-0.8c0,9.9,0,19.8,0,29.7c-0.3-5.2-0.7-10.4-0.9-15.5
		C171.5,72.3,171.7,67.9,171.7,63.4z"/>
	<path class="st18" d="M966.7,172.7c-2.2-4.1-2.6-7.9,1.6-11C967.8,165.4,967.3,169.1,966.7,172.7z"/>
	<path class="st18" d="M1043.6,99.4c-4.7-2.8-4.6-6.8-2.8-11.3C1041.7,91.9,1042.7,95.6,1043.6,99.4z"/>
	<path class="st16" d="M960.5,146.6c-1.1,0-2.1-0.1-3.2-0.1c-0.2-2.3-0.5-4.6-0.7-7C960.9,140.2,960.7,143.4,960.5,146.6z"/>
	<path class="st20" d="M937.2,119.2c-0.7-0.1-1.4-0.1-2.1-0.2c-2.2-1.6-4.4-3.3-6.6-4.9c0.3-0.3,0.6-0.5,0.9-0.8
		C932.5,114.6,938.2,112.5,937.2,119.2z"/>
	<path class="st16" d="M358.2,135.5c-1.6-1.6-3.6-3-4.4-5c-0.4-0.9,1.7-2.8,2.6-4.3C357,129.4,357.6,132.5,358.2,135.5z"/>
	<path class="st17" d="M352.7,119.5c-6.7-0.8-7.2-1.6-5-7.3C349.4,114.6,351.1,117,352.7,119.5z"/>
	<path class="st18" d="M1023.7,436.9c3.3-1,6.5-2,9.8-2.9C1031.1,437.9,1027.7,438.4,1023.7,436.9z"/>
	<path class="st17" d="M266.4,205.7c4.3-4,5.9-3.9,9.6,0.4c-1.8,1.6-6.1-2.6-6.4,2.6C268.5,207.7,267.5,206.7,266.4,205.7z"/>
	<path class="st11" d="M241.7,107.3c-3.6,0.3-7.4,1.3-8.4-3.9C237.1,102.5,239.7,104.3,241.7,107.3z"/>
	<path class="st20" d="M729.5,194.6c0.6,0.7,1.1,1.5,1.7,2.2c0.1,0.2,0,0.4-0.2,0.6c-2,1.1-3.9,2.2-6.2,3.5c0-1.9,0-3.7,0-6
		C726.4,194.7,727.9,194.6,729.5,194.6z"/>
	<path class="st20" d="M662.7,210.3c-0.8,0.3-1.7,0.6-2.5,0.9c-0.8,0-1.7,0-2.5-0.1c1-1.9,2-3.7,3-5.5
		C661.4,207.1,662.1,208.7,662.7,210.3z"/>
	<path class="st18" d="M985.8,194.7c-0.7-1.2-1.3-2.3-2-3.5c1.8-1.9,3.7-3.8,5.5-5.7C988.1,188.5,986.9,191.6,985.8,194.7z"/>
	<path class="st18" d="M732.5,210.6c-4.6-2.2-5.2-5.3-1.8-9.4C731.3,204.3,731.9,207.5,732.5,210.6z"/>
	<path class="st22" d="M982.2,209.1c-3.4-4.2-1.2-7.1,2.1-9.7C983.6,202.6,982.9,205.9,982.2,209.1z"/>
	<path class="st18" d="M916.6,119.1c-2.8,4.1-7,1.7-10.6,2.3C908.8,117.4,912.7,118.3,916.6,119.1z"/>
	<path class="st4" d="M752.7,217.7c-0.6-0.5-1.7-1.1-1.6-1.4c0.8-3.3,1.8-6.5,2.8-9.8C754.4,210.4,756,214.3,752.7,217.7z"/>
	<path class="st18" d="M245.8,221.7c-0.3-2.7-0.7-5.4-1-8.1c0.5,0,1-0.1,1.5-0.1C246.8,216.3,252.4,219.4,245.8,221.7z"/>
	<path class="st18" d="M171.4,181.5c0-2,0-3.9,0-5.9C171.4,177.5,171.4,179.5,171.4,181.5z"/>
	<path class="st18" d="M246.4,207.5c0.1-1.3,0.1-2.6,0.2-3.9C246.5,204.9,246.5,206.2,246.4,207.5z"/>
	<path class="st12" d="M248.3,115.4c-0.9-0.7-1.7-1.3-2.6-2C246.5,114,247.4,114.7,248.3,115.4z"/>
	<path class="st18" d="M173.3,195.3c0-0.9-0.1-1.8-0.1-2.7C173.2,193.5,173.3,194.4,173.3,195.3z"/>
	<path class="st18" d="M171.5,187.4c0-0.6-0.1-1.3-0.1-1.9C171.4,186.2,171.4,186.8,171.5,187.4z"/>
	<path class="st11" d="M152.5,131.4c0.3,0.7,0.7,1.5,1,2.2C153.2,132.9,152.9,132.2,152.5,131.4z"/>
	<path class="st18" d="M244.7,222.4c0.4-0.3,0.7-0.5,1.1-0.8C245.5,221.9,245.1,222.1,244.7,222.4z"/>
	<path class="st0" d="M521.2,162.2c0.5-0.6,1-1.2,1.5-1.7c0.2,0,0.4,0.1,0.4,0.3c-0.5,0.6-0.9,1.1-1.4,1.7
		C521.6,162.3,521.4,162.2,521.2,162.2z"/>
	<path class="st18" d="M170.6,163.5c0.3-0.3,0.6-0.6,0.9-0.9c0.2,0.3,0.1,0.6-0.1,0.9H171H170.6z"/>
	<path class="st18" d="M867.6,165.8v0.1c0.1,0,0.2,0.1,0.3,0.1C867.8,165.9,867.7,165.8,867.6,165.8z"/>
	<path class="st23" d="M901,166.7c0.1-0.4,0.2-0.8,0.3-1.1C901.3,165.9,901.1,166.3,901,166.7z"/>
	<path class="st11" d="M171.8,95.7c0.2-0.4,0.4-0.8,0.5-1.2C172.2,94.9,172,95.3,171.8,95.7z"/>
	<path class="st20" d="M684.4,209.7c0.4,0.2,0.8,0.4,1.1,0.6C685.2,210.1,684.8,209.9,684.4,209.7z"/>
	<path class="st10" d="M94.7,66.6c-0.7-5.1-1.3-10.2-2-15.2c-0.6-3.7-1.2-7.5-2.1-11.1C90.3,39.2,89,38,88,37.7
		c-2.8-0.9-5.7-1.9-8.6-2c-19.1-0.5-38.2,0.3-57.1,3.6c-3.7,0.6-7.7,0.4-11.4-0.4C8.7,38.4,4.8,35.7,5,35c1.1-3.4,2.9-6.8,5.2-9.5
		c0.9-1.1,3.8-1,5.7-0.8c22.1,2.7,44.3,3.6,66.6,2c5-0.4,10,0.1,15-0.1c4.3-0.1,8.6-0.7,12.9-0.9c5.1-0.3,9.9,0,14.9,2.3
		c3.8,1.8,9,1.2,13.5,0.9c5.9-0.4,11.9-2.3,16.7,3c0.4,0.5,0.7,1,1.4,2.3c-3.1,0.5-5.6,1.2-8.1,1.3c-6.7,0.2-13.3,0.1-20,0.1
		c-4.4,0-7.7,1.6-8.6,6.5c-1.4,7.8-3,15.5-4.6,23.2c-0.3,1.4-0.8,2.8-1.1,4.3c-1.8-1.3-3.5-3.6-5.4-3.7
		C104.4,65.5,99.5,66.3,94.7,66.6z"/>
	<path class="st23" d="M112.3,184.7c1.8,5.3,3.6,10.5,5.4,15.8c-1.3,6.8-11.4,12.6-19.2,11c-1.1-0.2-2.2-0.7-3.4-0.9
		c-2.8-0.6-7.6-0.5-7.9-1.7c-1.2-4.3-2.1-9.4-0.8-13.5c3.8-11.9,5.8-24.1,6.4-36.5c0.4-7.8,0.6-15.6,0.8-23.4
		c5.9-4.1,11.5-2.7,16.9,1.1c0,1.6-0.1,3.3-0.1,4.9c-0.1,0.1-0.3,0.2-0.3,0.3c0.1,0.3,0.2,0.5,0.3,0.8c0,3,0,5.9,0,8.9
		c0,1,0,2-0.1,3c0.7,5.9,1.6,11.7,2,17.6c0.1,2.7-0.5,5.5-1.6,8C109.7,182.5,109.9,183.8,112.3,184.7z"/>
	<path class="st22" d="M110.5,136.6c-5.4-3.8-11-5.1-16.9-1.1c0.4-16.2,0.7-32.3,1-48.5c0.1-6.8,0-13.6,0.1-20.4
		c4.8-0.3,9.7-1.1,14.5-0.8c1.8,0.1,3.6,2.4,5.4,3.7C112.6,91.8,115.2,114.4,110.5,136.6z"/>
	<path class="st19" d="M172.8,126.9c-2.4-0.8-4.9-1.7-7.3-2.5c0-3.3,0-6.5,0-9.8c0.1-0.8,0.2-1.6,0.2-1.3c2.8,0.5,5.4,0.9,7.9,1.3
		C175.3,118.8,177.6,123.1,172.8,126.9z"/>
	<path class="st12" d="M173.6,114.6c-2.5-0.4-5.1-0.8-7.9-1.3c0-0.2-0.1,0.6-0.2,1.3c-1.8-0.2-3.5-0.3-5.3-0.5
		c-1.7-5.3,0.2-8.4,5.1-9.9c1.6,2.8,3.6,2.4,5.8,0.9C171.9,108.3,172.7,111.4,173.6,114.6z"/>
	<path class="st19" d="M165.4,17.6c0.5-0.8,1-1.6,1.4-2c1.6,0.7,3.1,1.3,4.5,1.9c-0.1,3.3-0.3,6.6-0.4,9.9c-1.6,1.4-3.1,3.7-5.4,0.9
		C165.4,24.8,165.4,21.2,165.4,17.6z"/>
	<path class="st19" d="M165.6,81.6c0.1-2.4,0.3-4.8,0.4-7.2c0.4-0.1,0.8-0.3,1.2-0.4c1.2,2.8,2.7,5.5,3.4,8.5c0.3,1.5-1,3.3-1.5,5
		c-1.1-1.3-2.3-2.6-3.4-3.9C165.6,82.8,165.6,82.2,165.6,81.6z"/>
	<path class="st22" d="M110.4,154.5c0-1,0-2,0.1-3C110.4,152.5,110.4,153.5,110.4,154.5z"/>
	<path class="st22" d="M110.4,142.5c-0.1-0.3-0.2-0.5-0.3-0.8c0-0.1,0.2-0.2,0.3-0.3C110.4,141.8,110.4,142.2,110.4,142.5z"/>
	<path class="st24" d="M521.2,162.2c0.2,0,0.4,0.1,0.5,0.2c7.7,5.8,10.3,5.7,16.7-1.2c2.5-2.8,4.8-5.8,7.1-8.7
		c1.5,0,2.9,0.1,4.4,0.1c-4.2,8.9-9,17.4-11.9,27c-1.6,5.3-5.8,9.9-9.3,14.4c-0.9,1.2-4.6,1.8-5.5,1c-3.3-3-6.2-6.6-8.9-10.3
		c-2.3-3.1-4.4-6.4-6-9.9c-2.6-5.8-4.7-11.8-7-17.7c0.9-3.5,3-4.7,6.5-3.9c1.9,0.4,3.9,0.3,5.8,0.4c0.3,0,0.5,0.1,0.8,0.1
		C516.8,156.4,519,159.3,521.2,162.2z"/>
	<path class="st24" d="M433.9,145.9c-1.9,9-4,18-5.6,27.1c-1,5.8-1.3,11.8-1.8,17.7c-0.8,8.2-1.3,16.4-2.4,24.6
		c-0.6,4.9-10.2,10.4-15.1,9.2c-3.7-0.9-4.8-3.3-3.5-7c5.1-14.7,10.4-29.3,15-44.2c2.6-8.5,4-17.3,6-26c0.2-0.9,0.9-1.8,1.3-2.6
		C429.9,145,431.9,145.4,433.9,145.9z"/>
	<path class="st25" d="M467.5,93.6c-2.8-4.3-5.3-8.7-8.3-12.9c-2.9-4-5.5-3.9-7.8,0.6c-1.8,3.5-2.5,7.4-3.8,11.1
		c-2.1-0.1-4.3-0.2-6.4-0.3c1.1-6.6,2.1-13.2,3.2-19.8c0-0.6,0.1-1.3,0.1-1.9h0.3c0.1-0.1,0.4-0.2,0.3-0.3c-0.1-0.3-0.2-0.5-0.3-0.8
		c0-1,0-1.9,0-2.9c2.2-0.7,4.5-2,6.6-1.9c5.8,0.3,11.6,1.1,17.5,1.8c0.2,0.1,0.5,0.1,0.7,0.1c4.3,8.7,8.6,17.3,13,26
		C477.5,92.9,472.5,93.3,467.5,93.6z"/>
	<path class="st26" d="M468.9,66.4c-5.8-0.6-11.6-1.5-17.5-1.8c-2.2-0.1-4.4,1.2-6.6,1.9c-0.1-3-0.3-6.1-0.4-9.1
		c-0.2-0.4-0.4-0.8-0.6-1.2c1-3.2,2.1-6.5,3.1-9.7c4.9,0,9.8,0,14.7,0c1.7,2.7,3.4,5.3,5.1,8c0.3,0.4,0.6,0.8,0.9,1.2
		c0.4,2.3,0.9,4.5,1.3,6.8c0.2,0.4,0.5,0.8,0.7,1.1c0,0.6,0,1.2,0,1.7C469.3,65.7,469.1,66.1,468.9,66.4z"/>
	<path class="st27" d="M513.7,153.5c-1.9-0.1-3.9,0-5.8-0.4c-3.5-0.8-5.7,0.4-6.5,3.9c-4.3-7.8-8.6-15.5-12.8-23.3
		c4-0.7,8-1.4,12.1-2.1C505,138.8,509.3,146.1,513.7,153.5z"/>
	<path class="st28" d="M467.5,93.6c5-0.4,10-0.8,15.1-1.1c4.4,4.8,6.8,10.3,6.3,16.9c-4.2-0.5-8.6-2.5-12.4,1.3
		C473.5,105,470.5,99.3,467.5,93.6z"/>
	<path class="st14" d="M444,106.5c-2.5,9.7-5,19.3-7.5,29c-2.3,0-4.6,0-6.8,0c1.5-7.8,3.1-15.5,4.6-23.3c0.4-1.9,1-3.8,1.5-5.7
		C438.5,106.6,441.3,106.5,444,106.5z"/>
	<path class="st28" d="M444,106.5c-2.7,0-5.5,0-8.2,0c1.8-4.8,3.6-9.6,5.4-14.4c2.1,0.1,4.3,0.2,6.4,0.3
		C446.4,97.2,445.2,101.8,444,106.5z"/>
	<path class="st27" d="M429.7,135.5c2.3,0,4.6,0,6.8,0c-0.9,3.5-1.7,6.9-2.6,10.4c-2-0.4-4-0.9-6-1.3
		C428.5,141.5,429.1,138.5,429.7,135.5z"/>
	<path class="st12" d="M461.6,46.5c-4.9,0-9.8,0-14.7,0c1.3-3.2,2.8-6.3,6.8-5.8C457.2,41.2,461.1,41.7,461.6,46.5z"/>
	<path class="st21" d="M444.5,70.5c0,0.6-0.1,1.3-0.1,1.9C444.4,71.8,444.5,71.2,444.5,70.5z"/>
	<path class="st21" d="M469.6,63.7c-0.2-0.4-0.5-0.8-0.7-1.1C469.1,62.9,469.3,63.3,469.6,63.7z"/>
	<path class="st21" d="M467.5,55.7c-0.3-0.4-0.6-0.8-0.9-1.2C466.9,54.9,467.2,55.3,467.5,55.7z"/>
	<path class="st26" d="M444.8,69.5c0.1,0.3,0.2,0.5,0.3,0.8c0,0.1-0.2,0.2-0.3,0.3C444.8,70.2,444.8,69.8,444.8,69.5z"/>
	<path class="st21" d="M468.9,66.4c0.2-0.3,0.5-0.7,0.7-1c0,0.4,0,0.8,0,1.1C469.4,66.5,469.1,66.4,468.9,66.4z"/>
	<path class="st21" d="M443.7,56.3c0.2,0.4,0.4,0.8,0.6,1.2C444.2,57.1,444,56.7,443.7,56.3z"/>
	<path class="st4" d="M866.1,176.5c0,1.9,0,3.9,0,5.8c-0.4,0.1-0.9,0.1-1.3,0.2c0-5.3,0-10.7,0.1-16c0.5,0.6,1.4,1.1,1.5,1.8
		c0.1,2.4,0,4.8-0.1,7.2C866.2,175.8,866.2,176.2,866.1,176.5z"/>
	<path class="st18" d="M710.3,164.4c-6.7,0.4-13.4,0.8-20.1,0.9c-0.5,0-1.1-1.8-1.7-2.7l0.1-0.1c5.3-0.2,10.6-0.4,15.9-0.5
		c1.9,0.6,3.9,1.2,5.8,1.8C710.3,164,710.3,164.2,710.3,164.4z"/>
	<path class="st20" d="M730.7,213.7c0,2.6,0,5.1,0,7.7c-2.1,0-4.2,0-6.6,0c0-2.6,0-4.8,0-7.6C726.3,213.7,728.5,213.7,730.7,213.7z"
		/>
	<path class="st20" d="M710.3,163.8c-1.9-0.6-3.9-1.2-5.8-1.8c0.1-1.5,0.1-3,0.2-4.5c2.3-0.9,4.6-1.7,6.9-2.6
		C711.2,157.9,710.7,160.8,710.3,163.8z"/>
	<path class="st20" d="M712.6,188.5c0.3-1,0.6-2.1,0.9-3.1c2.2,0.7,5,0.7,6.4,2.2c1.6,1.8-1.2,3.7-4.2,2.4
		C714.7,189.5,713.7,189,712.6,188.5z"/>
	<path class="st18" d="M714.7,181.4c0.6-2.9,1.2-5.9,1.7-8.8C719.7,178.2,719.5,179.3,714.7,181.4z"/>
	<path class="st20" d="M716.4,171.6c-0.6-0.6-1.2-1.3-1.8-1.9c0.9-1.3,1.7-2.6,2.8-3.7c0.2-0.2,2,0.6,2.3,1.3
		C721.2,170.5,718.6,171,716.4,171.6z"/>
	<path class="st24" d="M638.8,180c-4.2,4.1-7.5,8.6-7.1,15c0.3,5.4,2.3,8.4,8.1,10.5c2,1.3,4.1,2.5,6.1,3.8c1.6,2.5,3.1,5.1,5,8.1
		c-5.6,2.2-10.7,4.9-16.3,6.4c-5.5,1.5-7.2-0.3-7.5-6c-1.1-17.7-2.1-35.5-3.1-53.2c1.8-6.5,4.1-7.5,10.5-4.6
		c0.6,0.3,1.2,0.5,1.9,0.7C637.1,167,638,173.5,638.8,180z"/>
	<path class="st25" d="M580.3,91.1c0.8-2.5,1.6-5,2.3-7.6c0.2-1,0.4-2.1,0.6-3.1c4.2-5.6,8.3-11.2,12.5-16.9
		c2.1-0.3,4.2-0.7,6.3-0.7c6.7,0.1,13.4,0.4,20,0.6c1.1,10.4,2.2,20.7,3.2,31.1c-3.1,0-6.2-0.3-9.3,0.1c-1.3,0.1-2.5,1.4-3.7,2.1
		c-1.2-6.1-2.1-12.4-3.9-18.4c-0.7-2.5-3.2-5.2-5.5-6.1c-1.1-0.4-4.2,2.6-5.7,4.6c-3.7,5.1-7,10.6-10.5,15.9
		C584.7,92.2,582.5,91.7,580.3,91.1z"/>
	<path class="st27" d="M636.3,160.6c-0.6-0.2-1.3-0.4-1.9-0.7c-6.4-2.9-8.6-1.9-10.5,4.6c-4.1-7.5-4-15.9-5.3-24
		c-0.5-3.3-0.6-6.7-0.9-10c4.2-1.1,8.4-3,12.8-1C632.5,139.9,634.4,150.2,636.3,160.6z M620.8,134.7c0.3,0.1,0.6,0.1,0.9,0.2
		c0.2-0.9,0.4-1.8,0.6-2.7c-0.4-0.1-0.7-0.1-1.1-0.2C621.1,132.8,620.9,133.8,620.8,134.7z"/>
	<path class="st28" d="M612.5,96.7c1.2-0.7,2.4-2,3.7-2.1c3.1-0.3,6.2-0.1,9.3-0.1c0.7,6,1.4,12,2.1,18c-4.4-0.6-8.4,0.2-12,3
		C614.5,109.2,613.5,103,612.5,96.7z"/>
	<path class="st14" d="M615.6,115.5c3.6-2.8,7.6-3.5,12-3c1,5.7,2,11.3,3,17c-4.5-1.9-8.6-0.1-12.8,1
		C617,125.5,616.3,120.5,615.6,115.5z"/>
	<path class="st28" d="M580.3,91.1c2.2,0.5,4.4,1.1,6.6,1.6c-5.7,9-11.4,18-17.1,27c-1.2-1.2-2.3-2.3-3.5-3.5
		c2.4-4.8,4.8-9.6,7.3-14.3c1.8-3.3,3.9-6.3,5.8-9.5c0.3-0.4,0.5-0.7,0.8-1.1L580.3,91.1z"/>
	<path class="st27" d="M549.9,152.6c-1.5,0-2.9-0.1-4.4-0.1c4.3-8,8.6-16,12.9-24c1.4,1,2.7,2,4.1,3
		C558.4,138.5,554.2,145.5,549.9,152.6z"/>
	<path class="st20" d="M645.9,209.2c-2-1.3-4.1-2.5-6.1-3.8c1.8-1.1,4-1.8,5.3-3.3c1.6-1.9,2.5-4.5,3.7-6.8c2.3,1.3,4.7,2.6,7,3.8
		c-2,1.1-4,2.1-5.1,2.7c-0.8,2.4-1.5,4.4-2.2,6.4C647.6,208.6,646.7,208.9,645.9,209.2z"/>
	<path class="st14" d="M562.6,131.4c-1.4-1-2.7-2-4.1-3c2.6-4.1,5.2-8.1,7.8-12.2c1.2,1.2,2.3,2.3,3.5,3.5
		C567.4,123.6,565,127.5,562.6,131.4z"/>
	<path class="st4" d="M1021.6,157.4c7,0,14,0.1,21,0.1c-5.1,0.5-10.2,1.1-15.3,1.5c-1.9,0.2-3.9,0-5.8-0.1
		C1021.5,158.4,1021.5,157.9,1021.6,157.4z"/>
	<path class="st22" d="M1021.6,157.4c-0.1,0.5-0.1,1-0.2,1.6c-4.1,2.3-8.2,2.7-12-0.6C1013.5,158,1017.5,157.7,1021.6,157.4z"/>
	<path class="st17" d="M303.8,221.2c-2.7-0.6-5.5-1.3-8.2-1.9c-0.3-1.2-0.6-2.5-0.9-3.6c3,0.6,5.9,1.2,9.3,1.9
		C303.9,218.2,303.9,219.7,303.8,221.2z"/>
	<path class="st17" d="M333.7,224.4c-2.7,3.3-5.8,2.4-9,1.1C328.6,220.5,329.3,220.4,333.7,224.4z"/>
	<path class="st26" d="M622.2,63.5c-6.7-0.2-13.4-0.5-20-0.6c-2.1,0-4.2,0.5-6.3,0.7c3.5-7.4,6.6-15,10.8-22c1.5-2.5,5.2-3.9,8.2-5
		c1.3-0.5,4,0.6,5,1.9c1.4,1.9,2.4,4.4,2.5,6.8C622.6,51.3,622.3,57.4,622.2,63.5z"/>
	<path class="st21" d="M583.3,80.4c-0.2,1-0.4,2.1-0.6,3.1c0-1,0-2,0-3.1C582.9,80.5,583.1,80.5,583.3,80.4z"/>
	<path class="st17" d="M274.8,142.5c0.3,0.7,0.6,1.3,1,2c0.3,0.6,0.6,1.2,0.9,1.8c0,1.1,0,2.1,0,3.2c-3.3-0.2-6.6-0.3-11-0.5
		C269,146.5,271.9,144.5,274.8,142.5z"/>
	<path class="st16" d="M255.4,165.6c0-0.8,0-1.5,0-2.3C255.4,164.1,255.4,164.9,255.4,165.6z"/>
	<path class="st10" d="M174.2,28.4c4.9,0,10,0.2,15.1,0c8.6-0.4,17.1-1.3,25.7-1.6c3.4-0.1,7,0.4,10.3,1.2c1.7,0.5,3,2.4,4.4,3.7
		c-1.7,1.9-3.4,5.5-5.2,5.6c-9.9,0.5-19.9,0.3-29.9-0.1c-5.4-0.2-10.8-1.2-16.3-1.7C174.1,35.2,172.7,33.2,174.2,28.4z"/>
	<path class="st0" d="M165.4,201.4c-0.9,0.3-1.9,0.6-2.8,0.9c-4.7,1-5.9,0-5.9-4.9c0-1.6,0.1-3.3,0.2-4.9c0.9-0.6,1.8-1.3,2.7-1.9
		c1.9,0.1,3.9,0.1,5.8,0.2C165.5,194.2,165.5,197.8,165.4,201.4z"/>
	<path class="st12" d="M165.5,190.6c-1.9-0.1-3.9-0.1-5.8-0.2c0-0.5,0.1-1.2-0.1-1.4c-3.8-4.3-0.5-5.4,2.9-6.3
		c0.9-0.3,1.9-0.2,2.9-0.3c1.1,0.4,2.2,0.7,3.2,1.1c0.2,1.4,0.5,2.9,0.7,4.3C166.7,187,165.5,188,165.5,190.6z"/>
	<path class="st12" d="M165.6,163.5c1.4,0,2.8,0.1,4.1,0.1c-0.4,1.7-0.9,3.3-1.3,5c-1,1-2,2-2.9,2.9c-4.9,0.4-6.5-2-5.6-6.5
		C162,164.5,163.8,164,165.6,163.5z"/>
	<path class="st19" d="M165.5,171.6c1-1,2-2,2.9-2.9c0,4.9,0.1,9.9,0.1,14.8c-1.1-0.4-2.2-0.7-3.2-1.1
		C165.4,178.8,165.5,175.2,165.5,171.6z"/>
	<path class="st12" d="M167.7,152.5c-0.7,0.4-1.5,0.8-2.2,1.1c-0.8-0.1-1.9,0.2-2.4-0.3c-1.5-1.5-2.8-3.2-4.2-4.9
		c1.3-1.1,2.5-2.2,3.9-3.1c0.8-0.5,1.8-0.6,2.7-0.9c0,0.5,0.1,0.9,0.1,1.4C166.3,148,167,150.2,167.7,152.5z"/>
	<path class="st6" d="M335.5,116.8c-4.5,2.2-7.1-2.2-10.8-3.1c-0.1-0.7-0.2-1.4-0.3-2.1c2.5-2.4,5.3-2.3,8.3-1.1
		C336.4,111.3,337.4,113.4,335.5,116.8z"/>
	<path class="st17" d="M356.7,140.4c0,0.8,0,1.5-0.1,2.3c-1.7-0.8-3.4-1.7-5.2-2.3c-2.2-0.7-4.5-1.2-6.7-1.8c0-1.4,0-2.7,0-4.1
		C350.3,133.2,352.9,138,356.7,140.4z"/>
	<path class="st16" d="M344.6,134.5c0,1.4,0,2.7,0,4.1c-1.4,0.6-2.8,1.2-4.3,1.8c0.2-4,0.3-8,0.5-11.9
		C345,128.7,344.4,131.9,344.6,134.5z"/>
	<path class="st17" d="M332.7,110.5c-3-1.2-5.8-1.3-8.3,1.1c-0.6-0.3-1.2-0.7-1.8-1c1-1.4,2-2.7,3.1-4.1c2-0.3,4-0.6,6-0.9
		C332,107.2,332.3,108.9,332.7,110.5z"/>
	<path class="st25" d="M580.3,91.3c-0.3,0.4-0.5,0.7-0.8,1.1C579.7,92,580,91.6,580.3,91.3z"/>
	<path class="st20" d="M891.7,136.5c0.1-1.6,0.2-3.1,0.3-4.7c1.2-0.4,2.4-0.8,3.9-1.3c0.9,2.5,1.8,4.7,2.6,7
		C896.3,137.1,894,136.8,891.7,136.5z"/>
	<path class="st19" d="M251.9,178.7c-0.8,1.2-1.6,2.4-2.3,3.6c-2.4-0.5-5.4,3.4-7.3-1c-0.2-3.3-0.4-6.5-0.6-9.8
		c0.1-0.3,0.2-0.6,0.1-0.9c0-0.7,0.1-1.5,0.1-2.2c0.6-5.9,1.2-11.9,1.7-17.8c1.5,2.9,3.6,3,6.2,1.6c2.9,6.3,2.9,6.3-6.1,16.4
		C246.5,171.8,254,171.8,251.9,178.7z"/>
	<path class="st19" d="M249.9,134.1c0.6,4.1,1.2,8.3,1.8,12.4c-3-0.4-5.9-0.8-8.9-1.2c-0.1-4.9-0.2-9.9-0.3-14.8
		C244.1,133.5,246.1,135.6,249.9,134.1z"/>
	<path class="st12" d="M249.9,134.1c-3.8,1.5-5.8-0.6-7.4-3.6c-1.2-0.6-2.4-1.2-3.6-1.8c1.1-1.4,2.3-2.9,3.4-4.3
		c2.4,0.8,4.9,1.5,7.3,2.3C249.8,129.1,249.8,131.6,249.9,134.1z"/>
	<path class="st12" d="M242.8,145.3c3,0.4,5.9,0.8,8.9,1.2c3.4,3.2-1.7,3.6-1.9,5.7c-2.6,1.4-4.7,1.2-6.2-1.6
		C243.4,148.8,243.1,147.1,242.8,145.3z"/>
	<path class="st12" d="M241.9,168.4c0,0.7-0.1,1.5-0.1,2.2C241.9,169.8,241.9,169.1,241.9,168.4z"/>
	<path class="st6" d="M891.8,173.4c0-1.6-0.1-3.2-0.1-4.8c2.2-0.3,4.5-0.6,6.7-0.9c0,1.9,0,3.8,0,5.7
		C896.2,173.4,894,173.4,891.8,173.4z"/>
	<path class="st18" d="M666.8,201.8c9.9,2,19.4-0.4,28.9-2.2c-2.7,1.3-5.3,2.7-8.1,3.9c-1.7,0.7-3.5,1-5.3,1.5
		c-2.2,0.2-4.4,0.4-6.6,0.6C672.8,204.3,668.3,206.7,666.8,201.8z"/>
	<path class="st19" d="M165.5,190.6c0.1-2.6,1.3-3.7,3.8-2.9c0.7,4.9,1.4,9.7,2.1,14.6c-2-0.3-3.9-0.6-5.9-0.9
		C165.5,197.8,165.5,194.2,165.5,190.6z"/>
	<path class="st17" d="M325.7,144.4c1,0,2,0.1,3,0.1c1.3,0.1,2.7,0.1,4,0.2c1,1.9,1.9,3.9,2.9,5.8c-3.9,0-7.9,0-11.8-0.1
		C324.4,148.3,325.1,146.4,325.7,144.4z"/>
	<path class="st16" d="M332.8,144.6c-1.3-0.1-2.7-0.1-4-0.2c3.9-1.4,7.9-2.8,11.8-4.2C340.8,146.7,335.7,143.8,332.8,144.6z"/>
	<path class="st17" d="M352.6,148.5c-3.3,0.3-6.6,0.6-9.9,0.9C347,144.2,348.6,144,352.6,148.5z"/>
	<path class="st16" d="M322.6,110.5c0.6,0.3,1.2,0.7,1.8,1c0.1,0.7,0.2,1.4,0.3,2.1c-0.8,0-1.5,0-2.3,0c-3.8,0-7.7,0.1-11.5,0.1
		c-0.5-0.1-1.1-0.2-1.6-0.4c1.6-2.7,3.4-4.5,7.1-3.2C318.2,110.9,320.5,110.5,322.6,110.5z"/>
	<path class="st16" d="M306,113.8c-2.1,0.8-4.2,1.6-6.4,2.4c-0.3-1.2-0.7-2.5-1-3.7C301.4,111.6,304,110.8,306,113.8z"/>
	<path class="st17" d="M308.4,143.5c1.1,0.3,2.2,0.6,3.3,0.9c1.7,2,3.3,3.9,5,5.9c-0.4,0.7-0.7,1.4-1.1,2.1
		c-5.6,0-11.3-0.1-16.9-0.1C301.9,149.4,305.1,146.4,308.4,143.5z"/>
	<path class="st16" d="M276.6,146.3c-0.3-0.6-0.6-1.2-0.9-1.8c8.6,0,17.2,0.1,25.8,0.1c-2.6,0.7-5.2,1.5-7.8,1.9
		c-2.7,0.4-5.4,0.2-8.1,0.2C282.6,146.6,279.6,146.4,276.6,146.3z"/>
	<path class="st0" d="M242.5,210.6c0,4-0.1,7.9-0.1,11.9c-3.2-0.7-6.3-1.3-9.5-2c0.1-1.6,0.3-3.2,0.4-4.9c0.7-2.5,1.4-5,2.1-7.5
		C238,209.1,240.2,209.8,242.5,210.6z"/>
	<path class="st2" d="M704.7,157.5c-0.1,1.5-0.1,3-0.2,4.5c-5.3,0.2-10.6,0.4-15.9,0.5c2.6-1.4,5.1-3.1,7.8-4
		C699,157.7,701.9,157.8,704.7,157.5z"/>
	<path class="st6" d="M316.7,150.3c-1.7-2-3.3-3.9-5-5.9c4.7,0,9.4-0.1,14-0.1c-0.7,2-1.3,4-2,6C321.4,150.3,319,150.3,316.7,150.3z
		"/>
	<path class="st18" d="M866.1,176.5c0-0.4,0.1-0.7,0.1-1.1C866.2,175.8,866.2,176.2,866.1,176.5z"/>
	<path class="st14" d="M620.8,134.7c0.1-0.9,0.3-1.9,0.4-2.8c0.4,0.1,0.7,0.1,1.1,0.2c-0.2,0.9-0.4,1.8-0.6,2.7
		C621.4,134.8,621.1,134.7,620.8,134.7z"/>
	<path class="st6" d="M310.9,113.8c3.8,0,7.7-0.1,11.5-0.1C318.6,113.7,314.8,113.7,310.9,113.8z"/>
</g>
<g id="Layer_2">
	<path class="st29" d="M197.4,246.7c3.9,3.6,4.3,7.1-1.5,8.1c-8.8,1.5-12.4,7.5-14.6,15c-1.7,5.8-3.6,11.8,6.2,11.1
		c1.9-0.2,3.6,0.4,3.6,2.8c0,1.7-1.3,2.6-2.8,2.6c-12.4-0.6-7.9,8.1-8.6,14.6c-0.4,4.3,6,12.4-3,12.6c-6.6,0-3-8.1-2.6-12.2
		c0.6-8.8-2.4-16.9,0-26.5c3.2-13.5,9.6-21.8,21-28C195.9,246.7,196.6,246.7,197.4,246.7z"/>
	<path class="st29" d="M368.4,309.6c-5.6-2.8-4.1-6-2.6-10.5c1.9-6,5.3-10.5,11.6-13.3c-6.8-8.1-14.3-3.9-21.2-2.6
		c-1.1,1.5-5.6,3.2,0.4,4.3c3,0.4,6.8,0,6.2,5.1c-0.4,2.8-0.6,6.4-3.6,7.1c-3.4,0.9-5.3-2.8-7.5-4.9c-4.5-5.1-8.6-10.5,1.5-13.7
		c3-4.1,6.8-7.9,3.4-13.1c-1.9-3.2-5.6-2.6-8.8-1.9c-5.8,1.1-9.6,4.1-10.5,10.3c-0.2,0.6-0.2,1.5-0.2,2.1c0.4,4.5-1.7,7.9-4.3,11.6
		c-4.5,6.2-6.2,13.1-1.1,19.7c4.7,6.2,11.1,6.6,18.2,3.6c4.9-1.9,9.8-2.4,13.7,2.4c2.1,2.4,4.1,5.8,7.5,1.5
		C374.2,313.3,371,310.9,368.4,309.6z M348.7,270.9c2.1-0.4,3,1.5,3,3.4c-0.2,3.6-3.2,5.1-6,6.4c-2.4-0.2-3-1.7-3-3.6
		C342.9,273.3,345.3,271.3,348.7,270.9z M346.4,309.2c-7.1-0.4-11.3-3.9-11.3-10.5c0-3,1.7-9.4,4.7-7.5c5.3,3.4,9.6,9.2,12.4,15
		C353.6,309.4,348.1,308.1,346.4,309.2z"/>
	<path class="st30" d="M401.8,366.5c4.1-7.3,4.5-14.1,4.9-20.8c0.2-2.6,1.1-5.3,4.3-4.7c3.9,0.6,2.4,3.6,1.7,6
		c-2.8,8.8-5.3,17.8-5.8,27c-0.2,2.6-0.4,5.1-3.6,5.3c-3,0.2-4.1-2.1-5.3-4.3c-3.9-7.1-7.7-14.1-12.2-22c-6.6,7.1-7.7,16-12.4,23.1
		c-1.3,1.9-1.7,5.1-4.9,4.5c-2.6-0.6-2.1-3.4-2.4-5.3c-1.9-9.4-3.6-18.8-5.6-28.2c-0.4-1.9-0.9-4.7,1.7-5.3c3.6-0.9,3.9,2.1,4.3,4.5
		c0,0.4,0,0.6,0,1.1c1.7,5.6,0,16,4.3,16c6.4,0,7.1-10.1,10.9-15.2c1.5-2.1,0.9-6.4,4.5-6.6c4.3-0.2,4.1,4.5,5.1,7.1
		C394.3,354.3,396.4,360.8,401.8,366.5z"/>
	<path class="st29" d="M427.5,287.2c-1.7-1.9-4.5-2.8-3.4-6.8c3.4-13.5-0.4-18.4-13.9-19c-5.3-0.2-7.9,1.5-7.1,7.3
		c1.5,8.3,2.4,16.9,0.9,24c-0.4,6.4-0.9,11.3-1.5,16.3c0,2.6,0,5.8,3,6c8.3,0.6,16.7-0.2,22.3-7.3
		C432.6,301.1,433.5,293.8,427.5,287.2z M414.6,268.1c3.6,0.4,5.6,3,5.6,7.1c-0.2,4.5-3.2,6.4-7.1,6.4c-6-0.2-2.6-5.3-3.4-8.1
		C408.9,270.5,409.9,267.7,414.6,268.1z M415.3,309.4c-5.6,0.6-6.4-3.6-5.6-7.7c0.9-4.5-3.9-11.8,4.9-13.3
		c6.2,0.6,10.9,3.4,10.9,9.4C425.5,303.9,421.7,308.6,415.3,309.4z"/>
	<path class="st29" d="M304.4,315.4c0-3-0.4-6.2-1.1-9.4c-2.6-12.4,1.7-25.2-2.8-37.4c0.2-3.2,4.1-8.3-3-9.4
		c-4.7-0.4-5.3,3.6-4.1,6.6c4.7,11.3-0.6,15.6-10.5,19.5c-8.8,3.6-11.1,12.2-8.3,20.8c2.8,8.3,10.1,8.3,16.9,6.2
		c4.5-1.5,5.8-0.2,5.8,4.1c0,2.4-0.9,5.6,3.2,5.3C304.6,321.6,304.6,318.2,304.4,315.4z M288.2,307.7c-5.6-0.2-9-3.6-8.6-8.6
		c0.6-6,4.1-11.8,11.1-12c7.9-0.4,4.1,6.2,5.1,9.2C296.7,303.2,295.7,307.9,288.2,307.7z"/>
	<path class="st29" d="M577.9,287.6c7.3-3,15-3.2,21.2-7.7c1.5-1.1,4.7-0.2,7.3,0c2.4,0.4,4.1,1.7,3.4,4.3c-0.6,2.1-2.4,3.6-4.9,2.4
		c-3-1.5-6.6-3.2-7.5,1.5c-0.9,3.9,3.6,3.4,6.2,4.3c7.9,2.4,9.8,7.7,7.3,15c-2.8,7.3-8.8,8.8-15.6,7.5c-2.1-0.4-4.3-1.5-3.6-4.3
		c0.4-2.6,2.6-1.9,4.3-1.7c4.7,0.6,9.4,0,10.1-5.3c0.6-5.3-4.7-6-8.3-6.2c-4.7-0.4-4.3-8.8-10.7-6.4c-7.3,2.6-9.6,7.7-9,14.8
		c0.2,3,1.7,7.1-3.4,7.1c-5.3,0-3.9-4.3-3.2-7.1c1.1-6,0.2-12-0.2-18c-0.2-3.6-2.6-8.8,3.6-9C580.2,278.6,575.3,284.6,577.9,287.6z"
		/>
	<path class="st29" d="M527.2,298.7c0-2.4,0-3.9-0.2-4.9c0-19.9-0.2-20.1-18-10.7c-7.5,4.1-12.2,9.6-10.5,18.8
		c1.7,8.8,8.3,10.5,15.8,11.3c3,0.4,7.3-0.6,7.3,3.9c0,4.1-1.1,8.6-5.8,10.5c-3.2,1.1-6.4,0.4-9.4-0.6c-2.4-0.6-4.9-1.7-5.3,2.4
		c-0.2,3.2,1.7,4.3,4.3,5.1c10.1,3,19.9-2.8,21.6-13.3C528.2,313.5,528.5,305.6,527.2,298.7z M516.1,308.1c-6.2,0-11.8-3.6-12-9.8
		c-0.2-6.8,4.5-12.6,11.6-13.1c9.2-0.4,4.7,7.7,5.6,9.8C522.3,302.1,523.8,308.1,516.1,308.1z"/>
	<path class="st31" d="M199.4,340.4c-13.1,0.4-22.5,10.1-22.5,23.3c0,11.3,7.1,18,19.3,17.8c13.1-0.2,22.3-10.1,22.3-23.5
		C218.4,346,212,340.2,199.4,340.4z M197.4,376.6c-7.3,0.2-14.6-6.6-15-13.9c-0.6-8.3,7.7-16.9,18-17.1c7.3,0.4,11.3,5.3,12,13.5
		C213.1,367.8,205.4,376.4,197.4,376.6z"/>
	<path class="st29" d="M254.4,279.9c-13.3-0.2-22.3,7.5-22.3,19.5c0,8.6,6.2,13.7,16.7,13.9c13.3,0.2,21.8-7.5,21.8-19.5
		C270.6,284.4,265.3,279.9,254.4,279.9z M264,295.9c-0.6,8.1-6.4,11.1-13.3,11.8c-7.1-0.6-11.8-3.6-11.3-10.7
		c0.4-7.9,5.8-12,13.5-12C259.9,285,264.6,288.4,264,295.9z"/>
	<path class="st29" d="M212,279.7c-12.8,0.2-21,7.7-21,19.3c0,9.4,6,14.3,17.3,14.1c12.2-0.2,21.2-8.1,21.2-19.5
		C229.5,284.4,223.3,279.5,212,279.7z M212.2,307.1c-6.8,0.2-12.4-2.6-12.2-10.1c0.2-7.9,6-11.3,12.8-12.2c7.3,0,12.2,3,12.2,9.6
		C225.3,302.4,220.1,306.8,212.2,307.1z"/>
	<path class="st29" d="M163.2,312.2v-20.1c0-5.6-1.1-10.9-7.1-13.1c-6-2.1-11.6-1.9-18,5.3c4.3-0.4,6-0.6,7.9-0.9
		c3.9,0.2,8.6-0.4,9.8,4.3c1.5,5.6-4.7,3.9-7.1,5.8c-1.7,1.3-3.6,2.1-5.3,3.4c-3.4,2.8-6.6,5.8-4.9,10.7c1.7,5.1,5.8,5.3,10.3,5.3
		c2.4,0,6-2.8,6.8,2.1c0.4,3,1.9,4.5,4.9,3.4C163.4,317.5,163.2,314.8,163.2,312.2z M149.7,307.5c-2.1-0.4-5.6,0-5.3-3.4
		c0.2-4.5,4.3-5.1,7.7-6c2.1-0.4,4.7-0.4,4.7,2.6C156.6,305.1,153.8,307.1,149.7,307.5z"/>
	<path class="st32" d="M289.7,356.5c0-6.4,0-12.8,0-19.3c0-2.1,0-4.7,2.8-4.9c2.8-0.2,3.2,2.4,3.2,4.5c0,2.1,0,4.3,0,6.4
		c0.4,6-3.6,15.8,9.8,10.9c3.6-1.3,6.4,2.4,7.1,6.4c0.6,4.5,0.9,9.4-0.9,13.7c-0.9,2.4-0.4,6.8-4.3,6c-4.5-0.9-1.7-4.5-1.5-7.1
		c0.2-1.1,0.4-2.1,0.4-3.2c0.2-3.6,2.1-9-3.2-9.6c-5.8-0.9-7.5,3.6-7.7,9c-0.2,3.9,3,10.7-2.6,10.7c-7.1,0-2.8-7.3-3.4-11.1
		C289,365.3,289.7,360.8,289.7,356.5L289.7,356.5z"/>
	<path class="st29" d="M107.4,302.8c-4.1-3.2-3.4,1.1-4.5,2.8c-4.1,7.1-10.5,10.3-18.4,10.9c-2.1,0.2-4.7,0.2-4.9-2.8
		c-0.2-2.4,2.1-2.4,3.9-2.6c6.2-0.6,12.6-1.5,13.9-9c1.3-7.5-4.9-10.3-10.1-13.5c-5.6-3.4-9.6-7.9-6.8-15c3-7.5,9.4-10.1,17.1-10.1
		c2.6,0,5.1,1.1,4.7,4.3c-0.4,2.8-3,2.6-5.1,2.1c-4.7-1.1-8.8,0-10.5,4.7c-1.9,5.6,3,7.9,6.6,9.4c6.6,2.8,8.6,9.8,13.9,13.5
		C108.9,299.4,108.9,301.1,107.4,302.8z"/>
	<path class="st29" d="M467.1,297c0,3.9,0,7.9,0,11.8c0,2.1,0.6,4.5-1.9,5.6c-2.6,1.1-3.6-0.9-4.7-3c-2.1-4.3-3.9,0-5.3,0.6
		c-4.3,2.1-8.3,4.7-12.8,1.3c-4.9-3.6-5.6-8.6-4.3-14.3c1.1-5.1,1.5-10.5,2.6-15.8c0.4-2.4,2.1-3.6,4.7-3c3,0.6,2.4,2.8,1.7,4.9
		c-1.1,4.5-2.1,9-3,13.5c-0.6,3.9-1.1,8.3,3.9,9.8c4.7,1.3,8.1-1.5,10.5-5.6c3-5.3,2.6-11.1,1.7-16.7c-0.4-3.2-0.2-6,3.6-6
		c4.5,0,3.4,3.4,3.2,6.2c-0.2,3.6-0.4,7.1-0.4,10.7C466.6,297,466.8,297,467.1,297z"/>
	<path class="st29" d="M112.7,299.4c0.2-6.8,6.6-4.5,10.9-5.1c1.5-0.2,2.8-0.2,4.3-0.2c3.9-0.2,8.3,0.9,7.9-5.6
		c-0.4-4.9-2.6-7.9-7.7-8.6c-10.7-1.3-18.2,4.9-20.8,17.8v5.1c4.9,11.8,17.5,16,27.4,9c-3.4-2.6-7.7-1.7-11.3-2.4
		C117.4,308.1,112.5,305.3,112.7,299.4z M129,286.5c-4.1,4.1-7.3,3.6-10.9,1.7C120.8,283.7,124.3,284.8,129,286.5z"/>
	<path class="st29" d="M552.2,309.2c-6.2-1.1-11.6-3.6-11.1-10.5c0.4-7.1,7.1-3.6,10.9-4.5c1.1-0.2,2.1-0.2,3.2-0.2
		c4.1-0.2,9,1.1,8.3-6c-0.4-5.8-3.6-7.9-9-8.1c-8.8-0.2-15.2,3.9-18.2,12c-2.4,6.4-3.2,13.7,3.2,18.4c7.1,5.1,15,6.8,24.6,2.8
		C559.3,308.6,555.6,309.8,552.2,309.2z M554.8,285c1.5,0.4,2.6,2.1,1.3,3c-3.6,3-7.7,1.7-12,0.9C546.6,284,550.5,284,554.8,285z"/>
	<path class="st33" d="M435,360.8c-1.1-9.8-7.1-12-16.5-6.4c2.6,3,8.6,0.9,9.6,5.6c0.9,5.3-5.1,4.9-7.9,7.1c-3,2.4-5.3,4.7-4.9,8.8
		c0.4,4.7,3.9,5.3,7.7,5.6c2.6,0,4.5,0,6.2,2.8c3.6,5.6,5.8,2.6,6-2.1C435.4,374.9,435.8,367.8,435,360.8z M424.7,376.6
		c-1.9,0-3.9-0.9-3.9-2.6c0-2.4,1.9-3.6,4.3-4.1c2.1-0.6,3.4,0.6,3.6,2.6C428.8,374.9,426.8,376,424.7,376.6z"/>
	<path class="st34" d="M222.9,368.3c0-3.4-0.2-6.2,0-9.2c0-1.3,0.2-3,1.1-4.1c3-3.4,21.6,2.4,22.9,7.1c1.7,6.4-0.2,12.6-2.1,18.8
		c-0.6,1.9-1.9,3.2-3.9,2.6c-3.2-1.1-1.9-3.2-1.1-5.1c1.3-3,2.1-6,2.1-9.2c0-4.1-1.3-6.8-6-7.1c-4.5,0-6,2.4-6.8,6.4
		c-0.9,4.1,3.2,12-3,11.6C219.1,379.8,225.1,371.9,222.9,368.3z"/>
	<path class="st35" d="M336.5,376.8c-4.9-1.3-12.4-0.6-12-7.5c0.4-5.6,7.5-2.8,11.6-3.4c3.6-0.4,6.4-1.1,5.8-5.6
		c-0.6-4.3-3.9-6-7.5-6c-6.2,0-12,1.7-14.8,8.3c-2.1,5.3-3,10.5,1.7,14.8c5.6,5.1,11.8,5.1,20.8,1.3
		C338.5,377.7,337.4,377.2,336.5,376.8z M332,357.3c2.1-0.6,3.4,0.6,3.6,2.6c0,2.4-1.9,3.4-4.1,4.1c-1.9,0-3.9-0.9-3.9-2.6
		C327.8,359.1,329.7,357.8,332,357.3z"/>
	<path class="st36" d="M478.2,377.2c-5.3-0.6-12.4-1.5-12.6-7.3c-0.2-6.4,7.5-2.4,11.1-4.3c2.6-1.5,7.1-0.2,6.6-5.1
		c-0.4-4.5-3.9-6-7.5-6.2c-5.8-0.4-11.1,1.5-14.1,7.3c-2.6,4.9-3.9,10.3,0.4,14.8c5.8,6,12.8,6.6,22.9,2.1
		C481.2,377.7,479.9,377.2,478.2,377.2z M472.6,356.7c2.1-0.6,3.4,0.6,3.6,2.6c0,2.4-1.9,3.4-4.1,4.1c-1.9,0-3.9-0.9-3.9-2.6
		C468.3,358.4,470,357.1,472.6,356.7z"/>
	<path class="st37" d="M285.6,378.3c-8.6,2.8-12.8,0.2-14.3-7.1c-0.6-4.1,0-8.3-4.3-11.6c-3.6-2.8,1.1-4.1,2.6-4.9
		c5.1-3.2-0.4-13.3,6.2-13.1c6.6,0.2-0.6,9.8,3.4,12.2c7.1,4.3,5.8,6.4-0.2,10.3c-3.2,1.9-3.2,5.3-0.4,8.1
		C280.9,374.2,283.3,376.2,285.6,378.3z"/>
	<path class="st38" d="M461.3,357.1c-13.9,8.1-14.1,9.6-5.6,18.4c1.3,1.3,3.2,2.1,1.9,4.3c-1.1,1.7-3,1.7-4.7,1.1
		c-1.5-0.9-3.2-1.7-4.5-2.8c-6-5.6-6.2-30.6-0.6-35.9c0.6-0.6,1.9-0.9,2.8-0.6c1.9,0.4,1.5,2.1,1.5,3.4
		C451.9,350.3,450.4,356.1,461.3,357.1z"/>
	<path class="st29" d="M486.3,287.4c1.3-0.6,2.8-1.3,4.5-1.7c2.1-0.6,4.9-2.8,6.2,0.9c1.1,3-1.1,4.3-3.9,5.1
		c-7.5,2.4-9.8,7.5-7.7,15c1.1,3.9,0.2,6.4-4.3,6.4c-4.7,0-3-3.6-3-6.2c0-6,0-12,0.2-18c0-3.6-2.6-9,2.8-9.8
		C487.6,277.5,482.7,285,486.3,287.4z"/>
	<path class="st39" d="M505.1,359.5c-6.6,4.5-10.7,9.2-9.8,16.9c0.2,1.7-0.6,3.6-3,3.4c-2.4-0.2-2.1-2.4-2.4-4.1c0-0.6,0-1.5,0-2.1
		c0.2-6-1.9-13.3,1.1-17.5C494,352.2,499.1,361.4,505.1,359.5z"/>
</g>
<g id="Layer_3">
	<path class="st40" d="M938.9,322.1c2.3-3.7,4.7-7.3,7-11c5-0.3,9.9-1.1,13.2,4c-0.8,3.2-1.5,6.3-2.3,9.6c-3.6-0.1-4-1.8-2.9-4.8
		c0.4-1.1-1.1-2.9-1.7-4.3c-1.7,0.8-4.1,1.1-4.8,2.5c-0.8,1.7-1.2,5.1-0.1,6.1c2.2,1.9,5.4,2.8,8.3,4c5.6,1,9.9-1.2,13.3-5.5
		c4.3-2.1,3.7-5.1,0.7-7.6c-7.4-5.9-14.4-13.3-23-16.8c-10.7-4.5-22.8-6.7-34.4-8.3c-29.3-3.9-56,2.1-78,23.4
		c-3.9,3.7-8.3,7.2-12.5,10.9c-6.6-10.9-12.4-21.9-25.2-25.6c-0.4-0.1-1-0.3-1.4-0.6c0,0.6,0.1,1,0.1,1.5c1.7,3.4,3.2,6.9,4.8,10.5
		c0.4,0.6,0.7,1.1,1.1,1.7l-0.4-0.1c3.4,8.9,2.1,17.3-1.9,25.9c-1.9,4.1-3.2,8.4-5.1,13.8c12.9-1.7,18.7-11,26.1-18.7
		c1.2,1,2.5,1.7,3.3,2.6c19.7,26.5,46.8,33.8,78.1,30.3c2.5-0.3,5-0.7,7.4-1c2.8,4.3,5.5,8.5,8.3,12.7l0,0c-1,0-1.8,0-2.8,0
		c-4.5,0-9.1,0.1-13.8,0.1c-20.4,0.1-40.3-2.2-57.6-14.3c-8.4-5.8-15.7-13.1-23.7-19.8c-1.1,1.8-2.5,4-4,6.3c-1,0.8-1.9,1.8-2.9,2.6
		c-0.4,0.4-1,1-1.4,1.4c-0.4,0.4-1,0.8-1.4,1.2c-8,4.4-15.7,9.8-26,6.9c0-1.8,0-3.6,0-5.4c0.3-0.1,0.4-0.6,0.4-0.8
		c0.1-0.7,0.4-1.4,0.6-1.9c3-8.7,6.1-17.3,9.1-26c0.6-2.9,2.5-6.5,1.5-8.7c-5.2-11.1-11.1-22-16.8-33c-1.4-4.5,2.1-3.6,4.7-3.3
		c15.1,1.5,25.3,10.6,34,22c2.2,2.9,3.9,6.1,5.9,9.5c3.9-4.3,7.4-8.4,11.3-12.2c22-21.3,48.8-27.4,78.4-24.3
		c23.1,2.3,43.3,10.9,58.7,28.9c2.3,2.8,4.3,5.9,6.3,8.9c2.8,4.1,2.6,7.7-2.2,10.2c-4.1,2.3-8,5.2-12.2,7
		C954.9,336.2,942.5,335,938.9,322.1z"/>
	<path class="st41" d="M902.6,358.4c-2.1-2.5-4.4-4.8-6.3-7.6c-4.8-7.2-4.8-7.2-11.1-1.8c-3.7,3.2-7.7,6.3-12.2,10.2
		c-4.3-6.2-8.1-12-12.5-18.3c-3.3,1.9-6.3,3.7-9.4,5.6c-3.6,2.2-5.8,1.2-8.4-2.3c-6.2-8.5-6.9-16.2,0.6-24.5
		c2.9-3.3,4.7-7.6,7.6-12.4c4.1,5.2,7.6,9.6,11.6,14.7c5.1-7.2,9.8-13.6,15.7-21.6c3,6.3,5.1,10.9,7.3,15.1c0.8,1.5,2.1,2.8,3,4.1
		c1.4-1.1,3-1.9,3.9-3.3c3.4-5.2,6.7-10.5,10-15.8c0.6,0.3,1.1,0.4,1.8,0.7c0,18.7,0,37.4,0,56.1C903.5,357.7,903,358.1,902.6,358.4
		z"/>
	<path class="st42" d="M800,309.8c-1.7-3.4-3.2-6.9-4.8-10.5c0.4-0.4,0.8-0.7,1.2-1.1c12.8,3.9,18.6,14.7,25.2,25.6
		c4.3-3.7,8.7-7,12.5-10.9c21.9-21.2,48.7-27.1,78-23.2c11.7,1.5,23.7,3.7,34.4,8.3c8.5,3.6,15.5,10.9,23,16.8
		c2.9,2.3,3.6,5.4-0.7,7.6c-3.2-2.5-6.5-4.8-9.6-7.3c-3.3-5.1-8.3-4.3-13.2-4c1.5-0.8,3-1.5,6.6-3.4c-9.8-3.4-17.7-8-26.3-8.9
		c-16.9-1.8-34.3-2.9-51.2-1.9c-17.9,1.1-31.8,12.2-44.8,23.5c-11.3,9.6-10.7,9.8-19.7-1.5c-2.3-3-6.5-4.8-9.8-7.2l0.3-0.1
		c0-0.7,0-1.5,0-2.2C800.7,309.4,800.4,309.7,800,309.8z"/>
	<path class="st43" d="M968,360.7c-1,1-1.8,1.9-2.8,2.9c-10,6.9-20.9,9.5-33,8.1c-12.4-1.5-20.1-8.1-21.2-20.4
		c-0.8-9.8-0.1-19.5-0.1-29.3c1.4-1.8,2.8-3.7,4.1-5.5c0.6,2.1,1.5,4,1.7,6.1c0.3,5.5-0.3,11,0.3,16.5c1.9,17.9,15.1,26.3,32.3,20.9
		c14.3-4.4,22.8-15.5,31.2-26.7c1.2-1.7,2.2-3.3,3.3-5.1c0.7,0.1,1.4,0.1,2.2,0.3c-0.4,2.9,0.1,6.2-1.2,8.4
		c-4.8,7.7-10.3,15-15.7,22.6C968.9,359.8,968.5,360.3,968,360.7z"/>
	<path class="st44" d="M815.3,349.7c1.4-2.3,2.9-4.5,4-6.3c8,6.7,15.4,14,23.7,19.8c17.2,12,37.1,14.3,57.6,14.3
		c4.5,0,9.1-0.1,13.8-0.1c0,0.3,0,0.6-0.1,1c0.3,1.2,0.6,2.6,1,4.1c-25,1.1-50.1,3.4-72.4-10.9c-8.4-5.4-15.5-12.5-23.2-18.8
		C818.2,351.5,816.7,350.7,815.3,349.7z"/>
	<path class="st45" d="M911,321.9c0,9.8-0.7,19.7,0.1,29.3c1,12.2,8.7,18.8,21.2,20.4c12.1,1.5,23-1.2,33-8.1c-1,7-7,10-12.1,11.4
		c-8.5,2.1-17.7,2.1-26.7,2.6c-3.2,0.3-6.3-0.3-9.5-0.4c-2.8-4.3-5.5-8.5-8.3-12.7c-0.7-5.9-1.8-11.8-1.8-17.7
		c-0.1-7.3,0.4-14.4,1-21.7C908,323.9,909.9,323,911,321.9z"/>
	<path class="st46" d="M938.9,322.1c3.6,12.9,16,14.2,24.3,10.5c4.3-1.9,8.1-4.7,12.2-7c0.1,0.4,0.6,1,0.4,1.2
		c-3.4,10.9-26.7,17.6-35.1,10.3C935.8,332.8,935.2,328.3,938.9,322.1z"/>
	<path class="st47" d="M778.3,286.2c5.6,11,11.7,21.9,16.8,33c1,2.2-1,5.6-1.5,8.7c-5.8-11.7-11.8-23.1-17.3-34.9
		C775.5,291.4,777.6,288.5,778.3,286.2z"/>
	<path class="st48" d="M783.6,356.5c0,1.8,0,3.4,0,5.4c10.3,3,18-2.3,26-6.9c-3.9,9.9-16,15.4-30.8,12.9
		C780.5,363.9,782,360.2,783.6,356.5z"/>
	<path class="st45" d="M914.2,378.1c0-0.3,0.1-0.6,0.1-1c1,0,1.8,0,2.8,0C916.1,377.5,915.1,377.8,914.2,378.1z"/>
	<path class="st48" d="M811,353.7c0.4-0.4,1-1,1.4-1.4C812,352.7,811.6,353.3,811,353.7z"/>
	<path class="st48" d="M768.1,366.2c-0.2,0.8-0.5,1.6-0.6,2.2C767.6,367.7,767.9,367,768.1,366.2z"/>
	<path class="st45" d="M968,360.7c0.4-0.4,0.8-1,1.2-1.4C968.9,359.8,968.5,360.3,968,360.7z"/>
	<path class="st49" d="M956.8,324.7c-0.4,1.1-0.8,2.1-1.2,3.2c-2.8-1.2-6.1-2.1-8.3-4c-1-0.8-0.7-4.3,0.1-6.1
		c0.7-1.2,3.2-1.7,4.8-2.5c0.6,1.5,2.1,3.2,1.7,4.3C952.8,322.9,953.2,324.5,956.8,324.7z"/>
	<path class="st50" d="M800,309.8c0.4-0.1,0.7-0.4,1.1-0.6c0,0.7,0,1.5,0,2.2C800.7,310.9,800.4,310.4,800,309.8z"/>
	<path class="st42" d="M795.2,299.4c0-0.6-0.1-1-0.1-1.5c0.4,0.1,1,0.3,1.4,0.6C796,298.7,795.6,299.1,795.2,299.4z"/>
</g>
</svg>
