<?xml version="1.0" encoding="utf-8"?>
<!-- Generator: Adobe Illustrator 19.1.0, SVG Export Plug-In . SVG Version: 6.00 Build 0)  -->
<svg version="1.1" xmlns="http://www.w3.org/2000/svg" xmlns:xlink="http://www.w3.org/1999/xlink" x="0px" y="0px"
	 viewBox="0 0 1390.5 306.7" style="enable-background:new 0 0 1390.5 306.7;" xml:space="preserve">
<style type="text/css">
	.st0{fill:#131012;}
	.st1{fill:#AFDDE7;}
	.st2{fill:#F18221;}
	.st3{fill:#E61E25;}
	.st4{fill:#142022;}
	.st5{fill:#A2216E;}
	.st6{fill:#84BE41;}
	.st7{fill:#818334;}
	.st8{fill:#B61F24;}
	.st9{fill:#7DB642;}
	.st10{fill:#7B1316;}
	.st11{fill:#13142E;}
	.st12{fill:#282A74;}
	.st13{fill:#6A297A;}
	.st14{fill:#04B1C1;}
	.st15{fill:#878A35;}
	.st16{fill:#4D6B31;}
	.st17{fill:#51A245;}
	.st18{fill:#5C4030;}
	.st19{fill:#374BA0;}
	.st20{fill:#E9B221;}
	.st21{fill:#131B1D;}
	.st22{fill:#733E5E;}
	.st23{fill:#676091;}
	.st24{fill:#5EC8D5;}
	.st25{fill:#005E90;}
	.st26{fill:#204180;}
	.st27{fill:#27BFCC;}
	.st28{fill:#0780A3;}
</style>
<g id="Layer_1">
	<path class="st0" d="M202.9,160.6c4-5.5,3.6-11.9,3.6-18.3c-0.1-28.5,0-57,0-87.2c-12.3,0.8-23.6,1.1-34.9,2.3
		c-6.3,0.6-8,6.4-9.2,11.6c-5.2,24-7.8,48.2-6.8,72.8c0.4,9.2-0.8,18.6-2.8,27.7c-3.3,15.1-1,30-0.3,45.1c0.4,6.8,0.5,13.5,0.6,20.3
		c-1.4,2.2-2.7,4.5-4.1,6.6c-3.2-1.1-3.3-2.8-2-5.9c1.4-3.2,2.2-6.9,2-10.2c-0.4-7.5-1.7-14.9-2.6-22.5c0-1.3,0-2.6,0.1-3.8
		c0-3.8,0-7.5,0-11.4c0-0.5,0-0.9,0-1.4c0-2,0.1-4.2,0.1-6.3c5.9-28.4,2.6-57.1,5.1-85.7c0.5-1.8,1.1-3.6,1.4-5.5
		c2-9.8,4-19.8,5.9-29.6c1.1-6.3,5.4-8.2,11-8.3c8.6,0,17,0.1,25.5-0.1c3.2-0.1,6.4-1,10.3-1.7c-1-1.7-1.3-2.4-1.8-2.9
		c-6.1-6.9-13.8-4.3-21.3-3.8c-5.7,0.4-12.4,1.1-17.2-1.1c-6.4-3.1-12.5-3.4-19-2.9c-5.5,0.4-11,1-16.5,1.1
		c-6.4,0.3-12.8-0.4-19.2,0.1c-28.5,2-56.7,0.9-85.1-2.6c-2.4-0.3-6-0.4-7.3,1c-2.9,3.6-5.2,7.8-6.6,12.1c-0.3,0.9,4.6,4.3,7.5,5
		c4.7,0.9,9.8,1.3,14.6,0.5c24-4,48.4-5.1,72.8-4.5c3.7,0.1,7.4,1.4,11,2.6c1.4,0.5,3.1,2,3.3,3.3c1.1,4.6,2,9.5,2.7,14.2
		c1,6.5,1.8,12.9,2.6,19.4c0,8.7,0.1,17.4-0.1,26.1c-0.4,20.7-0.9,41.3-1.3,62c-0.4,10-0.5,19.9-1,29.9c-0.8,15.8-3.3,31.3-8.2,46.6
		c-1.7,5.2-0.5,11.8,1,17.2c0.4,1.5,6.6,1.4,10.1,2.2c1.4,0.3,2.8,0.9,4.3,1.1c10,2,23-5.4,24.5-14.1c0.8-0.9,1.7-1.7,2.4-2.6
		c4.2,10.3,1.4,17.1-9.1,20.2c-3.8,1.1-7.9,1.7-11.9,1.5c-9.5-0.3-19-1.1-29.5-1.8c1.8-11.5,2.4-23.5,5.9-34.5
		c3.1-9.6,4.3-19,4.6-28.6c0.9-28.1,1.5-56.1,1.7-84.2c0.1-19.7,0-39.5-1.7-59.1C117,56,116.5,55.5,101,56.1
		c-22.9,0.9-45.7,3.3-68.6,4.3c-7.3,0.4-14.7-1.1-22-2.4c-3.8-0.6-5.2-3.4-4.5-7.7c3.4-16.9,4.7-17.9,21.8-17.1
		c23.5,1,47.1,2.7,70.6,2.9c16.5,0.1,33.1-2.2,49.6-2.6c5.2-0.1,10.5,2,15.8,2.9c4.1,0.8,8.3,1.9,12.4,1.9
		c7.7-0.1,15.2-1.1,22.9-1.3c4,0,3.8-2.3,3.8-4.9c4.6-1.3,9.2-2.7,13.7-4c0,4.6,0,9.1,0,13.7c-1.8,0.6-4,0.8-5.2,1.8
		c-1.5,1.1-3.3,3.3-3.2,4.9c0.3,1.8,2.2,3.6,3.7,5.1c1.5,1.7,4.5,2.7,4.7,4.5c0.6,3.7,0.9,7.4-3.8,10.1c-2.6,1.5-3.1,6.6-4.5,10.1
		c2.8,0.3,5.6,0.6,8.4,0.9c0,4.2,0,8.4,0,12.6c-7.9,1.5-11.5,6.1-8.2,10.6c2.2,2.8,5.4,5,8.2,7.4c0,0.8,0,1.7,0.1,2.4
		c-2.4,2.4-4.9,4.7-7.3,7.2c-2,5.4,1.1,7.7,7.2,6.9c-0.1,4.2-0.3,8.3-0.3,12.5c-6.3,1.9-8.7,5.9-6.5,12.6c2.2,0.3,4.5,0.4,6.8,0.6
		c0,4.2,0,8.3,0,12.5c-3.1,0.8-6,1.7-8.8,2.4C206.4,164.7,204.6,162.7,202.9,160.6z"/>
	<path class="st0" d="M617.7,160.4c-2.2-2.2-5-4-6.4-6.6c-6.9-12.3-13.3-24.7-19.9-36.9c-0.9-1.5-2-3.1-3.7-5.6
		c-1.5,3.1-2.8,5-3.3,7c-6.4,26.4-12.8,52.8-18.6,79.3c-3.4,15.7-4.7,31.9-9.2,47.4c-3.1,10.7-3.2,21.1-3.3,31.7
		c-0.1,12-12.9,22.2-25,20.3c-9.2-1.4-12.5-9.7-7.4-17.4c2.6-3.8,4.5-8.3,5.6-12.6c8.7-33.2,17.1-66.5,25.4-99.9
		c5-19.5,10.5-39,14.3-58.6c2.2-11.4,1.9-23.2,2.3-34.9c0.4-11.1,5.6-18.5,15.8-19.9c3.6-0.5,8.4,1.1,11.1,3.6
		c7.8,7.3,11.5,17.2,13.9,27.5c4.1,16.3,13.3,30.1,21.7,44.5c0.9,1.4,2.2,2.8,2.6,4.3c5.5,22.5,17.9,41.5,30,60.5
		c0.8,1.3,1.4,2.6,2.2,3.8c-0.9,1.4-1.9,2.9-2.8,4.3c-0.4,0-0.6-0.1-1-0.1c-5.6-9.3-11.2-18.6-16.7-28c-5-9.5-10-18.8-15.1-28.2
		c0.8-8.4-2.3-15.5-8-21.6c-5.5-11.1-11-22.1-16.6-33.2c0-0.5,0-1,0-1.4c0-0.8,0-1.5,0-2.2c-0.3-0.5-0.6-1-0.9-1.4
		c-0.5-2.9-1.1-5.7-1.7-8.7c-0.4-0.5-0.8-1-1.1-1.5c-2.2-3.4-4.3-6.8-6.5-10.2c-0.6-6.1-5.5-6.9-10.1-7.4c-5.1-0.6-7.2,3.4-8.7,7.4
		c-1.3,4.1-2.7,8.3-4,12.4c0.3,0.5,0.5,1,0.8,1.5c0.1,3.8,0.4,7.8,0.5,11.6c0,1.3,0,2.4,0,3.7c0,0.5,0,0.9,0,1.4h-0.4
		c0,0.8-0.1,1.7-0.1,2.4c-1.4,8.4-2.7,16.9-4.1,25.3c-2.3,6.1-4.6,12.3-6.9,18.4c-0.6,2.4-1.4,4.9-1.9,7.3c-2,9.8-4,19.8-5.9,29.8
		c-0.8,3.8-1.5,7.7-2.3,11.5c-0.5,1.1-1.4,2.2-1.7,3.3c-2.6,11.1-4.3,22.4-7.7,33.2c-5.9,18.9-12.6,37.7-19.2,56.5
		c-1.7,4.7-0.3,7.8,4.5,8.9c6.3,1.5,18.4-5.5,19.3-11.8c1.4-10.5,2-20.9,3.1-31.4c0.8-7.5,1-15.2,2.3-22.6c2-11.6,4.7-23,7.2-34.6
		c1.1-4.5,2.2-8.8,3.3-13.3c3.2-12.4,6.4-24.7,9.6-37c1.5-6,3.1-12,4.6-17.9c1.5-4.7,2.6-9.8,4.9-14.2c2.9-5.7,6.3-5.9,10-0.8
		c3.8,5.2,7.2,11,10.6,16.5c3.8,7.3,7.7,14.6,11.5,21.8C615.4,151.5,616.5,155.9,617.7,160.4z"/>
	<path class="st1" d="M1092.2,247.9c-3.2-5.7-3.8-11.5-2-18.1c0.9-3.4-0.8-7.7-1.4-11.5c5.1-4.3,5-11.6-0.1-17.6
		c-0.5-8.3-0.8-16.7-1.8-24.9c-0.5-4.1-2.3-8-3.7-12c-1.5-4.3,0.1-6.9,4.3-8c7.3-2,14.6-4.1,22-5.9c3.1-0.6,6.6-0.9,7,3.8
		c0,1.4,0,2.9,0,4.3c0,4.5,0,8.9-0.1,13.4c0,5.5,0,11,0,16.5c-1.3,2-3.4,3.8-3.8,6c-0.8,4.7-0.6,9.5-0.9,14.3
		c-0.5,3.4-1,6.9-1.4,10.5c0,6.8,0,13.7-0.1,20.4c0.5,6.3,0.6,12.6,1.7,18.8c0.3,1.5,2.9,2.8,4.5,4.1c1.5,2.3,3.1,4.5,4.6,6.8
		c5.2,7.5,3.3,12-5.7,13.5c-1,0.1-2.2,0-3.2,0c-5.2,0.8-10.5,1.7-15.7,2.4c-5.6,2.4-10.2,0.1-14.3-3.4c0.8-4.6,1.7-9.2,2.4-13.8
		c1-1.4,2-2.9,2.9-4.3c1.5-2.3,3.7-4.5,4.5-7C1092.8,253.5,1092.2,250.5,1092.2,247.9z"/>
	<path class="st2" d="M914.8,155.9c11.5,3.3,15.6,12.9,19.3,22.9c-3.6,3.1-5.4,6.6-2.8,11.5c2.2,0,4.2,0,6.3,0
		c0.9,3.8,1.9,7.7,2.8,11.5c-2.8,2.2-5.7,4.2-9.8,7.3c-1.3,6-0.6,6.8,7.2,6.6c-0.3,3.8-0.5,7.7-0.8,11.5c-4,0.8-7.8,2.3-6.5,7.2
		c0.4,1.8,3.3,3.1,5.1,4.5c0.8,5.1,1.4,10.3,2.2,15.5c-2,0.1-4,0.3-5.9,0.4c0,3.1,0,5.2,0,7.7c2.9-1.7,5.4-3.1,7.9-4.5
		c-0.1,1.7-0.4,3.3-0.5,5c-4.3,5.2-3.6,9.1,2.3,12c0.1,0.8,0.3,1.4,0.4,2.2c-0.9,0.6-1.8,1.3-2.7,1.8c-2.8,0-5.6,0-8.6,0
		c0,3.7,0,6.5,0,9.7c3.1,0,5.7,0,8.4,0c0.9,1.8,1.8,3.6,2.7,5.4c-2.2,1.3-4.5,2.6-6.6,3.8c-4.2,1.3-8.3,2.6-12.5,3.7
		c-1.4-0.3-3.1-1.1-4.2-0.9c-3.3,1-6.8,2.8-8.2-2.2c-1.3-4.7-3.6-9.7,2.8-13.3c2-1.1,2.9-4.5,4.3-6.8c2.3-2.4,4.5-4.9,7.9-8.4
		c-3.7-1.3-5.9-2-8-2.8c-1.7-0.9-3.4-1.8-5.1-2.7c1-3.2,1.9-6.3,3.2-10.3c-3.3,0-5.2,0-7,0c-0.5-5.7,4.7-5.6,7.8-7.7
		c1.3,0.6,2.6,1.3,4,1.8c3.8,1.7,7.4-0.8,5.4-3.1c-1.7-1.8-5.4-1.9-8.2-2.8c0.5-1.7,1-3.4,1.5-5.1c6-2.6,6.3-4.1,2.2-11.2
		c-0.1-0.4-0.1-0.8-0.1-1.3c2.9-0.8,6.1-1.4,4.2-5.6c-0.4-0.9-2.7-1.9-2.9-1.7c-1.4,1.4-2.4,3.2-3.6,4.7c-1.8-2.3-3.7-4.5-5.5-6.8
		c0-0.3,0-0.5,0-0.8c0.5-3.8,1-7.5,1.5-11.4c0-0.5,0-1.1,0.1-1.7c1.3-0.5,2.6-1,3.8-1.5c5-3.2,4.3-11.1-1.1-14.1
		c-3.4-6.9-5.7-14.7-14.6-17c-1.5-0.4-2.9-1.5-4.5-2.3c-4.5-2.9-9.1-5.9-13.3-8.6c-1.4,1.8-2.2,2.8-2.8,3.7
		c-0.6-0.1-1.3-0.1-1.9-0.3c-0.3-1-0.3-2.8-0.6-2.9c-5.9-1.1-11.9-2.6-17.9-2.7c-4.5-0.1-9.1,1-13.4,2.2c-1.8,0.5-3.1,2.4-4.6,3.6
		c-3.4,1.3-6.8,3.4-10.2,3.8c-2.8,0.3-5.9-1.7-8.9-2.7c1.1-2.6,2.3-5.1,3.4-7.7c6-1.5,11.9-2.9,17.9-4.5c2.9-0.6,5.9-1.3,8.8-1.9
		c3.6,6.5,7.5,2.7,11.5,0.4c6.9-0.5,13.8-1,20.7-1.5c6.3,0.9,12.5,1.9,18.8,2.8c-4.7,4.9,1.5,8.8,0.6,13.3
		C913.6,164.8,914.5,163.9,914.8,155.9z"/>
	<path class="st3" d="M951.8,91.8c-0.4-4.7-1-9.5-1.3-14.3c-0.5-8.7,1.7-10.9,10.5-10.9c1.7,0,3.3,0.3,5.1,0.3
		c8-0.1,16.1-0.3,24.3-0.4c1.1-0.5,2.6-1.8,3.3-1.4c9.3,4.1,19,7.8,27.7,12.9c9.2,5.5,14.7,14.4,16.5,25.2c0.1,1.8,0,3.7,0.5,5.4
		c2.7,7.4,4.2,14.7,1.9,22.6c-1.3,4.5-0.9,9.5-1.3,14.3c-4.5,6.4-8.9,12.9-13.4,19.3c-4.9,0.3-5.4-3.4-6.4-6.9
		c1.3-5.4,2.6-10.9,3.8-16.2c0.9-1.4,2.6-2.9,2.6-4.3c-0.1-8.4-0.6-16.9-1-25.2c-2.9-6.9-5-14.6-9.2-20.7
		c-7-10.3-18.1-14.2-30.1-15.3c-7.5-4.6-11.2-4-15.3,2.6c-0.3,0.6-0.4,1.1-0.6,1.8c-3.2,1.4-2.8,3.7-2.6,6.8
		c0.9,8,1.3,16.1,1.8,24.1c0,5,0.1,9.8,0.1,14.8c-4.5,2.4-4.2,6.4-3.7,10.5c-0.1,9.3-0.3,18.8-0.4,28.1c-2.9,0-5.9,0-8.9,0
		c0-17,0.4-33.8-0.1-50.8C955.3,106.6,953.1,99.2,951.8,91.8z"/>
	<path class="st4" d="M839.6,276c-0.9,4.2,3.3,9.5-1.8,12.8c-3.8,2.6-8,4.7-12.4,6.1c-4.9,1.4-10.1,1.7-15.1,2.4
		c-5.4,0.9-8-1.3-8.3-6.8c-0.6-13.5-0.6-27.2-2.3-40.7c-3.2-27.6-7.3-55.2-11-82.8c-2.3-17-4.5-34.1-7-51.1
		c-0.8-4.9-3.2-9.3-5.5-15.8c-3.7,5.7-6.4,9.7-8.8,13.7c-11.2,17.9-22.6,35.6-33.6,53.8c-10,16.5-19.7,33.2-29.1,49.9
		c-2.3,4-2.6,8.9-4.6,13.2c-2.6,5.5-5.9,10.5-8.9,15.7c-0.8,1.4-1.9,2.7-2.6,4.2c-1.8,4.6-2.8,9.8-9.1,10c-7,0.1-13.3-2.2-16.6-8.6
		c-7.8-14.6-14.9-29.4-22.6-43.9c-5-9.3-10.6-18.4-15.3-27.8c-2.8-5.7-4.5-12.3-6.6-18.4c1.7,1.4,3.8,2.4,5,4.1
		c2.3,3.3,4.2,7,6.3,10.5c5.5,10,11,19.8,16.3,29.8c2.9,7.5,5.6,15.3,8.9,22.6c2,4.5,4.7,8.7,7.7,12.6c3.4,4.7,7.2,9.2,11.4,13.2
		c1.1,1,5.9,0.3,7-1.3c4.5-5.7,9.8-11.6,11.9-18.4c3.7-12.1,9.8-23.1,15.2-34.5c5.4-8.9,10.7-18,16.2-27c3.1-5,6.1-10,9.2-14.9
		c7.3-11.5,14.6-23,21.8-34.5c4.5-6.8,8.7-13.7,13.4-20.3c1.9-2.6,5.7-6.5,7.3-5.9c2.9,1.1,6,4.6,7,7.8c2.3,7.7,3.4,15.6,5,23.5
		c1.3,8,2.7,16,4,24c0.9,6.4,1.9,12.8,2.8,19.2c0.4,4.2,0.5,8.6,1.1,12.8c1.7,10.3,1.5,21.1,6.8,30.7c1.3,22.6,2.7,45.3,4,68
		c0.4,7.3,2.6,9.6,9.6,7.7c7-1.9,13.7-5.2,20.8-8.2c-2.4-4-4.5-7.2-6.4-10.3c1.1-0.4,2.2-0.8,3.3-1.1
		C835.8,273.3,837.8,274.7,839.6,276z"/>
	<path class="st5" d="M1256.2,249.9c1.8-5.7,2.4-12.1,5.5-17c9.5-15.2,13.3-32.7,21.6-48.3c1.4-2.6,3.4-4.7,5.1-7.2
		c2.2,0.5,4.2,1,6.4,1.5c-2.3,5.6-4.3,11.4-7,16.7c-4.2,8.4-2.4,11.8,7.3,12.3c4.9,4.2,10,3.7,15.3,0.8c2.4,0,5,0.3,7.4,0
		c6.5-0.5,13-1.3,19.5-1.9c3.2-1.4,6.4-2.8,9.6-4.3c-2-7.2-3.8-13.5-5.6-19.9c2.8-7,7.9-3.4,12.4-2.8c4.9,14.7,9.6,29.5,14.6,44.2
		c1.7,5,4,9.7,6,14.7c-4.6-0.5-9.8-2.9-11.5,4.3c-2.2-4.2-5.5-8.2-6.3-12.5c-1.8-11.5-2-12.3-14.1-13.5c-4.9-5.4-14.6-5.4-20.2,0
		c-2.2,0-4.2,0.1-6.4,0.1c-7.5-0.4-15.2-1-22.7-1c-0.9,0-1.9,2.2-2.9,3.4c-10.5,0.4-16.6,5.7-18.6,16c-0.5,2.4-1.5,4.9-2.3,7.2
		c-2.3,2.4-4.7,4.9-7,7.3C1260.3,250,1258.3,250,1256.2,249.9z"/>
	<path class="st6" d="M416.6,295.2c-2.6-0.3-5-0.5-7.5-0.8c-2.4-6.4-7.7-6.3-13-5.6c-0.8-0.1-1.5-0.4-2.3-0.5
		c0.1-1.9,0.3-3.8,0.3-4.6c-4.3-0.9-8-1.7-11.9-2.4c0.4,1.4,0.8,3.1,1.1,4.6c-2.7,0.1-5.4,0.3-8.2,0.5c-4.3-1.5-9.1-2.3-13-4.6
		c-4.3-2.6-8-6.3-12-9.5c0.4-6.6,5.9-1.3,8.2-3.3c-4.7-5.5-6.6-5.5-12.3-0.5c-1.1-1.3-2.4-2.7-3.6-4c3.6-4.5,6.5-9.7,13-10.3
		c4.5,2.8,8.7,5.9,13.3,8.3c8.2,4.3,16.6,8.2,24.8,12.3c4.9,5.2,10,8.8,17.2,4c0.5-0.3,1.3-0.3,1.9-0.1c7.2,0.9,14.1,2.7,21.2-1
		c2.9-1.5,7-0.9,10.6-1.3c-0.8,8.8-7.4,7-13.5,6.1c2.2,5.7,5.4,6.1,9.3,3.7c3.2-2,6.3-4.2,9.5-6.3c2.9,2.2,5.9,4.2,8.8,6.4
		c-1.9,2.2-4,4.3-5.9,6.5c-6.9,0-13.8-0.1-20.8-0.1c-5.5-5.1-6.4-5-11.5,1.4C419.2,294.3,417.9,294.7,416.6,295.2z"/>
	<path class="st7" d="M1227.7,184c-4.3-11-11.1-19.5-23.1-22.7c-0.6-1-1.1-2.2-1.8-3.2c1.3-8.6-6-5.9-10-7.5c1.7-1,3.3-2.8,5.1-2.9
		c5.4-0.4,10.7-0.6,16.1-0.1c3.2,0.3,6.9,1.4,9.1,3.4c4.9,4.6,8.8,10.1,13.2,15.2c-8.9-1.5-11-0.8-11.4,4.2c5.1,0.6,10.2,1.3,15.3,2
		c3.8,13.2,5.9,26.4,2.3,40c-5.4,4-4.9,8.9-2,14.1c-1,7.7-2,15.2-3.1,22.9c-1.7,2.2-3.3,4.2-5,6.4c-2.9-1.3-5.9-2.4-8.8-3.7
		c0.1-2.3,0.3-4.5,0.4-6.8c1.1-1,3.3-1.9,3.4-3.1c0.6-7.7,0.9-15.3,1.3-22.9c0.1-0.9,0.1-1.8,0.3-2.7c1.1-1.7,3.3-3.3,3.4-5.1
		c0.4-6.1,0.3-12.3,0.3-18.5C1232.8,189,1233.1,184.9,1227.7,184z"/>
	<path class="st8" d="M1019.1,158.1c0.9,3.3,1.5,7,6.4,6.9c-7.5,6-15.1,12.1-22.9,17.8c-5.6,4.1-8.2,9.1-5.2,13.2
		c2.3,3.2,5.5,5.7,8.4,8.4c7.8,6.9,15.7,13.7,23.6,20.6c-3.3,0.9-6.8,1.4-9.8,2.9c-1.8,0.9-2.9,3.3-4.3,5
		c-8.8-6.5-17.9-12.8-26.6-19.4c-5-3.7-9.7-7.8-14.1-12.1c-4-4-2.2-12,2.8-14.7c2.8-1.5,5.5-3.2,8.4-4.3
		C999.1,176.6,1010.3,168.9,1019.1,158.1z"/>
	<path class="st0" d="M748.5,108c6.4-12.4,12.5-24.9,19.4-37c3.8-6.8,8.4-13.3,13.9-18.8c2.9-2.9,8.2-4.5,12.5-4.7
		c6.6-0.4,9.7,3.7,10.3,10.3c2.6,28.7,4.3,57.6,8,86.2c3.3,26.3,8.7,52.4,13.4,78.4c0.5,2.6,3.4,4.7,5.1,7c-3.2,2-6.4,4.1-9.7,6.1
		c-1-8.3-2.2-16.5-3.2-24.8c-2.4-13.3-4.9-26.4-7.3-39.7c-1.3-7.3-2.6-14.4-3.8-21.7c-0.9-7.7-1.8-15.3-2.7-23
		c-1.4-13.3-2.8-26.4-4.1-39.7c0.1-7.8,0.5-15.6,0.1-23.2c-0.1-2.9-1.4-6.3-3.2-8.7c-1.1-1.5-4.6-3.1-6.4-2.4
		c-3.8,1.4-8.7,3.2-10.5,6.4c-5.2,8.9-9.2,18.6-13.8,28.1c-5.4,7.2-10.6,14.3-16,21.6c-0.3,0-0.5,0-0.9,0.1
		C749.5,108.4,749,108.2,748.5,108z"/>
	<path class="st9" d="M332.2,203.7c3.6-4,6.5-7.9,6.9-13.9c0.3-3.8,2.7-8,5.1-11.4c4.5-5.9,9.8-11.2,14.7-16.9
		c3.3-4,7.3-6.4,12.6-5.7c3.6,0.9,7.2,1.9,10.6,2.8c-7.4,7.2-14.8,14.2-22,21.6c-1.8,1.9-2.4,5-3.6,7.5c-3.7,2.6-7.4,5.2-11.8,8.3
		c5.6,0.3,9.8,0.5,14.1,0.6c1.7,1.1,3.4,2.3,5.1,3.4c-5.5,4.3-10.9,8.7-16.3,13c-0.9,0.8-2.4,1.4-2.4,2.2c0,5.2,0.4,10.5,0.8,15.7
		c-4.6,4-9.1,1.8-13.7,0.1c-0.1-4.6-0.3-9.2-0.4-13.8c0-1,0-1.9,0-2.9C332.1,210.9,332.1,207.2,332.2,203.7z"/>
	<path class="st10" d="M1015.6,232.6c1.4-1.7,2.4-4.1,4.3-5c3.1-1.5,6.5-2,9.8-2.9c12.1,9.1,24.3,18.3,36.4,27.3
		c2.3,1.8,5,3.2,7.4,4.7c0.6,1.7,0.9,3.7,2,5c4.1,4.1,4.5,8.9,4,14.2c-0.3,0-0.5,0-0.6,0.1c-9.5,7.9-10.2,8.3-18.1-1.7
		c-11.8-14.8-25.3-27.5-41.1-37.8C1018,235.6,1016.8,233.9,1015.6,232.6z"/>
	<path class="st0" d="M226.9,28.3c0.1,2.7,0.3,5.5,0.5,9.6c16.3-0.8,32.6-2,48.8-2c8.4,0,17,2.2,25.4,3.6c1.3,0.3,2.8,1.4,3.2,2.6
		c2.4,5.9-4.9,17.2-11.2,16.9c-18.8-0.9-37.6-1.9-56.3-3.4c-8.2-0.6-10.7,1.1-11.2,10.9c-0.4-3.4-0.9-6.9-1.1-10.5
		c-0.4-5-0.6-10-1-14.9c0.1-4.2,0.4-8.4,0.5-12.6C225.3,28.2,226.2,28.3,226.9,28.3z M228.2,42.1c-1.8,6.1-0.1,8.7,5.2,9.1
		c6.9,0.5,13.8,1.9,20.8,2.2c12.8,0.4,25.5,0.6,38.2,0.1c2.3-0.1,4.5-4.6,6.6-7.2c-1.9-1.7-3.4-4.2-5.6-4.7
		c-4.2-1.1-8.8-1.8-13.2-1.5c-11,0.4-21.8,1.5-32.8,2C241,42.5,234.5,42.1,228.2,42.1z"/>
	<path class="st10" d="M967.2,283.9c-1.7,3.3-10.5,6.1-14.6,4.7c-4.7-1.7-8.2-9.7-6.5-15.1c1.4-4.3,3.1-8.7,4.5-12.9
		c0.8-1.1,2-2.3,2.2-3.4c1-7.8,1.8-15.5,2.7-23.2c2.9,0,6,0,8.9,0c0,6,0,12,0.3,18c0.1,1.7,1.5,3.2,2.3,4.7
		c0.5,3.3,0.9,6.6,1.4,10.1c0,1,0.1,1.9,0.1,2.9c-1.3,4.2-2.6,8.3-3.6,12.5C965,282.5,966.4,283.2,967.2,283.9z"/>
	<path class="st11" d="M202.3,251.6c3.7-14.2,4.7-28.6,2.8-43.2c-1.4-10.6-2.3-21.3-3.4-31.9c1.4,0.8,2.8,1.4,4.5,2.3
		c1.1-1.8,2-3.2,2.9-4.5c2.9,1.1,5.6,2.3,8.3,3.3c0,4.2-0.1,8.4-0.1,12.8c-1.1,0.4-2.6,0.5-3.4,1.1c-1.8,1.1-3.3,2.7-5,4
		c1.8,2.2,3.4,4.3,5.4,6.3c0.5,0.5,2,0.3,3.1,0.4c0,4.2,0.1,8.4,0.1,12.6c-2.3,0.6-4.7,1.3-7.3,2c-1,5.7,0.9,8.7,7.2,8.3
		c-0.1,4.6-0.1,9.2-0.3,13.8c-1.3,0.1-2.6,0.1-3.7,0.4c-4.3,1.1-8.6,2.6-3.7,8c0.4,0.4,0.1,1.3,0.1,1.8c-1.1,0.8-2.3,1.7-3.4,2.4
		C204.8,251.6,203.6,251.6,202.3,251.6z"/>
	<path class="st12" d="M1308.2,134.3c1.9-6.1,3.8-12.4,5.7-18.5c1.1-3.7,1.7-7.8,3.3-11.2c1.4-2.8,4.2-4.9,6.4-7.3
		c4.3,1.5,4.7,5.1,5,9.1c0.3,4.2-0.5,9.5,5.4,11.1c0.4,0.4,0.8,0.6,1.1,1c-2.3,5.6-2.4,10.7,3.6,14.4c0.4,2.6,0.9,5.1,1.3,7.7
		c-1.3-1.8-2.4-3.7-3.7-5.5c-0.6,0.3-1.4,0.5-2,0.8c-1.1,2.9-2.3,5.9-3.4,8.9c-1.3-1.5-2.9-2.8-3.8-4.6c-1.4-2.9-2.2-6.3-3.6-9.3
		c-0.8-1.5-2.4-2.7-3.7-4c-1.1,1.3-2.2,2.7-3.4,4c-2.3,2.4-4.6,4.9-7,7.2C1309,136.7,1308.6,135.4,1308.2,134.3z"/>
	<path class="st2" d="M821.7,235.7c3.2-2,6.4-4.1,9.7-6.1c2.2-0.8,4.3-1.5,6.5-2.4c1.5,0.6,3.1,1.3,4.6,1.9
		c-10.7,9.2-12.3,14.6-8.2,26.3c-1.5,2.9-2.6,6.3-4.7,8.7c-1.7,1.9-4.5,2.8-6.8,4.2c-7.3-2.7-10-6.5-10.3-13.4
		C812.1,246.6,816.3,241,821.7,235.7z"/>
	<path class="st9" d="M463.3,178.9c0.1,0.6,0.3,1.1,0.4,1.7c-0.8,1.5-1.5,2.9-2.3,4.5c-4.9-3.1-8.2-9.2-15.3-7.5
		c-0.4-3.3,0.5-7.4-4.9-7.7c-2.3-5-4.6-10-6.9-14.9c2.4-4.3,1.1-7-3.6-8c-0.4-2.2-0.9-4.2-1.3-6.4c0.4-0.3,0.8-0.5,1.1-0.8
		c8.9-2.2,14.7,2.6,19.4,9.2c-2.8,7.3-2.2,8.3,6.4,9.3c1.5,2.9,3.1,5.9,4.6,8.8c-1.1,1.9-3.8,4.3-3.3,5.5
		C458.7,175,461.2,176.8,463.3,178.9z"/>
	<path class="st8" d="M964.5,233.8c-2.9,0-6,0-8.9,0c0-5.9-0.1-11.9-0.1-17.8c0-17.1,0.1-34.1,0.1-51.2c2.9,0,5.9,0,8.9,0
		c0.3,0.3,0.3,0.6,0.4,1c0.8,5.2,1.4,10.5,2.2,15.7c0,1.4-0.1,2.8-0.1,4.2c-0.8,3.3-2.2,6.6-2.2,9.8c0.1,5.9,1.3,11.8,1.9,17.6
		c0,1.5,0,3.2,0,4.9c-0.8,1.8-1.9,3.4-2,5.2C964.2,226.8,964.5,230.4,964.5,233.8z"/>
	<path class="st3" d="M1362.9,243.1c1.7-7.3,6.9-4.9,11.5-4.3c3.7,9.7,7.4,19.4,11,29.1c1.4,3.7,1.3,7.2-2.9,9.1
		c-2.8,1.3-5.5,2.9-8.3,3.8c-6.1,2-6.9,1.3-6.9-5.5c5-4.6,4.3-12.3-1.5-17.4C1364.7,253.1,1363.8,248.1,1362.9,243.1z"/>
	<path class="st0" d="M673.9,211.2c9.3,3.8,16.2,1.7,21.7-7.9c9.1-15.8,17.5-32.2,26.3-48.2c8.7-15.7,17.6-31.4,26.4-47.1
		c0.5,0.3,1,0.5,1.4,0.6c0,1.3,0,2.6,0,4c-1,3.2-2,6.4-2.9,9.7v0.3c-0.4,0.5-0.8,0.9-1,1.4c-2.6,4.1-5.1,8-7.4,12.1
		c-3.3,6-6.3,12.1-9.3,18.3c-3.3,5.2-6.6,10.3-10,15.6c-5.5,10.2-11,20.4-16.5,30.7c-3.1,3.7-5.9,7.7-9.1,11.1
		c-8,8.8-11.5,8.9-21.3,1.5C672.7,212.6,673.4,211.8,673.9,211.2z"/>
	<path class="st12" d="M300.1,156c-0.6-5.5-6.8-2.4-8.8-5.6c-1.5-1.1-3.1-3.1-4.9-3.2c-11.6-1.3-22.5,2-33.1,6.3
		c-0.6-2.3-1.1-4.5-1.8-6.8c7.9-6.1,16.6-10.2,26.8-10.1c1.3,8.6,7.9,4,12.3,5.1c1.9,0,4-0.4,5.6,0.3c4.9,1.7,5.4-1.1,5.4-4.7
		c0.8,0.1,1.4,0.4,2.2,0.5c1.3,6.6,6.3,5.4,10.7,5c1.7,2.6,3.4,5.2,5.1,7.8c-1.5,0.5-3.1,1-4.5,1.5c-2.6-0.8-5.1-1.7-6.1-1.9
		C305.4,152.7,302.7,154.3,300.1,156z"/>
	<path class="st13" d="M1330.8,144.5c1.1-2.9,2.3-5.9,3.4-8.9c0.6-0.3,1.4-0.5,2-0.8c1.3,1.8,2.4,3.7,3.7,5.5
		c2.9,7,6.1,14.1,8.7,21.2c2,6,3.3,12.3,5,18.4c-4.5-0.8-9.7-4.3-12.4,2.8C1337.8,170.1,1334.4,157.3,1330.8,144.5z"/>
	<path class="st14" d="M629.7,176.4c-2-3.6-4-7.2-6.3-10.5c-1.1-1.7-3.3-2.8-5-4.1c-0.3-0.5-0.5-1-0.8-1.5
		c-1.1-4.3-2.3-8.8-3.3-13.2c4.9-4.9,10.5-2.3,15.8-1.7c5,9.5,10,18.8,15.1,28.2C640,174.7,634.9,175.6,629.7,176.4z"/>
	<path class="st15" d="M1140.7,163.4c-4.3-11.2-7-14.9,7.9-23.4c-1.4,4-2.8,7.9-4.7,13.3c1.8,0.6,5.1,1.8,10,3.6
		c-4.9-9.3-4.9-9.3,3.6-12.1c0.8-0.3,1.7-0.5,2.4-0.8c-0.3,2.9-0.6,5.9-1,8.8c-0.3,2.3-0.8,4.6-1,6.9c-1.5,3.2-3.1,6.4-4.3,9.2
		c3.2,1.1,6,2.3,8.8,3.4c1.1,0.1,2.2,0.3,3.3,0.4c-2.3,3.4-4.7,6.8-7,10.2c-0.3,0-0.5,0-0.8,0c-1.4-0.5-2.8-1-4.3-1.5
		c-1-2.9-2.2-5.7-3.3-8.9c-1.9,0.6-3.4,1.1-5,1.7C1143.7,170.6,1142.2,167,1140.7,163.4z"/>
	<path class="st10" d="M955.5,164.8c0,17.1-0.1,34.1-0.1,51.2c-0.8,0.8-1.7,1.5-2.4,2.4c-0.3-27.3-0.4-54.8-0.8-82.1
		c-0.1-12.8-0.4-25.4-0.6-38.2c0-2.2,0.1-4.2,0.1-6.4c1.3,7.4,3.4,14.8,3.7,22.2C956,131,955.7,147.8,955.5,164.8z"/>
	<path class="st11" d="M300.1,156c2.6-1.7,5.2-3.4,8.9-5.7c1,0.3,3.6,1.1,6.1,1.9c0.1,4.1,0.1,8.3,0.3,12.4
		c-1.4,1.8-2.9,3.7-4.3,5.5c1.5,0.8,3.1,1.5,4.6,2.3c0.1,6.3,0.3,12.6,0.4,18.9c0.4,2.2,0.8,4.5,1.1,6.6c-0.8,7.5-1.5,15.2-2.2,22.7
		c0,0.9-0.1,1.9-0.1,2.8c0,0.4,0,0.8-0.1,1.1c-1.7,0-3.4,0-5.1,0c0.5-4.3,1.4-8.7,1.5-13c0.1-11.5,0.4-22.9-0.8-34.2
		c-0.4-4.7-4-9.2-6-13.7C302.8,161.2,301.4,158.7,300.1,156z"/>
	<path class="st12" d="M224,40.9c0.4,5,0.6,10,1,14.9c0.3,3.4,0.8,7,1.1,10.5c0,4.9,0,9.6,0,14.4c-2.2-0.9-4.2-1.9-6.4-2.6
		c-0.6-0.3-1.8,0.8-2.6,1.1c-2.8-0.3-5.6-0.6-8.4-0.9c1.4-3.4,1.9-8.6,4.5-10.1c4.7-2.8,4.5-6.4,3.8-10.1c-0.3-1.7-3.2-2.8-4.7-4.5
		c-1.4-1.5-3.4-3.3-3.7-5.1c-0.1-1.5,1.7-3.7,3.2-4.9c1.4-1.1,3.4-1.3,5.2-1.8C219.9,45.5,221.8,42.6,224,40.9z"/>
	<path class="st7" d="M1153.4,181.3c1.4,0.5,2.8,1,4.3,1.5c-0.9,9.2-1.8,18.4-2.7,27.7c-0.6,3.2-1.3,6.3-1.8,9.5
		c-2.8,0.4-5.7,0.8-8.6,1.1c-0.8-0.4-1.7-0.9-2.4-1.3c0-1.7,0-3.3,0-5c0.8-1,2-1.9,2.2-2.9c1-7.7,0.6-15.2,0-22.9
		c-0.1-1-1.4-1.9-2.2-2.9c0-1.7,0-3.3,0-4.9c0.8-0.4,1.7-0.8,2.4-1.3C1147.6,180.5,1150.6,180.9,1153.4,181.3z"/>
	<path class="st1" d="M1119,110c2.8,0.9,5.9,1.3,8.3,2.7c2.6,1.4,5.9,3.3,6.5,5.7c0.5,1.7-2.4,5.6-4.6,6.5
		c-7.4,3.1-14.9,8.2-22.5-0.4c-1.9-2.2-5.4-3.1-8.9-5c2.3-2.8,4.1-5,5.9-7.2C1108.8,111.6,1113.9,110.8,1119,110z"/>
	<path class="st3" d="M1256.2,249.9c2,0,4.1,0,6.1,0.1c0.9,1.5,1.7,2.9,2.6,4.5c-0.6,2-1.3,4-1.9,6c-4.3,3.4-7,7.2-2.7,12.4
		c-0.6,2.8-1.4,5.5-2,8.3c-6.5-1.1-13.8,2.4-19.7-2.9C1244.5,268.8,1250.3,259.3,1256.2,249.9z"/>
	<path class="st11" d="M331.9,217.3c0.1,4.6,0.3,9.2,0.4,13.8c-0.1,0.4-0.1,0.9-0.3,1.3c-1.5,0.5-3.1,1-4.6,1.5
		c2.7-8.8-6.9-8.8-10.3-12.9c11.5-12.8,11.5-12.8,7.8-20.9c0.1-2.6,6.6-3.2,2.4-7.3c-0.8-5.2-1.5-10.6-2.3-15.8
		c-0.1-3.2-0.1-6.4-0.3-9.5c1.3-0.8,2.6-1.7,3.8-2.4c0.6,8.4,1.3,17,2,25.4c0.4,4.3,1.1,8.7,1.7,13.2c-0.1,3.6-0.3,7.2-0.4,10.7
		C331.9,215.4,331.9,216.4,331.9,217.3z"/>
	<path class="st12" d="M217.1,126.5c-6,0.6-9.2-1.7-7.2-6.9c2.4-2.4,4.9-4.7,7.3-7.2c1.4,1.7,2.9,3.3,4.3,5c0.8-2.2,2.4-4.5,1.9-6.4
		c-0.9-3.7-2.8-7.3-4.3-10.9c-0.5,0.1-1,0.4-1.5,0.5c-0.1,3.1-0.4,6.1-0.5,9.2c-2.7-2.4-5.9-4.6-8.2-7.4c-3.4-4.5,0.3-8.9,8.2-10.6
		c6.5,4.2,5.7-2.7,7.8-5.1c0,5.6-0.3,11.4,0,17c0.3,6.6,0.8,13.3,1.1,19.8c-0.1,0.9-0.1,1.9-0.3,2.8c-0.3,0.5-0.5,1-0.6,1.5l0.1,0.3
		l-0.3,0.3c-1.7-0.9-3.2-2-4.9-2.6C219.4,125.7,218.1,126.4,217.1,126.5z"/>
	<path class="st7" d="M1233.9,267c-1.1,3.2-2.3,6.5-3.2,9.8c-0.5,2-1.1,4.5-0.4,6.1c1.7,3.8,0.3,6.4-2.4,8.8
		c-4.6,4.1-12.8,2.4-17.4-3.3c-3.7-4.6-2.4-9.1,4.2-14.2c3.4,2,6.9,4.1,10.5,6.3c0-4.7,0-7.8,0-10.9
		C1228,268.8,1230.9,267.9,1233.9,267z"/>
	<path class="st13" d="M1308.2,134.3c0.4,1.3,0.8,2.4,1.3,3.7c0.1,2.9,1.3,6.4,0.3,8.8c-4.6,10.9-9.8,21.5-14.8,32.2
		c-2.2-0.5-4.2-1-6.4-1.5c0.4-2.4,0-5.2,1.1-7.4c5.4-10.7,11.2-21.2,16.9-31.8C1307.2,137,1307.6,135.6,1308.2,134.3z"/>
	<path class="st15" d="M1155.4,254.2c1.3,2.7,2.7,5.2,4,7.9c-0.9,1.7-2.2,4-3.4,6.3c-5-0.3-9.8-0.3-12.3,5.4c-0.4,1-1.8,1.5-2.8,2.3
		c-6-2.2-7.3-6.4-5-12c1.1-2.8,2.4-5.6,3.6-8.4c1.4-1,2.8-2,4.1-3.2C1147.6,253,1151.5,253.6,1155.4,254.2z"/>
	<path class="st11" d="M225.2,129.8c0.8,4.2,1.9,8.4,2.2,12.8c0.8,9.6,4.5,11.9,13,8.2c2.6-1.1,5.7-1.1,8.6-1.7
		c-2.6,2.2-5.1,4.3-8.8,7.4c2.4,1.8,4.1,3.1,5.7,4.3c-6.4,5.4-12.8,10.7-19.2,16.1c-0.6-0.3-1.1-0.4-1.8-0.6c0.5-2.8,1-5.6,1.4-8.4
		c6.1-4.9,3.3-10.3,1-15.7c-1-4-2-8-3.1-12C224.5,136.7,224.9,133.3,225.2,129.8z"/>
	<path class="st2" d="M839.6,276c-1.8-1.4-3.7-2.7-5.5-4.1c0.9-2.6,1.7-5.1,2.8-8.2c1.4-0.8,4-2,6.5-3.4c4.7,1.1,9.5,2.2,14.2,3.3
		c1.9,6.1,7.7,3.2,11.5,4.9c0,1.9-0.1,3.7-0.1,5.6c-5.5,0.1-11.1,0.3-16.6,0.4c-0.8-2-1.7-4.1-2.4-6c-1.3,2.3-2.6,4.7-3.8,7
		C843.8,275.6,841.7,275.8,839.6,276z"/>
	<path class="st12" d="M202.3,251.6c1.3,0,2.6,0,3.8,0c-0.1,2-0.3,4.2-0.3,6.3c0,6.3,1.7,7.5,7.5,6.3c1.3-0.3,2.4-0.8,3.6-1.1
		c2.6,0.4,5,0.8,7.5,1.1c0.5,3.4,1.1,6.9,1.7,10.3c-4.1,3.8-5.5-0.5-7.8-2.4c-3.2,0.6-6.4,1.4-10.3,2.3c-0.8,1.1-2.3,3.3-3.8,5.4
		c-0.8-2.6-1.7-5.2-2.4-7.8c0.3-2.4,0.8-5,0.5-7.4c-0.3-1.8-1.8-3.4-2.8-5.1C200.5,256.8,201.4,254.2,202.3,251.6z"/>
	<path class="st7" d="M1165.5,172.6c-1.1-0.1-2.2-0.3-3.3-0.4c-0.5-3.3-0.9-6.6-1.4-10c0.6-0.5,1.4-1,2-1.5c4.6-0.8,10,2.3,13.5-2.9
		c5.1-2.2,10.1-4.3,15.2-6.5c2.8,2,5.6,4.2,8.4,6.3c-4,1.9-10.1-1.8-12.4,4.7C1180.3,165.8,1172.9,169.3,1165.5,172.6z"/>
	<path class="st6" d="M463.9,195.4c-1.8,1.3-3.6,2.4-5.2,3.7c-0.9-1.1-1.7-2.4-2.6-3.6c-5.1-5.7-7.3-5.5-12.6,1.1c0,0.9,0,1.8,0,2.6
		c-2.9-0.5-6-0.9-8.9-1.4c-1.3-2.4-2.4-5-3.7-7.4c3.8-1,10.2,2.7,10-5.6l-0.1,0.1c1.8-0.8,3.6-1.5,5.5-2.3c2.8,0.8,5.7,1.4,8.6,2.3
		c2.3,0.8,4.5,1.9,6.6,2.9C462.1,190.5,463,192.9,463.9,195.4z"/>
	<path class="st6" d="M348.7,237.6c1.7,3.8,3.4,7.7,5.1,11.5c-2,1-4.2,1.7-6,3.1c-3.2,2.6-6,5.5-8.9,8.3c-1-2.9-2-5.9-3.1-8.8
		c1.8-0.6,3.4-1.3,4-1.4c-2.7-5.5-5.1-10.3-7.4-15.1C337.8,236.1,343.3,236.9,348.7,237.6z"/>
	<path class="st12" d="M226.9,28.3c-0.9,0-1.7,0-2.6-0.1c-1.9-0.8-3.7-1.5-5.7-2.4c-0.4,0.6-1,1.5-1.8,2.6c-4.6,1.3-9.2,2.7-13.7,4
		c-1.5-2.7-4-5.2-4.5-8c-0.4-2.8,1.1-5.9,1.8-8.8c1.8,0.1,3.7-0.1,5.2,0.4c4,1.4,7.7,3.1,11.5,4.7c2.9-0.5,5.7-1,8.7-1.5
		c0.4,2.7,0.9,5.2,1.3,7.9C227.2,27.3,227.1,27.8,226.9,28.3z"/>
	<path class="st12" d="M226.4,167.9c-0.5,2.8-1,5.6-1.4,8.4c-2.3-0.6-4.6-1.1-7.3-1.9c-0.1,1.1-0.3,2.2-0.4,3.2
		c-2.7-1-5.2-2.2-8.3-3.3c-0.9,1.3-1.8,2.8-2.9,4.5c-1.5-0.8-2.9-1.5-4.5-2.3l0.1,0.1c-0.4-0.9-0.9-1.9-1.3-2.8
		c-3.2-5.1-1.3-9.2,2.3-13c1.8,2,3.4,4.1,5.5,6.4c2.7-0.8,5.7-1.5,8.8-2.4C220.2,165.7,223.2,166.7,226.4,167.9z"/>
	<path class="st16" d="M444.5,276.2c-3.6,0.4-7.7-0.3-10.6,1.3c-7.2,3.7-14.1,1.8-21.2,1c-0.6-0.1-1.4-0.1-1.9,0.1
		c-7.2,4.9-12.4,1.3-17.2-4c17.5-0.1,34.9-0.4,52.4-0.5C445.4,274.8,445,275.6,444.5,276.2z"/>
	<path class="st11" d="M297.8,269.6c2.6-7.3,5.1-14.4,7.7-21.7c0.8-0.9,1.5-1.7,2.3-2.6c2.4,1.4,4.9,2.7,7.3,4.1
		c0,4.6,0,9.1,0.1,13.7C309.1,264.1,302.7,264.7,297.8,269.6z"/>
	<path class="st2" d="M904.4,267.9c-3.6,0.5-7.2,0.8-10.6,1.8c-2.8,0.8-5.2,2.6-7.9,3.7c-1.4,0.6-3.1,0.8-4.7,1
		c-0.5-0.3-1-0.5-1.4-0.8c-0.6,0-1.4,0.1-2,0.1c-0.1-2-0.4-4.1-0.5-6.1c2.3-0.6,4.6-1,6.8-1.9c3.4-1.5,6.9-3.3,10.3-5
		c3.8-0.9,7.7-1.8,11.4-2.7C905.3,261.4,905,264.6,904.4,267.9z"/>
	<path class="st9" d="M397.3,142.6c5.5-1.5,11-2.9,16.3-4.5c2.7,1.3,5.4,2.4,7.9,3.7c-1.3,1.8-2.6,3.4-4,5.2c-2.7-0.1-5.6,0.5-8-0.4
		c-4.7-1.7-6.9,0.6-9.1,4.1c-1.4,0.1-2.8,0.4-4.2,0.5c-2.6-4-5.9-2.9-9.5-1.7c-3.1-4.7,1-3.3,3.2-3.8
		C392.9,145.2,396.8,147.6,397.3,142.6z"/>
	<path class="st11" d="M217.5,20.5c-3.8-1.5-7.7-3.3-11.5-4.7c-1.7-0.5-3.4-0.3-5.2-0.4c-3.8-3.3-1.4-6,1.5-6.6
		c6.5-1.5,13.3-2,20.1-2.9C215.6,9,217.5,15.1,217.5,20.5z"/>
	<path class="st7" d="M1143.7,252.3c-1.4,1-2.8,2-4.1,3.2c0.5-4.7,0.9-9.5,1.4-14.2c5.2-3.6,2.6-9.5,3.8-14.1c2.8,0,5.6,0,8.4,0
		c-0.8,6.1-1.5,12.3-2.4,18.4C1146.2,245.6,1143.8,247.7,1143.7,252.3z"/>
	<path class="st9" d="M373.1,201.5c-0.9-0.3-1.7-0.6-2.6-0.9c0-2.4,0-5,0-7.4c3.4-0.1,6.9,0.1,10.3-0.3c3.3-0.5,6.6-1.5,10-2.4
		c2.9-0.5,5.9-0.9,8.7-1.4c-4.1,3.7-8.3,7.5-12.4,11.2C382.5,200.7,377.8,201.1,373.1,201.5z"/>
	<path class="st12" d="M297.8,269.6c4.9-4.7,11.2-5.4,17.4-6.5c0.1,0.6,0.3,1.4,0.4,2c0,2.8,0,5.6,0,8.4c0,0.4-0.1,0.9-0.1,1.3
		c-2.9-1-5.7-1.9-9.1-3.1c-0.9,3.1-1.8,6.3-2.7,9.6c-2.3-2.2-4.1-5.5-8.2-4.1C296.3,274.7,297.1,272.1,297.8,269.6z"/>
	<path class="st11" d="M226.3,274.5c-0.5-3.4-1.1-6.9-1.7-10.3c-0.9-6.3-1.8-12.4-2.7-18.6c-0.3-1.8-0.6-3.7-0.9-5.5
		c0-6.3-0.1-12.6-0.1-18.9c0.5-2.2,1.1-4.2,1.7-6.4c0.4-0.1,0.6-0.3,1-0.3l0.5,0.1h0.5c0,5.1,0,10.2,0,15.3c0,2.6,0,5,0,7.5
		c0,1.8,0,3.4,0,5.2c0,0.8,0.1,1.7,0.1,2.4c0.8,2.2,1.4,4.3,2.2,6.5c0,1.1,0.1,2.3,0.1,3.4c0.5,6.5,1.1,13.2,1.7,19.7
		C227.8,274.8,227.1,274.7,226.3,274.5z"/>
	<path class="st17" d="M397.3,142.6c-0.5,5-4.5,2.6-6.9,3.1c-2.2,0.5-6.3-0.9-3.2,3.8c0.4,1.5,0.9,3.2,1.3,4.7
		c-2,1.4-4.1,2.9-6.3,4.3c-3.6-0.9-7.2-1.9-10.6-2.8c4-8,10.2-12.6,19.4-12.6C393.1,143.1,395.2,142.7,397.3,142.6z"/>
	<path class="st12" d="M315.2,249.4c-2.4-1.4-4.9-2.7-7.3-4.1c1.1-3.8,1.9-8,7.3-7.9c2.4,5.6,6.3,0.6,9.3,1.3
		c0.9,0.6,1.9,1.1,2.8,1.8c-1.1,3.3-2.2,6.8-3.3,10.1c-1.8-0.9-3.4-2.2-5.4-2.6C317.6,247.7,316.4,248.9,315.2,249.4z"/>
	<path class="st11" d="M204.3,279.8c1.5-2.2,2.9-4.2,3.8-5.4c4-0.9,7.2-1.5,10.3-2.3c-1.3,4.9-3.1,10,4.2,11.9
		c-2.7,3.6-5.9,4.1-10.1,2.4c-4.3-1.7-8.8-2.8-13.3-4.2C201.1,281.3,202.7,280.5,204.3,279.8z"/>
	<path class="st18" d="M843.8,162.3c1.5-1.3,2.8-3.2,4.6-3.6c4.3-1.1,8.9-2.3,13.4-2.2c6,0.3,11.9,1.7,17.9,2.7
		c0.4,0.1,0.5,1.9,0.6,2.9c-10.1,0.3-20.2,0.5-30.3,0.8C848,162.9,845.8,162.5,843.8,162.3z"/>
	<path class="st2" d="M1238.6,278.3c5.9,5.4,13.2,1.8,19.7,2.9c-1.8,2.7-3.3,7.4-5.2,7.5c-5,0.4-10.3-1-15.3-2.3
		C1237.3,286.3,1238.2,281.1,1238.6,278.3z"/>
	<path class="st19" d="M328.6,165.2c-1.3,0.8-2.6,1.7-3.8,2.4c-3.1-1-6.3-1.9-9.3-2.9c-0.1-4.1-0.1-8.3-0.3-12.4
		c1.5-0.5,3.1-1,4.5-1.5h-0.1c1.1,0.9,2.2,1.7,3.3,2.6C324.8,157.2,326.7,161.1,328.6,165.2z"/>
	<path class="st18" d="M1039.1,145.5c0.4-4.7-0.1-9.7,1.3-14.3c2.3-7.9,0.8-15.2-1.9-22.6c-0.6-1.7-0.4-3.6-0.5-5.4
		c5.9,5.5,7.9,12.4,6.5,20.1C1042.9,130.8,1040.9,138.1,1039.1,145.5z"/>
	<path class="st2" d="M859.5,217.1c3.4-1.3,6.9-2.7,10.3-4c1.7-0.6,3.3-1.4,5-2c3.2,0.8,6.5,1.7,9.7,2.4c-4.1,1.8-8.6,3.2-12.3,5.6
		c-4.2,2.7-8,3.3-12.5,1.4C859.7,219.2,859.6,218.2,859.5,217.1z"/>
	<path class="st11" d="M253.4,153.5c10.6-4.2,21.5-7.5,33.1-6.3c1.7,0.1,3.2,2.2,4.9,3.2c-3.1,0.3-6.1,0.5-9.2,1
		c-6.9,0.9-13.7,2-20.6,2.9c-2.7,0.4-5.5,0.1-8.3,0.1C253.1,154.1,253.3,153.8,253.4,153.5z"/>
	<path class="st20" d="M937.7,215.8c-7.8,0.1-8.4-0.6-7.2-6.6c4.1-3.1,7-5.2,9.8-7.3c6.9,3.3,7.2,5.2,1.1,11.4
		C940.2,214,938.9,214.9,937.7,215.8z"/>
	<path class="st18" d="M884.6,213.5c-3.2-0.8-6.5-1.7-9.7-2.4c2.4-1.3,4.6-3.2,7.2-3.6c10.9-2,21.7-3.6,32.6-5.4
		c0,0.5,0,1.1-0.1,1.7c-2.9,1.1-5.9,2.2-8.8,3.3c-3.6,0.4-7.3,0.3-10.6,1.3c-3.4,1.1-6.6,3.3-10,5.1l-0.1,0.1
		C885,213.6,884.8,213.6,884.6,213.5z"/>
	<path class="st19" d="M217.4,177.6c0.1-1,0.3-2,0.4-3.2c2.7,0.6,5,1.3,7.3,1.9c0.6,0.3,1.1,0.4,1.8,0.6c-0.3,3.8-0.4,7.5-0.6,11.4
		c-2.9,1.3-5.9,2.6-8.8,3.7c0-0.6-0.1-1.1-0.1-1.8C217.2,186,217.2,181.8,217.4,177.6z"/>
	<path class="st4" d="M953,218.5c0.8-0.8,1.7-1.5,2.4-2.4c0,5.9,0.1,11.9,0.1,17.8c-0.9,7.8-1.7,15.6-2.7,23.2
		c-0.1,1.3-1.4,2.3-2.2,3.4C951.4,246.6,952.2,232.5,953,218.5z"/>
	<path class="st19" d="M295.4,277.2c4.1-1.4,5.9,1.9,8.2,4.1c-0.1,2-0.4,4.1-0.5,6.3c-1.4,1.1-2.8,2.4-4.2,3.6c-2,0-4.1,0-6.3,0
		C289.9,285.7,292.6,281.4,295.4,277.2z"/>
	<path class="st4" d="M158.5,259.3c-0.8,0.9-1.7,1.7-2.4,2.6c-2.3-6.8-4.6-13.4-6.9-20.2c1.4-2.2,2.7-4.5,4.1-6.6
		C155,243.1,156.8,251.3,158.5,259.3z"/>
	<path class="st11" d="M217.4,192c2.9-1.3,5.9-2.6,8.8-3.7c-0.5,7.3-1,14.7-1.5,22c-1.5-3.2-3.2-6.5-4.7-9.7
		C219,197.7,218.1,194.8,217.4,192z"/>
	<path class="st9" d="M458.5,286.2c-2.9-2.2-5.9-4.2-8.8-6.4c-0.9-2.2-1.7-4.2-2.6-6.4c3.4-1.1,6.8-2.3,10.2-3.4
		c0.6,4.7,1.1,9.5,1.8,14.1C458.9,284.8,458.8,285.4,458.5,286.2z"/>
	<path class="st20" d="M1159.8,144.1c-0.8,0.3-1.7,0.5-2.4,0.8c-8.4,2.7-8.4,2.7-3.6,12.1c-4.9-1.8-8.2-2.9-10-3.6
		c1.9-5.2,3.3-9.3,4.7-13.3l0.1-0.3c3.2-0.1,6.3-0.1,9.5-0.3C1158.8,141.2,1159.3,142.6,1159.8,144.1z"/>
	<path class="st18" d="M1150.8,245.7c0.8-6.1,1.5-12.3,2.4-18.4c0-2.4,0-4.9,0-7.3c0.6-3.2,1.3-6.3,1.8-9.5c0.8,1.3,1.5,2.7,2.3,4
		c-0.1,0.9-0.3,1.9-0.3,2.8c-0.1,0.5-0.3,1-0.4,1.4c-0.3,11-0.6,22.1-0.9,33.1C1154,249.8,1152.5,247.7,1150.8,245.7z"/>
	<path class="st21" d="M315.2,237.4c-5.4-0.1-6.1,4.1-7.3,7.9c-0.8,0.9-1.5,1.7-2.3,2.6c1.3-7.7,2.4-15.3,3.7-23c1.7,0,3.4,0,5.1,0
		C314.7,229.1,315,233.2,315.2,237.4z"/>
	<path class="st16" d="M432,292.4c6.9,0,13.8,0.1,20.8,0.1c-1.5,1-2.8,2.7-4.5,2.9c-10.5,2-21.1,2.9-31.5-0.4c1.3-0.5,2.4-1,3.7-1.4
		C424.5,295.5,428.5,296.6,432,292.4z"/>
	<path class="st20" d="M914.8,155.9c-0.3,8-1,8.9-8.4,8.4c0.9-4.5-5.2-8.4-0.6-13.3C908.7,152.7,911.7,154.3,914.8,155.9z"/>
	<path class="st16" d="M327.3,240.4c-0.9-0.6-1.9-1.1-2.8-1.8c1-1.5,2-3.1,2.9-4.6c1.5-0.5,3.1-1,4.6-1.5c0.1,0.9,0.3,1.9,0.4,2.8
		c2.3,4.7,4.7,9.5,7.4,15.1c-0.4,0.1-2.2,0.8-4,1.4c-1.7-1.9-3.3-3.7-4.7-5.6C329.8,244.3,328.6,242.2,327.3,240.4z"/>
	<path class="st4" d="M1079.3,276c0.5-5.2,0.1-10.1-4-14.2c-1.1-1.1-1.4-3.2-2-5c6.1,0.8,9.6,4.5,11.2,10.3
		c-0.8,4.6-1.7,9.2-2.4,13.8C1081.2,279.4,1080.3,277.7,1079.3,276z"/>
	<path class="st19" d="M217.5,20.5c0.1-5.4-1.9-11.5,4.9-14.7c1.8,1.5,3.6,2.9,5.4,4.5c-0.5,2.8-0.9,5.7-1.4,8.6
		C223.2,19.5,220.3,20,217.5,20.5z"/>
	<path class="st19" d="M315.2,249.4c1.1-0.5,2.4-1.7,3.4-1.4c1.9,0.5,3.6,1.7,5.4,2.6c-1.1,4.6-2.3,9.2-3.4,13.9
		c-1.7,0.3-3.3,0.4-4.9,0.6c-0.1-0.6-0.3-1.4-0.4-2C315.2,258.5,315.2,253.9,315.2,249.4z"/>
	<path class="st7" d="M1217.5,268.3c0.9-5.4,0.3-11.4,6.3-14.4c6.4,5.6,6.4,6.4,0.8,12c-0.8,0.8-1.3,1.7-1.9,2.4
		C1220.8,268.3,1219.2,268.3,1217.5,268.3z"/>
	<path class="st19" d="M225.2,129.8c-0.3,3.4-0.5,6.9-0.9,10.3c-2.8,1.9-5.5,2.4-7.4-1.1c0.1-4.2,0.3-8.3,0.3-12.5
		c1-0.3,2.2-0.9,3.1-0.5c1.7,0.6,3.2,1.7,4.9,2.6c0.1,0.3,0.3,0.5,0.3,0.9C225.4,129.6,225.2,129.7,225.2,129.8z"/>
	<path class="st16" d="M434.4,197.9c2.9,0.5,6,0.9,8.9,1.4c0.4,0.9,0.6,1.8,1,2.7c-11.8-0.1-23.6-0.4-35.4-0.5
		c-0.1-0.3-0.1-0.6-0.1-0.9c0.5-0.9,0.9-1.8,1.4-2.7c3.1,0,6,0,9.1,0C424.3,197.9,429.4,197.9,434.4,197.9z"/>
	<path class="st19" d="M225,86.8c-2.2,2.4-1.3,9.5-7.8,5.1c0-4.2,0-8.4,0-12.6c0.9-0.4,1.9-1.4,2.6-1.1c2.2,0.6,4.2,1.7,6.4,2.6
		c0,1.7,0,3.3,0.1,5.1C225.8,86.1,225.4,86.5,225,86.8z"/>
	<path class="st20" d="M1222.5,268.3c0.6-0.8,1.3-1.7,1.9-2.4c5.6-5.6,5.6-6.4-0.8-12c0-0.6,0-1.1,0-1.8c2.9,1.3,5.9,2.4,8.8,3.7
		c0.5,3.3,1,6.6,1.4,10c0,0.4-0.1,0.9-0.1,1.3c-2.9,0.9-5.7,1.8-8.7,2.7C1224.3,269.3,1223.4,268.8,1222.5,268.3z"/>
	<path class="st20" d="M859.5,217.1c0.1,1.1,0.3,2.3,0.3,3.3c-5.7,2.9-11.5,5.7-17.4,8.7c-1.5-0.6-3.1-1.3-4.6-1.9
		C845,223.8,852.3,220.4,859.5,217.1z"/>
	<path class="st20" d="M935.4,238.9c-1.8-1.5-4.6-2.7-5.1-4.5c-1.3-5,2.6-6.4,6.5-7.2c0.5,0.1,1,0.1,1.5,0.3c0.4,3.4,0.6,6.8,1,10.2
		C938,238.1,936.8,238.5,935.4,238.9z"/>
	<path class="st11" d="M1334,117.3c-5.9-1.7-5.1-6.9-5.4-11.1c-0.3-4-0.6-7.5-5-9.1c5.1-4.1,6.5-3.8,7.7,2.2
		C1332.5,105.3,1333.1,111.3,1334,117.3z"/>
	<path class="st20" d="M904.4,267.9c0.5-3.3,0.9-6.5,1.4-9.8c0.8-1.3,1.5-2.6,2.4-3.8c1.9,0,3.7,0,7,0c-1.3,4.1-2.2,7.2-3.2,10.3
		C909.6,265.7,907,266.8,904.4,267.9z"/>
	<path class="st0" d="M964.5,233.8c0-3.4-0.3-7,0-10.5c0.1-1.8,1.3-3.6,2-5.2c0.1,6.1,0.4,12.3,0.5,18.5c0,6.6,0,13.4,0,20.1
		c-0.8-1.5-2.3-3.1-2.3-4.7C964.5,245.8,964.6,239.8,964.5,233.8z"/>
	<path class="st6" d="M1222.5,268.3c0.9,0.5,1.8,1,2.7,1.5c0,3.1,0,6,0,10.9c-3.6-2.2-7-4.2-10.5-6.3c0.9-2,1.9-4,2.8-6
		C1219.2,268.3,1220.8,268.3,1222.5,268.3z"/>
	<path class="st18" d="M1116.5,261.9c-1.5-1.4-4.2-2.6-4.5-4.1c-1-6.3-1.1-12.5-1.7-18.8c0.5-0.1,1.1-0.1,1.7-0.3
		c0.4,1.4,0.8,2.7,1.1,4.1C1114.3,249.1,1115.5,255.5,1116.5,261.9z"/>
	<path class="st11" d="M199.6,259.3c1,1.7,2.6,3.3,2.8,5.1c0.4,2.4-0.3,5-0.5,7.4c-2.2,1.3-4.5,2.7-6.6,4
		C194.6,269.8,194.5,263.9,199.6,259.3z"/>
	<path class="st19" d="M222.7,284c-7.3-1.8-5.5-6.9-4.2-11.9c2.3,1.9,3.7,6.3,7.8,2.4c0.8,0.1,1.7,0.3,2.4,0.5
		C229.8,280,228.6,283.5,222.7,284z"/>
	<path class="st9" d="M444.5,202c-0.4-0.9-0.6-1.8-1-2.7c0-0.9,0-1.8,0-2.6c4.2-0.4,8.4-0.8,12.6-1.1c0.9,1.1,1.7,2.4,2.6,3.6
		c-2.2,1-4.5,2-6.6,3.3C449.3,203.9,446.8,205.3,444.5,202z"/>
	<path class="st22" d="M1290.2,219.6c1-1.1,1.9-3.4,2.9-3.4c7.5,0.1,15.2,0.6,22.7,1c-3.2,0.9-6.3,2.3-9.5,2.4
		C1301.1,220.1,1295.7,219.6,1290.2,219.6z"/>
	<path class="st9" d="M339,260.5c2.9-2.8,5.7-5.7,8.9-8.3c1.7-1.4,4-2,6-3.1c0.5,1.7,1,3.3,1.5,5.1c-6.5,0.6-9.5,5.9-13,10.3
		C341.3,263.2,340.1,261.9,339,260.5z"/>
	<path class="st19" d="M253.4,153.5c-0.1,0.3-0.1,0.6-0.1,1c-2.4,2.2-4.9,4.3-7.3,6.4c-1.7-1.3-3.3-2.6-5.7-4.3
		c3.6-3.1,6.1-5.2,8.8-7.4c0.9-0.8,1.8-1.5,2.7-2.4C252.1,149,252.7,151.3,253.4,153.5z"/>
	<path class="st18" d="M1111.9,208.1c0.3-4.7,0.1-9.6,0.9-14.3c0.4-2.2,2.4-4,3.8-6c-0.9,7.3-1.8,14.6-2.6,21.7
		C1113.3,209.1,1112.5,208.6,1111.9,208.1z"/>
	<path class="st10" d="M990.3,66.5c-8,0.1-16.1,0.3-24.3,0.4C974.1,60.6,982.2,63.8,990.3,66.5z"/>
	<path class="st17" d="M447.2,273.4c0.9,2.2,1.7,4.2,2.6,6.4c-3.2,2.2-6.3,4.3-9.5,6.3c-4,2.4-7.2,2.2-9.3-3.7
		c6.1,0.8,12.6,2.7,13.5-6.1c0.5-0.8,0.9-1.4,1.4-2.2C446.3,273.9,446.8,273.7,447.2,273.4z"/>
	<path class="st6" d="M1240.3,172.4c-5.1-0.6-10.2-1.3-15.3-2c0.4-5,2.4-5.7,11.4-4.2C1237.7,168.3,1239,170.3,1240.3,172.4z"/>
	<path class="st18" d="M1228.8,219.4c-0.4,7.7-0.6,15.3-1.3,22.9c-0.1,1.1-2.2,2-3.4,3.1C1225.6,236.6,1227.2,228.1,1228.8,219.4z"
		/>
	<path class="st18" d="M935.4,238.9c1.3-0.4,2.7-0.8,4-1.1c0.1,6.5,0.3,12.9,0.4,19.4c-0.8-0.9-1.4-1.9-2.2-2.8
		C936.8,249.1,936.1,244,935.4,238.9z"/>
	<path class="st22" d="M968.4,111.4c-0.5-8-0.9-16.1-1.8-24.1c-0.4-2.9-0.8-5.4,2.6-6.8c0.1,9.5,0.4,18.8,0.4,28.2
		C969.5,109.6,968.8,110.5,968.4,111.4z"/>
	<path class="st11" d="M290.7,141.8c-4.3-1.1-11,3.3-12.3-5.1c4.6-1.4,9.2-3.4,13.2,1.1C291.3,139.1,290.9,140.4,290.7,141.8z"/>
	<path class="st6" d="M370.5,193.2c0,2.4,0,5,0,7.4c-2.2-0.1-4.3-0.3-6.5-0.4c-1.7-1.1-3.4-2.3-5.1-3.4c0-1.4,0-2.7,0-4.1
		C362.9,192.8,366.7,193.1,370.5,193.2z"/>
	<path class="st18" d="M1144.8,227.3c-1.3,4.7,1.4,10.5-3.8,14.1c0.4-7.2,0.9-14.3,1.3-21.6c0.8,0.4,1.7,0.9,2.4,1.3
		C1144.7,223.2,1144.7,225.2,1144.8,227.3z"/>
	<path class="st20" d="M937.4,190.2c-2,0-4.1,0-6.3,0c-2.6-4.9-0.8-8.4,2.8-11.5C938.8,181.4,937.9,185.9,937.4,190.2z"/>
	<path class="st17" d="M332.5,235.3c-0.1-0.9-0.3-1.9-0.4-2.8c0.1-0.4,0.1-0.9,0.3-1.3c4.6,1.8,9.2,3.8,13.7-0.1
		c0.9,0.1,1.9,0.1,2.8,0.3c0,2,0,4.2-0.1,6.3C343.3,236.9,337.8,236.1,332.5,235.3z"/>
	<path class="st23" d="M1088.6,200.6c5.2,6,5.2,13.3,0.1,17.6C1088.8,212.5,1088.6,206.5,1088.6,200.6z"/>
	<path class="st4" d="M662.9,202c0.9-1.4,1.9-2.9,2.8-4.3c2.6,4.3,5.1,8.8,7.7,13.2c-0.6,0.8-1.3,1.5-1.9,2.2
		C668.6,209.3,665.8,205.6,662.9,202z"/>
	<path class="st0" d="M1142.3,186.3c0.8,1,2,1.9,2.2,2.9c0.6,7.7,1,15.2,0,22.9c-0.1,1-1.4,1.9-2.2,2.9
		C1142.3,205.3,1142.3,195.9,1142.3,186.3z"/>
	<path class="st19" d="M219.9,200.6c1.5,3.2,3.2,6.5,4.7,9.7c0,1,0.1,2.2,0.1,3.2c-0.4,0.4-0.8,0.8-1.1,1.1c-0.4,0-0.8,0-1,0.3
		c-1.8,0-3.6-0.1-5.2-0.1c0-4.2-0.1-8.4-0.1-12.6C218,201.5,218.9,201,219.9,200.6z"/>
	<path class="st7" d="M941.7,294c-0.9-1.8-1.8-3.6-2.7-5.4c0-3.2,0-6.5,0-9.8c0.9-0.6,1.8-1.3,2.7-1.8
		C944.5,282.6,945.4,288.2,941.7,294z"/>
	<path class="st18" d="M375.1,286.4c2.7-0.1,5.4-0.3,8.2-0.5c3.4,0.8,7,1.7,10.5,2.4c0.8,0.1,1.5,0.4,2.3,0.5
		c0.4,1.1,0.9,2.3,1.3,3.6C389.9,290.4,382.5,288.5,375.1,286.4z"/>
	<path class="st20" d="M877.4,267.6c0.1,2,0.4,4.1,0.5,6.1c-2.2,0.9-4.3,1.9-6.5,2.8c-0.9-0.9-1.7-1.7-2.6-2.6
		c0-1.9,0.1-3.7,0.1-5.6C871.7,268.2,874.6,267.9,877.4,267.6z"/>
	<path class="st16" d="M421.7,141.8c-2.7-1.3-5.2-2.4-7.9-3.7c5.9-1.7,11.8-5.1,16.7,1.7c-0.4,0.3-0.8,0.5-1.1,0.8
		C426.7,140.9,424.3,141.4,421.7,141.8z"/>
	<path class="st11" d="M292.7,291c2,0,4.1,0,6.3,0c4.9,0.6,9.7,1.1,14.6,1.8C303.8,298.6,298,298,292.7,291z"/>
	<path class="st21" d="M1232.6,193.1c0,6.1,0.3,12.4-0.3,18.5c-0.1,1.8-2.2,3.4-3.4,5.1c-0.1-7.9-0.3-15.8-0.5-23.8
		C1229.9,192.9,1231.3,192.9,1232.6,193.1z"/>
	<path class="st4" d="M966.6,213.2c-0.6-5.9-1.8-11.8-1.9-17.6c-0.1-3.3,1.4-6.5,2.2-9.8C966.8,195,966.6,204.2,966.6,213.2z"/>
	<path class="st23" d="M1092.2,247.9c0,2.7,0.6,5.6-0.1,8c-0.8,2.6-2.9,4.7-4.5,7C1088.2,257.6,1084,250.8,1092.2,247.9z"/>
	<path class="st18" d="M868.8,274c0.9,0.9,1.7,1.7,2.6,2.6c-7.5,0.5-15.1,3.6-22.4-1.1c1-0.4,2.2-0.8,3.2-1.1
		C857.7,274.3,863.2,274.2,868.8,274z"/>
	<path class="st0" d="M964.9,165.8c0-0.4-0.1-0.8-0.4-1c0.1-9.3,0.3-18.8,0.4-28.1c0.8,2.6,1.5,5.2,2.2,7.8
		c-0.1,7.5-0.1,15.1-0.3,22.6C966.1,166.7,965.5,166.2,964.9,165.8z"/>
	<path class="st4" d="M967.2,256.7c0-6.6,0-13.4,0-20.1c0.5,10.1,0.9,20.1,1.4,30.1C968.1,263.3,967.5,260,967.2,256.7z"/>
	<path class="st20" d="M1150.8,245.7c1.7,2,3.2,4.2,4.9,6.3c-0.1,0.8-0.1,1.5-0.3,2.3c-4-0.6-7.8-1.3-11.8-1.8
		C1143.8,247.7,1146.2,245.6,1150.8,245.7z"/>
	<path class="st23" d="M1157.4,214.5c-0.8-1.3-1.5-2.7-2.3-4c0.9-9.2,1.8-18.4,2.7-27.7c0.3,0,0.5,0,0.8,0
		C1158.1,193.4,1157.7,203.9,1157.4,214.5z"/>
	<path class="st18" d="M1322.3,217.1c5.6-5.4,15.3-5.4,20.2,0C1335.8,217.2,1329,217.1,1322.3,217.1z"/>
	<path class="st6" d="M1140.9,276c0.9-0.8,2.3-1.3,2.8-2.3c2.4-5.7,7.3-5.7,12.3-5.4C1152.2,273.5,1148.2,278,1140.9,276z"/>
	<path class="st23" d="M1111.9,208.1c0.8,0.5,1.4,1,2.2,1.5c0,2.7-0.1,5.4-0.1,8v-0.1c-0.3,8.4-0.5,16.9-0.8,25.3
		c-0.4-1.4-0.8-2.7-1.1-4.1c0-2.4,0-5,0-7.4c0-0.5,0.1-0.9,0.1-1.4c0-3.1,0.3-6.1,0.1-9.2c0-0.8-1.1-1.5-1.9-2.3
		C1110.9,215,1111.4,211.6,1111.9,208.1z"/>
	<path class="st18" d="M967.2,144.5c-0.8-2.6-1.5-5.2-2.2-7.8c-0.6-4.1-0.8-8.2,3.7-10.5C968.1,132.4,967.7,138.5,967.2,144.5z"/>
	<path class="st18" d="M882.1,162.4c0.8-1,1.5-1.9,2.8-3.7c4.3,2.8,8.8,5.7,13.3,8.6C892.9,165.6,887.6,164.1,882.1,162.4z"/>
	<path class="st4" d="M1116.6,171.5c0-4.5,0.1-8.9,0.1-13.4c0-1.4,0-2.9,0-4.3C1121.3,158.8,1121.3,166.1,1116.6,171.5z"/>
	<path class="st20" d="M1160.8,162.4c0.5,3.3,0.9,6.6,1.4,10c-2.8-1.1-5.7-2.2-8.8-3.4c1.3-2.8,2.8-6,4.3-9.2
		C1158.8,160.6,1159.8,161.5,1160.8,162.4z"/>
	<path class="st18" d="M1365.6,258.1c5.9,5,6.5,12.8,1.5,17.4C1366.6,269.7,1366.1,263.8,1365.6,258.1z"/>
	<path class="st16" d="M1144.7,180.2c-0.8,0.4-1.7,0.8-2.4,1.3c-0.5-6-1-11.9-1.5-17.9c1.4,3.6,2.8,7.2,4.2,10.7
		C1145,176.1,1144.8,178.1,1144.7,180.2z"/>
	<path class="st18" d="M845.8,151.3c-6,1.5-11.9,2.9-17.9,4.5C832.7,149.2,839.3,150.5,845.8,151.3z"/>
	<path class="st18" d="M1187.8,162.4c2.3-6.5,8.4-2.8,12.4-4.7c0.9,0.1,1.8,0.1,2.7,0.3c0.6,1,1.1,2.2,1.8,3.2
		C1199,161.6,1193.4,162,1187.8,162.4z"/>
	<path class="st22" d="M1024.5,112.2c0.4,8.4,0.9,16.9,1,25.2c0,1.4-1.7,2.9-2.6,4.3c0.1-8.3,0.3-16.7,0.4-25
		C1023.5,115.1,1024.1,113.7,1024.5,112.2z"/>
	<path class="st18" d="M1234,265.7c-0.5-3.3-1-6.6-1.4-10c1.7-2.2,3.3-4.2,5-6.4C1236.3,254.7,1235.1,260.2,1234,265.7z"/>
	<path class="st7" d="M938.3,227.5c-0.5-0.1-1-0.1-1.5-0.3c0.3-3.8,0.5-7.7,0.8-11.5c1.3-0.9,2.6-1.8,3.8-2.6
		C941.9,218.3,942.8,223.5,938.3,227.5z"/>
	<path class="st16" d="M348.8,231.4c-0.9-0.1-1.9-0.1-2.8-0.3c-0.3-5.2-0.6-10.5-0.8-15.7c0-0.6,1.5-1.4,2.4-2.2
		C348,219.2,348.4,225.4,348.8,231.4z"/>
	<path class="st16" d="M459.2,284c-0.6-4.7-1.1-9.5-1.8-14.1c2,2.2,5.4,4.2,5.9,6.8C463.6,278.8,460.6,281.6,459.2,284z"/>
	<path class="st22" d="M1096.4,284.6c5.2-0.8,10.5-1.7,15.7-2.4C1107.4,286,1102.3,287.8,1096.4,284.6z"/>
	<path class="st4" d="M1158.2,139.7c-3.2,0.1-6.3,0.1-9.5,0.3c0.6-7.4,6-5.4,11.4-5.6C1159.4,136.6,1158.8,138.1,1158.2,139.7z"/>
	<path class="st18" d="M408.8,200.5c0,0.3,0.1,0.6,0.1,0.9c-12,0-24,0-35.9,0.1c4.7-0.4,9.5-0.8,14.2-1.1
		C394.4,200.5,401.6,200.5,408.8,200.5z"/>
	<path class="st19" d="M195.3,275.8c2.2-1.3,4.5-2.7,6.6-4c0.8,2.6,1.7,5.2,2.4,7.8c-1.7,0.8-3.3,1.5-5,2.4
		C195.1,282,195.1,279,195.3,275.8z"/>
	<path class="st7" d="M917.2,267.3c2.2,0.8,4.2,1.5,8,2.8c-3.4,3.6-5.6,6-7.9,8.4C917.2,274.7,917.2,271,917.2,267.3z"/>
	<path class="st11" d="M315.7,265.1c1.7-0.3,3.3-0.4,4.9-0.6c0,0.5,0.1,0.9,0.1,1.4c-0.1,1.7-0.1,3.3-0.3,5c0,2.6-0.1,5.1-0.1,7.8
		c-0.6,0-1.3,0.1-1.9,0.1c-0.9-1.8-1.8-3.4-2.8-5.2C315.7,270.7,315.7,267.9,315.7,265.1z"/>
	<path class="st18" d="M463.9,195.4c-0.9-2.4-1.8-4.9-2.7-7.3c0-1,0-1.9,0.1-2.9c0.8-1.5,1.5-2.9,2.3-4.5
		C465.2,185.5,469,190.4,463.9,195.4z"/>
	<path class="st18" d="M866.2,149.8c-4,2.3-7.9,6.1-11.5-0.4c3.8-0.4,7.7-0.8,11.5-1.1C866.2,148.7,866.2,149.2,866.2,149.8z"/>
	<path class="st7" d="M917.3,186.4c5.5,2.9,6.1,10.7,1.1,14.1C918.1,195.9,917.7,191.1,917.3,186.4z"/>
	<path class="st18" d="M1119,110c-5.1,0.8-10.2,1.7-15.3,2.4C1109.8,106.3,1112.1,105.9,1119,110z"/>
	<path class="st18" d="M969.7,78.7c4.1-6.5,7.8-7.2,15.3-2.6C979.9,77.1,974.8,77.8,969.7,78.7z"/>
	<path class="st10" d="M964.9,165.8c0.6,0.4,1.4,0.9,2,1.3c0,4.9,0,9.6,0.1,14.4C966.3,176.3,965.5,171.1,964.9,165.8z"/>
	<path class="st19" d="M290.7,141.8c0.3-1.3,0.6-2.7,0.9-4c3.3-0.1,6.6-0.4,10-0.5c0.1,3.7-0.4,6.4-5.4,4.7
		C294.6,141.4,292.6,141.8,290.7,141.8z"/>
	<path class="st12" d="M313.4,292.8c-4.9-0.6-9.7-1.1-14.6-1.8c1.4-1.1,2.8-2.4,4.2-3.6c4.1,0.9,8,1.7,12.1,2.6
		c0.6,0.1,1.1,0.1,1.8,0.3C315.8,291.2,314.7,291.9,313.4,292.8z"/>
	<path class="st4" d="M866.2,149.8c0-0.5,0-1,0-1.5c6.9,0,13.8,0,20.7,0C879.9,148.7,873,149.2,866.2,149.8z"/>
	<path class="st22" d="M226.2,18.8c0.5-2.8,0.9-5.7,1.4-8.6c3.8,5.5,2.6,11-0.1,16.5C226.9,24.2,226.6,21.5,226.2,18.8z"/>
	<path class="st19" d="M317.1,290.3c-0.6-0.1-1.1-0.1-1.8-0.3c0-5.1,0.1-10.1,0.1-15.2c0-0.4,0.1-0.9,0.1-1.3
		c0.9,1.8,1.8,3.4,2.8,5.2c0.4,3.4,0.9,6.9,1.3,10.3V289c-0.5,0.4-0.9,0.6-1.4,1C317.9,290,317.5,290.1,317.1,290.3z"/>
	<path class="st16" d="M397.3,292.4c-0.4-1.1-0.9-2.3-1.3-3.6c5.4-0.6,10.6-0.9,13,5.6C405.3,293.8,401.3,293.1,397.3,292.4z"/>
	<path class="st18" d="M225,86.8c0.4-0.4,0.8-0.8,1.1-1c0,12.6,0,25.3,0,37.9c-0.4-6.6-0.9-13.3-1.1-19.8
		C224.8,98.1,225,92.5,225,86.8z"/>
	<path class="st18" d="M1240.5,226.4c-2.8-5.2-3.3-10.1,2-14.1C1241.9,217.1,1241.3,221.8,1240.5,226.4z"/>
	<path class="st18" d="M1338.7,132.8c-6-3.6-5.9-8.7-3.6-14.4C1336.3,123.2,1337.6,127.9,1338.7,132.8z"/>
	<path class="st16" d="M1232.6,193.1c-1.4,0-2.7-0.1-4.1-0.1c-0.3-2.9-0.6-5.9-0.9-8.9C1233.1,184.9,1232.8,189,1232.6,193.1z"/>
	<path class="st20" d="M1202.8,158.1c-0.9-0.1-1.8-0.1-2.7-0.3c-2.8-2-5.6-4.2-8.4-6.3c0.4-0.4,0.8-0.6,1.1-1
		C1196.8,152.2,1204.1,149.5,1202.8,158.1z"/>
	<path class="st16" d="M463.3,178.9c-2-2-4.6-3.8-5.6-6.4c-0.5-1.1,2.2-3.6,3.3-5.5C461.7,171.1,462.5,175,463.3,178.9z"/>
	<path class="st17" d="M456.2,158.4c-8.6-1-9.2-2-6.4-9.3C452,152.2,454.2,155.2,456.2,158.4z"/>
	<path class="st18" d="M922.6,301.5c4.2-1.3,8.3-2.6,12.5-3.7C932,302.8,927.7,303.4,922.6,301.5z"/>
	<path class="st17" d="M346,268.5c5.5-5.1,7.5-5,12.3,0.5c-2.3,2-7.8-3.3-8.2,3.3C348.7,271.1,347.4,269.8,346,268.5z"/>
	<path class="st11" d="M314.4,142.9c-4.6,0.4-9.5,1.7-10.7-5C308.6,136.7,311.9,139,314.4,142.9z"/>
	<path class="st20" d="M937.5,254.4c0.8,0.9,1.4,1.9,2.2,2.8c0.1,0.3,0,0.5-0.3,0.8c-2.6,1.4-5,2.8-7.9,4.5c0-2.4,0-4.7,0-7.7
		C933.6,254.5,935.5,254.4,937.5,254.4z"/>
	<path class="st20" d="M852.2,274.4c-1,0.4-2.2,0.8-3.2,1.1c-1,0-2.2,0-3.2-0.1c1.3-2.4,2.6-4.7,3.8-7
		C850.5,270.3,851.4,272.4,852.2,274.4z"/>
	<path class="st18" d="M1264.9,254.5c-0.9-1.5-1.7-2.9-2.6-4.5c2.3-2.4,4.7-4.9,7-7.3C1267.8,246.6,1266.3,250.5,1264.9,254.5z"/>
	<path class="st18" d="M941.4,274.8c-5.9-2.8-6.6-6.8-2.3-12C939.8,266.8,940.6,270.8,941.4,274.8z"/>
	<path class="st22" d="M1260.3,272.9c-4.3-5.4-1.5-9.1,2.7-12.4C1262.1,264.6,1261.2,268.8,1260.3,272.9z"/>
	<path class="st18" d="M1176.5,157.9c-3.6,5.2-8.9,2.2-13.5,2.9C1166.5,155.8,1171.5,156.9,1176.5,157.9z"/>
	<path class="st4" d="M967.2,283.9c-0.8-0.6-2.2-1.4-2-1.8c1-4.2,2.3-8.3,3.6-12.5C969.3,274.5,971.4,279.5,967.2,283.9z"/>
	<path class="st18" d="M319.7,289c-0.4-3.4-0.9-6.9-1.3-10.3c0.6,0,1.3-0.1,1.9-0.1C321,282.1,328.1,286,319.7,289z"/>
	<path class="st18" d="M224.6,237.6c0-2.6,0-5,0-7.5C224.6,232.5,224.6,235.1,224.6,237.6z"/>
	<path class="st18" d="M320.4,270.8c0.1-1.7,0.1-3.3,0.3-5C320.6,267.5,320.6,269.2,320.4,270.8z"/>
	<path class="st12" d="M322.9,153.2c-1.1-0.9-2.2-1.7-3.3-2.6C320.6,151.4,321.7,152.3,322.9,153.2z"/>
	<path class="st18" d="M227.1,255.3c0-1.1-0.1-2.3-0.1-3.4C226.9,253,227.1,254.1,227.1,255.3z"/>
	<path class="st18" d="M224.8,245.2c0-0.8-0.1-1.7-0.1-2.4C224.6,243.6,224.6,244.4,224.8,245.2z"/>
	<path class="st11" d="M200.5,173.6c0.4,0.9,0.9,1.9,1.3,2.8C201.4,175.6,201,174.7,200.5,173.6z"/>
	<path class="st18" d="M318.3,289.9c0.5-0.4,0.9-0.6,1.4-1C319.3,289.2,318.8,289.5,318.3,289.9z"/>
	<path class="st0" d="M671.5,213c0.6-0.8,1.3-1.5,1.9-2.2c0.3,0,0.5,0.1,0.5,0.4c-0.6,0.8-1.1,1.4-1.8,2.2
		C672,213.1,671.7,213,671.5,213z"/>
	<path class="st18" d="M223.6,214.6c0.4-0.4,0.8-0.8,1.1-1.1c0.3,0.4,0.1,0.8-0.1,1.1h-0.5H223.6z"/>
	<path class="st18" d="M1113.9,217.6v0.1c0.1,0,0.3,0.1,0.4,0.1C1114.2,217.7,1114.1,217.6,1113.9,217.6z"/>
	<path class="st23" d="M1156.6,218.7c0.1-0.5,0.3-1,0.4-1.4C1157,217.7,1156.7,218.2,1156.6,218.7z"/>
	<path class="st11" d="M225.2,128c0.3-0.5,0.5-1,0.6-1.5C225.7,127,225.4,127.5,225.2,128z"/>
	<path class="st20" d="M879.9,273.7c0.5,0.3,1,0.5,1.4,0.8C880.9,274.2,880.4,273.9,879.9,273.7z"/>
	<path class="st10" d="M126.7,90.9c-0.9-6.5-1.7-13-2.6-19.4c-0.8-4.7-1.5-9.6-2.7-14.2c-0.4-1.4-2-2.9-3.3-3.3
		c-3.6-1.1-7.3-2.4-11-2.6c-24.4-0.6-48.8,0.4-72.9,4.6c-4.7,0.8-9.8,0.5-14.6-0.5c-2.8-0.6-7.8-4.1-7.5-5c1.4-4.3,3.7-8.7,6.6-12.1
		c1.1-1.4,4.9-1.3,7.3-1c28.2,3.4,56.6,4.6,85.1,2.6c6.4-0.5,12.8,0.1,19.2-0.1c5.5-0.1,11-0.9,16.5-1.1c6.5-0.4,12.6,0,19,2.9
		c4.9,2.3,11.5,1.5,17.2,1.1c7.5-0.5,15.2-2.9,21.3,3.8c0.5,0.6,0.9,1.3,1.8,2.9c-4,0.6-7.2,1.5-10.3,1.7c-8.6,0.3-17,0.1-25.5,0.1
		c-5.6,0-9.8,2-11,8.3c-1.8,10-3.8,19.8-5.9,29.6c-0.4,1.8-1,3.6-1.4,5.5c-2.3-1.7-4.5-4.6-6.9-4.7
		C139.1,89.5,132.8,90.5,126.7,90.9z"/>
	<path class="st23" d="M149.2,241.7c2.3,6.8,4.6,13.4,6.9,20.2c-1.7,8.7-14.6,16.1-24.5,14.1c-1.4-0.3-2.8-0.9-4.3-1.1
		c-3.6-0.8-9.7-0.6-10.1-2.2c-1.5-5.5-2.7-12-1-17.2c4.9-15.2,7.4-30.8,8.2-46.6c0.5-10,0.8-19.9,1-29.9c7.5-5.2,14.7-3.4,21.6,1.4
		c0,2-0.1,4.2-0.1,6.3c-0.1,0.1-0.4,0.3-0.4,0.4c0.1,0.4,0.3,0.6,0.4,1c0,3.8,0,7.5,0,11.4c0,1.3,0,2.6-0.1,3.8
		c0.9,7.5,2,14.9,2.6,22.5c0.1,3.4-0.6,7-2,10.2C145.8,238.9,146.1,240.6,149.2,241.7z"/>
	<path class="st22" d="M146.9,180.3c-6.9-4.9-14.1-6.5-21.6-1.4c0.5-20.7,0.9-41.3,1.3-62c0.1-8.7,0-17.4,0.1-26.1
		c6.1-0.4,12.4-1.4,18.5-1c2.3,0.1,4.6,3.1,6.9,4.7C149.5,123.1,152.9,151.9,146.9,180.3z"/>
	<path class="st19" d="M226.4,167.9c-3.1-1-6.3-2.2-9.3-3.2c0-4.2,0-8.3,0-12.5c0.1-1,0.3-2,0.3-1.7c3.6,0.6,6.9,1.1,10.1,1.7
		C229.6,157.5,232.6,163,226.4,167.9z"/>
	<path class="st12" d="M227.5,152.2c-3.2-0.5-6.5-1-10.1-1.7c0-0.3-0.1,0.8-0.3,1.7c-2.3-0.3-4.5-0.4-6.8-0.6
		c-2.2-6.8,0.3-10.7,6.5-12.6c2,3.6,4.6,3.1,7.4,1.1C225.3,144.1,226.3,148.1,227.5,152.2z"/>
	<path class="st19" d="M217,28.3c0.6-1,1.3-2,1.8-2.6c2,0.9,4,1.7,5.7,2.4c-0.1,4.2-0.4,8.4-0.5,12.6c-2,1.8-4,4.7-6.9,1.1
		C217,37.5,217,32.9,217,28.3z"/>
	<path class="st19" d="M217.2,110c0.1-3.1,0.4-6.1,0.5-9.2c0.5-0.1,1-0.4,1.5-0.5c1.5,3.6,3.4,7,4.3,10.9c0.4,1.9-1.3,4.2-1.9,6.4
		c-1.4-1.7-2.9-3.3-4.3-5C217.2,111.6,217.2,110.8,217.2,110z"/>
	<path class="st22" d="M146.7,203.1c0-1.3,0-2.6,0.1-3.8C146.7,200.6,146.7,201.9,146.7,203.1z"/>
	<path class="st22" d="M146.7,187.8c-0.1-0.4-0.3-0.6-0.4-1c0-0.1,0.3-0.3,0.4-0.4C146.7,186.9,146.7,187.4,146.7,187.8z"/>
	<path class="st24" d="M671.5,213c0.3,0,0.5,0.1,0.6,0.3c9.8,7.4,13.2,7.3,21.3-1.5c3.2-3.6,6.1-7.4,9.1-11.1c1.9,0,3.7,0.1,5.6,0.1
		c-5.4,11.4-11.5,22.2-15.2,34.5c-2,6.8-7.4,12.6-11.9,18.4c-1.1,1.5-5.9,2.3-7,1.3c-4.2-3.8-7.9-8.4-11.4-13.2
		c-2.9-4-5.6-8.2-7.7-12.6c-3.3-7.4-6-15.1-8.9-22.6c1.1-4.5,3.8-6,8.3-5c2.4,0.5,5,0.4,7.4,0.5c0.4,0,0.6,0.1,1,0.1
		C665.8,205.6,668.6,209.3,671.5,213z"/>
	<path class="st24" d="M559.9,192.2c-2.4,11.5-5.1,23-7.2,34.6c-1.3,7.4-1.7,15.1-2.3,22.6c-1,10.5-1.7,20.9-3.1,31.4
		c-0.8,6.3-13,13.3-19.3,11.8c-4.7-1.1-6.1-4.2-4.5-8.9c6.5-18.8,13.3-37.4,19.2-56.5c3.3-10.9,5.1-22.1,7.7-33.2
		c0.3-1.1,1.1-2.3,1.7-3.3C554.8,191,557.4,191.5,559.9,192.2z"/>
	<path class="st25" d="M602.9,125.4c-3.6-5.5-6.8-11.1-10.6-16.5c-3.7-5.1-7-5-10,0.8c-2.3,4.5-3.2,9.5-4.9,14.2
		c-2.7-0.1-5.5-0.3-8.2-0.4c1.4-8.4,2.7-16.9,4.1-25.3c0-0.8,0.1-1.7,0.1-2.4h0.4c0.1-0.1,0.5-0.3,0.4-0.4c-0.1-0.4-0.3-0.6-0.4-1
		c0-1.3,0-2.4,0-3.7c2.8-0.9,5.7-2.6,8.4-2.4c7.4,0.4,14.8,1.4,22.4,2.3c0.3,0.1,0.6,0.1,0.9,0.1c5.5,11.1,11,22.1,16.6,33.2
		C615.6,124.5,609.3,125,602.9,125.4z"/>
	<path class="st26" d="M604.7,90.6c-7.4-0.8-14.8-1.9-22.4-2.3c-2.8-0.1-5.6,1.5-8.4,2.4c-0.1-3.8-0.4-7.8-0.5-11.6
		c-0.3-0.5-0.5-1-0.8-1.5c1.3-4.1,2.7-8.3,4-12.4c6.3,0,12.5,0,18.8,0c2.2,3.4,4.3,6.8,6.5,10.2c0.4,0.5,0.8,1,1.1,1.5
		c0.5,2.9,1.1,5.7,1.7,8.7c0.3,0.5,0.6,1,0.9,1.4c0,0.8,0,1.5,0,2.2C605.2,89.7,604.9,90.2,604.7,90.6z"/>
	<path class="st27" d="M661.9,201.9c-2.4-0.1-5,0-7.4-0.5c-4.5-1-7.3,0.5-8.3,5c-5.5-10-11-19.8-16.3-29.8
		c5.1-0.9,10.2-1.8,15.5-2.7C650.8,183.1,656.3,192.4,661.9,201.9z"/>
	<path class="st28" d="M602.9,125.4c6.4-0.5,12.8-1,19.3-1.4c5.6,6.1,8.7,13.2,8,21.6c-5.4-0.6-11-3.2-15.8,1.7
		C610.5,139.9,606.7,132.6,602.9,125.4z"/>
	<path class="st14" d="M572.8,141.8c-3.2,12.4-6.4,24.7-9.6,37c-2.9,0-5.9,0-8.7,0c1.9-10,4-19.8,5.9-29.8c0.5-2.4,1.3-4.9,1.9-7.3
		C565.8,142,569.4,141.8,572.8,141.8z"/>
	<path class="st28" d="M572.8,141.8c-3.4,0-7,0-10.5,0c2.3-6.1,4.6-12.3,6.9-18.4c2.7,0.1,5.5,0.3,8.2,0.4
		C575.9,130,574.4,135.8,572.8,141.8z"/>
	<path class="st27" d="M554.6,178.9c2.9,0,5.9,0,8.7,0c-1.1,4.5-2.2,8.8-3.3,13.3c-2.6-0.5-5.1-1.1-7.7-1.7
		C553,186.5,553.8,182.7,554.6,178.9z"/>
	<path class="st12" d="M595.3,65.2c-6.3,0-12.5,0-18.8,0c1.7-4.1,3.6-8,8.7-7.4C589.7,58.4,594.7,59.1,595.3,65.2z"/>
	<path class="st21" d="M573.5,95.8c0,0.8-0.1,1.7-0.1,2.4C573.4,97.5,573.5,96.7,573.5,95.8z"/>
	<path class="st21" d="M605.5,87.2c-0.3-0.5-0.6-1-0.9-1.4C604.9,86.1,605.2,86.7,605.5,87.2z"/>
	<path class="st21" d="M602.9,76.9c-0.4-0.5-0.8-1-1.1-1.5C602.1,75.9,602.5,76.4,602.9,76.9z"/>
	<path class="st26" d="M573.9,94.6c0.1,0.4,0.3,0.6,0.4,1c0,0.1-0.3,0.3-0.4,0.4C573.9,95.5,573.9,95,573.9,94.6z"/>
	<path class="st21" d="M604.7,90.6c0.3-0.4,0.6-0.9,0.9-1.3c0,0.5,0,1,0,1.4C605.3,90.7,604.9,90.6,604.7,90.6z"/>
	<path class="st21" d="M572.5,77.7c0.3,0.5,0.5,1,0.8,1.5C573.1,78.7,572.8,78.2,572.5,77.7z"/>
	<path class="st4" d="M1112,231.2c0,2.4,0,5,0,7.4c-0.5,0.1-1.1,0.1-1.7,0.3c0-6.8,0-13.7,0.1-20.4c0.6,0.8,1.8,1.4,1.9,2.3
		c0.1,3.1,0,6.1-0.1,9.2C1112.1,230.4,1112.1,230.9,1112,231.2z"/>
	<path class="st18" d="M913,215.8c-8.6,0.5-17.1,1-25.7,1.1c-0.6,0-1.4-2.3-2.2-3.4l0.1-0.1c6.8-0.3,13.5-0.5,20.3-0.6
		c2.4,0.8,5,1.5,7.4,2.3C913,215.3,913,215.5,913,215.8z"/>
	<path class="st20" d="M939.1,278.8c0,3.3,0,6.5,0,9.8c-2.7,0-5.4,0-8.4,0c0-3.3,0-6.1,0-9.7C933.4,278.8,936.2,278.8,939.1,278.8z"
		/>
	<path class="st20" d="M913,215c-2.4-0.8-5-1.5-7.4-2.3c0.1-1.9,0.1-3.8,0.3-5.7c2.9-1.1,5.9-2.2,8.8-3.3
		C914.1,207.5,913.5,211.2,913,215z"/>
	<path class="st20" d="M915.9,246.6c0.4-1.3,0.8-2.7,1.1-4c2.8,0.9,6.4,0.9,8.2,2.8c2,2.3-1.5,4.7-5.4,3.1
		C918.6,247.9,917.3,247.2,915.9,246.6z"/>
	<path class="st18" d="M918.6,237.5c0.8-3.7,1.5-7.5,2.2-11.2C925,233.4,924.8,234.8,918.6,237.5z"/>
	<path class="st20" d="M920.8,225c-0.8-0.8-1.5-1.7-2.3-2.4c1.1-1.7,2.2-3.3,3.6-4.7c0.3-0.3,2.6,0.8,2.9,1.7
		C926.9,223.6,923.6,224.2,920.8,225z"/>
	<path class="st24" d="M821.7,235.7c-5.4,5.2-9.6,11-9.1,19.2c0.4,6.9,2.9,10.7,10.3,13.4c2.6,1.7,5.2,3.2,7.8,4.9
		c2,3.2,4,6.5,6.4,10.3c-7.2,2.8-13.7,6.3-20.8,8.2c-7,1.9-9.2-0.4-9.6-7.7c-1.4-22.6-2.7-45.3-4-68c2.3-8.3,5.2-9.6,13.4-5.9
		c0.8,0.4,1.5,0.6,2.4,0.9C819.5,219.1,820.6,227.4,821.7,235.7z"/>
	<path class="st25" d="M746.9,122.2c1-3.2,2-6.4,2.9-9.7c0.3-1.3,0.5-2.7,0.8-4c5.4-7.2,10.6-14.3,16-21.6c2.7-0.4,5.4-0.9,8-0.9
		c8.6,0.1,17.1,0.5,25.5,0.8c1.4,13.3,2.8,26.4,4.1,39.7c-4,0-7.9-0.4-11.9,0.1c-1.7,0.1-3.2,1.8-4.7,2.7c-1.5-7.8-2.7-15.8-5-23.5
		c-0.9-3.2-4.1-6.6-7-7.8c-1.4-0.5-5.4,3.3-7.3,5.9c-4.7,6.5-8.9,13.5-13.4,20.3C752.6,123.6,749.8,122.9,746.9,122.2z"/>
	<path class="st27" d="M818.5,210.9c-0.8-0.3-1.7-0.5-2.4-0.9c-8.2-3.7-11-2.4-13.4,5.9c-5.2-9.6-5.1-20.3-6.8-30.7
		c-0.6-4.2-0.8-8.6-1.1-12.8c5.4-1.4,10.7-3.8,16.3-1.3C813.6,184.5,816.1,197.7,818.5,210.9z M798.7,177.9c0.4,0.1,0.8,0.1,1.1,0.3
		c0.3-1.1,0.5-2.3,0.8-3.4c-0.5-0.1-0.9-0.1-1.4-0.3C799.1,175.4,798.8,176.7,798.7,177.9z"/>
	<path class="st28" d="M788.1,129.3c1.5-0.9,3.1-2.6,4.7-2.7c4-0.4,7.9-0.1,11.9-0.1c0.9,7.7,1.8,15.3,2.7,23
		c-5.6-0.8-10.7,0.3-15.3,3.8C790.6,145.3,789.4,137.4,788.1,129.3z"/>
	<path class="st14" d="M792,153.3c4.6-3.6,9.7-4.5,15.3-3.8c1.3,7.3,2.6,14.4,3.8,21.7c-5.7-2.4-11-0.1-16.3,1.3
		C793.8,166.1,792.9,159.7,792,153.3z"/>
	<path class="st28" d="M746.9,122.2c2.8,0.6,5.6,1.4,8.4,2c-7.3,11.5-14.6,23-21.8,34.5c-1.5-1.5-2.9-2.9-4.5-4.5
		c3.1-6.1,6.1-12.3,9.3-18.3c2.3-4.2,5-8,7.4-12.1c0.4-0.5,0.6-0.9,1-1.4L746.9,122.2z"/>
	<path class="st27" d="M708.1,200.7c-1.9,0-3.7-0.1-5.6-0.1c5.5-10.2,11-20.4,16.5-30.7c1.8,1.3,3.4,2.6,5.2,3.8
		C719,182.7,713.6,191.6,708.1,200.7z"/>
	<path class="st20" d="M830.7,273c-2.6-1.7-5.2-3.2-7.8-4.9c2.3-1.4,5.1-2.3,6.8-4.2c2-2.4,3.2-5.7,4.7-8.7c2.9,1.7,6,3.3,8.9,4.9
		c-2.6,1.4-5.1,2.7-6.5,3.4c-1,3.1-1.9,5.6-2.8,8.2C832.9,272.2,831.8,272.6,830.7,273z"/>
	<path class="st14" d="M724.3,173.6c-1.8-1.3-3.4-2.6-5.2-3.8c3.3-5.2,6.6-10.3,10-15.6c1.5,1.5,2.9,2.9,4.5,4.5
		C730.5,163.7,727.4,168.7,724.3,173.6z"/>
	<path class="st4" d="M1310.6,206.8c8.9,0,17.9,0.1,26.8,0.1c-6.5,0.6-13,1.4-19.5,1.9c-2.4,0.3-5,0-7.4-0.1
		C1310.5,208.1,1310.5,207.5,1310.6,206.8z"/>
	<path class="st22" d="M1310.6,206.8c-0.1,0.6-0.1,1.3-0.3,2c-5.2,2.9-10.5,3.4-15.3-0.8C1300.3,207.6,1305.4,207.2,1310.6,206.8z"
		/>
	<path class="st17" d="M393.8,288.3c-3.4-0.8-7-1.7-10.5-2.4c-0.4-1.5-0.8-3.2-1.1-4.6c3.8,0.8,7.5,1.5,11.9,2.4
		C393.9,284.5,393.9,286.4,393.8,288.3z"/>
	<path class="st17" d="M432,292.4c-3.4,4.2-7.4,3.1-11.5,1.4C425.4,287.4,426.3,287.3,432,292.4z"/>
	<path class="st26" d="M800.5,86.9c-8.6-0.3-17.1-0.6-25.5-0.8c-2.7,0-5.4,0.6-8,0.9c4.5-9.5,8.4-19.2,13.8-28.1
		c1.9-3.2,6.6-5,10.5-6.4c1.7-0.6,5.1,0.8,6.4,2.4c1.8,2.4,3.1,5.6,3.2,8.7C801,71.3,800.6,79.1,800.5,86.9z"/>
	<path class="st21" d="M750.8,108.5c-0.3,1.3-0.5,2.7-0.8,4c0-1.3,0-2.6,0-4C750.3,108.6,750.5,108.6,750.8,108.5z"/>
	<path class="st17" d="M356.7,187.8c0.4,0.9,0.8,1.7,1.3,2.6c0.4,0.8,0.8,1.5,1.1,2.3c0,1.4,0,2.7,0,4.1c-4.2-0.3-8.4-0.4-14.1-0.6
		C349.3,192.9,353,190.4,356.7,187.8z"/>
	<path class="st16" d="M331.9,217.3c0-1,0-1.9,0-2.9C331.9,215.4,331.9,216.4,331.9,217.3z"/>
	<path class="st10" d="M228.2,42.1c6.3,0,12.8,0.3,19.3,0c11-0.5,21.8-1.7,32.8-2c4.3-0.1,8.9,0.5,13.2,1.5c2.2,0.6,3.8,3.1,5.6,4.7
		c-2.2,2.4-4.3,7-6.6,7.2c-12.6,0.6-25.4,0.4-38.2-0.1c-6.9-0.3-13.8-1.5-20.8-2.2C228.1,50.8,226.3,48.2,228.2,42.1z"/>
	<path class="st0" d="M217,263.1c-1.1,0.4-2.4,0.8-3.6,1.1c-6,1.3-7.5,0-7.5-6.3c0-2,0.1-4.2,0.3-6.3c1.1-0.8,2.3-1.7,3.4-2.4
		c2.4,0.1,5,0.1,7.4,0.3C217.1,253.9,217.1,258.5,217,263.1z"/>
	<path class="st12" d="M217.1,249.3c-2.4-0.1-5-0.1-7.4-0.3c0-0.6,0.1-1.5-0.1-1.8c-4.9-5.5-0.6-6.9,3.7-8c1.1-0.4,2.4-0.3,3.7-0.4
		c1.4,0.5,2.8,0.9,4.1,1.4c0.3,1.8,0.6,3.7,0.9,5.5C218.6,244.7,217.1,245.9,217.1,249.3z"/>
	<path class="st12" d="M217.2,214.6c1.8,0,3.6,0.1,5.2,0.1c-0.5,2.2-1.1,4.2-1.7,6.4c-1.3,1.3-2.6,2.6-3.7,3.7
		c-6.3,0.5-8.3-2.6-7.2-8.3C212.6,215.9,214.9,215.3,217.2,214.6z"/>
	<path class="st19" d="M217.1,225c1.3-1.3,2.6-2.6,3.7-3.7c0,6.3,0.1,12.6,0.1,18.9c-1.4-0.5-2.8-0.9-4.1-1.4
		C217,234.2,217.1,229.6,217.1,225z"/>
	<path class="st12" d="M219.9,200.6c-0.9,0.5-1.9,1-2.8,1.4c-1-0.1-2.4,0.3-3.1-0.4c-1.9-1.9-3.6-4.1-5.4-6.3c1.7-1.4,3.2-2.8,5-4
		c1-0.6,2.3-0.8,3.4-1.1c0,0.6,0.1,1.1,0.1,1.8C218.1,194.8,219,197.7,219.9,200.6z"/>
	<path class="st6" d="M434.3,155c-5.7,2.8-9.1-2.8-13.8-4c-0.1-0.9-0.3-1.8-0.4-2.7c3.2-3.1,6.8-2.9,10.6-1.4
		C435.4,148,436.7,150.6,434.3,155z"/>
	<path class="st17" d="M461.3,185.1c0,1,0,1.9-0.1,2.9c-2.2-1-4.3-2.2-6.6-2.9c-2.8-0.9-5.7-1.5-8.6-2.3c0-1.8,0-3.4,0-5.2
		C453.2,175.9,456.5,182.1,461.3,185.1z"/>
	<path class="st16" d="M445.9,177.6c0,1.8,0,3.4,0,5.2c-1.8,0.8-3.6,1.5-5.5,2.3c0.3-5.1,0.4-10.2,0.6-15.2
		C446.4,170.2,445.6,174.3,445.9,177.6z"/>
	<path class="st17" d="M430.7,146.9c-3.8-1.5-7.4-1.7-10.6,1.4c-0.8-0.4-1.5-0.9-2.3-1.3c1.3-1.8,2.6-3.4,4-5.2
		c2.6-0.4,5.1-0.8,7.7-1.1C429.8,142.7,430.2,144.9,430.7,146.9z"/>
	<path class="st25" d="M746.9,122.4c-0.4,0.5-0.6,0.9-1,1.4C746.2,123.3,746.6,122.8,746.9,122.4z"/>
	<path class="st20" d="M1144.7,180.2c0.1-2,0.3-4,0.4-6c1.5-0.5,3.1-1,5-1.7c1.1,3.2,2.3,6,3.3,8.9
		C1150.6,180.9,1147.6,180.5,1144.7,180.2z"/>
	<path class="st19" d="M327.5,234.1c-1,1.5-2,3.1-2.9,4.6c-3.1-0.6-6.9,4.3-9.3-1.3c-0.3-4.2-0.5-8.3-0.8-12.5
		c0.1-0.4,0.3-0.8,0.1-1.1c0-0.9,0.1-1.9,0.1-2.8c0.8-7.5,1.5-15.2,2.2-22.7c1.9,3.7,4.6,3.8,7.9,2c3.7,8,3.7,8-7.8,20.9
		C320.6,225.2,330.2,225.2,327.5,234.1z"/>
	<path class="st19" d="M324.9,177.1c0.8,5.2,1.5,10.6,2.3,15.8c-3.8-0.5-7.5-1-11.4-1.5c-0.1-6.3-0.3-12.6-0.4-18.9
		C317.5,176.3,320.1,179,324.9,177.1z"/>
	<path class="st12" d="M324.9,177.1c-4.9,1.9-7.4-0.8-9.5-4.6c-1.5-0.8-3.1-1.5-4.6-2.3c1.4-1.8,2.9-3.7,4.3-5.5
		c3.1,1,6.3,1.9,9.3,2.9C324.8,170.7,324.8,173.9,324.9,177.1z"/>
	<path class="st12" d="M315.8,191.4c3.8,0.5,7.5,1,11.4,1.5c4.3,4.1-2.2,4.6-2.4,7.3c-3.3,1.8-6,1.5-7.9-2
		C316.6,195.9,316.2,193.7,315.8,191.4z"/>
	<path class="st12" d="M314.7,220.9c0,0.9-0.1,1.9-0.1,2.8C314.7,222.7,314.7,221.8,314.7,220.9z"/>
	<path class="st6" d="M1144.8,227.3c0-2-0.1-4.1-0.1-6.1c2.8-0.4,5.7-0.8,8.6-1.1c0,2.4,0,4.9,0,7.3
		C1150.5,227.3,1147.6,227.3,1144.8,227.3z"/>
	<path class="st18" d="M857.4,263.6c12.6,2.6,24.8-0.5,36.9-2.8c-3.4,1.7-6.8,3.4-10.3,5c-2.2,0.9-4.5,1.3-6.8,1.9
		c-2.8,0.3-5.6,0.5-8.4,0.8C865.1,266.8,859.4,269.8,857.4,263.6z"/>
	<path class="st19" d="M217.1,249.3c0.1-3.3,1.7-4.7,4.9-3.7c0.9,6.3,1.8,12.4,2.7,18.6c-2.6-0.4-5-0.8-7.5-1.1
		C217.1,258.5,217.1,253.9,217.1,249.3z"/>
	<path class="st17" d="M421.7,190.2c1.3,0,2.6,0.1,3.8,0.1c1.7,0.1,3.4,0.1,5.1,0.3c1.3,2.4,2.4,5,3.7,7.4c-5,0-10.1,0-15.1-0.1
		C420.1,195.2,421,192.8,421.7,190.2z"/>
	<path class="st16" d="M430.8,190.5c-1.7-0.1-3.4-0.1-5.1-0.3c5-1.8,10.1-3.6,15.1-5.4C441,193.2,434.5,189.5,430.8,190.5z"/>
	<path class="st17" d="M456.1,195.5c-4.2,0.4-8.4,0.8-12.6,1.1C448.9,190,451,189.7,456.1,195.5z"/>
	<path class="st16" d="M417.8,146.9c0.8,0.4,1.5,0.9,2.3,1.3c0.1,0.9,0.3,1.8,0.4,2.7c-1,0-1.9,0-2.9,0c-4.9,0-9.8,0.1-14.7,0.1
		c-0.6-0.1-1.4-0.3-2-0.5c2-3.4,4.3-5.7,9.1-4.1C412.2,147.5,415.1,146.9,417.8,146.9z"/>
	<path class="st16" d="M396.6,151.2c-2.7,1-5.4,2-8.2,3.1c-0.4-1.5-0.9-3.2-1.3-4.7C390.7,148.3,394,147.3,396.6,151.2z"/>
	<path class="st17" d="M399.6,189.1c1.4,0.4,2.8,0.8,4.2,1.1c2.2,2.6,4.2,5,6.4,7.5c-0.5,0.9-0.9,1.8-1.4,2.7
		c-7.2,0-14.4-0.1-21.6-0.1C391.3,196.6,395.4,192.8,399.6,189.1z"/>
	<path class="st16" d="M359,192.7c-0.4-0.8-0.8-1.5-1.1-2.3c11,0,22,0.1,33,0.1c-3.3,0.9-6.6,1.9-10,2.4c-3.4,0.5-6.9,0.3-10.3,0.3
		C366.7,193.1,362.9,192.8,359,192.7z"/>
	<path class="st0" d="M315.5,274.8c0,5.1-0.1,10.1-0.1,15.2c-4.1-0.9-8-1.7-12.1-2.6c0.1-2,0.4-4.1,0.5-6.3c0.9-3.2,1.8-6.4,2.7-9.6
		C309.7,272.9,312.5,273.8,315.5,274.8z"/>
	<path class="st2" d="M905.8,207c-0.1,1.9-0.1,3.8-0.3,5.7c-6.8,0.3-13.5,0.5-20.3,0.6c3.3-1.8,6.5-4,10-5.1
		C898.6,207.2,902.3,207.4,905.8,207z"/>
	<path class="st6" d="M410.2,197.8c-2.2-2.6-4.2-5-6.4-7.5c6,0,12-0.1,17.9-0.1c-0.9,2.6-1.7,5.1-2.6,7.7
		C416.2,197.8,413.2,197.8,410.2,197.8z"/>
	<path class="st18" d="M1112,231.2c0-0.5,0.1-0.9,0.1-1.4C1112.1,230.4,1112.1,230.9,1112,231.2z"/>
	<path class="st14" d="M798.7,177.9c0.1-1.1,0.4-2.4,0.5-3.6c0.5,0.1,0.9,0.1,1.4,0.3c-0.3,1.1-0.5,2.3-0.8,3.4
		C799.4,178,799.1,177.9,798.7,177.9z"/>
	<path class="st6" d="M402.8,151.2c4.9,0,9.8-0.1,14.7-0.1C412.7,151,407.8,151,402.8,151.2z"/>
</g>
<g id="Layer_2">
</g>
<g id="Layer_3">
</g>
</svg>
